<?xml version="1.0" encoding="UTF-8"?>
<svg id="Layer_1" data-name="Layer 1" xmlns="http://www.w3.org/2000/svg" viewBox="0 0 195.99 181.95">
  <defs>
    <style>
      .cls-1 {
        fill: #99cf91;
      }

      .cls-2 {
        stroke-width: 2.57px;
      }

      .cls-2, .cls-3 {
        fill: none;
        stroke: #231f20;
        stroke-linecap: round;
        stroke-miterlimit: 10;
      }

      .cls-3 {
        stroke-width: 2.8px;
      }
    </style>
  </defs>
  <path class="cls-1" d="M66.28,182.13c-2.31-33.6-2.91-69.33-1.09-106.94.71-14.69,1.76-29.06,3.1-43.08,1.06-11.07,10.91-19.96,23.34-20.68,1.17-.07,2.35-.09,3.54-.05.38.01.76.03,1.13.05,12.4.73,22.21,9.7,23.2,20.75,1.33,14.88,2.34,30.14,2.98,45.76,1.5,36.58.8,71.38-1.46,104.19"/>
  <path class="cls-1" d="M117.82,107.39c.88.07,4.3.24,7.43-1.91.14-.1.28-.2.41-.3,2.03-1.54,3.12-3.87,3.11-6.27-.03-4.41.04-8.99.25-13.73.32-7.29.93-14.21,1.72-20.72.19-1.56.86-3.05,1.96-4.27,2.2-2.43,5.4-3.97,8.89-4.17,4.32-.24,8.47,1.63,10.99,4.83.76.96,1.25,2.07,1.5,3.22,1.32,6.19,2.37,13.31,2.71,21.21.49,11.11-.54,20.95-2.06,29.14-.55,2.94-2.81,5.4-5.91,6.4-3.24,1.04-6.92,2.02-11,2.78-8.11,1.51-15.23,1.69-20.69,1.45"/>
  <path class="cls-1" d="M68.68,127.48c-.89.07-4.36.24-7.52-1.91-.14-.1-.28-.2-.42-.3-2.05-1.54-3.16-3.87-3.15-6.27.03-4.41-.04-8.99-.26-13.73-.33-7.29-.94-14.21-1.75-20.72-.19-1.56-.87-3.05-1.99-4.27-2.23-2.43-5.47-3.97-9-4.17-4.37-.24-8.58,1.63-11.13,4.83-.77.96-1.27,2.07-1.52,3.22-1.34,6.19-2.4,13.31-2.75,21.21-.49,11.11.54,20.95,2.09,29.14.55,2.94,2.84,5.4,5.99,6.4,3.28,1.04,7.01,2.02,11.14,2.78,8.21,1.51,15.42,1.69,20.95,1.45"/>
  <line class="cls-2" x1="109.87" y1="45.86" x2="99.39" y2="54.24"/>
  <line class="cls-3" x1="104.63" y1="57.93" x2="105.15" y2="60.97"/>
  <path class="cls-2" d="M86.34,79.5c.6-5.27,4.57-9.1,8.91-8.83,4.03.25,7.46,3.96,7.99,8.83"/>
  <line class="cls-2" x1="78.44" y1="45.86" x2="88.92" y2="54.24"/>
  <line class="cls-3" x1="83.94" y1="58.59" x2="83.42" y2="61.63"/>
</svg>