<?xml version="1.0" encoding="UTF-8"?>
<svg id="Layer_1" data-name="Layer 1" xmlns="http://www.w3.org/2000/svg" viewBox="0 0 195.99 181.95">
  <defs>
    <style>
      .cls-1 {
        fill: #fbe491;
      }

      .cls-2 {
        fill: #a67366;
      }

      .cls-3 {
        fill: none;
        stroke: #231f20;
        stroke-linecap: round;
        stroke-miterlimit: 10;
        stroke-width: 3px;
      }
    </style>
  </defs>
  <path class="cls-1" d="M93.39,10.99h6.97c5.27,0,9.55,4.28,9.55,9.55v36.6c0,.59-.48,1.06-1.06,1.06h-24.04c-.59,0-1.06-.48-1.06-1.06V20.65c0-5.33,4.33-9.65,9.65-9.65Z"/>
  <path class="cls-1" d="M38.99,67.68h6.97c5.27,0,9.55,4.28,9.55,9.55v36.6c0,.59-.48,1.06-1.06,1.06h-24.04c-.59,0-1.06-.48-1.06-1.06v-36.49c0-5.33,4.33-9.65,9.65-9.65Z" transform="translate(-48.87 133.7) rotate(-90)"/>
  <path class="cls-1" d="M144.4,67.68h24.04c.59,0,1.06.48,1.06,1.06v36.6c0,5.27-4.28,9.55-9.55,9.55h-6.97c-5.33,0-9.65-4.33-9.65-9.65v-36.49c0-.59.48-1.06,1.06-1.06Z" transform="translate(65.14 247.71) rotate(-90)"/>
  <path class="cls-1" d="M86.66,123.75h24.04c.59,0,1.06.48,1.06,1.06v36.6c0,5.27-4.28,9.55-9.55,9.55h-6.97c-5.33,0-9.65-4.33-9.65-9.65v-36.49c0-.59.48-1.06,1.06-1.06Z"/>
  <path class="cls-1" d="M63.95,19.52h6.97c5.27,0,9.55,4.28,9.55,9.55v36.6c0,.59-.48,1.06-1.06,1.06h-24.04c-.59,0-1.06-.48-1.06-1.06V29.18c0-5.33,4.33-9.65,9.65-9.65Z" transform="translate(-12.54 39.47) rotate(-30)"/>
  <path class="cls-1" d="M43.49,37.9h6.97c5.27,0,9.55,4.28,9.55,9.55v36.6c0,.59-.48,1.06-1.06,1.06h-24.04c-.59,0-1.06-.48-1.06-1.06v-36.49c0-5.33,4.33-9.65,9.65-9.65Z" transform="translate(-29.8 71.39) rotate(-60)"/>
  <path class="cls-1" d="M41.68,97.03h6.97c5.27,0,9.55,4.28,9.55,9.55v36.6c0,.59-.48,1.06-1.06,1.06h-24.04c-.59,0-1.06-.48-1.06-1.06v-36.49c0-5.33,4.33-9.65,9.65-9.65Z" transform="translate(-36.8 220.02) rotate(-120)"/>
  <path class="cls-1" d="M65.72,117.49h6.97c5.27,0,9.55,4.28,9.55,9.55v36.6c0,.59-.48,1.06-1.06,1.06h-24.04c-.59,0-1.06-.48-1.06-1.06v-36.49c0-5.33,4.33-9.65,9.65-9.65Z" transform="translate(58.48 297.85) rotate(-150)"/>
  <path class="cls-1" d="M127.27,117.46h6.97c5.27,0,9.55,4.28,9.55,9.55v36.6c0,.59-.48,1.06-1.06,1.06h-24.04c-.59,0-1.06-.48-1.06-1.06v-36.49c0-5.33,4.33-9.65,9.65-9.65Z" transform="translate(314.42 197.88) rotate(150)"/>
  <path class="cls-1" d="M146.59,94.89h6.97c5.27,0,9.55,4.28,9.55,9.55v36.6c0,.59-.48,1.06-1.06,1.06h-24.04c-.59,0-1.06-.48-1.06-1.06v-36.49c0-5.33,4.33-9.65,9.65-9.65Z" transform="translate(327.65 47.81) rotate(120)"/>
  <path class="cls-1" d="M142.87,35.75h6.97c5.27,0,9.55,4.28,9.55,9.55v36.6c0,.59-.48,1.06-1.06,1.06h-24.04c-.59,0-1.06-.48-1.06-1.06v-36.49c0-5.33,4.33-9.65,9.65-9.65Z" transform="translate(124.55 -97.02) rotate(60)"/>
  <path class="cls-1" d="M122.25,17.38h6.97c5.27,0,9.55,4.28,9.55,9.55v36.6c0,.59-.48,1.06-1.06,1.06h-24.04c-.59,0-1.06-.48-1.06-1.06V27.04c0-5.33,4.33-9.65,9.65-9.65Z" transform="translate(37.33 -57.35) rotate(30)"/>
  <circle class="cls-2" cx="98.51" cy="91.29" r="51.46"/>
  <g>
    <path class="cls-3" d="M67.17,87.41c.67-5.41,5.1-9.35,9.95-9.07,4.5.26,8.33,4.07,8.93,9.07"/>
    <path class="cls-3" d="M111.31,87.41c.67-5.41,5.1-9.35,9.95-9.07,4.5.26,8.33,4.07,8.93,9.07"/>
    <path class="cls-3" d="M88.77,94.92c.67,5.41,5.1,9.35,9.95,9.07,4.5-.26,8.33-4.07,8.93-9.07"/>
  </g>
</svg>