<?xml version="1.0" encoding="UTF-8"?>
<svg id="Layer_1" data-name="Layer 1" xmlns="http://www.w3.org/2000/svg" viewBox="0 0 195.99 181.95">
  <defs>
    <style>
      .cls-1 {
        fill: #d2b0d4;
      }

      .cls-2 {
        fill: none;
        stroke: #231f20;
        stroke-linecap: round;
        stroke-miterlimit: 10;
        stroke-width: 3px;
      }
    </style>
  </defs>
  <ellipse class="cls-1" cx="103.76" cy="45.5" rx="17.33" ry="38.31"/>
  <path class="cls-1" d="M132.83,79.5c-11.95,18.32-28.36,29.74-36.65,25.5s-5.32-22.53,6.62-40.85c11.95-18.32,28.36-29.74,36.65-25.5,8.29,4.24,5.32,22.53-6.62,40.85Z"/>
  <path class="cls-1" d="M74.15,79.5c11.95,18.32,28.36,29.74,36.65,25.5,8.29-4.24,5.32-22.53-6.62-40.85-11.95-18.32-28.36-29.74-36.65-25.5-8.29,4.24-5.32,22.53,6.62,40.85Z"/>
  <path class="cls-1" d="M147.99,110.08c-11.95,18.32-28.36,29.74-36.65,25.5s-5.32-22.53,6.62-40.85c11.95-18.32,28.36-29.74,36.65-25.5,8.29,4.24,5.32,22.53-6.62,40.85Z"/>
  <path class="cls-1" d="M59.27,110.9c13.22,17.62,30.4,28.11,38.38,23.42,7.97-4.69,3.72-22.78-9.5-40.4-13.22-17.62-30.4-28.11-38.38-23.42-7.97,4.69-3.72,22.78,9.5,40.4Z"/>
  <path class="cls-1" d="M154.86,147.93c-14.08,17.09-32.32,26.54-40.74,21.11s-3.83-23.7,10.25-40.79c14.08-17.09,32.32-26.54,40.74-21.11,8.42,5.44,3.83,23.7-10.25,40.79Z"/>
  <path class="cls-1" d="M52.81,148.74c13.71,17.33,31.81,27.05,40.43,21.7,8.62-5.34,4.5-23.73-9.21-41.06-13.71-17.33-31.81-27.05-40.43-21.7s-4.5,23.73,9.21,41.06Z"/>
  <ellipse class="cls-1" cx="103.12" cy="155.62" rx="34.07" ry="19.15"/>
  <ellipse class="cls-1" cx="97.75" cy="106.22" rx="29.92" ry="46.63"/>
  <line class="cls-2" x1="85.13" y1="135.44" x2="119.8" y2="135.04"/>
  <path class="cls-2" d="M72.42,121.75c.74-6.06,5.65-10.46,11.02-10.15,4.98.29,9.22,4.55,9.89,10.15"/>
  <path class="cls-2" d="M114.2,121.75c.74-6.06,5.65-10.46,11.02-10.15,4.98.29,9.22,4.55,9.89,10.15"/>
</svg>