<?xml version="1.0" encoding="UTF-8"?>
<svg id="Layer_1" data-name="Layer 1" xmlns="http://www.w3.org/2000/svg" viewBox="0 0 195.99 181.95">
  <defs>
    <style>
      .cls-1 {
        fill: #8bb2df;
      }

      .cls-2 {
        fill: #6f81c0;
      }

      .cls-3 {
        fill: none;
        stroke: #231f20;
        stroke-linecap: round;
        stroke-miterlimit: 10;
        stroke-width: 3px;
      }
    </style>
  </defs>
  <path class="cls-2" d="M97.2,74.38c-4.75,1-5.45-12.35-20.45-29.06-15.01-16.71-28.2-18.83-26.7-23.45,2.25-6.89,35.72-14.68,50.65,1.94s3.6,49.07-3.5,50.56Z"/>
  <path class="cls-2" d="M106.32,76.79c4.75,1,5.45-12.35,20.45-29.06,15.01-16.71,28.2-18.83,26.7-23.45-2.25-6.89-35.72-14.68-50.65,1.94-14.92,16.62-3.6,49.07,3.5,50.56Z"/>
  <path class="cls-2" d="M85.8,78.84c-3.66,3.19-10.77-8.14-32.01-15.43-21.24-7.3-33.8-2.73-34.74-7.5-1.39-7.12,24.07-30.2,45.19-22.95,21.13,7.26,27.02,41.12,21.55,45.88Z"/>
  <path class="cls-2" d="M115.3,78.84c3.66,3.19,10.77-8.14,32.01-15.43,21.24-7.3,33.8-2.73,34.74-7.5,1.39-7.12-24.07-30.2-45.19-22.95-21.13,7.26-27.02,41.12-21.55,45.88Z"/>
  <path class="cls-2" d="M77.95,91.87c-2.43,4.21-12.83-4.2-35.29-4.2s-32.86,8.4-35.29,4.2c-3.63-6.28,12.95-36.39,35.29-36.39s38.91,30.11,35.29,36.39Z"/>
  <path class="cls-2" d="M73.95,103.51c-.88,4.36-11.79,1.74-29.97,9.95-18.23,8.23-23.66,18.26-27.24,16.07-5.7-3.49-2.8-35.56,16.86-43.49,18.59-7.5,41.71,10.79,40.36,17.47Z"/>
  <path class="cls-2" d="M85.59,120.06c-.11,4.46-8.64,4.55-25.43,15.53-18.46,12.06-22.48,21.31-26.86,19.5-7.46-3.07-10.79-35.98,7.22-47.58,17.64-11.36,45.28,4.46,45.07,12.55Z"/>
  <path class="cls-2" d="M117.49,90.29c2.45,4.12,12.93-4.11,35.56-4.11s33.11,8.23,35.56,4.11c3.65-6.15-13.05-35.64-35.56-35.64-22.51,0-39.22,29.49-35.56,35.64Z"/>
  <path class="cls-2" d="M122.04,101.91c.87,4.33,11.79,1.68,29.97,9.95,18.18,8.27,23.45,18.28,27.24,16.07,5.98-3.48,4.21-34.94-14.86-43.66-19.12-8.75-43.73,10.81-42.36,17.64Z"/>
  <path class="cls-2" d="M110.4,118.45c.07,4.2,11.39,3.49,27.98,14.72,16.53,11.18,20.05,21.87,24.31,20.31,6.5-2.37,9.91-31.47-5.67-43.6-17.07-13.3-46.73,1.75-46.63,8.57Z"/>
  <path class="cls-2" d="M100.59,140.6c-.94,2.84-2.78,5.71-6.46,11.43-9,14-13.5,21-18.08,20.75-7.56-.42-15.9-20.35-12.93-38.45,3.2-19.5,14.19-33.91,24.53-32.17,10.19,1.71,17.87,23.45,12.93,38.45Z"/>
  <path class="cls-2" d="M136.86,134.01c6.38,17.09,2.15,38.3-5.26,40.26-5.53,1.46-13.6-7.56-25.29-20.63-2.66-2.98-4.02-4.5-4.98-6.09-8.32-13.75-4.39-36.58,5.26-40.26,9.81-3.74,23.36,8.23,30.27,26.73Z"/>
  <ellipse class="cls-1" cx="100.48" cy="86.91" rx="47.92" ry="40.6"/>
  <path class="cls-3" d="M69.58,82.34c.66,5.45,5.08,9.4,9.91,9.12,4.48-.26,8.29-4.09,8.89-9.12"/>
  <path class="cls-3" d="M113.54,82.34c.66,5.45,5.08,9.4,9.91,9.12,4.48-.26,8.29-4.09,8.89-9.12"/>
  <path class="cls-3" d="M91.09,108.39c.66-5.45,5.08-9.4,9.91-9.12,4.48.26,8.29,4.09,8.89,9.12"/>
</svg>