<?xml version="1.0" encoding="UTF-8"?>
<svg id="Layer_1" data-name="Layer 1" xmlns="http://www.w3.org/2000/svg" viewBox="0 0 195.99 272.79">
  <defs>
    <style>
      .cls-1 {
        fill: #99cf91;
      }

      .cls-2 {
        fill: #a67366;
      }

      .cls-3 {
        stroke-width: 3.13px;
      }

      .cls-3, .cls-4 {
        fill: none;
        stroke: #231f20;
        stroke-linecap: round;
        stroke-miterlimit: 10;
      }

      .cls-4 {
        stroke-width: 3.41px;
      }
    </style>
  </defs>
  <path class="cls-1" d="M65.46,261.06c-2.81-40.92-3.54-84.41-1.33-130.21.86-17.89,2.14-35.38,3.77-52.45,1.29-13.48,13.29-24.3,28.42-25.18,1.42-.08,2.86-.1,4.31-.06.46.01.92.03,1.37.06,15.1.89,27.04,11.8,28.24,25.27,1.62,18.12,2.85,36.7,3.63,55.72,1.82,44.54.98,86.91-1.78,126.86"/>
  <path class="cls-1" d="M128.22,170.06c1.07.08,5.24.29,9.05-2.32.17-.12.34-.24.5-.36,2.47-1.88,3.8-4.71,3.78-7.63-.04-5.37.05-10.95.31-16.72.39-8.88,1.13-17.3,2.1-25.23.23-1.9,1.05-3.72,2.39-5.2,2.68-2.96,6.58-4.84,10.82-5.08,5.26-.29,10.31,1.98,13.38,5.88.92,1.17,1.52,2.51,1.82,3.92,1.61,7.54,2.88,16.21,3.3,25.83.59,13.52-.65,25.51-2.51,35.48-.67,3.58-3.42,6.57-7.2,7.79-3.95,1.27-8.43,2.46-13.4,3.39-9.87,1.84-18.54,2.06-25.19,1.77"/>
  <path class="cls-1" d="M68.39,194.52c-1.08.08-5.31.29-9.16-2.32-.18-.12-.34-.24-.51-.36-2.5-1.88-3.85-4.71-3.83-7.63.04-5.37-.05-10.95-.31-16.72-.4-8.88-1.14-17.3-2.12-25.23-.24-1.9-1.06-3.72-2.42-5.2-2.71-2.96-6.66-4.84-10.96-5.08-5.33-.29-10.44,1.98-13.55,5.88-.93,1.17-1.54,2.51-1.85,3.92-1.63,7.54-2.92,16.21-3.34,25.83-.6,13.52.66,25.51,2.54,35.48.68,3.58,3.46,6.57,7.29,7.79,4,1.27,8.53,2.46,13.57,3.39,10,1.84,18.78,2.06,25.51,1.77"/>
  <line class="cls-3" x1="118.54" y1="95.14" x2="105.78" y2="105.34"/>
  <line class="cls-4" x1="112.16" y1="109.84" x2="112.79" y2="113.54"/>
  <path class="cls-3" d="M89.9,136.1c.73-6.42,5.56-11.08,10.85-10.75,4.9.3,9.08,4.82,9.73,10.75"/>
  <line class="cls-3" x1="80.27" y1="95.14" x2="93.04" y2="105.34"/>
  <line class="cls-4" x1="86.97" y1="110.64" x2="86.34" y2="114.34"/>
  <path class="cls-2" d="M37.18,272.99c1.36-12.63,10.42-21.81,20.33-21.16,9.19.6,17.01,9.49,18.24,21.16"/>
  <path class="cls-2" d="M118.8,272.99c1.51-14.06,11.59-24.26,22.62-23.55,10.22.67,18.93,10.56,20.29,23.55"/>
  <path class="cls-2" d="M126.51,272.99c-2.03-22.12-15.54-38.17-30.34-37.04-13.71,1.05-25.38,16.61-27.21,37.04"/>
</svg>