<?xml version="1.0" encoding="UTF-8"?>
<svg id="Layer_1" data-name="Layer 1" xmlns="http://www.w3.org/2000/svg" viewBox="0 0 195.99 272.79">
  <defs>
    <style>
      .cls-1 {
        fill: #fbe491;
      }

      .cls-2 {
        fill: #a67366;
      }

      .cls-3 {
        fill: none;
        stroke: #231f20;
        stroke-linecap: round;
        stroke-miterlimit: 10;
        stroke-width: 3px;
      }
    </style>
  </defs>
  <path class="cls-2" d="M107.23,223.31c-1.59,27.13,3.75,39.4-6.09,43.76-5.39,2.39-14.01,1.81-18.48-1.66-8.7-6.76,5.36-18.99,7.54-43.61,2.17-24.46-9.3-39.6.29-44.26,4.37-2.12,11.33-1.2,15.59,1.36,9.38,5.65,2.73,17.54,1.16,44.41Z"/>
  <path class="cls-2" d="M34.56,272.93c1.36-12.63,10.42-21.81,20.33-21.16,9.19.6,17.01,9.49,18.24,21.16"/>
  <path class="cls-2" d="M116.18,272.93c1.51-14.06,11.59-24.26,22.62-23.55,10.22.67,18.93,10.56,20.29,23.55"/>
  <path class="cls-2" d="M123.89,272.93c-2.03-22.12-15.54-38.17-30.34-37.04-13.71,1.05-25.38,16.61-27.21,37.04"/>
  <path class="cls-1" d="M93.8,46.06h6.97c5.27,0,9.55,4.28,9.55,9.55v36.6c0,.59-.48,1.06-1.06,1.06h-24.04c-.59,0-1.06-.48-1.06-1.06v-36.49c0-5.33,4.33-9.65,9.65-9.65Z"/>
  <path class="cls-1" d="M39.4,102.74h6.97c5.27,0,9.55,4.28,9.55,9.55v36.6c0,.59-.48,1.06-1.06,1.06h-24.04c-.59,0-1.06-.48-1.06-1.06v-36.49c0-5.33,4.33-9.65,9.65-9.65Z" transform="translate(-83.52 169.17) rotate(-90)"/>
  <path class="cls-1" d="M144.81,102.74h24.04c.59,0,1.06.48,1.06,1.06v36.6c0,5.27-4.28,9.55-9.55,9.55h-6.97c-5.33,0-9.65-4.33-9.65-9.65v-36.49c0-.59.48-1.06,1.06-1.06Z" transform="translate(30.49 283.18) rotate(-90)"/>
  <path class="cls-1" d="M87.07,158.82h24.04c.59,0,1.06.48,1.06,1.06v36.6c0,5.27-4.28,9.55-9.55,9.55h-6.97c-5.33,0-9.65-4.33-9.65-9.65v-36.49c0-.59.48-1.06,1.06-1.06Z"/>
  <path class="cls-1" d="M64.36,54.59h6.97c5.27,0,9.55,4.28,9.55,9.55v36.6c0,.59-.48,1.06-1.06,1.06h-24.04c-.59,0-1.06-.48-1.06-1.06v-36.49c0-5.33,4.33-9.65,9.65-9.65Z" transform="translate(-30.01 44.37) rotate(-30)"/>
  <path class="cls-1" d="M43.9,72.96h6.97c5.27,0,9.55,4.28,9.55,9.55v36.6c0,.59-.48,1.06-1.06,1.06h-24.04c-.59,0-1.06-.48-1.06-1.06v-36.49c0-5.33,4.33-9.65,9.65-9.65Z" transform="translate(-59.96 89.27) rotate(-60)"/>
  <path class="cls-1" d="M42.09,132.09h6.97c5.27,0,9.55,4.28,9.55,9.55v36.6c0,.59-.48,1.06-1.06,1.06h-24.04c-.59,0-1.06-.48-1.06-1.06v-36.49c0-5.33,4.33-9.65,9.65-9.65Z" transform="translate(-66.55 272.97) rotate(-120)"/>
  <path class="cls-1" d="M66.13,152.55h6.97c5.27,0,9.55,4.28,9.55,9.55v36.6c0,.59-.48,1.06-1.06,1.06h-24.04c-.59,0-1.06-.48-1.06-1.06v-36.49c0-5.33,4.33-9.65,9.65-9.65Z" transform="translate(41.71 363.49) rotate(-150)"/>
  <path class="cls-1" d="M127.68,152.53h6.97c5.27,0,9.55,4.28,9.55,9.55v36.6c0,.59-.48,1.06-1.06,1.06h-24.04c-.59,0-1.06-.48-1.06-1.06v-36.49c0-5.33,4.33-9.65,9.65-9.65Z" transform="translate(332.71 263.11) rotate(150)"/>
  <path class="cls-1" d="M147,129.95h6.97c5.27,0,9.55,4.28,9.55,9.55v36.6c0,.59-.48,1.06-1.06,1.06h-24.04c-.59,0-1.06-.48-1.06-1.06v-36.49c0-5.33,4.33-9.65,9.65-9.65Z" transform="translate(358.63 100.05) rotate(120)"/>
  <path class="cls-1" d="M143.28,70.82h6.97c5.27,0,9.55,4.28,9.55,9.55v36.6c0,.59-.48,1.06-1.06,1.06h-24.04c-.59,0-1.06-.48-1.06-1.06v-36.49c0-5.33,4.33-9.65,9.65-9.65Z" transform="translate(155.12 -79.84) rotate(60)"/>
  <path class="cls-1" d="M122.66,52.44h6.97c5.27,0,9.55,4.28,9.55,9.55v36.6c0,.59-.48,1.06-1.06,1.06h-24.04c-.59,0-1.06-.48-1.06-1.06v-36.49c0-5.33,4.33-9.65,9.65-9.65Z" transform="translate(54.92 -52.86) rotate(30)"/>
  <circle class="cls-2" cx="98.92" cy="126.35" r="51.46"/>
  <g>
    <path class="cls-3" d="M67.58,122.47c.67-5.41,5.1-9.35,9.95-9.07,4.5.26,8.33,4.07,8.93,9.07"/>
    <path class="cls-3" d="M111.72,122.47c.67-5.41,5.1-9.35,9.95-9.07,4.5.26,8.33,4.07,8.93,9.07"/>
    <path class="cls-3" d="M89.18,129.98c.67,5.41,5.1,9.35,9.95,9.07,4.5-.26,8.33-4.07,8.93-9.07"/>
  </g>
</svg>