<?xml version="1.0" encoding="UTF-8"?>
<svg id="Layer_1" data-name="Layer 1" xmlns="http://www.w3.org/2000/svg" viewBox="0 0 195.99 272.79">
  <defs>
    <style>
      .cls-1 {
        fill: #d2b0d4;
      }

      .cls-2 {
        fill: #b285bc;
      }

      .cls-3 {
        fill: #a67366;
      }

      .cls-4 {
        fill: none;
        stroke: #231f20;
        stroke-linecap: round;
        stroke-miterlimit: 10;
        stroke-width: 3px;
      }
    </style>
  </defs>
  <ellipse class="cls-1" cx="98.07" cy="71.07" rx="17.33" ry="38.31"/>
  <path class="cls-1" d="M127.13,105.07c-11.95,18.32-28.36,29.74-36.65,25.5s-5.32-22.53,6.62-40.85c11.95-18.32,28.36-29.74,36.65-25.5s5.32,22.53-6.62,40.85Z"/>
  <path class="cls-1" d="M68.46,105.07c11.95,18.32,28.36,29.74,36.65,25.5s5.32-22.53-6.62-40.85c-11.95-18.32-28.36-29.74-36.65-25.5s-5.32,22.53,6.62,40.85Z"/>
  <path class="cls-1" d="M142.3,135.66c-11.95,18.32-28.36,29.74-36.65,25.5-8.29-4.24-5.32-22.53,6.62-40.85,11.95-18.32,28.36-29.74,36.65-25.5s5.32,22.53-6.62,40.85Z"/>
  <path class="cls-1" d="M53.58,136.48c13.22,17.62,30.4,28.11,38.38,23.42s3.72-22.78-9.5-40.4c-13.22-17.62-30.4-28.11-38.38-23.42s-3.72,22.78,9.5,40.4Z"/>
  <path class="cls-2" d="M109.17,215.01c-1.59,27.13,3.75,39.4-6.09,43.76-5.39,2.39-14.01,1.81-18.48-1.66-8.7-6.76,5.36-18.99,7.54-43.61,2.17-24.46-9.3-39.6.29-44.26,4.37-2.12,11.33-1.2,15.59,1.36,9.38,5.65,2.73,17.54,1.16,44.41Z"/>
  <path class="cls-3" d="M36.32,272.71c1.36-12.63,10.42-21.81,20.33-21.16,9.19.6,17.01,9.49,18.24,21.16"/>
  <path class="cls-3" d="M117.94,272.71c1.51-14.06,11.59-24.26,22.62-23.55,10.22.67,18.93,10.56,20.29,23.55"/>
  <path class="cls-3" d="M125.66,272.71c-2.03-22.12-15.54-38.17-30.34-37.04-13.71,1.05-25.38,16.61-27.21,37.04"/>
  <path class="cls-1" d="M149.17,173.5c-14.08,17.09-32.32,26.54-40.74,21.11s-3.83-23.7,10.25-40.79,32.32-26.54,40.74-21.11,3.83,23.7-10.25,40.79Z"/>
  <path class="cls-1" d="M47.12,174.32c13.71,17.33,31.81,27.05,40.43,21.7,8.62-5.34,4.5-23.73-9.21-41.06s-31.81-27.05-40.43-21.7c-8.62,5.34-4.5,23.73,9.21,41.06Z"/>
  <ellipse class="cls-1" cx="97.42" cy="181.19" rx="34.07" ry="19.15"/>
  <ellipse class="cls-1" cx="92.05" cy="131.8" rx="29.92" ry="46.63"/>
  <line class="cls-4" x1="79.43" y1="161.02" x2="114.1" y2="160.62"/>
  <path class="cls-4" d="M66.72,147.33c.74-6.06,5.65-10.46,11.02-10.15,4.98.29,9.22,4.55,9.89,10.15"/>
  <path class="cls-4" d="M108.5,147.33c.74-6.06,5.65-10.46,11.02-10.15,4.98.29,9.22,4.55,9.89,10.15"/>
</svg>