<?xml version="1.0" encoding="UTF-8"?>
<svg id="Layer_1" data-name="Layer 1" xmlns="http://www.w3.org/2000/svg" viewBox="0 0 195.99 272.79">
  <defs>
    <style>
      .cls-1 {
        fill: #8bb2df;
      }

      .cls-2 {
        fill: #6f81c0;
      }

      .cls-3 {
        fill: #a67366;
      }

      .cls-4 {
        fill: none;
        stroke: #231f20;
        stroke-linecap: round;
        stroke-miterlimit: 10;
        stroke-width: 3px;
      }
    </style>
  </defs>
  <path class="cls-1" d="M115.33,212.13c-1.59,27.13,3.75,39.4-6.09,43.76-5.39,2.39-14.01,1.81-18.48-1.66-8.7-6.76,5.36-18.99,7.54-43.61,2.17-24.46-9.3-39.6.29-44.26,4.37-2.12,11.33-1.2,15.59,1.36,9.38,5.65,2.73,17.54,1.16,44.41Z"/>
  <path class="cls-3" d="M41.32,272.93c1.36-12.63,10.42-21.81,20.33-21.16,9.19.6,17.01,9.49,18.24,21.16"/>
  <path class="cls-3" d="M122.94,272.93c1.51-14.06,11.59-24.26,22.62-23.55,10.22.67,18.93,10.56,20.29,23.55"/>
  <path class="cls-3" d="M130.66,272.93c-2.03-22.12-15.54-38.17-30.34-37.04-13.71,1.05-25.38,16.61-27.21,37.04"/>
  <path class="cls-2" d="M101.12,113.92c-4.75,1-5.45-12.35-20.45-29.06-15.01-16.71-28.2-18.83-26.7-23.45,2.25-6.89,35.72-14.68,50.65,1.94s3.6,49.07-3.5,50.56Z"/>
  <path class="cls-2" d="M110.25,116.33c4.75,1,5.45-12.35,20.45-29.06,15.01-16.71,28.2-18.83,26.7-23.45-2.25-6.89-35.72-14.68-50.65,1.94-14.92,16.62-3.6,49.07,3.5,50.56Z"/>
  <path class="cls-2" d="M89.72,118.38c-3.66,3.19-10.77-8.14-32.01-15.43-21.24-7.3-33.8-2.73-34.74-7.5-1.39-7.12,24.07-30.2,45.19-22.95,21.13,7.26,27.02,41.12,21.55,45.88Z"/>
  <path class="cls-2" d="M119.23,118.38c3.66,3.19,10.77-8.14,32.01-15.43,21.24-7.3,33.8-2.73,34.74-7.5,1.39-7.12-24.07-30.2-45.19-22.95-21.13,7.26-27.02,41.12-21.55,45.88Z"/>
  <path class="cls-2" d="M81.87,131.4c-2.43,4.21-12.83-4.2-35.29-4.2s-32.86,8.4-35.29,4.2c-3.63-6.28,12.95-36.39,35.29-36.39s38.91,30.11,35.29,36.39Z"/>
  <path class="cls-2" d="M77.88,143.05c-.88,4.36-11.79,1.74-29.97,9.95-18.23,8.23-23.66,18.26-27.24,16.07-5.7-3.49-2.8-35.56,16.86-43.49,18.59-7.5,41.71,10.79,40.36,17.47Z"/>
  <path class="cls-2" d="M89.52,159.59c-.11,4.46-8.64,4.55-25.43,15.53-18.46,12.06-22.48,21.31-26.86,19.5-7.46-3.07-10.79-35.98,7.22-47.58,17.64-11.36,45.28,4.46,45.07,12.55Z"/>
  <path class="cls-2" d="M121.42,129.82c2.45,4.12,12.93-4.11,35.56-4.11s33.11,8.23,35.56,4.11c3.65-6.15-13.05-35.64-35.56-35.64-22.51,0-39.22,29.49-35.56,35.64Z"/>
  <path class="cls-2" d="M125.96,141.44c.87,4.33,11.79,1.68,29.97,9.95,18.18,8.27,23.45,18.28,27.24,16.07,5.98-3.48,4.21-34.94-14.86-43.66-19.12-8.75-43.73,10.81-42.36,17.64Z"/>
  <path class="cls-2" d="M114.33,157.99c.07,4.2,11.39,3.49,27.98,14.72,16.53,11.18,20.05,21.87,24.31,20.31,6.5-2.37,9.91-31.47-5.67-43.6-17.07-13.3-46.73,1.75-46.63,8.57Z"/>
  <path class="cls-2" d="M104.52,180.13c-.94,2.84-2.78,5.71-6.46,11.43-9,14-13.5,21-18.08,20.75-7.56-.42-15.9-20.35-12.93-38.45,3.2-19.5,14.19-33.91,24.53-32.17,10.19,1.71,17.87,23.45,12.93,38.45Z"/>
  <path class="cls-2" d="M140.78,173.54c6.38,17.09,2.15,38.3-5.26,40.26-5.53,1.46-13.6-7.56-25.29-20.63-2.66-2.98-4.02-4.5-4.98-6.09-8.32-13.75-4.39-36.58,5.26-40.26,9.81-3.74,23.36,8.23,30.27,26.73Z"/>
  <ellipse class="cls-1" cx="104.41" cy="126.44" rx="47.92" ry="40.6"/>
  <path class="cls-4" d="M73.5,121.87c.66,5.45,5.08,9.4,9.91,9.12,4.48-.26,8.29-4.09,8.89-9.12"/>
  <path class="cls-4" d="M117.46,121.87c.66,5.45,5.08,9.4,9.91,9.12,4.48-.26,8.29-4.09,8.89-9.12"/>
  <path class="cls-4" d="M95.01,147.92c.66-5.45,5.08-9.4,9.91-9.12,4.48.26,8.29,4.09,8.89,9.12"/>
</svg>