<?xml version="1.0" encoding="UTF-8"?>
<svg id="Layer_1" data-name="Layer 1" xmlns="http://www.w3.org/2000/svg" viewBox="0 0 195.99 272.79">
  <defs>
    <style>
      .cls-1 {
        fill: #f26a42;
      }

      .cls-2 {
        fill: #f79e80;
      }

      .cls-3 {
        fill: #a67366;
      }

      .cls-4 {
        fill: none;
        stroke: #231f20;
        stroke-linecap: round;
        stroke-miterlimit: 10;
        stroke-width: 3.04px;
      }
    </style>
  </defs>
  <path class="cls-2" d="M106.63,218.99c-1.59,27.13,3.75,39.4-6.09,43.76-5.39,2.39-14.01,1.81-18.48-1.66-8.7-6.76,5.36-18.99,7.54-43.61,2.17-24.46-9.3-39.6.29-44.26,4.37-2.12,11.33-1.2,15.59,1.36,9.38,5.65,2.73,17.54,1.16,44.41Z"/>
  <path class="cls-3" d="M31.58,272.89c1.36-12.63,10.42-21.81,20.33-21.16,9.19.6,17.01,9.49,18.24,21.16"/>
  <path class="cls-3" d="M113.2,272.89c1.51-14.06,11.59-24.26,22.62-23.55,10.22.67,18.93,10.56,20.29,23.55"/>
  <path class="cls-3" d="M120.92,272.89c-2.03-22.12-15.54-38.17-30.34-37.04-13.71,1.05-25.38,16.61-27.21,37.04"/>
  <path class="cls-1" d="M75.99,157.4c6.79,0,12.3-21.55,12.3-48.14,0-25.65-7.35-48.31-12.3-48.13-3.4.12-4.42,10.97-9.32,11.14-2.31.08-3.35-2.28-10.8-9.12-6.15-5.65-7.48-5.91-8.19-5.55-2.23,1.12,1.33,8.35-1.68,11.1-3.66,3.35-12.85-3.73-15.5-1.06-2.06,2.08.86,9.02,5.52,15.95,10.2,15.2,19.58,16.71,27.67,25.66,16.97,18.77,7.87,48.13,12.3,48.13Z"/>
  <path class="cls-1" d="M107.45,147.09c-6.77.62-14.22-20.34-16.65-46.81-2.34-25.55,2.91-48.78,7.85-49.06,3.39-.19,5.4,10.52,10.29,10.25,2.3-.13,3.13-2.58,9.92-10.07,5.61-6.19,6.91-6.57,7.65-6.28,2.32.91-.56,8.43,2.69,10.9,3.95,3,12.46-4.89,15.34-2.47,2.24,1.88-.04,9.06-4.04,16.39-8.77,16.07-17.97,18.43-25.21,28.08-15.19,20.24-3.44,48.65-7.85,49.06Z"/>
  <path class="cls-1" d="M81.92,123.2c.87,6.74,22.95,9.43,49.32,6,25.44-3.3,46.97-13.51,46.15-18.39-.56-3.35-11.45-2.97-12.25-7.8-.38-2.28,1.83-3.62,7.65-11.88,4.81-6.83,4.9-8.18,4.45-8.84-1.4-2.07-8.1,2.39-11.23-.24-3.79-3.2,2.04-13.23-.95-15.51-2.33-1.77-8.84,2.02-15.11,7.53-13.76,12.08-14.05,21.56-21.89,30.74-16.43,19.25-46.72,14-46.15,18.39Z"/>
  <path class="cls-1" d="M81.92,122.79c2.32-6.39,24.45-4.22,49.44,4.85,24.12,8.75,42.91,23.39,41.06,27.98-1.27,3.15-11.82.41-13.65,4.96-.86,2.14,1,3.93,4.89,13.26,3.21,7.71,3.01,9.05,2.42,9.6-1.81,1.71-7.39-4.1-11.01-2.21-4.4,2.3-.88,13.36-4.29,14.93-2.66,1.23-8.19-3.89-13.12-10.63-10.81-14.77-9.03-24.1-14.69-34.76-11.86-22.35-42.57-23.81-41.06-27.98Z"/>
  <path class="cls-1" d="M104.06,117.69c5.59,3.86-2.14,24.72-17.26,46.59-14.59,21.1-33.53,35.56-37.49,32.6-2.72-2.03,2.6-11.54-1.32-14.46-1.85-1.38-4.05-.03-14.07,1.36-8.27,1.15-9.51.61-9.9-.09-1.2-2.19,5.84-6.11,4.93-10.09-1.11-4.84-12.69-4.24-13.35-7.95-.51-2.88,5.84-6.93,13.61-9.98,17.04-6.7,25.6-2.61,37.35-5.37,24.63-5.79,33.85-35.12,37.49-32.6Z"/>
  <path class="cls-1" d="M111.92,109.78c-6.5-1.96-18,17.08-25.67,42.54-7.4,24.56-6.9,48.38-2.12,49.64,3.29.86,7.4-9.23,12.14-7.98,2.23.59,2.55,3.15,7.71,11.85,4.26,7.19,5.45,7.82,6.24,7.68,2.46-.43,1.13-8.37,4.81-10.14,4.47-2.15,11.23,7.28,14.54,5.49,2.57-1.4,1.78-8.89-.68-16.87-5.38-17.5-13.92-21.65-19.09-32.56-10.83-22.87,6.36-48.36,2.12-49.64Z"/>
  <path class="cls-1" d="M109.01,136.06c0,6.79-21.55,12.3-48.13,12.3s-48.31-7.35-48.13-12.3c.12-3.4,10.97-4.42,11.14-9.32.08-2.31-2.28-3.35-9.12-10.8-5.65-6.15-5.91-7.48-5.55-8.19,1.12-2.23,8.35,1.33,11.1-1.68,3.35-3.66-3.73-12.85-1.06-15.5,2.08-2.06,9.02.86,15.95,5.52,15.2,10.2,16.71,19.58,25.66,27.67,18.77,16.97,48.13,7.87,48.13,12.3Z"/>
  <path class="cls-2" d="M135.52,131.67c-1.73,12.74-3,22.16-10.57,30.86-.93,1.07-13.87,15.46-33.15,13.82-20.33-1.74-33.74-20.13-37.39-36-.71-3.1-2.79-12.7.99-23.69,7.44-21.68,30.57-28.27,36.4-29.67,4.37-1.05,28.43-6.82,40.03,6.98,7.58,9.01,5.86,21.65,3.69,37.7Z"/>
  <path class="cls-4" d="M114.81,130.45c-1.15-.72-3.18-1.99-5.77-3.56-4.48-2.72-5.71-3.35-5.75-4.48-.03-.92.75-1.7,5.35-4.76,2.51-1.67,4.64-3.01,6.17-3.96"/>
  <path class="cls-4" d="M77.59,130.45c1.15-.72,3.18-1.99,5.77-3.56,4.48-2.72,5.71-3.35,5.75-4.48.03-.92-.75-1.7-5.35-4.76-2.51-1.67-4.64-3.01-6.17-3.96"/>
  <path class="cls-4" d="M83.36,148.42c.84-6.26,6.44-10.81,12.57-10.49,5.68.3,10.52,4.7,11.28,10.49"/>
</svg>