<?xml version="1.0" encoding="UTF-8"?>
<svg id="Layer_1" data-name="Layer 1" xmlns="http://www.w3.org/2000/svg" viewBox="0 0 260.55 262.85">
  <defs>
    <style>
      .cls-1 {
        fill: #231f20;
      }
    </style>
  </defs>
  <g>
    <path class="cls-1" d="M69.03,181.63c-.72.13-1.44.26-2.16.39l-.21.04c-.44-.08-.89.05-1.35.19-.36.06-.78.09-1.14.15l-.36.06c-.63.06-1.25.12-1.87.23-.57.05-1.09.14-1.66.24l-1.34.24c-.67.12-1.36.14-2.03.26-.72.13-1.44.26-2.15.44-.52.09-1.02.24-1.54.33-.3.11-.66.17-.96.28-.4.12-.77.14-1.14.15-.21.04-.35.12-.51.14-.64,0-1.24.22-1.85.33-.37.01-.78.09-1.15.1-.31.06-.32,0-.38-.36-.07-.09-.09-.2-.16-.29-.21-.28-.21-.6-.22-.92,0-.05.03-.11.08-.17.33-.22.59-.58.98-.76.21-.04.4-.12.63-.06.11.03.22.07.33.05l2.32-.41c.3-.11.6-.21.91-.27.15-.03.3-.11.45-.13.45-.13.97-.23,1.42-.36l1.39-.25c.35-.12.73-.08,1.13-.2l.1-.02c.28.11.53.01.79-.03.31-.06.63-.06.99-.12.36-.06.73-.08,1.08-.19.04-.06.09-.07.14-.08.27,0,.47-.03.73-.08.35-.12.72-.13,1.09-.14.37-.01.77-.14,1.13-.2.52-.09,1.08-.19,1.61-.23l1.34-.24c.27,0,.45-.13.72-.13.47-.03.88-.16,1.34-.24.32,0,.56-.15.83-.1.1-.02.15-.03.25-.1l.21-.04c.44.08.78-.09,1.14-.15.37-.01.77-.14,1.11-.04l.15-.03c.36-.06.71-.18,1.11-.3.1-.02.26-.05.42-.02l.77-.14c.16.02.27,0,.37-.01.05,0,.11.03.1-.02.29-.16.63-.06.98-.17.25-.1.57-.1.83-.1.36-.06.66-.17.97-.23.26-.05.5-.2.78-.09.4-.12.76.08,1.12.33.07.09.19.18.3.21.12.08.14.19.11.3-.16.29-.26.63-.48.88-.19.14-.38.23-.58.32-.04.06-.15.08-.2.09-.17.24-.38.23-.65.22-.27,0-.46.08-.72.13-.61.16-1.27.33-1.89.44-.26.05-.45.13-.72.13-.62.11-.65.22-.46.72.08.46.21.87.34,1.32l.34,1.91c.02.42.04.84.11,1.2.04.52.08,1.05.28,1.54.07.09.05.26.06.36s.05.26.12.35c.21.28.22.65.34,1,.06.36.13.72.29,1.01.07.09.09.2.11.3.02.1.09.2.16.29.03.15.14.19.29.16l1.49-.27c.26-.05.52-.09.83-.1.05,0,.15-.03.25-.1.49-.25,1.01-.29,1.54-.28.05,0,.16.02.28.11l.31.26c.11.03.23.12.36.2.05,0,.1-.02.11.03.4.14.51.49.31.85l-.38.55c-.17.24-.39.5-.75.56-.52.09-.96.28-1.47.42-.1.02-.15.03-.25.1-.05,0-.15.08-.21.04-.42.02-.82.2-1.18.26-.37.01-.71.18-1.06.3l-.21.04c-.93.16-1.71.52-2.56.83-.29.16-.55.2-.86.26l-1.29.23c-.63.06-1.2.11-1.81.27s-1.24.22-1.84.38c-.88.16-1.76.26-2.69.43l-1.44.26c-.31.05-.63.06-.94.11-.42.02-.83.09-1.2.11-.42.02-.83.1-1.24.22-.21.04-.46.08-.73.08-.63.06-1.21.06-1.85.06-.52.04-1.04.13-1.6.23-.58.05-1.18.21-1.75.31-.68.07-1.36.14-1.98.19l-.82.15c-.21.04-.39.18-.59.26-.29.16-.48-.02-.72-.14-.11-.03-.08-.15-.04-.21.02-.16,0-.27-.12-.35-.21-.28-.42-.56-.53-.86-.03-.15.02-.21.11-.28.13-.18.25-.36.32-.59.07-.22.2-.36.42-.34.05,0,.15-.03.25-.1.26-.05.52-.04.71.14.11.03.17.02.32,0,.15-.08.35-.12.56-.15.21-.04.46-.08.68-.07,1.19-.16,2.37-.42,3.55-.63.26-.05.58-.05.84-.04l1.01-.02c.1-.02.21-.04.32,0,.33.05.69-.02.99-.12.09-.07.15-.08.2-.09.22.07.37-.01.52-.09.05,0,.04-.06.09-.07.42-.02.89-.05,1.31-.13l.26-.05c.21.02.47-.03.68-.07.06.04.11.03.16.02.25-.1.51-.14.79-.03.1-.02.25-.1.34-.17.34-.17.7-.23,1.09-.14.28.06.51-.09.77-.14.15-.03.3-.11.4-.13.31-.06.61-.16.92-.22.26-.05.58-.05.83-.1.41-.07.77-.14,1.17-.26.46-.08.92-.22,1.39-.25.42-.02.81-.2,1.23-.27.04-.06.09-.07.2-.09.41-.07.81-.2,1.21-.38.25-.1.45-.19.7-.23.2-.09.19-.14.15-.35-.02-.42-.14-.77-.31-1.17-.1-.25-.09-.52-.15-.82-.08-.15-.11-.3-.19-.45l-.05-.26c-.13-.45-.22-.92-.3-1.38-.13-.72-.2-1.4-.26-2.08-.03-.47-.11-.94-.19-1.35-.15-.82-.4-1.63-.64-2.38-.05-.26-.16-.29-.36-.25-.77.14-1.49.27-2.27.4v-.05Z"/>
    <path class="cls-1" d="M58.97,164.94c.37-.02.68-.09.99-.11l1.41-.09s.06.05.1,0c.57-.14,1.2-.02,1.78-.06.36-.02.74.11,1.11.09.27.14.53.07.79.06.21-.01.42.03.63.07.27.14.59.17.9.2.53.07,1.11.19,1.65.42.16.09.32.14.48.18.33.19.6.33.87.52.11.05.17.15.22.2.06.15.17.25.34.35.16.04.27.19.34.35.18.3.41.66.48,1.02.07.26.14.51.26.72.06.21.18.41.35.61,0,.05.06.1.11.15.12.2.07.31-.07.48-.05.06-.15.11-.2.22-.1.06-.14.22-.14.32-.04.26-.13.48-.22.7-.05.11.02.26-.14.32,0,0-.05.11,0,.16.06.15.02.26-.03.37-.14.22-.23.49-.43.66-.05.11-.09.22-.19.33,0,0,0,.05-.05.11-.48.71-1.02,1.32-1.89,1.53l-.56.19c-.46.13-.92.32-1.33.45l-.26.02c-.15.06-.31.07-.46.13-.1,0-.21.01-.36.08-.42.03-.83.1-1.3.19l-.73.05c-.68,0-1.42-.02-2.1-.08-.74-.06-1.43-.17-2.11-.29-.42-.03-.85-.1-1.27-.18-.37-.08-.69-.11-1.01-.25-.48-.18-1.01-.3-1.55-.48-.27-.09-.59-.28-.86-.42-.11-.05-.16-.09-.22-.14-.75-.22-1.25-.76-1.91-1.19-.27-.14-.44-.39-.62-.69-.17-.25-.35-.5-.62-.64-.16-.09-.22-.25-.34-.45-.06-.15-.02-.26.08-.32l.1-.11c.41-.08.44-.5.58-.77l.28-.49c.29-.44.57-.93.96-1.32.29-.33.58-.72.98-1.01.15-.11.35-.23.55-.35s.4-.24.6-.41c.3-.23.61-.3.92-.42.21-.06.36-.18.56-.24.41-.13.82-.31,1.23-.44.46-.13.87-.26,1.29-.24ZM58.4,166.71c-.21.06-.42.03-.62.09-.51.19-1.02.43-1.48.62-.26.07-.52.14-.71.31-.5.35-.89.84-1.33,1.29-.25.28-.17.64.06.89.17.15.28.35.35.55.19.46.47.81.9,1.04.11.05.22.14.27.19.12.31.34.4.6.43.64.17,1.28.44,1.92.61.59.22,1.22.29,1.81.46.58.12,1.11.09,1.69.16.53.07,1.05.04,1.53.17h.16c.21-.02.46-.14.68,0,0,.05.1,0,.16,0,.57-.04,1.15-.07,1.72-.16.67-.1,1.3-.19,1.91-.38.21-.07.31-.12.45-.29.15-.11.24-.28.34-.49.33-.65.28-1.38.24-2.06-.02-.31-.09-.62-.21-.88-.13-.46-.31-.82-.7-1.11-.28-.24-.6-.43-.88-.73-.22-.2-.54-.33-.86-.42l-1.54-.32c-.32-.03-.63-.07-1.01-.15-.21-.04-.47.03-.73,0-.37.02-.73,0-1.1-.04-.47-.02-1-.09-1.52.04-.41.08-.83.1-1.26.03h-.1c-.2.18-.46.14-.72.16Z"/>
    <path class="cls-1" d="M51.52,147.63c.47.04.94.02,1.41.06l.21-.04c.27-.14.58,0,.84.01.16-.04.36.03.52.09.25.12.52.09.78.06l1.22-.22c.21-.04.42-.02.59-.11.43-.12.85-.14,1.27-.16l.53-.11c.7-.21,1.4-.41,2.13-.46.47-.01.95-.03,1.43-.15.37-.08.8-.09,1.16-.12.21-.04.48-.07.69-.1l1.12-.23c.05,0,.11-.04.16-.04.16.01.36.08.52.04l.59-.11c.21.02.37-.02.58-.06l2.03-.42c.59-.11,1.23-.27,1.82-.43.43-.18.92-.29,1.44-.3.21.02.37-.07.38-.23.01-.16-.14-.22-.35-.24-.46-.09-.93-.23-1.39-.32-.46-.09-.98-.24-1.44-.38-.51-.15-1.03-.24-1.49-.43-.2-.07-.36-.13-.51-.15l-2.26-.6c-.72-.16-1.49-.33-2.27-.5l-2.01-.47c-.36-.08-.73-.11-1.09-.19h-.16c-.61-.27-1.23-.32-1.86-.42l-1.03-.24c-.46-.14-.97-.29-1.5-.33-.46-.09-.93-.23-1.39-.27-.42.02-.78-.11-1.14-.2-.15-.06-.31-.08-.52-.09-.05,0-.16-.01-.26-.07-.62-.1-1.29-.26-1.91-.41-.37.07-.67-.16-.98-.18-.36-.03-.67-.11-.98-.18-.36-.08-.77-.17-1.14-.2-.15-.06-.26-.02-.42.02-.16.04-.32.03-.52-.04-.1,0-.2-.07-.31-.08-.16.04-.3-.13-.46-.19,0-.05-.05-.06-.04-.11.02-.26-.16-.59.07-.89.11-.1.12-.25.28-.29.27-.03.43-.18.69-.1l.36.03c.42.03.83.07,1.25.1h.05c.53-.11,1.04.14,1.56.13,0-.05.06-.05.1,0l1.08.24c.1.06.2.07.36.08.37-.02.73,0,1.09.19.05,0,.16.01.26.07l.94.08c.05,0,.16.01.2.07.41.14.88.17,1.29.21h.16c.09.18.2.13.36.09l.42.03c.83.17,1.6.34,2.43.4.16.01.26.02.41.09.31.03.68.05,1.04.14.1,0,.26.07.36.13.36.08.72.21,1.13.3.36.03.78.11,1.14.14.05,0,.05.06.1.06.52.04.98.24,1.49.33.26.07.52.09.78.11.15.06.26.07.41.14l.26.02c.15.06.31.08.41.09.05.06.15.06.2.07.38-.13.68.05,1.03.19.25.13.56.25.81.33.15.06.31.08.46.19h.16s.11-.03.1.02c.2.17.41.09.62.1.41.09.77.22,1.17.41.35.19.76.32,1.18.36.21.02.36.08.51.15.05.06.15.12.25.13.2.07.41.09.67.16.05,0,.1.06.15.06.63.05,1.18.3,1.8.51.26.07.46.14.73.11.16-.04.26.02.36.08.2.12.36.13.56.2.1,0,.26.07.36.13.29.29.58.62.76,1,.04.16.08.27-.03.36-.23.24-.35.5-.63.63l-.11.1c-.59.16-1.14.49-1.72.54-.32.08-.59.16-.87.35-.28.24-.65.31-.97.34-.53.06-1.01.18-1.5.35-.17.09-.38.13-.54.17-.58.06-1.12.23-1.65.34-.27.14-.59.16-.91.19-.69.1-1.33.21-2.02.31l-.95.08c-.11.04-.27.08-.43.12l-1.48.2c-.48.07-1,.03-1.48.2-.37.07-.74.1-1.11.12l-.48.12c-.48.12-.96.19-1.49.25-.58.06-1.16.12-1.75.28-.05,0-.16.04-.17.14-.01.16.09.22.19.22.2.07.41.14.67.21l.87.23c.36.08.72.21,1.07.4.05.06.15.06.26.07.53-.01,1.04.08,1.56.23.41.08.87.23,1.34.32.1.06.15.06.26.02.32-.03.62.1.93.23.1.06.2.07.31.08.15.06.26.07.41.09.05,0,.1.06.16.01.32-.13.62.15.98.18,0,0,.05,0,.05.06.29.29.66.31.96.5l.61.21c.31.08.61.26.92.28.1,0,.2.07.25.13.3.18.61.26.93.23.21.02.42-.02.62.1.05.06.1.06.15.06.37-.07.67.11.97.29.56.2,1.12.46,1.69.55.15.06.31.08.46.19.3.13.61.21.93.18.21-.04.37-.02.57.1.25.18.56.15.81.38.05,0,.1.06.16.01.21-.04.36.08.5.25l.63.63c.14.17.14.27.02.42-.11.1-.17.2-.34.29-.22.14-.49.27-.77.46h-.1c-.58,0-1.11.11-1.65.28,0,0-.06.05-.11.04-.79.04-1.55.35-2.34.39-.21-.02-.43.07-.59.11-.32.03-.58.06-.89.03l-1.33.26c-.42.07-.8.15-1.22.11-.2-.07-.41-.09-.58,0,0,.05-.06.05-.11.04-.41-.09-.84-.01-1.26.06-.1,0-.16-.01-.21.04-.59.11-1.17.17-1.75.28-.11.04-.16.04-.21.04-.84-.01-1.58.08-2.37.18-.11.04-.26-.02-.37.02l-.31-.03c-.43.07-.85.14-1.27.16-.26-.02-.52-.04-.79.04-.06.05-.21-.02-.26-.02-.16.04-.26.03-.37.02-.21.04-.37.02-.58.06l-.79.09c-.53.06-1.05.07-1.58.14-1.64.18-3.3,0-4.92-.13l-3.08-.25c-.21-.02-.41-.09-.62-.15-.21-.02-.41-.09-.57-.05-.42-.03-.61-.21-.74-.53-.23-.44-.1-.74.09-1.09.05,0,.06-.05.06-.05.32-.08.5-.38.77-.51.33-.13.7-.21,1.06-.18.21-.04.47-.01.68,0,.05-.05.16-.04.21.02.15.06.37.03.52.04.64-.06,1.26,0,1.88.15.41.09.78.11,1.19.15.1,0,.21.02.32-.03.22-.09.47-.01.74-.05h.16c.53-.05,1.05.04,1.57.03.16.01.36.03.57.1.1,0,.21.02.26.02l.68.05c.05,0,.1.06.16.01.33-.13.68,0,1-.03.16-.04.26-.03.37-.07.37-.02.74-.1,1.06-.13.26-.03.48-.12.69-.1l1.09.09c.1,0,.26.02.42.03h.05c.27-.03.58,0,.85-.09.21-.04.48-.07.68,0,.2.07.37-.07.59-.11.32-.08.59-.22.91-.24.32-.03.68,0,.99.03.62.1,1.25.1,1.89-.06.06-.05.16.01.26.02.21.02.42.03.69-.05.22-.14.49-.17.75-.15.31.03.63.05.95-.03.11-.04.21-.04.37-.02.26.07.52-.01.79-.09.1,0,.22-.09.22-.14,0-.1-.1-.11-.2-.12-.3-.13-.61-.21-.92-.28-.82-.22-1.6-.39-2.37-.56l-1.24-.26-.36-.03c-.72-.21-1.44-.38-2.16-.59-.52-.09-1.04-.14-1.55-.28-.15-.06-.36-.08-.56-.15-.41-.19-.82-.28-1.29-.31-.41-.09-.88-.17-1.28-.36l-.42-.03c-.26-.02-.47-.04-.67-.11l-.82-.22c-.41-.14-.76-.27-1.11-.51-.4-.19-.76-.32-1.17-.41-.36-.08-.67-.21-.97-.29l-1.96-.47c-.57-.15-1.12-.4-1.62-.71-.14-.27-.45-.3-.64-.52-.1-.11-.25-.18-.4-.19-.21-.02-.3-.13-.34-.34l-.17-.54c-.08-.27.16-.72.38-.86l.16-.09c.23-.3.55-.27.86-.25.37-.02.68,0,1.05-.02Z"/>
    <path class="cls-1" d="M85.76,112.77c-.15-.06-.34-.14-.54-.33-.3-.23-.62-.42-.97-.67l-1.24-.83c-.27-.16-.54-.33-.84-.45-.18-.13-.37-.2-.56-.28-.05-.02-.1-.04-.13-.11-.15-.06-.22-.15-.37-.2-.56-.28-1.08-.54-1.62-.87-.13-.11-.48-.08-.6.1-.13.17-.27.4-.25.63-.08.19-.11.41-.26.52-.07.03-.11.13-.13.17-.05.26-.14.51-.26.8-.1.24-.21.53-.36.76-.04.1-.03.21-.02.33.04.18,0,.45-.04.66-.1.24-.17.44-.22.7-.05.26-.12.57-.11.85-.06.15-.05.26-.04.38,0,.17.05.3.2.36.36.09.73.29,1.06.31.07-.03.12-.01.17,0,.47.24.99.34,1.45.46l.1.04c.52.26,1.06.31,1.63.43.34.14.65.2,1.01.29l.69.11c.07-.03.14-.06.18-.04.39.15.77.19,1.14.4.24.1.33.3.47.52-.02.05.01.12,0,.17-.13.17-.25.35-.44.39-.17,0-.27.12-.38.24-.29.45-.75.6-1.29.55l-.1-.04c-.13-.11-.29-.12-.41-.11-.18.04-.4.01-.58.05-.12.01-.21-.03-.33-.02-.18.04-.38-.04-.52-.1-.26-.05-.54-.05-.76-.08-.15-.06-.31-.07-.41-.11-.7-.22-1.37-.38-2.01-.46-.05-.02-.07.03-.12,0-.4-.27-.93-.2-1.42-.4l-1.42-.4c-.17,0-.37.08-.48-.08-.52-.1-.99-.34-1.48-.53l-3.59-1.43c-.49-.19-.93-.48-1.42-.68-.08-.09-.19-.08-.22-.15-.39-.16-.71-.34-1.08-.54-.34-.14-.71-.34-1.03-.52-.29-.12-.51-.26-.79-.43-.1-.04-.18-.13-.27-.16l-1.01-.57c-.56-.28-1.2-.53-1.79-.88-.27-.16-.64-.37-.87-.63-.25-.21-.51-.43-.76-.64l-1.61-1.32c-.25-.21-.44-.46-.69-.67-.45-.29-.77-.76-1.13-1.13l-.2-.19c-.16-.17-.31-.35-.45-.57-.03-.07-.06-.14-.14-.22-.2-.19-.3-.51-.47-.81-.01-.12-.09-.2-.2-.36-.23-.26-.23-.54.08-.76.11-.13.15-.22.11-.41-.1-.32.12-.57.31-.78.19-.2.32-.38.47-.6.16-.27.31-.5.58-.61.07-.03.14-.06.16-.11.24-.18.48-.37.79-.42.23-.02.5-.14.68-.29.2-.09.36-.19.57-.17.1.04.17,0,.23-.02.5-.14,1.01-.27,1.52-.29.23-.02.52-.02.73,0l.05.02c.49-.09.99.06,1.47.13.07-.03.17.01.26.05.22.15.55.16.82.21.51.14,1.02.13,1.56.17.26.05.48.08.72.17.34.13.65.2.96.27l.44.17c.17.13.32.18.51.26.43.06.82.21,1.16.35.22.15.46.13.7.22.26.05.53.21.78.31.1.04.24.1.36.09.31.07.55.16.8.26.07-.03.1.04.15.06.3.23.61.3.95.44.19.08.41.11.5.31l.1.04c.36.09.65.2.92.37.35.25.73.29,1.05.47.34.14.65.2.99.34.05.02.13.11.22.15,0,0,.03.07.08.09.45,0,.74.41,1.1.49.1.04.17.13.27.16.53.49,1.2.82,1.86,1.13.27.16.65.2.92.37.34.14.61.3.88.47.69.39,1.29.85,1.96,1.29l.05.02c.26.05.47.24.69.39.24.1.45.29.67.44.17.13.35.25.52.38l.95.72c.18.13.32.18.45.29.37.2.43.62.1.88l-.48.37c-.14.06-.27.12-.37.08-.26-.05-.56,0-.84-.16l-.15-.06ZM65.99,103.19l.02-.05-.34-.14c-.24-.1-.44-.17-.67-.16-.07.03-.12.01-.17,0-.57-.12-1.15-.23-1.74-.3-.26-.05-.52-.1-.84-.16l-.84-.16s-.1-.04-.17,0c-.33-.02-.63.03-.98.06-.26-.05-.47.04-.7.06-.18.04-.34.15-.47.32-.17.15-.37.36-.51.58-.36.48-.42.9.02,1.36.23.26.53.5.7.79.29.4.65.77.98,1.07.5.59,1.12,1.01,1.76,1.38.32.18.57.4.84.56.3.23.6.47.89.75.53.49,1.19.81,1.87,1.09.49.19.93.48,1.44.63.53.21.96.55,1.43.79.39.15.69.39,1.08.54l.19.08c.18.24.45.29.72.46l.34.14c.29.12.51.26.78.31.1.04.17,0,.19.08.2.19.5.31.76.36.12-.01.15.06.24.1.39.16.71.34,1.11.33.12-.01.24.1.34.14q.19.08.32-.1c.04-.1.08-.19.07-.31.03-.49.09-.92.38-1.37l.04-.1c.05-.26.14-.51.22-.7.1-.24.1-.52.19-.77l.45-1.12c.12-.29.36-.48.33-.83l.02-.05c.16-.27.28-.56.43-.79.08-.19.07-.31-.18-.41l-.19-.08c-.72-.46-1.5-.77-2.27-1.08-.29-.12-.61-.3-.9-.42-.42-.22-.85-.4-1.22-.6-.29-.12-.58-.23-.85-.4l-.34-.14c-.58-.23-1.17-.46-1.73-.75-.1-.04-.22-.15-.34-.14-.49-.19-1.01-.29-1.45-.46-.39-.15-.8-.26-1.25-.39Z"/>
    <path class="cls-1" d="M87.41,106.34c-.46-.25-.92-.5-1.36-.68-.14-.07-.3-.22-.43-.3l-.14-.07c-1.22-.49-2.42-1.14-3.59-1.71-.14-.08-.25-.08-.39-.15-.14-.07-.28-.15-.46-.25l-.5-.28c-.69-.37-1.38-.75-2.09-1.08l-.92-.5c-.28-.15-.53-.35-.8-.5-.05-.02-.07-.1-.09-.05-.69-.26-1.31-.65-1.91-.98-.69-.37-1.38-.75-2.07-1.12l-3.03-1.65c-.37-.2-.64-.47-1.01-.67l-.14-.07c-.69-.37-1.38-.75-2.07-1.12l-.92-.5c-.25-.2-.48-.32-.78-.42-.28-.15-.53-.23-.81-.38-.14-.08-.2-.17-.34-.25-.3-.22-.64-.47-1.01-.67-.09-.05-.23-.13-.3-.22-.07-.1-.09-.17-.06-.21-.02-.19-.03-.37-.15-.5-.05-.03-.07-.1-.04-.14.01-.35.02-.7.17-.98.05-.09.1-.18.17-.2.19-.02.29-.2.36-.34.2-.48.45-.94.75-1.38.2-.37.45-.71.69-1.05.27-.27.6-.56.87-.84l.56-.71c.25-.34.6-.56.87-.84.17-.2.34-.29.58-.4.19-.13.38-.27.62-.38.02-.05.1-.07.17-.09.4-.08.73-.26,1.07-.43.1-.07.17-.09.28-.08.42,0,.82.03,1.21.07.84-.02,1.48.45,2.12.92.57.37.98.83,1.33,1.38.13.19.15.38.28.57.17.45.25.97.44,1.37.07.1.06.21.13.31.02.07.09.17.04.26-.03.28.15.5.11.78-.05.21.03.49.09.7,0,.54.1,1.13-.01,1.66-.03.16-.1.3-.11.42-.03.16.04.26.23.24.21-.06.45-.17.71-.21.14-.04.31-.13.5-.15l1.18-.19c.31-.01.63-.07.91.08.05.03.09.05.16.03.72.09,1.47.26,2.18.47.25.08.53.23.79.31.81.26,1.52.71,2.31,1.02.48.2.97.41,1.48.57.48.2.99.36,1.5.52.46.13.88.24,1.37.21.35.01.73-.14.93-.51l.08-.14c.27-.27.41-.31.68-.05.32.29.38.62.18.99-.02.05-.07.14-.1.18l-.13.23c-.27.27-.58.52-.89.77-.08.14-.22.18-.36.22-.1.07-.26.04-.38.15-.19.13-.33.18-.57.17-.75.07-1.45.04-2.17-.28-.48-.2-1.02-.32-1.5-.52l-1.32-.54c-.37-.2-.78-.43-1.2-.53-.39-.15-.76-.35-1.15-.51-.33-.06-.65-.23-1.02-.32-.28-.03-.55-.18-.81-.26-.42-.11-.86-.17-1.33-.19-.12,0-.26.04-.4.08-.19.02-.4.08-.57.17-.59.1-1.16.26-1.62.67-.22.18-.34.41-.54.66-.15.16-.06.33.15.38.16.03.3.1.44.18.28.15.53.35.8.5.51.27,1.04.5,1.54.78.16.03.3.1.51.16l.14.08c.62.28,1.22.6,1.79.97.37.2.69.37.96.76l.09.05c.35.01.6.21.88.36.34.25.78.42,1.17.58l.55.3c.62.28,1.27.63,1.93.93.32.17.65.23.99.36.48.2.97.41,1.43.66.18.1.34.25.5.39l.05.02c.3.1.5.39.85.52l.05.03c.39.27.81.38,1.17.69l.75.59c.25.2.29.34.12.66-.03.05-.07.14-.08.26-.2.48-.61.68-1.13.76-.4.08-.87.06-1.24-.14-.35-.13-.69-.26-.97-.41ZM70.21,86.52c-.25-.2-.65-.23-1.02-.32-.42-.11-.8.04-1.09.36-.24.23-.44.48-.65.66-.53.31-.92.81-1.28,1.27-.34.41-.66.89-.94,1.4-.02.05-.07.14-.15.16-.2.25-.28.51-.38.81-.08.25-.06.33.22.48.6.32,1.2.53,1.72.88.09.05.16.03.25.08.3.1.6.21.83.45.25.2.51.28.78.43.07.1.14.07.23.12.55.3,1.2.53,1.7.92.02.07.07.1.14.07.21.05.41.22.62.4.25.2.53.35.8.5.14.07.23,0,.22-.18,0-.42-.09-.82.02-1.24.13-.46.17-.98.24-1.42l.24-1.42c0-.23,0-.42-.07-.63-.09-.17-.11-.35-.12-.54-.04-.14-.01-.31-.05-.45-.11-.36-.24-.66-.39-.93-.11-.24-.22-.48-.35-.67-.41-.46-.84-.87-1.5-1.18Z"/>
    <path class="cls-1" d="M96.61,91.63c.24-.53.54-.96.76-1.45.2-.37.31-.81.46-1.21.29-.5.44-1.09.77-1.56.21-.3.45-.64.76-.81.07-.01.1-.06.13-.1.1-.06.16-.14.23-.15.18-.07.32-.09.47-.12.18-.07.38,0,.52.17.2.27.13.54.11.84-.02.12-.08.2-.12.36-.05.16-.06.27-.04.42.08.25,0,.45-.15.66,0,0-.07.01-.1.06-.14.48-.53.84-.71,1.29-.15.4-.42.79-.58,1.19-.2.37-.31.81-.66,1.13l-.06.09c-.09.32-.23.6-.32.92-.02.3-.21.49-.45.64-.13.1-.38.18-.64.19-.19,0-.32.09-.48.24-.03.04-.06.09-.16.14-.22.23-.48.24-.71.01-.14-.16-.3-.21-.5-.29-.12-.02-.2-.08-.24-.11-.42-.23-.76-.47-1.14-.74-.44-.37-.94-.66-1.35-1.07l-.33-.17c-.09-.06-.16-.05-.27-.06-.34-.24-.73-.51-1.14-.74-.21-.15-.46-.26-.67-.41l-1.5-1.05c-.3-.21-.57-.46-.87-.67-.17-.12-.42-.23-.59-.35-.36-.31-.7-.55-1.09-.82l-.09-.06c-.66-.52-1.3-.97-1.95-1.49-.21-.15-.39-.27-.57-.46-.17-.12-.27-.25-.44-.37l-1.03-.72-1.11-.97c-.31-.28-.58-.54-.93-.78-.49-.4-.98-.88-1.5-1.24l-.86-.6c-.4-.34-.83-.64-1.23-.98-.13-.09-.26-.18-.39-.27l-1.33-.93-.21-.15-1.03-.53c-.13-.09-.26-.18-.42-.23l-.13-.09c-.1-.13-.26-.18-.39-.27-.29-.14-.54-.32-.76-.47-.04-.03-.13-.09-.1-.13-.05-.29-.32-.54-.3-.85-.04-.22,0-.38.2-.56.22-.23.36-.51.53-.84.12-.36.36-.7.53-1.03l1.09-2.11c.14-.29.32-.54.45-.83.03-.04-.01-.07.02-.12.42-.6.83-1.27,1.29-1.84.37-.44.87-.79,1.51-.79.07-.01.15-.03.23.03.26.18.51.36.64.64.04.22.01.71-.14.93-.19.18-.34.4-.41.67l-.09.13c-.25.27-.41.67-.65,1.01-.14.29-.35.59-.56.89l-.12.17c-.11.43-.3.88-.62,1.16l-.09.13c-.11.24-.18.45-.3.62-.19.18-.3.43-.41.67-.21.3-.03.68.06,1,.01.07.1.13.18.19.4.15.75.39,1.09.63.17.12.42.23.59.35.13.09.18.19.31.28.56.39,1.16.81,1.71,1.2l1.54,1.08c.39.27.75.65,1.15,1,.39.27.74.58,1.1.89.75.65,1.6,1.18,2.38,1.79.51.36.99.69,1.4,1.1l.52.36c.77.54,1.5,1.05,2.27,1.59l.13.09c.13.09.23.03.32-.09.23-.42.45-.83.65-1.2l.88-1.81c.11-.24.21-.49.33-.66.23-.42.51-.73.92-.95.22-.04.45-.19.63-.26.25-.08.32-.09.48.14.04.03.1.13.18.19.13.09.15.24.14.35-.02.3.03.6-.12.81-.17.33-.23.6-.28.95-.03.23-.15.4-.3.62-.2.37-.39.75-.6,1.05-.08.2-.2.37-.29.5l-.06.27c-.06.27-.19.63-.17.97,0,.19-.08.39-.12.62-.08.2,0,.38.21.53.47.33,1.02.65,1.52.93l.94.66c.31.28.66.52,1.02.65.13.09.21.15.3.21l.77.54c.09.06.19,0,.25-.08.09-.13.15-.21.24-.34l.04.03Z"/>
    <path class="cls-1" d="M119.53,66.57c-.27-.32-.54-.64-.81-1.03-.13-.16-.19-.39-.36-.59-.11-.05-.21-.17-.28-.25-.03-.04-.14-.09-.13-.16-.2-.24-.37-.44-.54-.71-.1-.12-.2-.24-.26-.39,0-.07-.06-.15-.13-.23-.24-.28-.32-.62-.64-.83-.01-.33-.41-.48-.5-.75-.12-.31-.33-.55-.53-.79t-.03-.11c-.12-.38-.43-.67-.66-.95-.6-.79-1.21-1.51-1.78-2.26-.27-.32-.63-.5-.94-.71-.14-.09-.33-.06-.52-.04-.3-.02-.63-.01-.91-.19l-.03-.04c-.3.05-.55-.08-.8-.14l-.51-.12c-.11-.05-.22-.09-.32-.14l-.18-.05c-.48-.08-.91-.26-1.29-.55-.28-.17-.53-.38-.81-.55-.22-.09-.44-.11-.65-.2-.4-.14-.83-.33-1.18-.58-.42-.26-.81-.55-1.27-.77-.28-.17-.57-.34-.84-.59-.14-.16-.36-.18-.53-.3-.39-.22-.78-.44-1.12-.76-.24-.21-.57-.34-.85-.52-.21-.09-.39-.22-.61-.31-.25-.13-.53-.3-.79-.36-.29-.1-.46-.3-.71-.43-.14-.09-.21-.17-.32-.21-.17-.13-.32-.21-.42-.33-.21-.17-.57-.27-.73-.54-.03-.04-.15-.01-.22-.09-.29-.1-.57-.34-.77-.58-.13-.16-.2-.31-.22-.5.02-.22.1-.36.16-.54.21-.32.48-.48.83-.56.57-.21,1.08-.02,1.5.31.53.38,1.08.79,1.65,1.14.28.17.57.27.85.44l.39.22c.39.22.82.4,1.21.62.42.26.74.54,1.16.8.35.25.74.47,1.13.69.5.26,1.03.57,1.48.94.17.2.38.29.63.42.25.13.54.23.79.36.32.14.61.31.89.48.53.3,1.07.53,1.65.73.11.05.18.13.28.17.35.25.75.4,1.19.43.22.02.3-.05.21-.24-.08-.34-.02-.67-.1-1.01-.03-.04-.03-.11-.02-.19s.01-.15-.02-.19c-.26-.47-.33-.95-.51-1.41-.12-.31-.21-.65-.33-.95l-.19-.46c-.16-.27-.29-.51-.34-.81-.12-.38-.35-.73-.46-1.11-.08-.34-.31-.69-.47-1.04l-.81-1.92q0-.07-.03-.11c-.3-.43-.44-.93-.63-1.39-.02-.19-.16-.35-.26-.47l-.35-.66c-.19-.39-.38-.77-.61-1.13l-.52-.86c-.23-.35-.31-.77-.35-1.22-.03-.11.02-.22.1-.29.24-.2.47-.33.71-.46l.26-.02c.29.1.62.09.87.22.46.3.88.55,1.06,1.09.09.27.29.51.42.74.23.35.39.7.58,1.01.26.47.52.86.78,1.33l.38.85c.15.42.26.88.41,1.3.12.31.32.62.52.93.09.27.26.47.23.76v.07c.31.21.31.62.44.93.06.15.12.31.11.45,0,.07.03.11.06.15l.3.36c.18.46.45.85.52,1.34.24.28.13.64.3.91.1.19.15.42.25.61.33.47.4,1.03.5,1.64.02.19.04.37.1.53.02.19.01.33-.04.52-.01.15.05.3.04.45l-.04.52c0,.07.02.19.06.23.03.04.1.12.21.17.56.42.95,1.04,1.39,1.64.1.19.26.39.4.55.24.28.44.52.64.76l.07.08c.08.34.37.51.49.82.07.08.14.16.13.23.06.15.16.35.33.47.03.04.14.16.13.23.06.23.26.39.4.55l.5.75c.33.47.7.91,1.04,1.38.23.35.5.75.77,1.06.1.19.23.35.41.48.21.17.34.4.43.67l.13.16c.29.1.39.22.48.48,0,.07.03.11.06.15l.42.26s.03.04,0,.07c-.09.22,0,.48-.06.74,0,0,0,.07-.05.11-.23.06-.24.2-.22.39-.05.11-.09.14-.19.1-.15-.01-.33-.06-.38-.29-.03-.04-.1-.12-.22-.09-.07,0-.11.03-.16.13s-.12.1-.19.02q-.17-.13-.23.06s-.05.11-.09.22c0,0-.04.03-.07,0,0,0-.03-.04-.07-.08.21-.24.04-.44-.06-.64.04-.03-.03-.04-.07-.08.03.04,0,.07-.05.11v.07c.02.11.08.27-.03.29-.07,0-.22-.09-.25-.13-.27-.32-.51-.6-.74-.88ZM122.16,67.42c0-.07.01-.15-.02-.19.04-.03-.03-.04-.11-.05l-.02.22s.07,0,.15.01Z"/>
    <path class="cls-1" d="M128.05,39.08c.2.31.42.54.59.8l.78,1.18s-.01.07.06.09c.41.42.62,1.03.94,1.51.2.31.27.7.48,1,.01.3.2.49.35.71.12.17.19.38.26.58.01.3.14.59.27.89.2.49.39,1.06.46,1.64,0,.19.04.35.09.51,0,.38.01.68-.02,1.02.01.12-.04.22-.06.29-.1.13-.13.28-.13.46.04.16-.03.33-.13.46-.18.3-.36.68-.64.93-.19.19-.38.38-.5.58-.15.16-.26.36-.35.61-.04.03-.06.1-.07.17-.12.2-.23.22-.45.17-.07-.01-.17-.07-.29-.06-.1-.06-.26-.01-.35.04-.25.1-.48.13-.71.16-.12.01-.22.14-.35.04,0,0-.12.02-.13.09-.1.13-.22.14-.33.16-.26-.02-.54.04-.78-.05-.12.01-.23.03-.38,0,0,0-.04.03-.12.01-.86-.06-1.65-.22-2.27-.88l-.45-.39c-.35-.33-.74-.64-1.06-.93l-.14-.22c-.13-.1-.22-.23-.35-.33-.06-.09-.12-.17-.25-.28-.23-.35-.51-.67-.81-1.03l-.4-.61c-.33-.6-.69-1.23-.98-1.86-.32-.67-.56-1.32-.81-1.97-.19-.38-.33-.78-.48-1.19-.11-.36-.24-.65-.29-1-.09-.51-.24-1.03-.36-1.58-.06-.28-.06-.65-.07-.96-.01-.12,0-.19.02-.26-.19-.75.03-1.46.08-2.25-.01-.3.12-.58.29-.88.13-.28.26-.55.25-.85,0-.19.1-.32.22-.52.1-.13.22-.14.32-.09l.15.03c.27.32.65.13.96.12h.57c.52.03,1.09.03,1.62.18.43.09.91.15,1.36.35.17.07.38.19.58.31.2.12.4.23.65.32.35.15.56.38.83.58.16.15.33.22.49.36.32.29.68.55,1,.84.35.34.67.63.85,1ZM126.24,39.47c-.16-.15-.23-.35-.39-.49-.42-.35-.88-.67-1.27-.98-.19-.19-.38-.38-.62-.47-.55-.26-1.17-.35-1.78-.51-.36-.07-.64.17-.74.49-.04.22-.16.42-.31.58-.31.39-.47.81-.45,1.3.01.12-.02.26-.03.33-.2.26-.18.49-.07.74.17.64.26,1.34.43,1.97.1.62.36,1.21.5,1.8.19.57.48,1,.71,1.54.2.49.49.93.62,1.41l.09.13c.12.17.35.33.33.6-.04.03.06.09.09.13.32.48.64.96,1,1.41.42.54.81,1.03,1.29,1.47.16.15.26.2.48.25.17.07.36.07.59.05.73-.04,1.34-.45,1.9-.82.26-.17.49-.39.65-.62.34-.35.55-.68.61-1.16.07-.36.07-.74.19-1.13.06-.29.02-.64-.07-.96l-.49-1.5c-.13-.29-.26-.58-.37-.94-.07-.2-.26-.39-.36-.64-.2-.31-.36-.64-.52-.97-.22-.42-.42-.91-.79-1.29-.27-.32-.51-.67-.65-1.08l-.06-.09c-.25-.09-.35-.33-.49-.55Z"/>
    <path class="cls-1" d="M134.16,41.43c-.29-.56-.48-1.05-.75-1.56l-1.32-2.55c-.31-.6-.6-1.16-.87-1.79-.22-.53-.39-1.09-.61-1.63-.15-.4-.34-.77-.44-1.19-.12-.23-.15-.51-.24-.82l-.51-1.68c-.12-.23-.19-.49-.24-.7-.03-.28-.08-.61-.08-.84-.03-.16.02-.3.06-.45s.21-.17.37-.19c.05-.02.09-.05.12-.12.14-.07.28-.14.49-.08.05-.02.07.02.12,0,.26-.07.45.06.63.2.05.09.14.16.19.26.03.16.17.32.33.42.09.07.12.12.07.26-.11.23-.11.47-.01.65.1.3.22.65.41.91.24.35.27.74.53,1.02.12.12.19.37.24.58.07.14.1.3.17.44l.14.28c.13.7.44,1.3.75,1.91.07.14.14.28.17.44l.14.28c.14.16.26.28.26.51.02.05.05.09.09.07.17.09.24.23.31.37.12.35.31.72.48,1.05.24.46.5.86.77,1.25.05.09.07.14.12.23l1.1,2.14c.1.19.29.32.24.58l.02.05c.28.09.29.44.55.6.09.07.17.21.24.35.15.4.43.72.72,1.04.21.3.48.58.74.86l.22.3c.14.28.4.44.64.67.31.37.71.58,1.13.83.54.37,1.17.34,1.8.19.09-.05.14-.07.21-.17.58-.36.95-.9,1.29-1.49.05-.02.07-.09.14-.19.12-.12.11-.24.13-.42-.03-.4-.13-.82-.2-1.19l-.25-1.17c-.1-.3-.08-.61-.18-.91-.08-.37-.2-.72-.34-1.12-.15-.63-.46-1.23-.56-1.89-.1-.54-.32-1.07-.54-1.61l-.29-.91c.02-.07,0-.12-.03-.16-.22-.42-.41-.91-.58-1.35-.34-.77-.7-1.46-1.04-2.23-.22-.53-.55-1.07-.82-1.58-.1-.19-.31-.37-.36-.58-.15-.51-.46-.88-.7-1.35-.38-.63-.74-1.32-1.13-1.95-.26-.51-.55-.95-.88-1.37-.12-.23-.17-.44-.29-.67-.03-.16,0-.35.2-.4.19-.1.42-.22.63-.27l.21-.05c.35-.24.61.04.96.15.21.07.36.35.48.58.14.16.17.44.29.67.24.35.45.65.65,1.02.17.21.24.46.5.63.02.05.05.09.07.14l1.05,1.69c.26.39.5.74.81,1.11l.1.19c.05.33.22.53.41.79.36.58.7,1.23,1.01,1.83l.19.37c.03.16,0,.35.19.49.05-.02.07.02.09.07,0,.35.24.58.25.93-.02.07,0,.12,0,.12.26.28.36.58.46.88.1.3.19.61.31.84l.17.56s-.05.02-.02.07c.22.42.27.86.39,1.33.15.4.22.77.27,1.21.05.21.17.44.17.68.03.28.19.49.27.74.02.05.05.09.03.16-.02.3.05.56.15.86.03.16-.02.3-.04.49v.35c.13.35.2.72.14,1.17,0,0-.02.07,0,.12.17.33.03.75.16,1.1l-.02.19c-.21.28-.18.68-.36,1.01-.04.14-.11.23-.2.4-.05.14-.14.31-.23.35-.3.22-.48.55-.74.74-.09.05-.14.19-.16.26-.13.42-.25.78-.69.94-.09.05-.14.19-.32.17l-.05.02c-.09.28-.3.33-.49.43-.19.1-.37.19-.61.2-.19-.02-.42.1-.63.15-.07-.02-.09.05-.16.03-.4-.09-.84-.03-1.24-.24-.02-.05-.09-.07-.16-.09-.3-.02-.54-.13-.75-.32-.09-.07-.24-.11-.35-.11-.23,0-.4-.09-.52-.32-.05-.09-.1-.19-.17-.21-.38-.27-.66-.6-1.02-.83-.35-.23-.59-.58-.85-.85-.17-.21-.4-.44-.5-.74-.02-.05-.17-.09-.21-.18l-1.38-1.64c-.48-.58-.79-1.18-1.12-1.83l-.5-.98Z"/>
  </g>
  <g>
    <path class="cls-1" d="M124.09,227.06c.24.52.33.94.59,1.34l.29.34c.14.23.35.21.6.12.76-.21,1.5-.48,2.22-.79.34-.12.71-.2,1.07-.27l1.33-.47c.15-.05.26-.04.36-.07.17,0,.28.01.41-.09s.25-.09.43-.04c.37.09.62.34.82.6.19.21.37.42.41.69.07.2,0,.33-.12.43-.23.14-.49.34-.72.48l-.51.12c-.74.26-1.41.56-2.17.77-.54.19-1.1.34-1.64.53-.25.09-.53.24-.75.38-.1.04-.18.12-.13.27.07.36.23.64.66.77.12.01.22.14.35.21.18.05.32.11.45.17.27.13.37.26.36.54-.01.12.02.21.06.31.05.15-.03.23-.16.33-.33.17-.61.16-.94,0-.27-.13-.5-.16-.75-.23-.13-.06-.2-.1-.32-.11-.35-.21-.73-.35-1.05-.63-.08-.08-.17-.16-.3-.22-.04-.1-.12-.18-.2-.26-.34-.32-.45-.34-.86-.08-.28.15-.62.28-.97.4-.49.18-.98.35-1.44.62-.03.07-.05.02-.08.08-1.21.49-2.5.94-3.73,1.38l-1.08.39c-.35.12-.76.21-1.17.3-.2.07-.36.07-.56.14-.35.12-.67.29-.99.35-.82.18-1.63.58-2.43.81-.35.12-.73.15-1.07.27-.41.09-.79.28-1.2.37-.2.07-.39.14-.61.16-.36.07-.71.2-1.07.27-.26.04-.56.14-.82.18-.46.11-.82.35-1.28.45-.25.09-.46.11-.71.2-.1.03-.18.12-.21.19-.24.25-.42.54-.46.89-.06.3-.2.52-.52.57-.2.07-.4-.03-.55-.14-.13-.06-.22-.15-.38-.14-.18-.04-.37-.09-.4-.36-.04-.26-.11-.46-.29-.67-.08-.08-.15-.28-.21-.43-.04-.26-.08-.53-.16-.77-.06-.31-.18-.66-.28-.95-.06-.31-.16-.61-.27-.9l-.03-.1c-.41-.69-.71-1.36-.97-2.1l-.6-1.68c-.11-.46-.25-.86-.36-1.32-.1-.3-.23-.64-.3-1-.03-.1-.02-.21.01-.28.06-.46.08-.86.21-1.29.11-.32.35-.57.58-.87.03-.07.15-.05.21-.02.3.06.62.17.88.3.07.03.1.13.14.23.04.1.02.21,0,.33-.01.12-.01.28.17.33.3.23.34.49.3.84-.03.07-.06.13-.03.23.11.46.22.92.39,1.42-.03.07,0,.16.02.21.29.34.38.75.47,1.16.09.25.16.44.29.67.12.18.26.41.25.69-.03.07-.01.12,0,.17.2.26.31.56.45.78.03.1.05.15.14.23.13.06.14.23.14.39.06.31.11.63.2.87.05.15.47.39.62.34.36-.07.71-.03,1.02-.25.03-.07.15-.05.2-.07l.36-.07c.31-.22.71-.2,1.07-.27.05-.02.12.01.17,0,.39-.14.84-.3,1.25-.39l.3-.11c.1-.03.17,0,.22-.02.74-.26,1.41-.56,2.12-.75.56-.14,1.12-.45,1.66-.48l.07.03c.36-.24.76-.21,1.11-.45.15-.05.31-.06.46-.11l.79-.28c.39-.14.76-.21,1.15-.35.31-.06.59-.21.89-.32l.74-.26c.54-.19,1.07-.43,1.61-.63l.3-.1c.1-.04.25-.09.38-.19.23-.14.43-.21.67-.29.23-.14.51-.12.66-.34.03-.07.13-.1.18-.12l.79-.28c.2-.07.44-.16.62-.28.23-.14.26-.2.12-.43-.12-.34-.23-.64-.38-.92l-.16-.44c-.11-.46-.3-.84-.51-1.26-.22-.31-.39-.64-.56-.96-.1-.13-.2-.26-.4-.35l-.49-.27s-.08-.08-.15-.11c-.08-.08-.25-.08-.2-.26.03-.23,0-.5.17-.62.28-.16.51-.29.82-.35.31-.06.56.02.78.17l.96.66c.24.19.49.44.59.73.07.2.24.36.31.56l.33.94Z"/>
    <path class="cls-1" d="M124.87,212.11c-.23-.54-.35-1.04-.57-1.53-.15-.4-.4-.77-.59-1.15-.18-.55-.52-1.06-.65-1.62-.08-.36-.18-.76-.1-1.11.04-.06.03-.11.02-.16.03-.11,0-.22.04-.28.07-.18.14-.3.22-.43.07-.18.26-.27.47-.27.33.03.49.26.7.48.07.09.1.19.19.33.09.14.16.23.29.31.24.1.34.3.4.55,0,0-.04.06-.03.11.26.42.28.96.49,1.39.2.38.31.84.5,1.23.15.4.39.77.4,1.25l.02.1c.17.28.3.57.47.86.21.22.22.48.18.76-.01.16-.12.4-.29.6-.13.14-.14.3-.15.52.01.05.02.1,0,.22.02.32-.15.52-.46.54-.22,0-.36.08-.55.18-.09.07-.19.1-.24.11-.45.16-.85.25-1.31.36-.57.08-1.12.26-1.7.29l-.34.13c-.1.02-.14.09-.23.16-.41.1-.87.2-1.31.36-.26.06-.5.17-.75.23l-1.78.42c-.35.08-.72.12-1.08.2-.2.05-.45.16-.65.21-.47.06-.88.15-1.34.26l-.1.02c-.83.14-1.59.32-2.42.46-.25.06-.46.11-.72.12-.2.05-.37.03-.57.08-.41.1-.81.19-1.22.29l-1.46.18c-.42.05-.79.08-1.19.17-.62.09-1.31.15-1.92.29l-1.02.24c-.52.07-1.03.19-1.55.26-.15.04-.31.07-.46.11l-1.58.37c-.05.01-.15.04-.26.06l-1.08.42c-.15.04-.31.07-.45.16l-.15.04c-.16-.02-.3.07-.46.11-.29.12-.6.19-.85.25-.05.01-.15.04-.16-.01-.25-.16-.62-.12-.83-.34-.19-.12-.28-.26-.28-.52-.02-.32-.14-.61-.28-.95-.19-.33-.28-.74-.42-1.08l-.84-2.22c-.12-.29-.19-.6-.32-.89-.01-.05-.06-.04-.07-.09-.17-.71-.4-1.46-.52-2.19-.08-.57,0-1.18.42-1.66.04-.06.08-.13.18-.15.31-.07.61-.14.9-.05.19.12.54.46.6.72,0,.27.07.52.23.75l.04.15c.03.37.23.75.33,1.16.12.29.21.65.29,1.01l.05.2c.25.37.46.81.45,1.24l.04.15c.11.24.21.43.26.64,0,.27.12.51.23.75.08.36.49.48.79.62.06.04.16.02.27,0,.38-.2.79-.29,1.2-.39.21-.05.45-.16.65-.21.15-.04.27-.01.42-.04.66-.15,1.37-.32,2.03-.48l1.83-.43c.46-.11.99-.13,1.51-.19.46-.11.93-.17,1.4-.22.99-.13,1.95-.4,2.92-.58.61-.14,1.17-.28,1.75-.31l.61-.14c.92-.22,1.78-.42,2.7-.64l.15-.04c.15-.04.18-.15.14-.3-.16-.45-.32-.89-.46-1.29l-.76-1.86c-.11-.24-.22-.49-.27-.69-.16-.45-.2-.87-.1-1.32.12-.19.16-.47.22-.64.11-.24.14-.3.42-.26.05-.01.16.01.27,0,.15-.04.28.04.35.13.21.22.46.37.52.63.14.34.3.57.52.84.15.18.2.38.26.64.15.39.29.79.38,1.15.1.19.15.4.18.55l.16.23c.16.23.35.56.61.77.14.13.24.32.39.5.1.19.27.26.53.2.56-.13,1.16-.33,1.71-.51l1.12-.26c.42-.05.83-.14,1.16-.33.15-.04.25-.06.36-.08l.92-.22c.1-.02.13-.14.1-.24-.04-.15-.06-.25-.1-.41h.05Z"/>
    <path class="cls-1" d="M122.2,198.81c-.18-.56-.25-1.08-.42-1.58-.11-.41-.32-.8-.48-1.2-.13-.56-.41-1.11-.48-1.68-.05-.36-.1-.78.01-1.11.05-.06.04-.11.03-.16.04-.11.02-.21.07-.27.08-.17.17-.29.26-.4.08-.17.28-.25.5-.22.32.06.46.31.65.55.06.1.08.2.15.35.07.15.14.24.26.33.23.13.31.33.34.59,0,0-.05.06-.04.11.22.45.18.98.35,1.43.16.4.22.87.38,1.27.11.41.32.8.27,1.28v.1c.16.3.25.6.4.9.19.24.17.51.1.78-.03.16-.16.39-.35.57-.14.12-.17.28-.2.5,0,.05.01.1-.03.21-.01.32-.2.5-.52.49-.21-.02-.36.05-.56.13-.1.07-.2.08-.25.09-.46.11-.87.17-1.34.23-.58.02-1.14.15-1.72.12l-.36.1c-.1.01-.15.07-.25.14-.41.06-.88.12-1.34.23-.26.03-.51.12-.77.15l-1.81.24c-.36.05-.73.04-1.09.09-.21.03-.46.11-.67.14-.47.01-.89.07-1.36.13h-.1c-.84.07-1.61.17-2.45.23-.26.03-.47.06-.73.04-.21.03-.37,0-.58.02-.42.05-.83.11-1.24.16l-1.47.04c-.42,0-.79,0-1.21.05-.63.03-1.32.02-1.94.1l-1.04.14c-.53.02-1.04.08-1.57.1-.16.02-.31.04-.47.06l-1.61.21c-.05,0-.16.02-.26.03l-1.12.31c-.16.02-.31.04-.46.11l-.16.02c-.16-.03-.31.04-.47.06-.3.09-.61.14-.87.17-.05,0-.16.02-.16-.03-.24-.18-.61-.18-.79-.42-.18-.14-.25-.29-.23-.55.01-.32-.08-.62-.18-.98-.15-.35-.21-.76-.31-1.12l-.62-2.29c-.09-.3-.13-.62-.23-.92,0-.05-.06-.04-.07-.1-.1-.73-.25-1.5-.29-2.23-.02-.58.11-1.17.58-1.61.05-.06.09-.12.19-.13.31-.04.62-.08.9.04.18.13.49.51.52.77-.02.27.02.53.15.77l.02.16c0,.37.15.77.21,1.19.09.3.14.67.19,1.03l.03.21c.21.39.37.85.33,1.28l.02.16c.09.25.17.45.19.66-.02.27.07.52.15.77.05.36.44.52.72.7.06.04.16.03.27.02.4-.16.82-.21,1.23-.27.21-.03.46-.11.67-.14.16-.02.27.02.42,0,.67-.09,1.4-.18,2.07-.27l1.87-.25c.47-.06,1-.03,1.52-.04.47-.06.94-.07,1.41-.08,1-.03,1.98-.21,2.97-.29.62-.08,1.19-.16,1.78-.13l.62-.08c.93-.12,1.82-.24,2.75-.36l.16-.02c.16-.02.19-.13.17-.29-.11-.46-.23-.92-.33-1.33l-.57-1.93c-.09-.25-.17-.5-.2-.71-.11-.46-.12-.88.04-1.32.13-.18.2-.45.29-.62.13-.23.17-.29.45-.22.05,0,.16.03.27.02.16-.02.27.07.34.17.19.24.42.42.46.68.1.36.24.6.43.89.13.19.16.4.19.66.11.41.21.82.26,1.18.08.2.11.41.13.56l.14.25c.14.25.29.6.53.83.12.14.2.34.33.54.08.2.25.28.51.25.57-.08,1.19-.21,1.75-.34l1.14-.15c.42,0,.84-.06,1.19-.21.16-.02.26-.03.36-.05l.93-.12c.1-.01.14-.12.13-.23-.02-.16-.03-.26-.05-.42h.05Z"/>
    <path class="cls-1" d="M119.14,188.65c-.89.02-1.73-.01-2.56,0-.37,0-.68-.04-1-.08-.21,0-.42.06-.63.07-.05,0-.16.06-.26,0-.21-.1-.42-.04-.63-.04-.16,0-.37-.04-.58-.04-.63.07-1.31.03-1.94.04-.37,0-.73-.04-1.05-.03-.21,0-.42.06-.63.07h-.11c-.42-.09-.84.08-1.31-.02-.42-.04-.84.02-1.31.03-.68-.04-1.41-.02-2.1-.11-.47-.04-.94-.03-1.41-.02-.37-.04-.79-.09-1.15-.08-.05-.05-.11-.05-.16-.05-.47.01-.89.02-1.36-.02-.37-.04-.74-.09-1.15-.08-.37-.04-.78-.03-1.15-.08-.26,0-.52-.04-.78-.03-.26,0-.52.06-.78.07-.32,0-.58-.04-.89-.08-.26-.05-.58-.04-.84-.03-.42-.04-.84-.03-1.31-.07-.21,0-.42-.04-.63-.09-.37-.04-.79-.14-1.15.08-.1.05-.16.06-.26,0-.05-.1-.16-.15-.21-.2-.06-.15-.16-.26-.32-.36-.21-.15-.32-.31-.33-.57,0-.16,0-.26-.11-.36,0-.05-.06-.16,0-.16.15-.32.2-.63.5-.85.26-.16.41-.32.62-.48.1-.16.2-.21.36-.22.21,0,.42,0,.57-.12h.16c.48.25.95.18,1.47.12.37,0,.68-.07,1.05-.08l1.94.11c.16,0,.26.1.42.1.37.04.73.09,1.15-.08.05-.05.16,0,.26,0,.16,0,.26.05.42.04.37.1.79.14,1.15.18.21,0,.37.05.58.09.26,0,.58-.01.84-.02h.16c.37.09.68.14,1.05-.03.16-.06.31-.06.52.04,0,0,.05,0,.11.05.31.05.63.09.94.14h.31c.21-.12.42-.12.63-.02h.16c.42-.17.84-.02,1.31-.03.31,0,.63.09.94-.02.21-.06.42,0,.63.04.1.05.26,0,.37,0,.21,0,.37,0,.58.04.21,0,.42.04.63-.07.05-.05.15-.06.21-.06.31,0,.68.04,1,.03l.94-.02c.42,0,.84.03,1.31.02.16,0,.31,0,.47-.06.36-.06.68-.07.99-.08.21.05.42,0,.63-.07h.37c.1-.01.21-.01.31-.07.16-.06.31-.06.47-.01.26.1.47.15.74.19.05,0,.1,0,.16,0l1.67-.04c.26,0,.31-.11.31-.32,0-.26-.06-.52-.07-.78,0-.42-.12-.83-.24-1.25-.12-.57-.23-1.09-.4-1.66,0-.16-.11-.31-.17-.47-.16-.26-.27-.57-.33-.83-.11-.36-.22-.67-.28-.99-.05-.1-.06-.15,0-.21,0-.16.05-.26,0-.37-.05-.05-.06-.1,0-.16,0-.21.04-.42.04-.63q.05-.26.31-.32c.16-.06.31-.11.52-.01.05.05.16.05.21,0,.26-.16.52-.12.78-.07.26,0,.42.2.48.41.06.26.12.52.12.73,0,.31.07.57.23.78.16.1.22.26.27.46,0,.11.11.21.16.31.16.15.22.36.17.57,0,.16.06.31.17.52.22.36.33.83.45,1.3,0,.21.06.36.17.57.06.26.06.52.07.84-.05.05-.05.16,0,.21.16.26.12.52.18.83,0,.26-.04.58-.03.89,0,.37-.09.63-.19.95-.05.16-.15.32-.3.43-.31.32-.61.64-.92.91-.1.11-.2.16-.31.22-.31.22-.62.38-.98.44-.47.06-.94.23-1.36.19Z"/>
    <path class="cls-1" d="M115.45,173.82c-.26-.07-.52-.08-.78-.15h-.16c-.47.01-.89-.06-1.36-.09-.42-.03-.84-.05-1.25-.13-.21-.07-.41-.18-.62-.14-.42.08-.78-.05-1.15-.02-1.1-.07-2.19-.13-3.28-.25-.31-.02-.68-.09-.99-.11-.05-.06-.1-.06-.15-.06-.37.08-.79.06-1.15-.07-.21-.06-.42-.02-.62-.09-.41-.13-.78-.1-1.14-.17-.16,0-.25-.12-.36-.18l-.3-.18c-.26-.02-.41-.23-.55-.45-.1-.11-.05-.84.06-.99.11-.1.27-.19.43-.24.16-.1.37-.13.59-.23.05,0,.16-.04.21.01.15.17.31.07.47.08.37.02.74-.06,1.1.01.36.07.73,0,1.1.01.16,0,.26.02.42.03l1.3.08c.05,0,.16.01.21.01l.21-.04c.36.13.73,0,1.1.01.16,0,.31.07.41.13.31.07.63.04.89.05.37-.03.73,0,1.05,0,.16,0,.31.07.42.08.26.07.47.08.73.1.42.08.84,0,1.21-.08.21-.04.37-.08.53-.02.21.06.41.08.57.04.21-.04.37-.03.52.14.1.11.25.12.42.08.05-.05.16,0,.26.01.05,0,.15.06.26.02.42-.03.78.15,1.08.38.3.17.6.45.47.87-.08.36-.2.72-.32,1.03-.18.3-.5.49-.87.47-.32.03-.63.01-.95.05ZM97.06,173.03c-.1,0-.26-.07-.41-.13l-.57-.19c-.15-.06-.2-.12-.35-.23-.25-.28-.49-.55-.68-.93,0-.05-.05-.11-.04-.16.03-.42-.21-.85-.13-1.32.06-.21.13-.36.34-.45.44-.29.86-.42,1.38-.28.11,0,.21.06.26.12l.46.18c.2.17.35.33.55.45l.45.39c.25.17.39.44.43.76.04.26.02.53,0,.79,0,.05-.06.15-.12.2-.17.15-.28.3-.44.39-.38.19-.66.43-1.13.4Z"/>
    <path class="cls-1" d="M121.54,167.68c-.52-.03-1.21-.03-1.89-.09-.52-.03-1.1-.07-1.61-.2-.15-.07-.3-.1-.41-.06-.67-.11-1.31-.1-1.93-.2-.52-.03-1.1-.07-1.67-.16-.21-.03-.41-.07-.61-.15-.35-.16-.77-.17-1.13-.23-.52-.03-1.1-.07-1.62-.15-.26-.04-.51-.13-.77-.18-.31-.05-.58-.04-.87-.19-.05,0-.15-.02-.26-.04l-.67-.11c-.15-.03-.26-.04-.42-.02-.16.03-.37,0-.52-.03-.52-.08-.98-.16-1.46-.18-.15-.02-.31-.05-.42-.01-.1-.02-.16-.03-.21-.03l-1.76-.28c-.63-.05-1.24-.2-1.85-.35s-1.19-.19-1.75-.33c-.46-.07-.92-.2-1.39-.27-.36-.06-.67-.11-1.03-.16l-.46-.07c-.1-.07-.25-.09-.35-.11-.52-.08-1.09-.12-1.61-.2l-.41-.07c-.16-.02-.3-.1-.51-.13-.31-.05-.61-.15-.95-.04-.21.02-.36-.06-.44-.23-.09-.12-.13-.18-.28-.2-.22.02-.29-.15-.38-.27l-.47-1.03c-.04-.06.02-.1.03-.16.38-.05.57-.28.86-.45.22-.07.51-.18.74-.31.64-.37,1.34-.74,2.07-1.05.23-.12.51-.24.79-.3.33-.11.67-.21.99-.27.17-.08.39-.15.62-.22.16-.03.27-.06.45-.14.05,0,.16.02.16-.03.41-.25.89-.28,1.32-.32.49-.08.96-.06,1.45-.14.6-.12,1.19-.18,1.81-.4.45-.19.94-.22,1.38-.36.16-.03.27-.06.43-.04.66-.16,1.31-.27,2.02-.37.21-.02.43-.04.6-.12.45-.14.88-.18,1.31-.27.75-.04,1.46-.19,2.22-.28.27-.06.54-.07.86-.08.27-.01.54-.07.87-.13.27-.01.59-.07.91-.07.49-.08.98-.16,1.51-.18.27-.01.52.03.81-.08l.1.02c.17-.08.29-.17.25-.23-.04-.11-.15-.08-.25-.09l-.72-.11c-.05,0-.15-.08-.21-.03-.11.04-.21.02-.3-.1-.05,0-.1-.02-.2-.08-.15-.02-.36-.06-.52-.08l-.1-.02c-.22.07-.41-.07-.66-.16-.05,0-.15-.08-.25-.09-.21.02-.36-.06-.56-.14l-.31-.05c-.16.03-.36-.06-.51-.13-.09-.12-.17-.24-.34-.21l-.04-.06c.05-.31-.19-.14-.34-.16s-.25-.09-.41-.07-.32,0-.45.14c-.06.04-.17.08-.21.02-.14-.13-.25-.09-.36-.06-.11.04-.16-.03-.26-.04-.36-.06-.72-.16-1.02-.27l-.16-.03c-.41-.07-.89-.09-1.3-.15-.11.04-.21-.03-.31-.05-.39-.22-.85-.29-1.31-.42-.31-.05-.61-.15-.92-.2h-.05c-.51-.14-1.03-.22-1.53-.36-.56-.14-1.14-.18-1.7-.27-.16-.03-.31-.05-.46-.13-.09-.07-.2-.08-.3-.1-.26-.04-.52-.08-.77-.17-.4-.12-.83-.13-1.24-.2-.16-.03-.3-.1-.51-.13-.41-.12-.88-.14-1.31-.1-.26-.04-.52-.08-.77-.17l-.52-.08c-.46-.07-.85-.29-1.17-.61-.04-.06-.08-.17-.17-.29l-.12-.23c-.24-.14-.25-.41-.27-.63-.03-.16.05-.31.21-.34.28-.06.5-.13.73-.26.12-.09.27-.06.39-.1.21-.02.48-.03.7-.05l.21.03c.66.16,1.34.21,2.01.32.41.06.88.14,1.29.2l.16.02c.48.29,1.06.33,1.62.47.41.12.87.19,1.33.26.41.12.76.23,1.17.29.25.09.45.18.71.17.16-.03.37,0,.57.09l1.02.27c.5.18,1.02.27,1.52.4.41.07.87.19,1.28.31l.15.02c.47.02.87.19,1.33.26.41.07.76.23,1.16.34h.05c.42.02.83.14,1.24.2l1.47.39c.26.04.51.13.82.18.41.07.88.14,1.34.21l.83.13c.47.07.93.15,1.34.21l2.22.35c.31.05.66.16.97.21.21.03.41.07.63.05.31.05.61.15.9.3.09.07.24.14.4.17.16.02.26.04.4.17.22.3.56.46.86.61.24.14.37.32.43.6.09.76-.13,1.14-.85,1.35l-1.18.45c-.54.07-1.03.15-1.55.12-.21-.03-.37,0-.53.02-.26-.04-.53-.03-.84-.08,0,0-.05,0-.06.04-.6.12-1.12.03-1.7.05-.37,0-.74-.01-1.07.1-.56.18-1.14.19-1.68.21-.33.05-.6.12-.92.12-.06.04-.11.04-.16.03-.63-.05-1.24.12-1.83.19-.33.11-.71.15-1.08.15-.1-.02-.15-.03-.21.02-.44.09-.81.08-1.25.17-.5.13-.94.22-1.42.3-.27.01-.54.07-.76.14-.67.21-1.36.26-2.01.32-.38.04-.71.15-1.09.2-.51.24-1.05.26-1.51.5-.45.19-.93.22-1.36.26-.53.02-1.02.1-1.5.13-.05,0-.1-.02-.16.03-.5.13-1,.32-1.45.46-.11.04-.23.12-.29.17-.11.04-.18.13-.14.19.04.06.14.13.19.14.62.1,1.29.2,1.9.36l.51.13c.46.13.87.19,1.28.26.25.09.46.12.71.17.31.05.63.05.92.2l.26.04c.8-.03,1.57.14,2.35.21.27-.01.53.03.78.07l2.32.37c1.24.2,2.48.39,3.72.59l1.7.27c.78.12,1.56.19,2.29.26.47.07.89.09,1.35.16.36.06.72.17,1.09.12h.05c.35.12.73.07,1.1.08.73.06,1.51.13,2.22.03q.33-.05.44.23c.06.27.18.51.3.79.09.12.11.28.19.45.1.39-.05.63-.39.79-.51.18-1.03.15-1.69,0Z"/>
    <path class="cls-1" d="M114.1,148.28c-.22-.01-.47-.09-.67-.15l-1.05-.32c-.2-.06-.38-.17-.63-.25-.15-.05-.28-.14-.49-.2-.42-.24-.85-.43-1.32-.68l-.52-.27c-.33-.16-.65-.36-.97-.57l-.8-.41c-.24-.13-.45-.3-.69-.43l-1.06-.82c-.39-.34-.78-.67-1.18-.96-.2-.23-.47-.42-.68-.65-.27-.19-.47-.42-.68-.65-.13-.09-.2-.23-.29-.31-.49-.37-.82-.91-1.14-1.44-.03-.07-.02-.12-.07-.13-.25-.24-.38-.55-.5-.86-.24-.46-.43-.9-.63-1.34-.12-.31-.26-.57-.27-.9-.02-.12-.04-.23-.11-.36-.18-.49-.24-1-.24-1.55,0-.17-.06-.34-.1-.58-.06-.35,0-.71,0-1.09.09-.47.19-.98.34-1.48.09-.3.25-.64.44-.9.18-.22.3-.45.6-.53l.21-.15c.24-.25.52-.28.87-.17.1.03.19.11.25.08.35-.06.53.22.69.43.05.01.05.18.04.23-.05.15-.13.23-.27.35l-.31.29c-.23.2-.4.42-.43.69-.05.15-.09.3-.24.42-.05-.02-.08.08-.1.13-.01.21-.09.47-.03.65.07.3.08.63.09.96.02.28.08.63.27.9.12.15.21.39.2.61-.03.1-.01.21.07.29.19.28.31.59.44.9,0,.17.12.31.19.44.1.2.26.41.38.55l.16.38c.2.23.37.39.45.68.05.02.03.07.08.08.32.21.49.54.73.83.15.21.36.44.59.56.49.37.9.82,1.34,1.18.2.23.47.42.74.61.3.26.62.46.98.74.3.26.64.41.97.57.47.25.94.51,1.42.71l1.76.87c.28-.02.47.25.72.33.26.03.5.15.75.23.85.26,1.63.55,2.51.55.38,0,.68.1,1.06.11l.6.02c.23-.04.5-.01.76.01.17,0,.4-.04.59-.15.07-.03.2-.1.31-.12s.26-.14.39-.21c.37-.32.4-.75.43-1.23.03-.1.03-.27.02-.43.03-.27-.06-.51-.2-.77-.12-.15-.17-.33-.24-.46l-.54-.93c-.21-.39-.45-.68-.74-.99-.3-.26-.51-.65-.79-1.01-.1-.2-.26-.41-.41-.62-.02-.12-.1-.2-.19-.28l-1.5-1.17c-.3-.26-.67-.48-1.01-.64-.23-.13-.47-.25-.74-.44l-.71-.55c-.37-.22-.74-.44-1.12-.62-.4-.29-.84-.48-1.29-.78-.49-.37-1.04-.7-1.64-.89-.7-.21-1.35-.41-2.03-.51l-.58-.07c-.25-.08-.47-.09-.75-.06-.42-.07-.8-.08-1.23-.1-.32-.04-.52-.27-.59-.56-.02-.12-.09-.25-.12-.31-.12-.31-.05-.56.17-.72.15-.12.39-.21.57-.26.35-.06.71,0,1.04,0,.4-.04.78-.04,1.15-.19.13-.07.25-.09.38,0,.08.08.25.08.37.06.22.01.42.07.67.15.2.06.4.12.61.13.38,0,.72.16,1.08.22.42.07.87.21,1.28.28.45.14.83.31,1.28.45l.05.02c.43.02.8.24,1.15.35.35.11.63.25.93.34l.5.15c.35.11.69.26,1.03.37l.52.1c.49.2.99.36,1.42.54.68.27,1.32.51,2.02.73.39.17.7.38,1.1.5.3.09.57.28.93.34.15.05.27.19.47.25.22.18.5.32.8.41.38.17.69.43,1.06.65.22.18.45.3.62.46.35.27.71.54,1.08.77.32.21.56.5.88.71.35.27.64.58.8.96.1.2.27.36.46.47.12.15.24.29.31.42l.45.68c.36.44.36.98.47,1.51.11.36.1.74.14,1.14.03.07.05.18.09.25l.04.4c.02.12-.01.22.02.28.02.12,0,.17-.03.27-.07.41-.21.87-.4,1.3-.05.15-.04.31-.09.46-.06.2-.12.4-.12.57l-.14.45c0,.17-.03.27-.18.22-.32-.04-.53.11-.79.25-.33.17-.72.38-1.09.54-.38.16-.76.15-1.14.14-.26-.03-.55,0-.81-.03-.1-.03-.17,0-.27-.03-.25-.08-.5-.15-.57-.45-.02-.12-.07-.13-.1-.2-.15-.21-.14-.43.03-.65.24-.25.58-.48,1.01-.46.1.03.17,0,.22.01.43.02.74-.1,1.06-.44.28-.19.54-.33.75-.65l.08-.25c.09-.47.18-.93.23-1.46.03-.1.01-.22,0-.33-.05-.18-.04-.4-.1-.58-.19-.44-.29-.85-.51-1.19-.07-.13-.14-.26-.16-.38-.14-.26-.28-.52-.55-.71-.34-.32-.61-.68-.9-.99-.09-.08-.17-.16-.2-.23-.35-.27-.72-.5-1.06-.82-.4-.29-.87-.54-1.34-.79-.43-.19-.8-.41-1.22-.65-.42-.24-.77-.51-1.22-.65-.48-.2-.89-.49-1.4-.59-.12.02-.2-.06-.3-.09-.05-.02-.1-.03-.17,0-.02.05.02.12,0,.16.07.13.17.33.31.42.2.23.41.45.66.69.22.34.53.6.83.86.08.08.2.23.27.36.12.31.26.57.53.76.23.13.37.39.46.63.02.12.14.26.21.39l.1.2c.09.25.24.46.41.62.34.49.59.95.4,1.54-.03.1-.05.15-.01.22-.01.22-.06.36-.12.56-.03.1-.01.22,0,.33-.02.05.02.12-.03.1-.23.2-.12.56-.29.78-.13.23-.2.48-.33.72-.11.18-.17.38-.42.47-.18.05-.39.21-.54.33-.08.08-.11.18-.21.32-.19.27-.48.51-.8.63-.26.14-.49.18-.72.22-.23.04-.36.11-.54.16-.18.05-.41.09-.58.1-.28.02-.55,0-.81-.03l-.35.06c-.53-.05-1.08-.06-1.62-.06-.58-.07-1.18-.25-1.76-.32-.05-.02-.1-.03-.15-.05l.02-.05Z"/>
    <path class="cls-1" d="M139.2,113.48c-.76-.56-1.46-1.01-2.14-1.51-.22-.14-.44-.28-.7-.45l-.44-.28c-.09-.06-.2-.07-.26-.17-.43-.4-.95-.74-1.48-1.08-.5-.38-1.01-.65-1.44-1.05l-.18-.11c-.13-.09-.26-.17-.44-.28l-.44-.28c-.32-.27-.7-.45-1.03-.72-.53-.34-1.03-.72-1.57-1.14-.28-.24-.66-.43-1.01-.65-.35-.23-.66-.42-1.02-.54-.25-.1-.44-.28-.66-.43-.56-.3-1.08-.64-1.58-1.02l-1.14-.74c-.78-.44-1.54-.99-2.36-1.46-.66-.43-1.33-.92-2.02-1.31-.62-.4-1.23-.79-1.87-1.15-.13-.08-.26-.17-.42-.21-.41-.14-.6-.14-.82.21-.09.13-.13.29-.21.42-.29.25-.4.62-.52.91-.24.47-.48.93-.76,1.37l-.79,1.23c-.17.26-.47.44-.77.62,0,0-.07.02-.1.06-.49.18-.69.11-.95-.36-.06-.1-.09-.25-.12-.39l-.1-.62c-.06-.1-.05-.22,0-.38.17-.45.45-.89.69-1.36.14-.22.21-.42.31-.67l.34-.53c.27-.51.46-1.01.7-1.47l.06-.09c.34-.53.61-1.04.95-1.57.03-.05.06-.09.04-.16.04-.35.25-.58.4-.8.14-.22.27-.51.41-.73.36-.45.62-.97.96-1.49.3-.37.51-.79.77-1.19.17-.26.38-.5.55-.76.1-.06.13-.1.23-.16l.47-.44c.16-.15.23-.16.43-.09l.2.07c.36.11.66.24.73.6.03.15.05.22.11.32.13.27.12.58-.05.84-.14.41-.39.8-.69,1.17-.33.41-.6.92-.88,1.36l-.23.35c-.21.23-.34.53-.45.89-.04.16-.04.35.14.46.04.03.09.06.1.13.09.25.27.36.49.5.72.34,1.42.79,2.16,1.09l.17.11c.51.46,1.12.78,1.76,1.13.25.1.48.31.75.48.18.11.39.26.61.4l.92.6c.89.45,1.63,1.05,2.46,1.59.34.15.64.35.94.48.31.2.61.4.95.55.18.11.31.2.51.27l.09.06c.09.24.25.29.46.36l.04.03c.37.3.73.6,1.1.9l.18.11c.5.19.88.57,1.32.85.35.23.67.5,1.03.72.19.19.41.33.6.51.13.08.28.24.47.24l.09.06c.23.21.51.46.78.63.19.19.41.33.67.5.31.2.56.48.9.64.25.1.42.21.64.35l.28.24c.22.14.4.26.6.32.29.13.58.25.79.51l.15.16c.25.1.47.24.69.38.34.16.57.37.91.52.38.18.66.42,1.04.61.13.08.19.19.22.33.11.51.17.98-.23,1.41-.14.22-.34.34-.57.31-.23-.03-.51-.08-.74-.11l-.82-.28c-.52-.15-1.01-.46-1.33-.73Z"/>
    <path class="cls-1" d="M140.6,85.66c.28.23.56.39.8.59l1.08.9s0,.07.08.07c.51.29.89.81,1.33,1.18.28.23.46.59.74.82.1.29.33.41.54.58.16.13.29.31.42.48.1.29.31.53.52.77.34.41.68.9.91,1.44.05.18.14.32.23.46.11.36.21.65.28.98.05.11.02.22.03.3-.06.15-.05.3,0,.48.09.14.07.33,0,.48-.08.34-.15.76-.35,1.07-.13.23-.25.47-.31.7-.09.19-.15.42-.16.68-.03.04-.03.11-.02.19-.05.23-.16.27-.38.29-.07,0-.19-.02-.29.03-.11-.03-.25.06-.32.14-.21.17-.42.26-.64.35-.11.05-.17.2-.32.14,0,0-.11.05-.1.12-.06.15-.17.2-.27.25-.25.06-.5.19-.76.18-.11.05-.21.09-.36.11,0,0-.03.04-.11.05-.84.19-1.65.26-2.43-.18l-.54-.25c-.43-.22-.89-.4-1.28-.59l-.2-.17c-.15-.06-.27-.16-.43-.22-.08-.07-.16-.13-.32-.19-.32-.27-.68-.49-1.07-.76l-.56-.47c-.49-.48-1.02-.98-1.47-1.5-.5-.55-.92-1.1-1.34-1.66-.29-.31-.54-.66-.8-1-.21-.31-.42-.56-.56-.88-.23-.46-.53-.92-.8-1.41-.13-.25-.24-.61-.34-.9-.05-.11-.05-.18-.06-.25-.4-.67-.39-1.41-.57-2.18-.1-.29-.06-.59.02-.93.05-.3.09-.6,0-.89-.05-.18,0-.33.06-.56.06-.15.17-.2.28-.17h.15c.36.21.66-.08.95-.18l.54-.16c.51-.12,1.05-.28,1.61-.3.44-.04.92-.12,1.41-.06.19.02.42.07.64.13.23.05.46.11.72.12.37.04.65.2.96.32.19.09.38.11.58.21.39.19.81.33,1.2.52.43.22.82.41,1.11.71ZM138.97,86.55c-.19-.09-.32-.27-.52-.36-.5-.21-1.04-.39-1.5-.57-.23-.13-.47-.25-.73-.27-.6-.09-1.23,0-1.86.02-.37.03-.56.35-.57.68.02.22-.03.45-.13.64-.18.46-.21.91-.06,1.38.05.11.06.26.07.33-.12.31-.03.52.14.73.35.56.63,1.2.98,1.77.28.57.69,1.05,1,1.58.34.49.74.82,1.12,1.27.34.41.74.75,1,1.17l.12.1c.16.13.43.22.49.48-.03.04.08.07.12.1.44.37.88.73,1.36,1.06.56.39,1.07.75,1.66,1.03.19.09.31.12.53.1.19.02.37-.03.58-.13.68-.25,1.15-.81,1.58-1.34.2-.24.36-.52.45-.78.22-.43.33-.81.25-1.29-.03-.37-.14-.73-.14-1.14-.03-.3-.17-.62-.34-.9l-.9-1.29c-.21-.24-.42-.48-.63-.8-.13-.17-.36-.3-.53-.51-.28-.23-.53-.51-.78-.78-.33-.34-.66-.76-1.13-1.01-.36-.23-.68-.49-.93-.84l-.08-.07c-.26-.01-.43-.22-.63-.39Z"/>
    <path class="cls-1" d="M136.82,69.1c.3-.21.53-.43.79-.61.26-.18.53-.28.79-.39l1.01-.53c.41-.17.75-.5,1.2-.56.11-.03.19-.11.26-.18.49-.25.97-.49,1.5-.63.22-.07.45-.21.67-.28.15-.07.26-.03.45-.06.26-.03.38-.21.31-.51l-.2-.67-.16-.86s0-.07-.03-.11c-.28-.53-.53-1.09-1.11-1.4-.33-.19-.58-.53-.75-.87-.11-.11-.11-.19,0-.3l.23-.22c.12-.18.26-.18.41-.17.3,0,.55.05.81.02.15,0,.22.08.33.19.15.08.25.19.4.27.18.19.4.42.61.57.22.23.47.49.57.83.07.15.22.23.25.34.25.41.42.83.52,1.31.1.34.2.67.31,1.01l.11.11c.25.19.47.34.8.46.44.16.88.39,1.32.55.37.08.7.2.99.43.36.23.8.47,1.2.66.22.08.44.23.66.39.33.27.69.57.98.88.69.65,1.37,1.37,2.02,2.05.18.19.28.45.46.64.04.04.03.11.07.15.36.38.64.83.93,1.28.07.15.18.34.36.38l.07.08c.17.41.54.72.71,1.06.28.6.71,1.13.95,1.76.14.3.32.56.5.83l.21.45c.17.41.31.86.49,1.2.24.56.41,1.12.62,1.72.14.3.2.67.27,1.04l.2.75c0,.15.07.3.06.45,0,0-.04.04,0,.08l.07,1.67c-.01.44.09.85,0,1.29-.04.26.02.48-.02.74.03.19.03.33-.01.52-.01.44-.1.88-.15,1.29-.05.41-.09.74-.14,1.07l-.27,1.77c0,.15-.08.29-.16.44-.04.11-.12.18-.16.29,0,.15,0,.3.03.41.07.15.18.34.28.53l.04.04c.21.38.13.6-.24.73-.22.07-.41.17-.67.05-.04-.04-.15,0-.19.03-.37.06-.74.05-1.07-.07-.48-.12-.81-.32-1.13-.66-.18-.19-.4-.34-.62-.5l-1.45-1.3c-.72-.61-1.37-1.22-2.06-1.87-.22-.23-.51-.46-.76-.72-.21-.3-.54-.57-.83-.8-.22-.23-.43-.38-.65-.61-.29-.3-.69-.57-.94-.91-.11-.11-.25-.19-.36-.31-.18-.19-.36-.38-.54-.57l-1.48-1.56c-.32-.34-.61-.72-.93-1.06-.32-.34-.57-.68-.86-.98-.25-.34-.54-.64-.79-.98-.36-.38-.68-.79-1.04-1.17l-.86-.91c-.54-.64-1.04-1.32-1.58-1.96-.29-.38-.57-.68-.9-1.02l-.61-.65c-.14-.15-.25-.19-.4-.12-.41.17-.78.09-1.22,0-.29-.08-.59-.16-.92-.28-.11-.04-.22-.08-.29-.16-.22-.23-.47-.42-.61-.72-.07-.08-.11-.19-.07-.3l-.03-.19c.05-.33.02-.59-.16-.85-.07-.08-.11-.19-.03-.33.08-.15.19-.33.27-.47l.24-.66c.08-.29.16-.59.39-.88l.73-.91ZM150.25,70.42c-.47-.49-.86-.98-1.37-1.37-.54-.42-1.01-.91-1.67-1.08-.37-.08-.7-.2-1.03-.25-.18-.04-.26.03-.34.18-.04.26-.09.52-.21.77,0,.07,0,.22-.04.26-.2.48-.39.95-.63,1.39-.04.04-.04.11-.08.15-.22.07-.3.29-.42.47-.5.69-1.11,1.34-1.65,2.07-.12.18-.3.29-.42.47-.04.04-.04.11,0,.15.14.15.21.3.36.38l.9.95c.18.26.39.49.53.79l.11.11c.15,0,.22.15.29.3.14.15.21.3.36.45l.5.53c.18.19.32.34.47.57.21.3.5.53.75.87l.58.61c.11.11.25.27.32.41.07.15.14.23.29.3.18.19.4.34.54.57.32.34.57.68.82,1.02.07.08.11.11.14.15l.72.76c.43.45.71.98,1.22,1.36.29.3.54.72.9.95l.11.19c.07.08.11.19.18.26.58.61,1.15,1.21,1.77,1.79.72.76,1.48,1.48,2.23,2.21l.14.15c.07.08.18.04.19-.03,0-.22.05-.41.09-.59.05-.33.06-.7.1-1.03v-.37c.01-.15-.02-.33.02-.52,0-.37.02-.74-.04-1.11l.08-.37c0-.29.02-.59-.09-.85-.03-.11,0-.22-.03-.33-.09-.7-.11-1.41-.24-2.08-.09-.63-.3-1.16-.43-1.75-.11-.19-.14-.37-.21-.52-.28-.53-.42-1.05-.62-1.57-.17-.41-.35-.75-.53-1.09-.1-.26-.25-.41-.32-.64-.07-.23-.14-.37-.28-.53-.25-.49-.49-.9-.74-1.32-.28-.45-.6-.94-.96-1.32l-.54-.72c-.29-.38-.65-.68-.82-1.1-.04-.04-.07-.07-.07-.07l-.94-.99ZM141.48,71.81c.19-.11.38-.36.53-.65,0-.07.08-.15.08-.22.34-.32.5-.76.77-1.09l.39-.8c.08-.22.2-.4.24-.59.08-.29-.03-.33-.25-.27-.3.06-.6.21-.82.42l-.19.18c-.37.21-.79.39-1.06.79l-.11.11c-.49.25-.8.68-1.07,1.16-.08.22-.12.4.02.55.25.27.5.53.79.76.14.15.18.12.33-.03l.34-.32Z"/>
    <path class="cls-1" d="M175.33,77.62c-.09-.13-.22-.29-.29-.57-.13-.36-.31-.68-.48-1.08l-.62-1.36c-.15-.28-.29-.56-.48-.82-.08-.2-.21-.37-.33-.54-.03-.04-.06-.08-.05-.16-.09-.13-.11-.24-.21-.37-.33-.53-.63-1.03-.92-1.59-.05-.16-.36-.32-.56-.23-.2.08-.44.2-.55.41-.17.12-.3.29-.49.3-.07,0-.16.05-.2.08-.18.2-.39.35-.64.54-.21.16-.46.34-.7.46-.08.06-.14.17-.19.27-.06.18-.24.38-.38.54-.21.16-.38.28-.56.48-.18.2-.4.43-.55.67-.13.09-.18.2-.23.3-.09.14-.12.28-.02.41.26.26.47.63.74.82.07.01.1.05.14.1.27.45.67.81.99,1.15l.06.09c.3.49.74.82,1.17,1.22.22.29.45.51.71.78l.53.45c.07.01.15.02.18.06.25.34.55.57.76.93.16.21.12.43.12.69-.04.03-.05.1-.09.14-.2.08-.4.17-.58.1-.14-.09-.29-.04-.45,0-.48.23-.95.12-1.39-.2l-.06-.08c-.05-.16-.19-.25-.29-.3-.18-.06-.34-.2-.52-.26-.1-.05-.17-.14-.27-.19-.18-.06-.3-.23-.4-.36-.2-.18-.44-.33-.61-.46-.09-.13-.23-.22-.29-.3-.48-.56-.97-1.04-1.47-1.45-.03-.04-.07-.01-.1-.05-.2-.44-.69-.66-1-1.08l-1-1.08c-.14-.09-.36-.13-.36-.32-.4-.36-.67-.81-.98-1.23l-2.31-3.11c-.31-.42-.54-.9-.85-1.32-.02-.11-.13-.17-.11-.24-.25-.34-.43-.66-.63-1.03-.22-.29-.43-.66-.6-.99-.19-.25-.3-.49-.45-.78-.06-.08-.08-.2-.14-.28l-.56-1.02c-.33-.53-.74-1.08-1.06-1.69-.15-.28-.35-.65-.41-1-.1-.31-.21-.63-.31-.94l-.68-1.97c-.1-.31-.13-.62-.24-.93-.23-.48-.26-1.05-.37-1.55l-.07-.27c-.04-.23-.08-.46-.08-.72.01-.07.02-.15,0-.26-.07-.27.01-.6.02-.93.05-.1.03-.22.02-.41-.06-.35.09-.59.46-.6.16-.05.24-.11.3-.29.08-.32.4-.43.67-.5s.47-.15.71-.27c.28-.15.52-.26.82-.22.07.01.15.02.19,0,.3-.03.61-.06.89.06.21.11.5.15.73.11.22.03.41.02.57.16.06.08.14.09.21.11.5.15,1,.3,1.45.55.21.11.45.25.62.39l.03.04c.46.18.81.57,1.18.88.07.01.14.09.2.18.11.24.38.43.58.61.35.39.8.64,1.24.97.2.18.36.32.52.52.22.29.45.51.68.74l.28.38c.08.2.18.33.3.49.33.27.58.61.8.9.11.24.32.35.48.56.2.18.34.46.5.67.06.08.16.21.26.26.23.22.39.43.54.64.07.01.06.08.09.13.13.36.36.58.58.87.13.17.29.31.26.52l.06.08c.26.26.45.51.59.8.16.4.47.63.64.95.22.29.45.51.67.81.03.04.05.16.12.24,0,0-.01.07.02.12.38.24.41.73.68,1,.06.08.08.2.15.28.2.7.59,1.32.99,1.94.15.28.45.51.59.8.22.29.36.58.51.86.38.69.65,1.4,1,2.13l.03.04c.2.18.27.45.38.69.16.21.23.48.34.72.08.2.17.4.25.6l.43,1.11c.08.2.18.32.23.48.21.37.04.75-.38.8l-.61.06c-.15-.02-.29-.04-.36-.13-.2-.18-.48-.3-.62-.58l-.09-.13ZM163.51,59.1l.04-.03-.22-.29c-.16-.21-.28-.38-.49-.48-.07-.01-.11-.05-.14-.09-.43-.4-.85-.8-1.32-1.17-.2-.18-.4-.36-.63-.58l-.63-.58s-.06-.08-.14-.1c-.27-.19-.55-.31-.87-.46-.2-.18-.42-.21-.63-.32-.18-.06-.37-.05-.56.03-.23.04-.5.11-.74.23-.55.22-.83.55-.7,1.17.06.35.2.7.18,1.04.04.49.15.99.28,1.42.11.76.42,1.45.78,2.1.18.32.28.64.43.92.13.36.27.71.36,1.1.2.7.59,1.32,1.03,1.91.31.42.54.9.89,1.29.34.46.53.97.8,1.43.25.34.38.69.63,1.03l.13.17c.03.3.23.48.37.77l.22.29c.19.25.3.49.5.67.06.08.14.1.12.17.07.27.26.52.46.7.1.05.09.13.16.21.25.33.43.66.77.86.1.05.16.21.22.29q.12.17.32.08c.08-.06.17-.12.22-.23.28-.41.56-.74,1.04-.97l.08-.06c.18-.2.39-.35.56-.48.21-.16.36-.4.57-.55l.96-.72c.25-.19.56-.22.71-.53l.04-.03c.28-.14.54-.33.78-.45.17-.12.22-.23.06-.44l-.12-.17c-.37-.77-.87-1.44-1.37-2.11-.19-.25-.36-.58-.55-.83-.24-.41-.52-.79-.73-1.15-.19-.25-.37-.5-.52-.79l-.22-.29c-.37-.5-.75-1.01-1.08-1.54-.06-.08-.11-.24-.22-.29-.31-.42-.71-.78-.99-1.15-.25-.34-.54-.64-.86-.99Z"/>
    <path class="cls-1" d="M185.96,70.67c-.21-.36-.42-.73-.61-1.16-.1-.18-.12-.42-.25-.64-.1-.06-.18-.2-.23-.29-.03-.05-.12-.11-.1-.18-.16-.27-.29-.5-.4-.8-.08-.14-.16-.27-.19-.43.02-.07-.03-.16-.09-.25-.18-.32-.2-.67-.48-.93.05-.33-.31-.54-.35-.82-.07-.32-.22-.6-.38-.87t0-.12c-.05-.39-.3-.73-.48-1.05-.45-.89-.92-1.7-1.35-2.54-.21-.36-.53-.6-.8-.87-.12-.11-.31-.12-.5-.13-.28-.08-.62-.13-.86-.35l-.03-.05c-.3,0-.53-.18-.77-.28l-.48-.21c-.1-.07-.19-.13-.29-.19l-.17-.08c-.45-.16-.85-.42-1.17-.77-.25-.22-.45-.46-.7-.68-.2-.13-.41-.19-.6-.32-.36-.21-.75-.47-1.05-.78-.37-.33-.7-.69-1.11-.99-.25-.22-.49-.44-.72-.73-.1-.18-.32-.24-.47-.39-.35-.28-.69-.57-.97-.95-.2-.25-.49-.44-.74-.66-.19-.13-.34-.28-.54-.41-.22-.17-.47-.39-.71-.5-.27-.15-.4-.37-.62-.55-.12-.11-.18-.2-.27-.27-.15-.16-.27-.26-.35-.4-.18-.2-.51-.37-.63-.67-.03-.05-.14-.04-.2-.13-.27-.15-.49-.44-.65-.71-.1-.18-.14-.34-.12-.53.06-.21.17-.34.25-.51.27-.27.56-.38.91-.41.6-.11,1.06.17,1.42.57.45.46.92.98,1.42,1.42.25.22.51.37.76.59l.34.28c.34.28.74.54,1.08.83.37.33.62.67,1,1,.3.31.64.59.99.88.44.35.91.74,1.29,1.19.13.23.32.35.55.53s.49.32.71.5c.29.19.54.41.79.63.47.4.96.72,1.49,1.01.1.06.15.15.25.22.3.31.66.52,1.09.64.21.06.31,0,.25-.2-.02-.35.1-.66.08-1.01-.03-.04,0-.12.01-.19.02-.07.04-.14.01-.19-.17-.51-.15-1-.25-1.48-.07-.32-.09-.67-.15-1l-.1-.49c-.11-.3-.2-.55-.19-.85-.05-.4-.21-.78-.26-1.18-.02-.35-.18-.74-.28-1.11l-.45-2.03q.02-.07,0-.12c-.22-.48-.27-.99-.37-1.48.01-.19-.09-.37-.17-.5l-.23-.71c-.12-.42-.24-.83-.4-1.22l-.36-.94c-.16-.39-.16-.81-.12-1.26,0-.12.06-.21.15-.27.27-.16.52-.24.78-.33l.26.03c.27.15.6.2.82.37.4.37.77.7.85,1.26.04.28.2.55.28.8.16.39.26.76.39,1.1.17.5.36.94.53,1.44l.22.9c.07.44.1.91.17,1.35.07.32.2.67.34,1.01.04.28.17.51.09.79l-.02.07c.27.27.2.67.27.99.03.16.07.32.03.47-.02.07,0,.12.03.16l.23.41c.1.49.29.92.27,1.41.18.32.02.66.13.95.06.21.07.44.13.65.24.52.2,1.09.19,1.7-.01.19-.02.38,0,.54-.01.19-.05.33-.13.5-.04.14,0,.3-.04.45l-.13.5c-.02.07-.01.19.01.23.03.05.08.14.18.2.48.51.75,1.2,1.07,1.86.06.21.19.43.29.62.18.32.34.59.5.86l.05.09c.02.35.27.57.33.89.05.09.1.18.09.25.03.16.09.37.24.52.03.05.1.18.09.25.01.23.19.43.29.62l.35.82c.24.52.53,1.02.77,1.55.16.39.35.82.56,1.19.06.21.16.39.31.54.18.2.26.45.3.73l.1.18c.27.15.35.28.39.56-.02.07,0,.12.03.16l.37.33s.03.05-.02.07c-.13.2-.09.47-.19.72,0,0-.02.07-.06.1-.23.01-.27.16-.28.34-.06.1-.11.12-.21.06-.14-.04-.31-.12-.33-.36-.03-.04-.08-.14-.19-.13-.07-.02-.12,0-.18.1-.06.1-.14.08-.19-.01q-.15-.16-.23.01s-.06.1-.13.2c0,0-.05.03-.07-.02,0,0-.03-.04-.05-.09.25-.2.11-.43.06-.63.04-.03-.03-.05-.05-.09.03.05-.02.07-.06.1l-.02.07c0,.12.04.28-.08.29-.07-.02-.2-.13-.22-.17-.21-.36-.39-.68-.57-1ZM188.4,71.98c.02-.07.04-.14.01-.19.04-.03-.03-.05-.1-.07l-.06.21s.07.02.14.04Z"/>
    <path class="cls-1" d="M200.59,63.71c.03.21.07.43-.06.65-.12.11-.16.3-.35.38-.14.06-.18.25-.28.41-.16.41-.53.63-.99.6-.38.05-.67-.23-.94-.34-.21-.08-.26-.34-.3-.56.01-.23.05-.42.01-.63-.06-.26.1-.44.27-.57.17-.13.37-.33.49-.44.18-.25.42-.35.7-.36.12,0,.28,0,.38-.05.29-.12.43-.07.55.22.13.17.19.32.35.42.04.1.08.19.17.27ZM189.06,36.56l-.29.12c-.43.19-.64.5-.6,1,0,.28-.03.47-.2.71-.35.38-.31.87-.1,1.35l.13.17c.16.1.24.29.21.48-.04.3.13.57.16.9.04.1.13.17.25.18.37.07.57.27.7.55.1.24.25.46.31.72.06.26-.03.59-.3.76-.14.06-.22.15-.36.21-.17.13-.34.26-.6.2-.02-.05-.07-.03-.12,0-.55.18-.91-.12-1.26-.42-.23-.13-.38-.23-.56-.38-.18-.15-.31-.32-.44-.49-.08-.19-.21-.36-.28-.51l-.25-.58c-.01-.16-.08-.31-.14-.45-.09-.47-.21-.88-.11-1.32-.02-.05.03-.07,0-.12-.06-.54.13-1.02.32-1.5l.03-.07c.06-.25.05-.54.18-.76.11-.27.29-.52.35-.78.06-.25.19-.48.34-.66.13-.23.31-.48.49-.72.27-.29.62-.55.98-.76l.19-.08c.47-.37,1.04-.5,1.58-.68.57-.13,1.11-.19,1.67-.09l.3.04c.61-.04,1.19.11,1.74.33.07.03.14.06.23.13.43.21.89.35,1.23.61.43.33.83.61,1.14,1.05l.64.69c.07.03.14.05.16.1l.52.8c.11.12.22.25.3.44.13.29.35.54.39.91,0,.12.06.26.15.34.15.22.21.48.31.72.14.34.22.64.1,1.04-.03.07-.03.18,0,.28.08.19.1.36.06.54q-.03.07,0,.12c.14.45-.14.86,0,1.31l-.08.21c-.11.27-.07.49-.02.75,0,.12,0,.28-.05.42.04.1.01.16-.01.23-.05.42-.07.77-.07,1.17l-.1.16c-.09.32-.13.62-.2,1l-.11,1.07c-.04.3-.08.61-.17.93l-.11.28c-.15.18-.19.36-.22.55-.06.25-.12.51-.14.74-.05.02-.08.09-.05.14.08.31-.08.6-.12.91.04.1-.03.19-.06.25.02.05-.05.14-.03.19.06.14-.02.35-.12.51-.13.23-.12.51-.12.79-.02.35-.04.7-.11,1.07-.02.35-.04.7.11,1.04.01.16.05.26.02.45-.13.23-.08.49.03.73l.1.36c.03.33.15.62.3.84.28.39.5.75.83,1.01.07.03.11.12.18.15.12,0,.18.15.22.25l.1.24c.2.2.25.46.26.74-.01.23-.12.51-.41.63l-.14.06c-.23.39-.58.25-.88.21-.44-.1-.8-.28-1.16-.58-.24-.3-.53-.57-.72-.89-.41-.56-.68-1.19-.79-1.82-.11-.64-.26-1.26-.36-1.89-.05-.26-.06-.54-.05-.78-.04-.5-.06-1.06-.05-1.57l.13-1.54c.02-.35.04-.7.11-1.07.13-.63.07-1.28.2-1.91.12-.51.27-.97.41-1.43l.39-1.59c.03-.18.1-.44.13-.63l.03-.19c.01-.23.03-.47.11-.67-.02-.05,0-.12.03-.19-.06-.26,0-.51.05-.82.09-.44.14-.86.07-1.28-.01-.16.02-.35.05-.54.05-.54,0-1.08-.07-1.62-.11-.52-.39-.91-.58-1.34-.21-.48-.56-.9-.91-1.32-.27-.23-.61-.36-.86-.54-.27-.23-.59-.31-.91-.4-.34-.14-.76-.18-1.15-.3-.19-.03-.49-.07-.71.08-.05.02-.17.01-.28,0-.51,0-1.04.11-1.5.36Z"/>
  </g>
</svg>