<?xml version="1.0" encoding="UTF-8"?>
<svg id="Layer_1" data-name="Layer 1" xmlns="http://www.w3.org/2000/svg" viewBox="0 0 234.58 181.95">
  <defs>
    <style>
      .cls-1 {
        fill: none;
      }

      .cls-2 {
        fill: #231f20;
      }
    </style>
  </defs>
  <g>
    <path class="cls-2" d="M20.57,87.64c.19.17.3.46.41.69.11.19.2.4.31.58.04.16.16.24.3.35.12.14.31.25.4.46l.1.11c.26.25.49.57.73.85l.05.05c.1.34.26.58.48.83.05.05.07.13.11.19.02.08.04.16.09.21.09.11.14.22.2.35.06.18.15.34.22.53l.16.19c.09.21.22.42.34.61.09.21.18.37.32.48l.09.11c.07.13.16.24.23.37.07.13.13.27.17.42.04.21.1.34.22.48.19.17.25.4.34.61.11.19.17.42.31.58.09.11.16.24.23.37.06.18.15.34.22.53.02.13.11.24.15.34.09.16.16.29.3.4.02.03.04.11.04.11-.01.2.08.31.2.4.02.03.07.08.07.13.01.18.15.34.22.53l.13.32c0,.05.02.08.04.11.07.13.16.24.2.4.11.29.29.51.45.8.16.29.37.54.47.88,0,.05.02.08.04.11.28.38.42.87.73,1.23.11.24.32.43.35.74.02.08.09.21.16.29.07.13.18.27.15.44-.03.02,0,.05.02.08.06.18.15.34.22.53.02.08.04.16.03.26,0,.1-.02.2.11.29.07.08.11.19.1.34-.01.15.03.31,0,.48-.06.1-.11.14-.22.19-.24.11-.52.06-.77.1-.08.02-.15-.01-.23,0-.21.04-.38,0-.56-.04-.45-.13-.9-.27-1.32-.48-.15-.11-.3-.12-.45-.19-.17-.09-.35-.13-.5-.19-.27-.15-.54-.24-.87-.29-.05,0-.1,0-.13-.03-.4-.13-.79-.31-1.16-.47-.22-.09-.39-.18-.59-.25-.07-.03-.15-.11-.25-.02-.03.07.04.16.06.23,0,.05,0,.1.02.13.22.19.22.53.43.77,0,0,.02.03,0,.05.15.44.4.85.65,1.25.02.08.09.16.11.24.11.24.22.48.3.74.02.03.04.1.04.16,0,.1.01.18.11.29.12.08.14.21.13.37-.07.2.05.39.11.57.09.16.18.32.14.5,0,.05.07.08.07.13l.03.59c0,.05-.06.05-.06.1q0-.05-.02-.08c0-.05-.02-.08-.04-.1l-.08.07c0,.05.02.08.02.13l-.05.05q-.07-.08-.13.02s-.05.05-.08.07c-.31.03-.59-.02-.88-.14-.34-.18-.66-.38-1-.56-.25-.12-.47-.21-.69-.36-.15-.06-.27-.15-.41-.26-.02-.03-.1-.06-.12-.09l-.83-.47c-.32-.2-.61-.38-.87-.63-.41-.31-.86-.5-1.24-.78l-.36-.26c-.33-.33-.78-.57-1.16-.85-.19-.17-.41-.31-.6-.53-.26-.25-.55-.47-.84-.7-.15-.11-.29-.17-.44-.29-.14-.11-.26-.25-.41-.36-.12-.14-.27-.2-.38-.33-.12-.09-.24-.17-.34-.28-.07-.03-.12-.08-.17-.14-.07-.03-.1-.06-.15-.11-.26-.25-.58-.5-.81-.77l-.6-.53c-.27-.2-.5-.42-.74-.64-.33-.33-.67-.61-1.01-.89-.12-.08-.24-.22-.36-.36l-.05-.05c-.14-.16-.31-.3-.45-.47l-.94-1.09c-.07-.08-.16-.19-.26-.3l-.66-.76c-.12-.14-.21-.3-.28-.43-.09-.16-.08-.31-.04-.49.03-.02.03-.07.06-.1.09-.12,0-.28.08-.4.13.03.24-.06.34-.1l.06-.05c.09-.22.25-.21.4-.2.18-.01.3.12.34.23.09.16.18.27.28.38.07.08.11.19.18.32.02.03.04.1.09.16.19.17.33.33.5.52.14.16.26.35.4.51.05.05.04.1.09.16.27.15.43.44.64.68.26.25.49.57.83.8.15.11.26.25.43.39l.76.72c.12.14.21.3.38.33l.02.03c.21.24.51.37.75.59.12.09.24.22.36.31.16.19.36.36.52.55.1.06.15.11.22.14.02.03.07.03.1.06.21.25.45.42.75.59l.5.42s.1.06.15.11c.22.09.45.19.56.42.02.03.05.05.07.08l.59.35s.05,0,.07.03c.04.16.22.14.31.25l.31.25c.22.14.41.36.66.43.02.03.05.05.1.06.17.14.31.3.51.42.2.12.34.28.56.37.27.1.52.27.76.44.12.08.22.14.37.21.2.12.39.23.53.4.07.03.1.06.15.11.2.07.32.2.46.31l.49.34s.07.08.15.11c.02.03.07.03.1,0,.03-.02.03-.07.03-.13-.04-.16-.1-.34-.19-.5l-.29-.51c-.16-.24-.24-.55-.35-.84-.13-.37-.26-.68-.46-.98-.16-.24-.17-.52-.28-.76-.13-.37-.3-.74-.43-1.1-.05-.06-.09-.11-.12-.14l-.97-.68c-.2-.12-.39-.28-.61-.43l-.48-.39s-.07-.03-.1-.06c-.16-.19-.36-.31-.5-.52-.23-.32-.55-.58-.78-.9-.16-.19-.32-.43-.46-.65-.16-.29-.34-.56-.48-.83-.02-.08-.04-.1-.07-.13l-.14-.5c-.09-.16-.1-.39-.08-.59.07-.25.14-.5.25-.7.06-.1.14-.17.27-.23.06-.05.14-.12.21-.14.23-.06.42-.17.61-.34.2.02.36-.02.53.01.33.05.38.1.64.35l.07.08c.07.13.13.26.25.35l.42.49c.04.11.09.16.14.22.06.18.18.32.28.43l.33.38c.21.3.37.59.47.93.09.21.2.4.32.53.13.26.29.51.35.79.04.16.11.29.2.4.09.16.13.26.15.44.06.28.19.5.52.6l.84.37c.07.03.12.04.17.09.1.06.22.09.35.13s.2.12.32.15c.2.12.42.16.59.25l.22.09s.05.05.07.03c.2.02.37.16.6.2.2.01.4.13.6.15.33.1.62.22.92.35.03-.02.08-.02.1,0,.18-.01.23-.06.17-.19-.11-.24-.22-.42-.34-.61l-.26-.63c-.05-.06-.04-.11-.07-.13-.14-.21-.3-.4-.44-.62l-.37-.59c-.11-.24-.22-.42-.36-.64-.07-.08-.11-.19-.16-.29-.02-.08-.07-.13-.11-.24-.04-.11-.14-.21-.18-.32-.17-.42-.37-.87-.62-1.27-.07-.08-.09-.21-.13-.32-.27-.48-.49-1.01-.79-1.46-.18-.32-.33-.71-.53-1.06-.12-.14-.18-.32-.24-.5-.11-.24-.22-.48-.36-.69-.23-.37-.43-.72-.66-1.1l-.2-.4c-.29-.56-.64-1.07-1.03-1.58-.28-.38-.53-.78-.81-1.16-.14-.16-.28-.33-.4-.51-.07-.08-.17-.19-.23-.32-.09-.16-.18-.32-.32-.48-.3-.4-.6-.81-.85-1.26-.09-.11-.19-.22-.31-.3-.05-.06-.12-.14-.14-.21-.01-.18-.02-.41,0-.61-.02-.13.04-.23.15-.27.34-.1.65-.18.98-.13.25.07.45.19.64.35l.16.19ZM19.9,99.16l.03-.02c-.07-.03-.15-.11-.22-.14-.07-.08-.18-.04-.18.06-.04.23-.06.48.1.67.23.32.39.67.7.92.1.06.15.11.16.19.14.21.33.33.53.5.02.03.07.03.12.03,0-.05.03-.07,0-.1l-.02-.13c-.16-.24-.19-.55-.35-.79-.07-.13-.11-.24-.18-.37l-.71-.82Z"/>
    <path class="cls-2" d="M36.78,100.31c.28-.29.57-.5.83-.76.21-.2.39-.45.58-.68.3-.26.54-.61.86-.84.21-.15.44-.31.68-.35.05,0,.08-.01.11-.03.08-.01.14-.05.19-.04.13,0,.23.01.33.03.13,0,.24.09.3.23.07.22-.04.38-.12.57-.04.07-.1.11-.16.2-.07.09-.1.16-.12.26,0,.18-.1.29-.25.4,0,0-.05,0-.08.01-.2.28-.54.43-.76.67-.19.23-.46.41-.65.64-.21.2-.39.45-.69.58l-.06.04c-.13.18-.29.34-.42.52-.08.19-.25.27-.44.31-.11.03-.29.03-.46-.03-.12-.05-.23-.01-.37.04-.03.02-.06.04-.14.05-.2.1-.37.04-.46-.16-.05-.14-.15-.2-.26-.3-.07-.04-.11-.1-.13-.13-.22-.24-.38-.48-.57-.74-.2-.34-.46-.65-.63-1.01l-.18-.19c-.04-.06-.09-.07-.16-.1-.17-.23-.35-.5-.57-.74-.1-.15-.24-.27-.34-.42l-.73-1.03c-.15-.21-.26-.43-.41-.64-.08-.12-.22-.24-.3-.36-.16-.29-.33-.52-.51-.78l-.04-.06c-.3-.49-.62-.93-.92-1.42-.1-.15-.19-.26-.26-.43-.08-.12-.12-.23-.2-.34-.17-.24-.33-.47-.5-.7l-.5-.88c-.14-.26-.25-.48-.42-.72-.22-.37-.43-.8-.68-1.15l-.42-.59c-.18-.31-.39-.61-.57-.92-.06-.09-.13-.18-.19-.26l-.65-.91s-.06-.09-.1-.15l-.55-.58c-.06-.09-.13-.18-.22-.24l-.06-.09c-.03-.11-.13-.18-.19-.26-.15-.15-.28-.33-.38-.48-.02-.03-.06-.09-.03-.11.03-.2-.08-.43,0-.62.03-.15.09-.24.26-.32.2-.1.35-.25.54-.43.16-.21.4-.37.58-.55l1.19-1.12c.16-.15.33-.28.49-.43.03-.02,0-.05.04-.07.41-.29.83-.63,1.26-.9.34-.2.75-.31,1.16-.17.05,0,.1.02.14.08.12.18.25.35.27.56-.02.15-.16.46-.3.57-.17.07-.31.18-.42.34l-.09.06c-.23.12-.42.34-.65.51-.15.15-.36.3-.57.45l-.12.08c-.17.26-.39.5-.67.61l-.09.06c-.13.13-.22.25-.34.33-.17.07-.29.21-.42.34-.21.15-.18.43-.19.67,0,.05.03.11.07.17.23.19.39.43.56.66.08.12.22.24.3.36.06.09.07.17.14.26.27.38.56.79.83,1.17l.75,1.06c.19.26.34.6.52.91.19.26.35.55.5.83.34.6.76,1.14,1.13,1.71.25.35.48.68.65,1.04l.25.35c.38.53.73,1.03,1.11,1.56l.06.09c.06.09.14.08.23.01.24-.22.49-.44.7-.63l.99-.97c.13-.13.25-.27.37-.35.24-.22.5-.35.82-.4.15.03.34-.02.47-.02.18,0,.23.01.28.2.02.03.03.11.07.17.06.09.05.19,0,.26-.08.19-.12.39-.27.5-.18.18-.29.34-.4.55-.08.14-.19.23-.34.33-.21.2-.43.39-.63.54-.1.11-.21.2-.3.26l-.1.16c-.1.16-.27.37-.33.59-.05.12-.14.23-.22.38-.1.11-.09.24.01.39.23.32.51.65.77.96l.46.65c.14.26.3.49.51.65.06.09.1.15.15.21l.38.53c.04.06.12.05.18,0,.09-.06.15-.1.23-.17l.02.03Z"/>
    <path class="cls-2" d="M42.04,95.09c-.32-.52-.59-1.03-.89-1.52-.13-.22-.21-.42-.3-.62-.08-.12-.18-.23-.26-.35-.02-.03-.09-.07-.09-.15-.01-.16-.12-.26-.19-.39-.06-.09-.1-.23-.18-.36-.26-.35-.47-.77-.7-1.14-.13-.21-.23-.45-.35-.63-.08-.12-.18-.23-.26-.35l-.04-.06c-.09-.28-.33-.47-.44-.79-.12-.26-.3-.49-.47-.77-.21-.42-.48-.85-.66-1.28-.14-.29-.31-.57-.48-.85-.1-.23-.22-.5-.35-.71.01-.05,0-.08-.03-.11-.17-.28-.32-.52-.46-.82-.1-.23-.2-.47-.35-.71-.1-.23-.25-.48-.35-.71-.09-.15-.16-.33-.25-.48-.09-.15-.22-.29-.31-.44-.11-.18-.18-.36-.26-.56-.06-.17-.18-.36-.27-.51-.12-.26-.27-.51-.41-.8-.08-.12-.12-.26-.16-.41-.1-.23-.19-.52-.45-.66-.07-.04-.09-.07-.09-.15.04-.07.04-.15.05-.2.07-.09.1-.19.1-.32.02-.18.07-.3.22-.39.09-.06.15-.09.18-.19.03-.02.07-.09.09-.06.24-.02.44-.1.68,0,.19.1.33.13.5.2.13,0,.2.05.25.14.08.12.15.25.27.3l.06.09c.02.37.22.63.43.92.13.22.28.38.41.59l.6,1.19c.06.09.03.19.09.28.1.23.2.47.45.66.05.01.06.09.09.15.06.09.06.17.12.26.07.25.19.52.29.75.08.12.1.23.15.38.09.15.21.34.3.49l.06.09c.07.25.15.46.38.61.09.07.14.17.16.33,0,0,.02.03,0,.08.08.2.16.41.25.61l.11.18c.14.09.21.21.23.37l.06.09c.24.19.3.49.47.77.11.18.16.41.34.55.11.1.15.25.2.39,0,.08.09.15.13.22.08.12.13.21.18.36.07.12.12.26.26.35.05.01.09.07.11.1.11.18.21.42.33.6l.34.55c.15.25.27.51.44.79.06.09.11.18.2.26.16.2.28.38.39.56.04.14.15.25.26.35l.13.21c.04.06.08.12.14.17.09.07.14.17.17.28.03.19.08.33.14.5.02.03.04.06.06.09l.6.98c.09.15.17.15.3.07.15-.09.29-.22.44-.31.25-.15.45-.36.66-.57.3-.27.57-.52.85-.82.09-.06.15-.17.22-.26.1-.19.24-.36.38-.48.18-.19.32-.37.49-.51.04-.07.07-.09.12-.07.09-.06.17-.06.22-.13.01-.05.04-.07.09-.06.12-.08.27-.12.39-.19q.17-.06.3.07c.09.07.17.15.19.31-.01.05.03.11.08.12.19.1.25.27.31.44.09.15.03.32-.08.43-.13.12-.27.25-.39.32-.18.11-.32.24-.38.4,0,.13-.08.22-.18.32-.06.04-.09.14-.13.2-.04.15-.14.25-.28.3-.09.06-.17.14-.25.28-.14.26-.38.49-.62.72-.12.08-.2.16-.28.3-.14.12-.29.22-.47.33-.05-.01-.11.03-.12.08-.1.19-.27.25-.43.39-.15.09-.36.18-.54.29-.21.13-.41.16-.63.22-.11.03-.24.02-.36-.03-.3-.07-.59-.14-.86-.23-.1-.02-.17-.07-.24-.11-.24-.11-.44-.24-.6-.43-.2-.26-.46-.48-.58-.74Z"/>
    <path class="cls-2" d="M47.98,81.21c.13.34.31.61.42.96,0,.08.11.14.12.22.12.38.36.7.54,1.06.33.56.61,1.1.94,1.66.05.1.08.16.16.24.16.16.29.33.43.51l.38.49c.03.06.1.11.13.18s.07.13.13.18c.18.11.29.33.46.49.13.18.33.32.49.48.2.14.36.3.52.46.16.16.37.25.58.35.19.06.36.14.52.22.05.02.11.06.15.05.36.06.66.1,1,.13.13.01.26-.05.35-.1.27-.1.53-.23.69-.48.1-.13.16-.24.25-.37l.47-.97c.09-.21.16-.4.23-.65.05-.15.04-.31.09-.45.05-.23.14-.44.18-.66l.14-.44c.06-.11.08-.24.14-.36.05-.15.1-.13.22-.12.1.03.19.06.23.21.1.19.2.38.23.61,0,.08.03.15.05.18.08.16.12.3.12.46-.01.29.02.6-.07.89-.03.1-.03.18.02.27.03.14,0,.24-.04.39-.08.24-.19.5-.17.78.02.03,0,.08-.03.1-.13.15-.09.37-.19.5-.05.15-.12.31-.2.39-.24.32-.48.65-.84.88-.45.31-.96.58-1.5.7-.11.02-.27.02-.4,0h-.48c-.11.02-.21,0-.31-.04-.21-.09-.44-.14-.63-.2l-.31-.12c-.16-.08-.36-.14-.52-.22l-.16-.08c-.13-.09-.26-.19-.41-.24-.02-.03-.05-.02-.05-.02-.13-.18-.32-.24-.5-.35-.16-.16-.29-.33-.44-.46-.1-.11-.21-.17-.34-.27-.2-.14-.41-.32-.57-.56-.16-.16-.26-.35-.43-.51-.05-.1-.13-.18-.21-.25-.2-.22-.36-.46-.54-.65-.15-.13-.23-.29-.31-.45-.03-.06-.15-.13-.2-.22-.2-.3-.35-.59-.5-.88-.28-.46-.51-.91-.76-1.39-.3-.58-.61-1.18-.88-1.78-.13-.34-.25-.64-.35-.99-.07-.13-.13-.26-.17-.4-.08-.24-.13-.5-.22-.74-.09-.32-.17-.64-.26-.96l-.15-.77c-.04-.23-.02-.43-.07-.61,0-.08-.05-.18-.05-.26-.05-.34-.06-.66-.01-.97.01-.13.03-.26.01-.37-.07-.29,0-.61.04-.95.01-.13.03-.26.01-.37.03-.1.01-.21.04-.31.09-.21.14-.44.1-.66l.02-.05c.08-.24.12-.47.22-.68.02-.05,0-.08.03-.1.19-.34.34-.66.55-.97.08-.16.19-.26.3-.36.03-.02.08-.08.09-.13.11-.18.27-.34.4-.49.16-.16.37-.31.56-.41.34-.21.66-.38,1.01-.56.13-.07.29-.15.45-.15.35-.02.69-.07,1.01-.16.03-.02.11-.02.16,0,.03-.02.07.05.08.08.05.1.08.24.17.32.1.19-.01.37-.09.53-.05.07-.09.13-.11.18-.14.28-.37.39-.67.35-.21-.01-.42.05-.58.14-.24.08-.46.2-.66.38l-.16.08c-.14.03-.3.12-.43.26l-.14.2c-.08.16-.16.32-.3.44-.16.08-.24.24-.24.41,0,.08-.05.15-.08.24l-.14.36c-.03.1-.01.21,0,.32.04.22.07.45-.02.66-.03.1-.01.21,0,.32.04.31-.06.6-.07.89.02.03,0,.08-.01.13-.03.1-.03.18,0,.24.05.1.05.18.07.29,0,.24.05.5,0,.77l.05.1c.05.26.09.48.17.72.07.29.09.56.19.84.07.21.05.42.12.63l.17.56c.08.16.16.32.22.5.03.14.12.3.2.46l.15.29Z"/>
    <path class="cls-2" d="M63.37,72.52c.1.23.22.41.31.61l.39.89s-.02.05.03.07c.22.33.3.77.46,1.14.1.23.1.5.2.74-.03.21.08.36.15.52.06.13.08.28.11.42-.03.21.03.42.08.63.08.36.14.76.12,1.17-.02.13-.01.24,0,.36-.05.26-.07.46-.13.69,0,.08-.06.14-.07.19-.08.08-.12.17-.14.3.01.11-.06.22-.15.3-.15.19-.33.42-.54.55-.15.1-.3.21-.41.33-.12.09-.22.21-.31.37-.03.01-.05.06-.07.11-.1.12-.18.12-.33.06-.05-.02-.11-.07-.19-.07-.06-.05-.17-.04-.24-.01-.18.04-.34.03-.5.02-.08,0-.17.07-.24-.01,0,0-.08,0-.1.04-.08.08-.17.07-.25.07-.18-.04-.37-.04-.53-.12-.08,0-.16,0-.26-.05,0,0-.03.01-.08,0-.57-.14-1.09-.35-1.44-.87l-.26-.32c-.19-.27-.42-.52-.6-.76l-.07-.16c-.08-.09-.12-.18-.2-.27-.03-.07-.06-.13-.13-.22-.11-.26-.26-.51-.43-.8l-.2-.46c-.15-.44-.32-.92-.44-1.38-.14-.49-.22-.96-.31-1.44-.08-.28-.13-.57-.18-.86-.03-.26-.09-.47-.07-.71,0-.36-.04-.73-.05-1.12,0-.19.04-.45.07-.66,0-.08.02-.13.04-.18-.04-.53.2-.99.32-1.51.03-.21.15-.38.3-.56.12-.17.24-.34.27-.55.02-.13.11-.2.21-.33.08-.08.17-.07.23-.02l.09.04c.15.25.43.17.63.19l.38.07c.35.08.73.15,1.08.31.28.11.6.21.88.4.11.07.23.17.36.28.12.1.25.21.4.3.22.14.34.32.49.49.09.12.2.19.29.31.18.23.4.46.58.69.2.27.38.5.46.78ZM62.1,72.56c-.09-.12-.12-.26-.21-.38-.24-.29-.52-.56-.75-.81-.1-.15-.21-.3-.37-.39-.34-.24-.75-.38-1.15-.56-.24-.09-.45.04-.56.24-.06.14-.16.27-.28.36-.25.23-.41.49-.46.83,0,.08-.04.18-.06.22-.17.15-.18.31-.14.49.04.45.02.94.06,1.39,0,.43.1.86.13,1.28.06.41.2.74.3,1.13.08.36.22.69.25,1.03l.04.1c.06.13.2.27.15.44-.03.01.03.07.04.1.16.36.32.73.51,1.07.22.41.43.8.7,1.15.09.12.15.17.29.22.11.07.24.09.4.1.5.06.96-.14,1.39-.33.2-.09.38-.21.52-.34.27-.2.46-.4.55-.71.09-.24.14-.49.26-.74.07-.19.09-.43.07-.66l-.15-1.07c-.05-.21-.11-.42-.14-.68-.02-.15-.13-.3-.17-.48-.1-.23-.17-.48-.24-.72-.1-.31-.17-.67-.38-.97-.15-.25-.26-.51-.31-.81l-.03-.07c-.16-.09-.19-.27-.27-.43Z"/>
    <path class="cls-2" d="M66.63,73.26c-.15-.44-.3-.89-.44-1.3l-.08-.24c.01-.08,0-.11-.01-.15l-.52-1.54c-.06-.17-.07-.32-.13-.49-.09-.27-.22-.53-.28-.82l-.37-1.09c-.02-.07,0-.11-.01-.15-.16-.48-.31-.92-.44-1.41-.1-.31-.17-.63-.24-.94-.01-.15-.07-.32-.12-.45-.06-.28-.14-.52-.2-.81-.06-.28-.13-.6-.23-.91-.01-.15-.07-.32-.08-.47-.06-.28.07-.48.23-.68l.14-.05c.09.05.2.05.3.09.06.06.14.07.22.08.15-.01.29.06.36.18l.34.23c.1.08.19.12.28.17.19.12.34.23.52.32.1.08.21.16.27.25l.15.1c.4.28.76.69,1.14,1.02.13.15.25.3.4.4.01.03.06.06.08.12.18.32.45.53.7.83l.32.27s.06.06.07.09c.09.27.37.41.51.62.01.03.06.06.07.09.09.27.26.44.41.66.06.06.08.12.17.17.39.25.64.66.89,1.07.31.47.67.87,1.05,1.32l.24.37c.07.09.15.22.26.33.07.09.22.19.28.36.01.03.1.08.16.14.01.03.09.05.11.11.13.26.38.44.56.65.05.02.06.06.09.04.06.06.16.14.25.18.08-.1.08-.22.08-.33.02-.27,0-.57,0-.88l.05-.85c.03-.35.05-.74.05-1.08.03-.24-.02-.52,0-.76.01-.19.06-.4.05-.63l.03-.24c.03-.35.05-.74.11-1.14-.01-.15.01-.31.03-.47.07-.25.12-.53.15-.81.07-.48.13-.96.25-1.41.03-.13-.01-.26-.01-.38.04-.21.04-.43.09-.64.01-.19.02-.39.04-.55l.03-.24c.1-.38.16-.78.21-1.17-.01-.03.01-.08,0-.11l.33-1.4c.04-.21.09-.41.15-.58.01-.08.06-.17.14-.27.05-.09.12-.19.2-.3.2-.3.5-.43.84-.55.1-.03.3.09.37.18.13.26.24.49.25.75,0,.11.07.2.11.34.03.1.1.19.15.33.09.16.15.33.24.49l.02.07c.09.27.16.59.25.86.04.1.07.21.14.3.25.52.43,1.07.62,1.62l.31.92c.05.14.09.27.21.39l.08.12c.02.3.18.55.28.82.09.39.28.7.44,1.07.11.23.16.48.22.76l.03.1c.19.24.22.53.28.82.03.22.06.4.11.57,0,.11.05.25.08.35.06.17.11.34.17.51l.05.14c.18.55.36,1.06.49,1.58.05.14.14.3.07.43l.03.1c.11.11.13.26.14.41.04.1.07.2.14.29.08.12.08.24.08.35.01.04-.01.08.03.1.08.24.08.47.15.67s.12.45.18.66c.02.07.06.17.05.25v.03c.16.33.17.71.33,1.07.15.22.25.52.26.78l.07.21c.17.4.23.8.22,1.22.02.18.08.35.1.53.04.22.07.43.1.65v.15c.14.26,0,.54-.03.77-.03.12-.23.23-.4.17-.08-.01-.17-.06-.26-.1l-.42-.24c-.14-.07-.29-.17-.34-.34-.07-.09-.1-.19-.17-.28-.11-.23-.13-.49-.22-.76-.05-.14-.09-.27-.1-.42-.06-.17-.1-.31-.13-.49-.01-.38-.17-.74-.27-1.13l-.29-1.19c-.07-.32-.14-.64-.22-.99l-.31-1.26s-.02-.07,0-.11c-.05-.48-.21-.96-.33-1.44-.09-.39-.17-.74-.3-1.11-.01-.15-.05-.25-.09-.39-.11-.34-.23-.68-.32-1.07-.08-.24-.12-.46-.2-.69-.01-.03-.02-.07,0-.11.01-.31-.12-.57-.2-.81-.16-.48-.32-.96-.5-1.39-.09-.27-.22-.53-.31-.81-.1-.19-.17-.4-.23-.57l-.56-1.67c-.14-.3-.28-.59-.38-.9-.11-.23-.19-.47-.28-.7-.02-.07-.07-.09-.11-.11l-.08.1c-.06.17-.11.34-.09.52.02.3-.05.63-.11.91-.06.4-.12.76-.11,1.14,0,.23,0,.42-.08.67s-.04.55-.11.8l-.07.36c-.08.67-.25,1.3-.22,1.94l-.06.17c-.09.3-.07.59-.08.9l-.12,2.02c0,.34-.08.67-.09.98-.01.08-.02.16-.01.19.02.41-.02.84-.04,1.23-.01.42.03.87.02,1.29l.06.4c.02.07.04.1.05.14l.55.95s.05.02.06.06c.16.48.45.88.57,1.36-.03.01-.02.04.02.07.19.35.25.75.39,1.16.01.15.04.33.01.49-.02.05-.01.08,0,.11.11.23.02.52.14.75.01.03-.01.08-.06.06-.11,0-.12.08-.14.16-.01.08-.04.21-.04.32s-.04.21-.14.27c-.09.07-.17.17-.19.33.01.03-.03.12-.14.16l-.38.13c-.12.08-.24.08-.35-.03-.15-.1-.32-.04-.48-.07-.12-.03-.17-.06-.24-.15-.08-.12-.22-.19-.33-.31-.1-.08-.18-.2-.25-.3-.13-.15-.21-.27-.3-.43l-.09-.27c-.06-.17-.11-.34-.14-.52-.07-.2-.14-.41-.15-.67,0-.23-.08-.47-.12-.68-.09-.39-.06-.74-.07-1.12.02-.27,0-.53.04-.77,0-.11-.01-.26,0-.34.02-.16-.01-.26-.09-.39-.11-.23-.26-.44-.41-.66l-.25-.3c-.18-.2-.37-.41-.51-.62-.19-.24-.39-.48-.65-.69-.24-.26-.45-.53-.66-.84-.16-.25-.35-.49-.58-.72-.17-.17-.35-.37-.49-.56-.24-.26-.48-.52-.66-.84l-.45-.65s-.07-.09-.11-.11c-.34-.34-.66-.73-.95-1.12-.1-.19-.25-.41-.46-.57l-.35-.37c-.21-.27-.45-.53-.69-.79-.14-.18-.23-.34-.39-.48l-.55-.5s-.09-.05-.13-.03c0,0-.02.05-.01.08-.01.08.01.15.03.22.14.3.24.6.31.92.05.25.16.48.23.68l.07.2s-.01.08,0,.11c.28.59.41,1.23.62,1.84.19.47.36.94.48,1.43l.26.79c.15.44.3.89.43,1.38.06.17.19.35.23.57.06.28.16.59.25.86.21.5.39,1.05.6,1.55.13.38.28.7.4,1.08.17.4.3.77.44,1.18.05.14.13.26.17.4.08.35.22.65.37.98l.14.41c.02.07.09.16.13.26.07.2.1.42.17.63.02.07.05.14.09.16.15.22.19.47.25.75.01.15.05.25.16.36.15.1.13.26.14.41.02.07.01.15.04.22.07.09.06.17.06.28-.05.09-.02.16.03.22.16.14.1.31.08.47-.01.08-.07.14-.14.16-.33.04-.65,0-.88-.24l-.51-.51c-.16-.14-.24-.26-.31-.47-.13-.38-.29-.74-.41-1.11-.05-.14-.06-.28-.1-.42v-.03c-.11-.19-.19-.43-.26-.64-.08-.24-.23-.45-.28-.71-.02-.07-.05-.14-.1-.19-.08-.24-.21-.5-.29-.74-.23-.57-.47-1.17-.67-1.75-.06-.06-.08-.13-.09-.16-.15-.44-.33-.88-.53-1.34l-.33-.99c-.03-.1-.08-.24-.13-.38ZM76.03,77.27c-.06-.17-.13-.38-.22-.53-.1-.19-.17-.4-.27-.59-.08-.12-.16-.14-.26.01-.02.05-.05.09-.06.17.02.18-.02.39.08.58.01.03-.01.08,0,.11-.02.27-.08.56.05.82,0,0-.03.01-.02.05-.03.12.01.26.06.4.03.1.07.2.07.32.06.17.15.22.31.12.07-.02.12-.08.18-.14.12-.08.2-.18.23-.34,0-.34-.04-.67-.14-.98Z"/>
    <path class="cls-2" d="M88.31,76.4c.37-.16.72-.24,1.05-.4.27-.1.53-.27.79-.41.38-.13.73-.36,1.11-.45.24-.06.53-.12.76-.07.04.03.08.02.11.01.08.02.15,0,.19.03.12.04.21.1.29.15.12.05.19.18.19.33-.02.23-.18.34-.33.48-.06.05-.13.07-.23.13s-.16.11-.21.2c-.07.16-.2.23-.38.27,0,0-.04-.03-.08-.02-.29.18-.66.19-.96.34-.26.14-.58.21-.84.35-.27.1-.53.27-.86.28l-.07.02c-.19.12-.4.2-.59.32-.15.15-.33.15-.52.12-.11-.01-.28-.08-.42-.2-.09-.09-.21-.1-.36-.1-.04,0-.07.02-.15,0-.22.02-.36-.1-.37-.32,0-.15-.06-.25-.13-.38-.05-.06-.07-.13-.08-.17-.11-.31-.18-.59-.25-.9-.06-.39-.18-.77-.2-1.17l-.09-.24c-.02-.07-.06-.1-.11-.16-.07-.28-.14-.6-.25-.9-.04-.18-.12-.34-.16-.52l-.29-1.23c-.06-.25-.08-.5-.14-.74-.03-.14-.11-.31-.14-.45-.04-.32-.11-.6-.18-.92l-.02-.07c-.1-.57-.22-1.09-.32-1.66-.04-.18-.07-.31-.08-.5-.03-.14-.02-.25-.06-.39-.07-.28-.13-.56-.2-.84l-.13-1.01c-.03-.29-.05-.54-.12-.82-.07-.43-.1-.9-.2-1.32l-.17-.7c-.05-.36-.13-.71-.18-1.07-.03-.1-.05-.21-.07-.31l-.26-1.09-.04-.18-.29-.75c-.02-.11-.05-.21-.11-.31l-.03-.1c.01-.11-.05-.21-.07-.32-.09-.2-.13-.41-.18-.59,0-.04-.02-.11,0-.11.11-.17.08-.43.23-.57.08-.13.18-.19.36-.2.22-.02.42-.1.66-.19.23-.13.51-.19.75-.29l1.53-.58c.2-.09.41-.13.61-.22.04,0,.03-.04.06-.05.49-.12,1.01-.28,1.51-.36.39-.06.81,0,1.14.28.04.03.09.05.1.12.05.21.1.42.04.62-.08.13-.32.37-.49.41-.18,0-.36.05-.52.16l-.11.02c-.25.02-.52.16-.8.23-.2.08-.45.14-.69.2l-.14.03c-.26.17-.55.32-.85.31l-.11.02c-.17.08-.3.14-.44.18-.18,0-.35.08-.52.16-.24.06-.33.34-.43.54-.03.04,0,.11,0,.18.14.26.2.54.27.82.03.14.11.31.14.45.02.11,0,.18.03.29.11.46.23.95.33,1.4l.3,1.26c.07.31.09.68.14,1.04.07.32.11.64.15.96.09.68.28,1.34.4,2.01.1.42.19.81.21,1.21l.1.42c.15.63.29,1.23.44,1.86l.02.11c.02.11.1.12.21.1.31-.11.61-.22.89-.32l1.28-.53c.17-.08.33-.15.47-.19.31-.11.59-.14.91-.07.13.08.32.11.44.15.17.07.21.1.18.29,0,.04-.01.11,0,.18.03.1-.03.19-.09.24-.15.15-.26.32-.43.36-.24.09-.4.2-.58.36-.12.1-.26.14-.44.18-.27.1-.54.2-.79.26-.13.07-.27.1-.38.13l-.16.11c-.16.11-.39.24-.53.42-.09.09-.22.16-.34.27-.13.07-.18.19-.14.37.09.39.23.8.35,1.17l.18.77c.03.29.1.57.23.8.03.11.04.18.06.25l.15.63c.02.07.1.09.17.07.1-.03.17-.04.28-.07v.04Z"/>
    <path class="cls-2" d="M109.73,74.38c-.14.01-.28.06-.46.07-.07,0-.15-.03-.22-.06-.11-.1-.26-.13-.4-.12-.04,0-.11-.03-.11-.03-.15-.13-.34-.23-.42-.37-.04-.07-.12-.14-.16-.17-.19-.17-.31-.34-.36-.55-.05-.14-.06-.28-.1-.39-.02-.32-.08-.68-.1-1-.07-.5-.1-.97-.14-1.47-.08-.61-.08-1.19-.16-1.79l-.08-1.15c-.05-.72-.1-1.4-.11-2.12-.03-.36-.05-.75-.04-1.12l.04-.94c0-.14.02-.25.01-.36.02-.29,0-.58.01-.87.02-.22,0-.43,0-.65.02-.22,0-.4.03-.62l-.07-.97c0-.14.02-.25,0-.4l-.04-.57c-.02-.32-.08-.64-.1-.97,0-.51-.07-1.01-.03-1.51.02-.18-.03-.36,0-.58l-.12-1.8c-.02-.32,0-.65-.03-.97-.02-.25.11-.44.25-.63.1-.11.21-.12.32-.06.11.1.26.13.4.12l.61-.04c.25-.02.54-.04.79-.02.36.05.69.06,1.06.14.15.06.37.08.55.07.18.02.4.08.56.21.04,0,.07.03.11.03.22.06.44.11.66.21.11.06.26.13.41.22.3.23.68.42.95.69.19.2.38.33.47.58.04.1.12.17.2.27l.12.21c.08.1.16.21.2.31.12.21.21.38.29.56-.06.15.05.21.09.28l.13.32c0,.07.05.14.05.21.05.14.02.29.1.43v.04c.08.1-.05.26.03.36.08.1.09.25.1.35.01.22.03.39.08.57.05.25-.08.44-.1.62,0,.04-.03.07-.03.11.01.22,0,.4-.07.58-.03.11-.02.22-.05.33l-.06.65c-.05.29-.1.58-.12.91-.03.04-.07.08-.1.15-.03.04-.03.11-.06.18l-.1.15c-.13.19-.19.37-.25.56v.11c-.16.23-.28.49-.45.75-.06.11-.16.23-.19.34-.12.4-.35.71-.54,1.05s-.46.65-.69.95c-.17.19-.33.38-.47.57-.14.12-.27.23-.41.32-.07.08-.14.12-.17.16-.14.12-.27.27-.37.35-.1.08-.21.12-.2.27.05.14.16.21.27.23.19.06.33.09.51.11.22.06.44.15.63.28.08.07.19.1.3.16.19.1.37.19.49.36.12.1.19.2.31.27.16.21.25.42.33.63.09.25.18.49.16.75,0,.04.04.1.05.14v.18c-.02.07-.01.15,0,.22,0,.07.01.18-.06.22-.03.04-.03.11,0,.11.11.03.08.1.05.18,0,.07-.03.15-.02.22.03.36-.17.63-.33.92-.1.12-.2.23-.26.38-.03.11-.09.22-.2.27-.17.08-.31.2-.37.35-.07.08-.1.12-.17.12l-.35.13c-.1.04-.17.08-.24.16-.13.15-.35.2-.52.25-.25.05-.53.11-.82.16h-.07c-.17.12-.39.1-.61.12ZM108.67,66.87h.04s.02.36.02.36c0,.04.04.07.04.07.04,0,.07-.04.07-.04l.17-.23c.13-.15.3-.35.43-.54l.3-.34c.14-.12.27-.27.37-.46.03-.04.07-.08.14-.12.07-.08.17-.16.23-.27.1-.08.13-.19.23-.3.07-.08.17-.12.2-.19.13-.23.34-.35.47-.54.23-.27.43-.53.59-.83.16-.34.39-.6.48-.94v-.04s.47-1.04.47-1.04c.06-.11.06-.18.13-.26.13-.26.22-.52.27-.78.09-.33.14-.62.19-.95v-.11c-.05-.14-.03-.29,0-.43.01-.36.03-.69.07-1.05v-.07c-.09-.17-.07-.36-.08-.5-.06-.32-.11-.61-.24-.89l-.1-.39c-.08-.14-.13-.24-.2-.35-.12-.17-.27-.31-.36-.52-.16-.24-.39-.37-.61-.54-.38-.3-.82-.41-1.29-.45l-1.16-.14c-.33-.05-.65-.03-.96.21-.21.12-.34.31-.32.53-.01.36-.02.72.04,1.08.03.4.09.79.08,1.19l.03.47c.01.14.06.28.07.43l.07.97c0,.14.02.29,0,.43.02.29.04.54.05.79l.02.29c.05.18.1.35,0,.51-.06.11-.06.22.02.29v.18c0,.4,0,.83.03,1.26.05.18.02.36.04.54,0,.11-.06.22-.05.33.02.25,0,.51.02.79v.07c-.02.22,0,.4,0,.58.06.36.09.72.07,1.04l-.05.91ZM109.03,72.15l.03.4c.04.07.08.1.15.1.04,0,.07,0,.1-.04.14-.08.32-.09.46-.1.14-.01.29.02.47,0,.07,0,.17-.08.28-.09.07-.04.18-.05.29-.06.1-.04.17-.08.28-.09.25-.09.49-.18.7-.3.17-.12.34-.31.47-.54s.15-.44.2-.7c.05-.4-.12-.75-.36-1.06-.04,0-.07-.03-.08-.07-.34-.19-.64-.39-.97-.47-.18-.06-.33-.09-.51-.11-.11-.03-.25-.02-.36-.05-.33-.05-.66-.1-1.02-.07-.07,0-.15-.03-.22.01-.04,0-.11.04-.1.08-.03.11-.02.25-.05.36.01.14.05.25.06.36.02.22,0,.47.01.68.02.32.08.61.06.9l.02.29c.05.18.06.39.07.57Z"/>
    <path class="cls-2" d="M123.7,72.79c0-.11,0-.25.08-.43.08-.25.12-.5.19-.79l.23-1c.04-.22.08-.43.08-.65.04-.14.04-.29.04-.43,0-.04,0-.07.04-.11,0-.11.04-.18.04-.29.04-.43.09-.83.16-1.26.04-.11-.07-.33-.21-.36-.14-.04-.32-.08-.47,0-.14,0-.29.03-.4-.04-.04-.04-.11-.04-.14-.04-.18.03-.36.03-.58.03-.18,0-.4,0-.57-.04-.07,0-.14.03-.22.07-.11.07-.29.1-.43.14-.18,0-.32,0-.51.03-.18.03-.4.07-.58.13-.11,0-.18.03-.25.07-.11.03-.18.11-.18.21.03.25,0,.54.06.76.04.04.04.07.04.11-.04.36.03.72.06,1.04v.07c-.04.4.06.76.13,1.15,0,.25.03.47.06.72l.1.47s.07.07.07.11c0,.29.06.54.02.83,0,.18-.11.29-.22.43-.04,0-.07.04-.11.04-.14-.04-.29-.08-.36-.19-.04-.11-.14-.15-.25-.18-.36-.08-.57-.33-.67-.69v-.07c.04-.11,0-.22-.03-.29-.07-.11-.1-.25-.17-.36-.04-.07-.03-.15-.07-.22-.07-.11-.07-.25-.07-.36-.03-.18-.1-.36-.14-.51,0-.11-.03-.22-.03-.29-.03-.5-.09-.97-.2-1.41,0-.04-.04-.04-.03-.07.08-.32-.1-.65-.09-1.01l-.09-1.01c-.03-.11-.14-.22-.07-.32-.07-.36-.03-.72-.02-1.08l.04-2.66c0-.36.08-.72.09-1.08.04-.07,0-.14.04-.18,0-.29.04-.54.08-.83,0-.25.04-.54.08-.79,0-.22.04-.4.08-.61,0-.07.04-.14.04-.21l.12-.79c.04-.43.05-.9.13-1.37.04-.22.08-.5.19-.72.08-.21.15-.43.23-.65l.45-1.36c.08-.21.19-.39.26-.61.08-.36.3-.68.45-1l.07-.18c.07-.14.15-.29.26-.43.04-.04.07-.07.11-.14.07-.18.26-.32.4-.5.07-.03.11-.11.18-.21.11-.21.29-.28.51-.14.11.04.18.04.29-.03.18-.14.4-.07.58,0s.32.11.5.15c.22.04.4.08.54.22.04.04.07.07.11.07.18.11.36.22.46.4.07.15.21.29.35.37.11.11.21.18.25.33,0,.07.03.11.07.14.21.29.42.58.56.91.07.15.14.33.17.47v.04c.18.29.21.65.27.98.04.04.03.11.03.18-.04.18.03.4.06.58.03.36.17.69.27,1.05.03.18.07.33.06.51,0,.25.03.47.06.68v.32c-.04.14-.04.25-.05.4.07.29.06.58.06.83-.04.18.03.32.03.51.03.18,0,.4,0,.58,0,.07,0,.18.03.25.03.22.03.4.03.58.04.04,0,.07,0,.11-.08.25-.04.47-.05.72,0,.14.03.29-.08.4v.07c.03.25.03.47-.01.68-.08.29,0,.54-.05.79,0,.25.03.47.03.72,0,.04-.04.11-.04.18,0,0-.04.04-.04.07.1.29-.08.58-.05.83,0,.07-.04.14-.04.22-.19.46-.23.97-.27,1.47-.04.22.03.47,0,.68,0,.25-.04.47-.08.68-.08.54-.23,1.04-.35,1.58v.04c.03.18-.04.36-.08.54,0,.18-.08.36-.12.54-.04.14-.08.29-.11.43l-.23.79c-.04.14-.04.25-.08.36-.04.29-.29.43-.54.28l-.36-.22c-.07-.07-.14-.15-.14-.22-.03-.18-.14-.36-.1-.58v-.11ZM125,57.72h.04s0-.25,0-.25c0-.18,0-.32-.07-.47-.04-.04-.03-.07-.03-.11-.07-.4-.13-.79-.24-1.19-.03-.18-.07-.36-.1-.58l-.1-.58s0-.07-.04-.11c-.07-.22-.17-.4-.28-.62-.03-.18-.14-.29-.21-.44-.07-.11-.18-.18-.32-.22-.14-.07-.32-.15-.5-.19-.39-.11-.68-.05-.87.35-.11.21-.19.47-.33.64-.18.29-.33.61-.45.89-.26.46-.37.97-.45,1.47-.04.25-.11.47-.15.68-.07.25-.15.5-.26.75-.19.47-.23.97-.24,1.47,0,.36-.08.72-.05,1.08,0,.4-.12.75-.16,1.11,0,.29-.08.54-.08.83v.14c-.11.18-.08.36-.12.57v.25c0,.22-.04.4-.01.58,0,.07.03.11,0,.14-.07.18-.08.4-.04.58.03.07,0,.11,0,.18,0,.29-.04.54.06.79.03.07,0,.18,0,.25q0,.14.14.18c.07,0,.14,0,.22-.03.33-.1.62-.17.97-.09h.07c.18-.03.36-.03.5-.03.18,0,.36-.07.54-.06h.83c.22.01.39.13.61.02h.04c.22.04.43.04.61.08.14,0,.22-.03.22-.21v-.14c.12-.57.13-1.15.14-1.73,0-.22.04-.47.05-.68.04-.32.05-.65.09-.93,0-.22,0-.43.04-.65v-.25c.01-.43.02-.86.06-1.3,0-.07.04-.18,0-.25,0-.36-.06-.72-.06-1.05,0-.29-.03-.58-.06-.9Z"/>
    <path class="cls-2" d="M130.94,62.6c-.07.35-.07.68-.18,1.03-.04.07.02.18-.03.25-.11.39-.08.79-.12,1.18-.03.65-.09,1.26-.12,1.9-.01.11-.02.18,0,.29.05.22.06.44.08.66l.05.62c0,.07.02.15.01.22,0,.07-.01.14.01.22.09.19.06.44.11.66.01.22.1.44.15.67.08.23.13.45.18.67.05.22.17.42.3.61.13.16.22.31.31.47.03.04.06.11.1.12.26.24.5.45.77.66.1.08.24.1.35.11.28.07.57.09.83-.02.15-.06.27-.12.42-.18l.93-.56c.19-.13.35-.25.55-.41.12-.1.2-.23.32-.33.16-.16.36-.29.52-.45l.36-.29c.11-.06.2-.16.31-.22.12-.1.15-.06.25.03.06.08.13.16.08.3-.02.22-.04.43-.14.64-.04.07-.05.14-.05.18-.02.18-.07.32-.15.45-.17.24-.31.51-.54.7-.08.06-.12.13-.13.24-.05.14-.13.2-.25.3-.2.16-.43.32-.56.56,0,.04-.04.07-.08.06-.19.05-.28.26-.43.32-.12.1-.27.19-.38.21-.38.14-.75.28-1.19.28-.54.02-1.12-.04-1.64-.24-.1-.05-.24-.13-.34-.22l-.41-.26c-.1-.05-.17-.13-.23-.21-.13-.19-.29-.36-.42-.51l-.19-.27c-.09-.15-.22-.31-.31-.47l-.09-.15c-.06-.15-.12-.3-.21-.42,0-.04-.03-.04-.03-.04-.01-.22-.14-.38-.23-.57-.05-.22-.06-.44-.12-.63-.02-.15-.08-.26-.14-.41-.09-.22-.17-.49-.17-.78-.05-.22-.03-.44-.08-.66.01-.11-.01-.22-.04-.33-.04-.29-.05-.58-.1-.84-.05-.19-.04-.37-.02-.54,0-.07-.05-.19-.04-.29,0-.36.03-.68.07-1.01.02-.54.07-1.04.12-1.58.07-.64.14-1.33.24-1.97.07-.35.14-.67.25-1.02.01-.14.03-.29.08-.43.06-.25.16-.49.22-.74.1-.31.21-.63.31-.94l.29-.73c.09-.21.22-.38.27-.55.04-.07.05-.18.1-.24.14-.31.31-.58.52-.82.08-.1.16-.2.21-.3.1-.28.34-.51.55-.78.08-.1.16-.2.21-.3.08-.06.13-.17.2-.23.19-.13.36-.29.45-.5l.04-.03c.2-.16.36-.33.55-.45.04-.03.04-.07.08-.06.34-.18.65-.37.99-.51.15-.09.3-.11.45-.14.04,0,.11-.03.15-.06.19-.09.41-.14.6-.19.22-.05.48-.06.69-.04.4,0,.76.04,1.15.08.14.01.32.03.46.12.31.18.62.32.93.42.04,0,.1.05.14.09.04,0,.03.08.02.11-.01.11-.06.25-.04.36-.02.22-.21.3-.37.4-.07.03-.15.06-.19.09-.27.15-.52.13-.75-.08-.17-.13-.38-.18-.56-.2-.25-.06-.5-.09-.76-.04l-.18-.02c-.14-.05-.32-.07-.51-.01l-.23.08c-.15.09-.31.19-.49.2-.18-.02-.33.07-.42.21-.04.07-.12.1-.2.16l-.31.22c-.08.06-.13.17-.17.27-.09.21-.19.42-.38.54-.08.06-.13.17-.17.27-.14.28-.37.47-.54.7,0,.04-.04.07-.08.1-.08.06-.12.13-.13.2-.01.11-.05.18-.1.28-.13.2-.23.45-.43.64v.11c-.11.24-.2.45-.26.7-.1.28-.23.52-.3.8-.06.21-.18.38-.24.59l-.17.56c-.02.18-.04.36-.09.53-.05.14-.07.32-.09.5l-.03.32Z"/>
    <path class="cls-2" d="M140.04,69.76c.02-.25.03-.51.09-.76-.01-.11,0-.22.03-.32.05-.25.07-.5.16-.74.05-.91.31-1.81.47-2.74l.07-.32c.02-.25.03-.51.09-.75l.4-1.9c.02-.07.07-.13.08-.21.03-.14.07-.32.06-.47l.04-.17c.2-.77.33-1.55.49-2.32.16-.78.33-1.55.49-2.32l.14-.67c.04-.36.21-.65.35-.96.02-.11.08-.2.1-.31.07-.32.23-.58.43-.79.04-.03.09-.09.1-.13.07-.17.22-.32.41-.35.16-.04.28-.12.42-.06.14.03.17.07.21.23,0,.15.05.3.09.46.02.08.04.16.02.23-.07.35-.12.75-.2,1.13l-.02.25c.03.19.03.37-.11.53-.04.03-.06.1-.07.17-.01.07,0,.15,0,.22.02.26-.15.52-.21.8-.03.14-.1.31-.07.5l-.04.18c-.02.11-.09.24-.08.39.02.08-.06.13-.08.2l-.18.85c-.05.25-.1.49-.15.7l-.09.42s-.02.11-.03.14c.02.08-.03.14,0,.18,0,.15.01.3-.02.44-.05.4-.05.76-.13,1.15-.04.21-.09.42-.17.63-.07.17-.07.32-.07.5l-.06.28s-.05.06-.05.06c.06.23-.09.42-.13.6l-.13.63c-.04.21-.13.42-.2.62-.02.11-.07.17-.05.25.07.2-.01.4-.05.58-.1.31-.03.32.23.31.3-.01.54.08.82.14.2.08.42.09.58.23.03.04.1.06.17.07.25.02.41.16.52.33.14.21.34.29.49.47.06.05.11.02.18,0,.18-.15.38-.25.59-.35.17-.11.29-.31.46-.42.36-.29.74-.54,1.06-.84.32-.3.71-.55,1-.89.15-.19.37-.36.55-.51,0-.04.05-.06.06-.1.21-.29.48-.52.69-.81.1-.13.19-.22.26-.35.14-.15.25-.31.36-.48.19-.18.33-.34.45-.57.06-.1.15-.19.25-.31.07-.13.17-.29.25-.46.27-.39.47-.82.77-1.2.2-.25.33-.52.5-.81l.05-.21c.08-.2.16-.41.28-.6,0-.03.02-.07.06-.1.14-.15.26-.35.34-.55.09-.24.21-.47.26-.72l.04-.18c.12-.2.2-.4.31-.6,0-.03.01-.07.07-.13.15-.19.24-.43.33-.67.05-.25.23-.39.41-.54.04-.03.11-.01.12-.05.23-.21.48-.16.72-.1.11.02.13.06.15.18l-.03.14c.01.11.02.26.1.39.06.08.08.16,0,.22-.05.06-.04.18-.05.25-.08.2-.08.39-.2.58-.1.13-.14.3-.13.45-.01.07-.03.14-.04.21l-.17.26c-.17.29-.35.59-.49.93-.07.13-.1.31-.13.45-.07.32-.16.59-.36.81-.08.06-.11.16-.13.27.01.11-.05.21-.14.3-.18.15-.29.34-.34.55.02.08-.03.14-.08.2-.02.1-.08.2-.09.27-.04.18-.14.3-.24.43-.09.09-.15.19-.21.29-.16.22-.35.44-.47.67-.08.2-.22.36-.27.57.02.08-.03.14-.08.2-.11.16-.26.35-.44.5-.04,0-.04.03-.09.06-.17.29-.47.49-.68.78-.09.09-.16.22-.22.36,0,.04-.05.06-.06.1-.21.14-.37.36-.62.49-.13.08-.19.22-.33.33-.09.06-.14.15-.23.21-.04.03-.13.08-.14.12-.07.17-.23.21-.36.29-.14.15-.31.26-.45.38-.09.06-.13.08-.21.1-.12.05-.25.13-.33.19l-.49.41c-.21.1-.41.21-.61.28-.2.07-.43.13-.55.32-.05.06-.17.11-.19.18,0,.04.04.16.1.24l.25.53c.09.28.18.52.25.75.05.12.09.28.1.39.05.12.1.24.14.36l.11.5c0,.15.09.28.16.44.08.13.12.32.12.47.07.38.1.76.17,1.1.07.35.08.68.07,1.05-.02.29-.05.58-.21.8-.07.17-.14.3-.24.43-.05.06-.14.12-.22.17-.08.02-.18,0-.25-.05-.11-.17-.25-.2-.41-.34-.06-.05-.13-.1-.14-.21-.04-.16-.04-.34-.11-.5-.03-.04-.04-.16-.03-.23.05-.21.02-.44,0-.66,0-.15-.05-.3,0-.48,0-.33-.08-.64-.21-.93-.06-.23-.13-.43-.15-.66,0-.22-.02-.41-.17-.59-.12-.14-.12-.32-.15-.51l-.06-.23c-.13-.25-.25-.53-.39-.78l-.08-.13c-.08-.16-.15-.18-.34-.15-.08.02-.15,0-.22,0-.21-.05-.37,0-.5.11-.21.14-.47.12-.75.06-.2-.08-.45-.13-.69-.04-.13.08-.31.08-.5.11-.15,0-.16.04-.22.17l-.09.42c-.04.18-.07.32-.07.5-.06.47-.17.96-.19,1.43-.04.18-.01.4-.02.62.02.08,0,.18-.02.25-.06.28-.08.54-.14.82-.04.18-.07.32-.21.47l-.04.18c-.07.13-.16.22-.3.19-.43-.05-.72-.23-.81-.69-.05-.12-.05-.27-.03-.37,0-.22.03-.47.04-.69v-.52c-.02-.26-.03-.56-.01-.81.05-.58.13-1.11.17-1.66.04-.36.04-.73.16-1.11ZM142.36,69.22c.07.02.14.03.18,0,.3-.05.62-.13.92-.17.11-.01.19-.03.31-.08.08-.02.09-.09.03-.14-.09-.09-.22-.19-.32-.25-.28-.06-.54-.23-.84-.18,0,.04-.04,0-.07-.02-.25-.05-.37,0-.49.23-.12.2.06.57.27.61Z"/>
    <path class="cls-2" d="M173.8,79.91s-.06.05-.08.08c-.08.36-.29.66-.44.99-.12.26-.23.53-.45.75-.15.17-.25.4-.31.61,0,.08-.02.15-.05.21-.01.03-.06.05-.03.07.04.26-.16.36-.3.5-.06.05-.07.17-.15.25l-.45.75s-.05.02-.05.02c-.03.34-.34.52-.46.78-.04.1-.15.17-.28.19-.08,0-.18-.04-.29-.05-.14-.22-.45-.4-.42-.74,0-.16-.02-.32,0-.47v-.03c.02.08,0,.11.01,0,.03-.07.02-.15.02-.23l-.03.07c.01-.11.05-.29.05-.57.1-.23.22-.41.31-.61.04-.1.07-.16.13-.22.09-.2.16-.36.28-.55.1-.15.18-.32.22-.5l.06-.13c.04-.1.11-.15.12-.26l.04-.1c.07-.17.18-.32.26-.51.07-.17.05-.29-.13-.41,0,0,.01-.03-.03-.01-.25-.07-.49-.22-.75-.25-.11-.01-.23-.02-.31-.1-.22-.13-.43-.27-.69-.3l-.07-.03c-.41-.14-.84-.33-1.27-.52-.1-.04-.2-.09-.31-.1-.16-.07-.37.03-.44.2-.05.29-.23.53-.35.79-.11.34-.26.67-.38,1.05l-.38.86v.03c-.2.15-.24.41-.37.63-.11.15-.23.33-.4.45s-.28.11-.47,0c-.32-.18-.39-.45-.4-.8.02-.03.01-.11,0-.16-.06-.22,0-.44.07-.6.07-.25.2-.46.29-.66l.06-.13c.05-.21.12-.46.18-.67l.22-.49c.06-.13.1-.23.16-.36.14-.41.31-.81.5-1.23.15-.33.29-.66.47-.97l.23-.53c.12-.26.23-.53.41-.76l.04-.1c.17-.4.45-.75.67-1.08.19-.35.44-.63.61-.95.13-.22.27-.43.36-.63.08-.08.12-.18.2-.27.12-.18.23-.33.31-.53.09-.2.24-.37.36-.55.12-.18.27-.35.39-.53l.54-.79c.13-.22.3-.42.47-.62.17-.2.3-.42.47-.62.03-.07.09-.12.12-.18.05-.02.08-.08.09-.12.2-.46.54-.87.86-1.24.29-.39.59-.72.91-1.09.18-.23.43-.44.64-.66l.6-.56c.23-.17.43-.36.67-.53.08-.08.19-.15.24-.29.04-.1.15-.17.31-.18.19,0,.38-.07.56-.11s.29-.03.42.03c.16.07.34.11.49.22.07.03.08.08.1.12.03.29.09.59.14.85.06.22.02.4.05.61-.03.07-.02.15,0,.19.06.3.01.6-.04.89-.02.15,0,.27-.03.42,0,.47-.05.92-.17,1.38-.07.24-.18.51-.19.78-.02.23-.11.42-.16.64l-.35,1.42c-.1.31-.18.59-.26.87l-.19.7c-.1.31-.15.6-.23.88l-.19.43c-.17.4-.3.77-.39,1.16l-.22.49c-.13.3-.29.58-.36.9l-.1.23c-.09.2-.14.41-.23.61l-.09.2c-.2.27-.28.55-.38.86-.04.18-.16.36-.26.51-.06.13-.16.28-.17.48s-.08.36-.2.54ZM172.34,78.48l.16-.36c.13-.22.27-.43.37-.66.1-.23.17-.48.24-.72.12-.26.26-.51.35-.79.16-.36.35-.71.43-1.07.04-.1.09-.2.16-.28l.13-.3c.13-.3.23-.61.36-.9l.29-.66c.13-.22.16-.44.19-.7.04-.26.12-.54.2-.82.11-.34.3-.69.35-1.07.03-.34.16-.64.23-.96.09-.39.2-.74.27-1.14.06-.33.14-.68.18-1.02l.07-.95c.02-.23.09-.47.04-.73,0-.08,0-.19-.09-.24-.13-.06-.18.04-.25.12-.05.02-.08.08-.09.12l-.23.25c-.45.39-.84.85-1.18,1.33-.13.22-.3.42-.47.62-.24.29-.55.54-.68.92-.06.13-.2.27-.24.45-.1.23-.27.43-.42.6-.03.07-.09.12-.1.15-.21.3-.39.62-.6.92-.2.27-.41.57-.55.9-.13.22-.28.47-.37.74l-.04.1c-.11.07-.15.17-.2.27l-.18.32c-.18.32-.36.63-.55.98-.13.22-.24.45-.4.65-.2.19-.27.43-.44.64-.15.17-.27.43-.37.66-.16.28-.28.55-.44.83-.04.1-.07.16-.02.23.16.27.32.53.61.66.28.08.54.2.84.33l.12.09c.31.1.56.25.87.34.31.1.62.2.92.33l.13.06c.26.04.37-.03.41-.21ZM170.07,83.82s.01-.11,0-.16c0,.08.02.13,0,.16Z"/>
    <path class="cls-2" d="M174.74,83.18l.47-1.1c.12-.22.23-.49.34-.71.22-.41.41-.84.64-1.25.05-.09.15-.2.22-.33.4-.81.83-1.6,1.25-2.39.33-.6.68-1.19.99-1.76l.94-1.74c.14-.25.31-.49.49-.76.02-.03.05-.09.08-.16l.46-.86c.1-.19.19-.35.39-.49l.07-.13c.13-.17.19-.35.39-.49.13-.09.22-.25.3-.41.15-.29.33-.6.51-.87.05-.1.12-.14.17-.24.13-.17.24-.36.35-.5.23-.28.36-.58.59-.87.17-.16.32-.36.5-.55.07-.05.13-.09.2-.14l.38-.25c.13-.09.39-.12.56.02l.36.32c.08.08.14.12.21.15.27.1.49.31.68.49.22.2.42.43.64.63l.31.25c.33.3.62.66.82,1.06.06.03.08.08.09.13.1.34.3.65.45.98.15.33.2.68.26,1.04.04.31-.03.59-.05.92-.02.11-.04.22-.11.35l-.41.76c-.05.09-.12.14-.17.24-.05.09-.09.16-.2.22l-.03.06c-.07.21-.28.3-.45.45-.13.09-.29.17-.39.28l-.63.48c-.11.06-.24.07-.39.12-.11.06-.21.09-.31.12-.28.14-.51.26-.81.3-.03-.02-.1.03-.12.06-.13.01-.31.04-.42.02-.24,0-.45,0-.68.04-.16,0-.2.06-.12.22.01.05.06.11.11.18l.08.16c.11.18.17.37.31.49.03.02.06.03.08.08.13.36.3.73.42,1.13.09.21.11.47.15.7l.04.39c.04.15.06.28-.03.43-.02.03-.02.11-.02.19-.03.43-.14.87-.36,1.28-.07.13-.12.3-.16.45-.05.09-.07.21-.14.33-.09.16-.22.33-.29.54-.1.19-.24.36-.42.47-.13.09-.25.23-.37.37-.02.03-.03.06-.08.08-.12.14-.23.2-.35.34-.19.27-.46.4-.73.59-.22.17-.46.32-.64.51-.05.09-.18.11-.25.15-.16.08-.3.17-.44.21l-.41.15c-.2.06-.38.17-.57.22-.02.03-.07.05-.1.03-.54.16-1.07.32-1.59.45-.15.04-.31.04-.44.05-.03-.02-.11-.02-.13.01-.34.1-.7.07-1.01.19-.1.03-.15.04-.23.04-.32-.01-.67-.04-.98-.08-.3-.04-.61-.08-.86-.14-.11-.02-.16-.09-.16-.17,0-.08-.04-.15-.06-.2-.12-.23-.13-.44-.07-.69.02-.11.05-.18.07-.29l.12-.38c.06-.34.15-.65.24-.97-.01-.05,0-.08.02-.11.14-.33.26-.64.38-.94l.03.02ZM185.02,69.62c-.21-.07-.37-.16-.54-.21-.11-.02-.27-.02-.42.02-.05.01-.11.06-.15.12-.19.27-.34.55-.53.82l-.31.57c-.05.09-.09.16-.15.21-.13.17-.3.33-.4.52-.05.09-.15.2-.23.28-.15.12-.27.26-.37.45l-.33.6c-.27.51-.55,1.01-.89,1.49-.07.05-.12.14-.09.24.08.08.18.05.26.06.16,0,.29,0,.42-.02.11.02.19.02.29,0l.4-.07c.27.03.53,0,.77,0,.21,0,.37,0,.56.02.16,0,.27.02.4.01.27.02.53,0,.77,0l.03.02c.24.09.51.03.76.04.18-.03.36-.05.52-.13.33-.23.64-.43.93-.73.28-.3.47-.65.5-1.08.02-.11,0-.24,0-.37-.02-.5-.15-.94-.42-1.33-.06-.03-.06-.11-.12-.15-.35-.27-.56-.63-.94-.84,0,0-.03-.02-.01-.05l-.71-.51ZM182.68,81.98l.09-.16c.09-.24.13-.46.25-.68.14-.33.17-.69.15-1.03-.02-.34-.03-.71-.18-1.04l-.17-.38c-.09-.21-.23-.41-.42-.59-.05-.07-.14-.12-.19-.18-.27-.27-.5-.52-.75-.73-.17-.13-.39-.25-.62-.29-.24-.09-.48-.1-.72-.1-.13.01-.24,0-.38-.04-.09-.05-.24,0-.31.12-.12.14-.2.3-.31.49-.05.09-.12.22-.2.3-.18.11-.25.31-.35.5-.14.33-.26.64-.42.92-.11.27-.26.48-.38.7-.05.1-.05.18-.11.27-.05.1-.07.21-.12.3-.22.33-.33.68-.48,1.05-.12.22-.21.46-.33.68-.12.3-.33.6-.38.94-.02.11-.07.21-.12.3-.12.3-.29.62-.43.95-.05.09-.1.19-.11.27-.04.22-.11.43-.21.62-.09.16-.06.26.15.25.03.02.05-.01.08,0l.52.03c.61.08,1.16-.03,1.75-.2l.42-.1s.13-.01.2-.06c.47-.19.98-.37,1.44-.61.21-.09.39-.2.57-.3.35-.26.72-.51,1.03-.84.22-.25.47-.49.67-.7.15-.21.25-.39.39-.65Z"/>
    <path class="cls-2" d="M191.07,75.75c.04-.06.13-.13.21-.21l.3-.28c.09-.07.14-.08.26-.14.25-.06.5-.12.79-.11.03.02.08,0,.11.03.24.15.58.15.84.35.1.11.18.19.16.35.03.36-.03.66-.28.93-.04.06-.11.1-.16.12l-.26.22c-.17.07-.32.1-.45.19l-.38.14c-.19.1-.4.09-.6.01-.17-.06-.33-.16-.48-.25-.03-.02-.07-.09-.08-.14-.03-.15-.09-.27-.09-.4,0-.29-.05-.54.12-.81ZM184.57,86.63c.13-.13.22-.29.35-.42l.06-.09c.14-.29.32-.52.49-.79.15-.25.3-.49.48-.72.11-.1.24-.19.29-.33.09-.28.29-.46.39-.69.4-.64.8-1.29,1.23-1.91.11-.18.28-.38.39-.56.05-.01.07-.04.09-.07.07-.25.22-.5.42-.67.11-.1.15-.24.26-.35.21-.21.32-.44.48-.64.06-.09.16-.11.22-.16l.21-.13c.09-.15.27-.17.45-.18.1-.02.53.24.58.36.02.1.03.23,0,.34,0,.13-.04.27-.05.43-.02.03-.03.11-.08.12-.15.03-.14.16-.2.26-.13.21-.2.47-.37.66-.16.2-.24.45-.37.66-.06.09-.09.15-.15.24l-.47.76s-.06.09-.08.12l-.05.14c-.19.18-.23.45-.37.66-.06.09-.14.16-.21.21-.14.16-.23.37-.32.52-.1.23-.23.45-.35.63-.06.09-.14.16-.18.23-.13.13-.2.26-.3.41-.18.23-.27.51-.34.76-.05.14-.07.25-.16.32-.11.1-.18.23-.21.34-.05.14-.1.23-.25.27-.1.02-.16.12-.18.23.01.05-.06.09-.09.15-.02.03-.09.07-.09.15-.12.26-.35.42-.58.53-.21.13-.47.22-.68,0-.19-.16-.37-.36-.52-.53-.13-.21-.14-.47,0-.68.08-.2.2-.39.28-.59Z"/>
    <path class="cls-2" d="M190.37,86.23c.05-.14.16-.28.24-.4l.44-.62c.08-.12.2-.21.3-.36.06-.09.16-.15.24-.27.25-.22.47-.46.73-.72l.29-.28c.18-.18.38-.35.59-.51l.44-.43c.13-.13.3-.23.43-.36l.77-.51c.31-.18.61-.36.89-.56.19-.08.38-.22.57-.3.18-.13.38-.22.57-.3.09-.07.19-.08.26-.12.35-.24.77-.33,1.19-.43.05,0,.08.01.1-.02.21-.11.44-.13.67-.14.35-.06.68-.09,1.01-.12.23-.01.43-.05.65.02.08.01.16.03.26,0,.36,0,.71.06,1.06.19.11.03.24.04.4.06.24.04.46.15.71.24.28.16.6.34.89.55.18.13.36.3.49.49.1.16.23.3.21.51l.05.17c.11.21.07.4-.08.61-.04.06-.11.1-.1.15-.04.24-.26.3-.43.36-.02.03-.13,0-.16-.02-.09-.06-.13-.13-.17-.26l-.12-.26c-.08-.19-.19-.36-.36-.43-.09-.06-.18-.13-.22-.25.02-.03-.04-.07-.07-.09-.14-.05-.28-.16-.41-.16-.21-.02-.43-.08-.64-.15-.19-.05-.43-.08-.65-.02-.12.05-.3.05-.44,0-.06-.04-.14-.05-.21-.02-.22.06-.45.08-.68.09-.11-.03-.23.01-.33.03-.15.02-.32.08-.44.13l-.28.02c-.19.08-.33.16-.54.14-.02.03-.05,0-.07.04-.2.16-.46.2-.7.3-.17.05-.36.14-.5.26-.35.24-.73.41-1.06.61-.19.08-.38.22-.56.35-.23.14-.44.31-.7.48-.23.14-.41.33-.59.51-.27.25-.54.5-.77.77l-.95.96c-.05.19-.27.25-.37.4-.07.17-.21.29-.31.44-.36.5-.72.95-.91,1.52-.09.25-.21.42-.3.67l-.14.38c-.02.16-.1.33-.18.49-.03.11-.06.27-.03.42,0,.05.02.15.01.23-.01.08.03.2.05.3.13.31.41.42.71.55.06.04.17.07.28.11.17.08.35.07.55.04.12-.05.25-.04.35-.06l.72-.15c.3-.05.54-.14.81-.26.23-.14.54-.19.83-.29.15-.02.32-.08.49-.13.08.01.15-.03.22-.06l1.09-.72c.23-.14.46-.33.64-.52.13-.13.27-.25.45-.38l.51-.34c.23-.19.45-.39.65-.6.28-.2.49-.44.79-.67.35-.24.69-.53.94-.88.29-.41.57-.79.78-1.21l.17-.36c.1-.15.16-.28.2-.47.14-.25.23-.5.34-.78.1-.2.29-.28.5-.26.08.01.18,0,.23-.01.23-.01.38.09.43.26.05.12.05.3.05.43-.04.24-.15.46-.22.68-.06.27-.15.52-.13.8.02.1,0,.18-.09.25-.07.04-.1.15-.12.23-.05.14-.14.26-.24.4-.08.12-.17.23-.22.37-.09.25-.26.43-.38.66-.14.26-.33.52-.46.77-.19.26-.39.48-.57.74l-.02.03c-.11.28-.34.47-.48.67-.15.21-.3.36-.43.54l-.21.29c-.15.21-.32.39-.47.59l-.18.31c-.24.27-.45.56-.67.81-.32.39-.62.75-.92,1.16-.2.21-.4.38-.57.61-.13.18-.31.31-.43.53-.06.09-.18.13-.27.25-.16.1-.32.26-.44.43-.2.21-.43.36-.66.55-.16.1-.3.23-.44.3-.26.17-.51.34-.74.54-.2.16-.45.25-.65.42-.26.17-.52.29-.8.31-.15.03-.29.1-.41.2-.12.05-.24.09-.34.11l-.54.14c-.36.14-.72.02-1.09-.03-.26,0-.51-.1-.77-.16-.05,0-.13,0-.18,0l-.27-.06c-.08-.01-.14-.05-.19-.05-.08-.01-.11-.03-.17-.08-.26-.14-.52-.33-.76-.54-.09-.06-.2-.1-.28-.16-.12-.08-.23-.17-.34-.2l-.26-.19c-.11-.03-.17-.08-.11-.16.1-.2.04-.37,0-.57-.04-.25-.09-.55-.11-.83-.02-.28.07-.53.16-.77.07-.17.12-.36.2-.52.04-.06.03-.11.08-.17.1-.15.21-.29.42-.28.08.01.1-.02.15-.02.17-.05.31,0,.41.16.11.21.18.49.08.76-.04.06-.03.11-.05.14-.11.28-.1.51.05.79.06.22.1.42.26.63l.15.1c.28.16.57.32.9.47.06.04.14.05.22.07.13,0,.27.06.4.06.33-.03.62,0,.89-.07.1-.02.2-.03.28-.02.2-.03.4-.07.59-.2.28-.15.58-.25.84-.37.07-.04.14-.08.19-.08.26-.17.48-.36.77-.51.28-.2.54-.45.81-.7.22-.24.44-.44.69-.66.25-.22.5-.39.69-.66.24-.27.51-.47.69-.79.01-.08.08-.12.13-.18.02-.03.04-.06.03-.11-.03-.02-.08-.01-.11-.03-.1.02-.25.04-.34.11-.19.08-.39.17-.6.28-.27.07-.51.21-.74.36-.07.04-.19.08-.29.1-.23.01-.43.05-.61.18-.13.12-.33.16-.52.16-.08-.01-.2.03-.3.05l-.15.02c-.18,0-.35.06-.49.13-.39.12-.75.18-1.1-.08-.06-.04-.09-.06-.14-.05-.14-.05-.23-.12-.34-.2-.06-.04-.14-.05-.22-.07-.03-.02-.08-.01-.06-.04-.08-.19-.34-.2-.45-.36-.13-.13-.27-.24-.4-.37-.1-.11-.21-.2-.22-.38,0-.13-.05-.3-.1-.42-.04-.07-.1-.11-.16-.2-.13-.18-.23-.43-.24-.66-.03-.2,0-.36.02-.52.02-.16,0-.26.01-.39s.03-.29.06-.4c.05-.19.12-.36.2-.52l.04-.24c.15-.33.27-.69.39-1.05.17-.36.42-.71.59-1.08.02-.03.04-.06.06-.09l.03.02Z"/>
    <path class="cls-2" d="M200.06,103.13c.07-.08.16-.19.34-.28.22-.14.41-.31.65-.48l.82-.63c.17-.14.34-.28.48-.45.12-.09.21-.2.31-.31.02-.03.05-.05.1-.06.07-.08.14-.11.21-.2.31-.3.59-.58.93-.86.1-.06.16-.29.07-.41-.09-.12-.2-.27-.36-.3-.11-.09-.24-.16-.28-.29,0-.05-.06-.1-.09-.12-.16-.09-.3-.21-.46-.35-.14-.12-.3-.26-.41-.4-.05-.05-.13-.07-.21-.08-.13-.02-.29-.11-.42-.17-.14-.12-.25-.21-.41-.3s-.35-.2-.53-.27c-.08-.07-.16-.09-.24-.11-.11-.04-.21-.03-.28.05-.14.22-.35.41-.44.62,0,.05-.02.08-.04.11-.26.25-.44.57-.62.84l-.05.06c-.29.28-.44.62-.64.97-.16.19-.28.38-.41.59l-.22.43c0,.05,0,.1-.02.13-.19.22-.3.46-.51.65-.12.14-.27.15-.45.19-.03-.02-.08-.02-.11-.04-.09-.12-.17-.24-.16-.37.04-.11-.02-.2-.08-.3-.23-.29-.23-.62-.07-.96l.05-.05c.1-.06.14-.16.16-.24.01-.13.08-.26.1-.39.02-.08.07-.13.09-.21.02-.13.11-.24.18-.32.09-.16.15-.34.22-.48.07-.08.11-.19.16-.24.3-.41.55-.81.75-1.21.02-.03,0-.05.02-.08.27-.2.34-.56.57-.84l.57-.84c.04-.11.03-.26.16-.29.18-.32.44-.57.67-.84l1.73-2.02c.23-.27.52-.5.76-.77.07-.03.09-.11.14-.11.19-.22.38-.39.59-.58.16-.19.38-.39.57-.56.14-.16.28-.28.45-.42.05-.06.12-.09.17-.14l.6-.53c.31-.3.61-.66.97-.97.17-.14.38-.34.6-.43.19-.12.39-.23.58-.35l1.22-.76c.19-.12.39-.18.59-.3.29-.23.66-.33.98-.49l.17-.09c.15-.06.3-.12.47-.16.05,0,.1,0,.18-.04.17-.09.4-.08.63-.13.08.02.15-.01.28-.05.22-.09.41-.03.48.22.06.1.11.14.24.16.23,0,.35.2.44.37.09.17.18.29.29.44.14.17.25.31.27.52,0,.05,0,.1.04.13.07.2.13.4.1.61-.04.16-.02.36.04.51.01.15.05.28-.02.41-.05.05-.04.11-.04.16-.02.36-.05.72-.15,1.06-.04.16-.1.34-.17.47l-.02.03c-.05.34-.26.63-.41.93,0,.05-.04.11-.09.16-.14.11-.23.32-.32.49-.21.3-.31.64-.46.98-.09.16-.16.29-.27.43-.16.19-.28.38-.39.57l-.21.25c-.12.09-.19.17-.29.28-.13.27-.32.48-.48.68-.14.11-.18.27-.3.41-.09.16-.26.3-.37.44-.05.06-.12.14-.14.22-.11.19-.23.32-.35.46,0,.05-.05.06-.07.08-.22.14-.33.33-.5.52-.09.11-.16.24-.31.25l-.05.05c-.14.22-.28.38-.44.52-.24.17-.35.41-.54.58-.16.19-.28.38-.44.57-.03.03-.1.06-.15.11,0,0-.05,0-.07.03-.11.29-.43.39-.57.61-.05.05-.12.09-.17.14-.44.24-.8.6-1.15.96-.17.14-.28.38-.44.52-.16.19-.33.33-.5.47-.41.36-.84.65-1.28.99l-.02.03c-.09.16-.26.25-.41.36-.12.14-.29.23-.43.34-.12.09-.24.17-.36.26l-.68.46c-.12.09-.19.17-.29.23-.21.2-.5.14-.6-.13l-.13-.4c0-.1-.02-.2.03-.26.09-.16.12-.37.29-.51l.07-.08ZM210.68,92.37l.03.02.16-.19c.12-.14.21-.25.25-.4,0-.05.02-.08.04-.11.2-.35.41-.7.58-1.07.09-.16.18-.32.29-.51l.29-.51s.05-.05.04-.11c.09-.21.12-.42.18-.65.09-.16.08-.31.12-.47.02-.13-.02-.25-.11-.37-.06-.15-.15-.32-.27-.46-.23-.34-.5-.47-.89-.29-.22.09-.44.24-.67.28-.32.1-.64.25-.91.4-.5.19-.91.5-1.29.84-.19.17-.39.29-.55.43-.22.14-.44.29-.68.41-.44.24-.8.6-1.12.98-.23.27-.52.5-.73.8-.26.3-.57.5-.84.75-.19.22-.41.36-.59.58l-.09.11c-.2.07-.29.23-.46.37l-.16.19c-.14.16-.29.28-.37.44-.05.05-.04.11-.09.11-.17.09-.31.25-.4.41-.02.08-.07.08-.12.14-.19.22-.38.39-.46.65-.02.08-.12.14-.16.19q-.09.11,0,.23c.06.05.11.09.19.11.32.13.58.26.81.55l.05.05c.16.09.3.21.41.3.14.12.32.18.46.3l.63.54c.16.14.23.34.47.4l.03.02c.14.17.31.31.42.45.11.09.19.11.3-.02l.09-.11c.46-.37.83-.81,1.21-1.24.14-.16.33-.33.47-.5.24-.22.45-.47.66-.66.14-.16.28-.33.45-.47l.16-.19c.28-.33.56-.66.87-.96.05-.05.14-.11.16-.19.23-.27.41-.59.62-.84.19-.22.35-.46.53-.73Z"/>
    <path class="cls-2" d="M215.01,94.02c.05-.05.15-.1.25-.16l.35-.21c.1-.05.15-.05.28-.08.25,0,.51-.01.79.06.03.03.08.02.1.05.21.2.54.27.75.52.08.12.13.23.08.38-.04.36-.16.64-.47.85-.05.05-.13.08-.18.08l-.3.16c-.18.03-.33.03-.48.09l-.41.06c-.2.05-.41,0-.59-.11-.16-.1-.29-.22-.41-.35-.03-.02-.05-.1-.05-.15,0-.15-.03-.28,0-.41.07-.28.06-.54.29-.77ZM206.4,103.32c.15-.1.28-.24.43-.34l.08-.08c.2-.26.42-.44.65-.68.2-.21.4-.42.62-.6.13-.08.28-.13.35-.26.15-.26.37-.39.52-.6.52-.55,1.05-1.09,1.59-1.61.15-.16.35-.31.5-.47.05,0,.08-.03.1-.05.12-.23.32-.44.55-.57.13-.08.2-.21.33-.29.25-.16.4-.37.6-.52.08-.08.18-.08.25-.11l.23-.08c.12-.13.3-.11.48-.09.1,0,.47.35.49.47,0,.1-.02.23-.07.33-.02.13-.1.26-.14.41-.03.03-.05.1-.1.1-.15,0-.18.13-.25.21-.17.18-.3.41-.5.57s-.32.39-.5.57c-.07.08-.12.13-.2.21l-.62.65-.1.1-.07.13c-.23.13-.32.39-.5.57-.08.08-.18.13-.25.16-.18.13-.3.31-.42.44-.15.21-.32.39-.47.54-.08.08-.18.13-.23.18-.15.1-.25.21-.37.34-.23.18-.37.44-.5.67-.07.13-.12.23-.22.28-.13.08-.23.18-.27.29-.07.13-.15.21-.3.21-.1,0-.18.08-.23.18,0,.05-.07.08-.12.13-.02.03-.1.05-.12.13-.17.23-.43.34-.68.4-.23.08-.51.11-.66-.14-.16-.2-.29-.43-.4-.63-.08-.23-.04-.48.14-.66.12-.18.27-.34.4-.52Z"/>
    <path class="cls-2" d="M207.81,108.13c.45-.42.89-.79,1.31-1.18.18-.17.37-.29.55-.42.11-.1.19-.22.29-.32.03-.02.05-.1.13-.12.15-.05.23-.17.34-.27.08-.07.21-.15.31-.24.29-.32.66-.62.97-.91.18-.17.39-.32.55-.47.11-.1.19-.22.29-.32l.05-.05c.26-.14.4-.42.68-.59.23-.17.42-.39.66-.61.37-.29.73-.64,1.13-.91.26-.19.5-.42.73-.64.21-.15.44-.32.63-.49.05,0,.08-.02.1-.05.24-.22.45-.42.71-.61.21-.15.42-.29.63-.49.21-.15.42-.34.63-.49.13-.12.29-.22.42-.34.13-.12.24-.27.37-.39.16-.15.31-.24.49-.36.16-.1.31-.24.44-.37.24-.17.44-.37.71-.56.1-.1.23-.17.36-.24.21-.15.47-.29.55-.57.03-.08.05-.1.13-.12.08.03.15,0,.2,0,.1.05.2.06.33.04.18-.02.31,0,.43.14.07.08.12.13.22.14.03.03.1.05.07.08.07.23.19.41.13.67-.06.2-.06.35-.09.53.02.13,0,.2-.09.28-.11.1-.21.2-.24.32l-.08.07c-.36.09-.57.34-.81.61-.18.17-.32.35-.5.52l-1.05.83c-.08.07-.18.07-.26.14-.21.15-.42.29-.55.57,0,.05-.08.07-.13.12-.08.07-.16.1-.24.17-.23.12-.47.29-.68.44-.11.1-.21.15-.34.22-.13.12-.29.27-.42.39l-.08.07c-.23.12-.42.24-.53.49-.05.1-.13.17-.29.22,0,0-.03.02-.08.02l-.55.36-.16.15c-.06.15-.16.25-.32.3l-.08.07c-.14.27-.42.39-.66.61-.16.15-.37.24-.47.44-.08.13-.21.2-.34.27-.08.02-.13.12-.18.17-.11.1-.18.17-.31.24-.11.1-.24.17-.29.32,0,.05-.05.1-.08.13-.16.15-.37.29-.52.44l-.47.44c-.21.2-.44.37-.68.59-.08.07-.16.15-.21.25-.16.2-.32.35-.48.49-.13.07-.21.2-.29.32l-.18.17c-.05.05-.11.1-.13.17-.05.1-.13.17-.24.22-.18.07-.31.14-.47.24-.03.02-.05.05-.08.07l-.84.79c-.13.12-.11.2,0,.31.12.13.27.24.39.37.2.21.45.37.7.53.32.24.62.45.97.67.07.08.2.11.3.16.2.06.4.17.55.27.22.14.42.24.6.38.08.03.1.05.1.11.07.08.1.16.17.18.05,0,.08.03.07.08.1.11.17.24.27.34q.1.16,0,.31c-.05.1-.11.2-.26.25-.05,0-.1.05-.11.1-.06.2-.21.3-.37.4-.13.12-.31.09-.43.01-.15-.11-.3-.21-.4-.32-.15-.16-.3-.26-.47-.3-.13.02-.23-.03-.35-.11-.05-.05-.15-.06-.23-.08-.15,0-.28-.09-.35-.21-.07-.08-.17-.13-.32-.19-.28-.09-.55-.27-.83-.46-.1-.11-.2-.16-.35-.22-.15-.11-.27-.24-.42-.4,0-.05-.05-.1-.1-.11-.2-.06-.3-.21-.47-.35-.12-.13-.24-.31-.39-.47-.17-.18-.24-.37-.34-.57-.05-.1-.07-.23-.04-.36,0-.31.02-.61.05-.89,0-.1.03-.18.06-.25.06-.25.14-.48.3-.68.21-.25.38-.55.61-.72Z"/>
  </g>
  <rect class="cls-1" x="211.98" y="109.57" width="341.31" height="95.04"/>
</svg>