<?xml version="1.0" encoding="UTF-8"?>
<svg id="Layer_1" data-name="Layer 1" xmlns="http://www.w3.org/2000/svg" viewBox="0 0 260.55 262.85">
  <defs>
    <style>
      .cls-1 {
        fill: #231f20;
      }
    </style>
  </defs>
  <g>
    <path class="cls-1" d="M23.68,131.81c-.11-.14-.31-.49-.53-.76-.13-.26-.35-.53-.52-.84-.11-.13-.22-.27-.31-.49-.22-.27-.43-.54-.6-.85-.16-.39-.54-.68-.82-1.04-.49-.71-1-1.34-1.53-2.02-.32-.41-.7-.7-.99-1.06-.29-.36-.71-.61-.99-1.06,0-.08-.11-.14-.19-.15-.15-.1-.3-.28-.44-.46-.04-.04-.07-.09-.06-.17l-.04-1.07c-.04-.33.15-.56.41-.69q.61-.34,1.28-.06l1.29.52c.15.1.26.24.28.44,0,.08.06.17.13.26l1.17,1.2c.44.46.8.91,1.19,1.41l1.33,1.67c.07.09.19.15.26.24l.39.5s.03.12.06.17c.45.38.72.9,1.03,1.39.21.35.49.71.7,1.06.1.22.24.4.38.58.3.28.55.6.88.92.21.27.47.5.69.78.35.53.7,1.06,1.09,1.56l.21.27c.68,1.22,1.64,2.15,2.46,3.27.07.09.1.22.17.31.03.13.05.25.09.3.26.23.43.54.69.78s.43.54.61.77c.11.14.21.35.31.49l1.29,1.62c.11.14.26.23.37.37.04.04.12.05.07.09.23.48.65.81.92,1.25.18.23.28.44.41.7l.72.9c.06.17.17.31.28.44.07.09.11.14.18.23l.72.9c.14.18.29.36.39.58.05.25.2.43.17.67,0,.08.06.17.05.25.16.39.14.55-.13.76-.13.11-.23.26-.3.46-.06.2-.32.25-.48.23-.37,0-.69-.04-1.01-.16-.2-.06-.35-.16-.46-.3-.33-.33-.62-.69-.91-1.05-.14-.18-.24-.4-.38-.58l-2.55-3.2c-.14-.18-.37-.37-.55-.59l-.25-.32c-.61-.77-1.18-1.49-1.75-2.29-.43-.54-.9-1.13-1.28-1.7-.3-.57-.74-1.03-1.17-1.57-.31-.49-.71-.98-1.06-1.51-.29-.36-.53-.76-.77-1.15l-.43-.54c-.43-.54-.82-1.04-1.3-1.54-.3-.28-.54-.68-.9-1.13Z"/>
    <path class="cls-1" d="M65.37,121.02c.03.05,0,.13.03.18.37.46.53,1.02.8,1.53.21.41.42.82.49,1.31.06.36.24.72.45,1,.1.08.16.18.21.28.03.05,0,.13.05.1.36.2.29.56.32.87,0,.13.13.26.16.44l.49,1.31c.03.05-.03.08-.03.08.39.38.3.95.51,1.36.08.15.06.36-.04.54-.08.11-.23.18-.36.32-.41-.04-.95.17-1.34-.21-.21-.15-.42-.3-.57-.48l-.03-.05c.1.08.13.13,0,0-.05-.1-.16-.18-.26-.25l.05.1c-.13-.13-.31-.36-.65-.63-.19-.36-.29-.69-.45-1-.08-.15-.13-.26-.14-.38-.16-.31-.29-.56-.4-.89-.08-.28-.21-.54-.4-.77l-.11-.2c-.08-.15-.08-.28-.21-.41l-.08-.15c-.13-.26-.21-.54-.37-.84-.13-.26-.31-.36-.65-.25,0,0-.03-.05-.05.03-.33.24-.77.4-1.07.69-.13.13-.25.26-.43.29-.38.14-.77.27-1.07.56l-.1.05c-.59.37-1.25.72-1.92,1.06-.15.08-.31.16-.43.29-.26.13-.33.5-.19.75.31.36.43.82.64,1.23.32.48.58,1,.93,1.53l.69,1.33.03.05c0,.39.29.69.43,1.08.08.28.19.62.17.95-.02.33-.15.47-.48.57-.54.21-.95.04-1.4-.31-.03-.05-.13-.13-.21-.15-.34-.15-.55-.43-.68-.68-.24-.33-.37-.71-.53-1.02l-.11-.21c-.21-.28-.45-.61-.66-.89l-.4-.77c-.11-.21-.19-.36-.29-.56-.37-.59-.69-1.2-1.04-1.86-.27-.51-.53-1.02-.75-1.56l-.42-.82c-.21-.41-.43-.82-.54-1.28l-.08-.15c-.32-.61-.49-1.3-.68-1.92-.24-.59-.35-1.18-.57-1.72-.14-.38-.27-.77-.43-1.08-.03-.18-.11-.33-.14-.51-.11-.33-.19-.62-.35-.92s-.22-.67-.33-1c-.11-.33-.17-.69-.27-1.03l-.44-1.46c-.14-.38-.22-.79-.3-1.21-.08-.41-.22-.79-.3-1.21-.05-.1-.05-.23-.11-.33.02-.08-.03-.18-.06-.23-.37-.71-.54-1.54-.68-2.31-.19-.74-.31-1.46-.45-2.23-.11-.46-.12-.98-.18-1.46l-.1-1.31c.02-.46-.01-.9,0-1.37-.03-.18,0-.39-.11-.59-.08-.15-.06-.36.09-.57.2-.24.3-.55.43-.81.12-.26.25-.39.46-.5.26-.13.48-.32.77-.4.1-.05.18-.03.26,0,.39.25.83.48,1.2.68.34.15.52.38.81.55.05.1.16.18.24.2.44.23.76.58,1.07.94.16.18.34.28.5.46.58.48,1.1.99,1.55,1.6.24.33.45.74.79,1.02.26.25.42.56.63.84l1.42,1.86c.29.43.55.81.82,1.2l.68.94c.29.43.61.79.87,1.17l.35.66c.32.61.66,1.15,1.06,1.66l.4.77c.24.46.43.95.77,1.35l.19.36c.16.31.37.59.53.89l.16.31c.14.51.4.89.69,1.33.18.23.29.56.37.84.11.2.19.49.42.69s.37.46.48.79ZM62.14,121.41l-.29-.56c-.14-.38-.27-.77-.46-1.13-.19-.36-.42-.69-.66-1.02-.21-.41-.37-.84-.64-1.23-.29-.56-.53-1.15-.9-1.61-.08-.15-.16-.31-.19-.49l-.24-.46c-.24-.46-.53-.89-.77-1.35l-.53-1.02c-.13-.38-.4-.64-.69-.94-.29-.3-.55-.69-.82-1.07-.32-.48-.56-1.07-.98-1.5-.39-.38-.63-.84-.97-1.25-.39-.51-.71-.99-1.16-1.48-.34-.41-.71-.86-1.1-1.24l-1.12-1.04c-.26-.25-.5-.58-.86-.78-.1-.08-.24-.2-.39-.12-.2.11-.12.26-.1.44-.02.08.03.18.05.23l.09.54c.04.95.21,1.9.48,2.8.13.38.22.79.3,1.21.11.59.12,1.23.47,1.77.11.2.14.51.32.74.18.36.27.77.33,1.13.05.1.05.23.08.28.16.56.38,1.1.54,1.67.14.51.3,1.08.57,1.59.13.38.3.82.56,1.2l.08.15c-.02.21.06.36.14.51l.21.54c.22.54.43,1.07.67,1.66.13.38.32.74.41,1.15.03.44.27.77.35,1.18.06.36.27.77.46,1.12.19.49.4.89.59,1.38.08.15.13.25.26.25.49.07.98.14,1.44-.1.38-.27.79-.48,1.25-.72l.23-.05c.43-.29.87-.45,1.3-.74s.87-.58,1.33-.82l.2-.11c.3-.29.33-.49.14-.72ZM66.52,129.58c-.03-.05-.13-.13-.21-.15.1.07.18.1.21.15Z"/>
    <path class="cls-1" d="M65.88,111.72c-.24-.71-.49-1.42-.71-2.07l-.13-.38c.02-.13,0-.18-.02-.24l-.84-2.45c-.09-.27-.11-.51-.21-.78-.15-.44-.36-.85-.45-1.31l-.6-1.74c-.04-.11,0-.18-.02-.24-.26-.76-.51-1.47-.72-2.25-.17-.49-.28-1-.4-1.51-.02-.24-.11-.51-.19-.73-.1-.45-.23-.83-.32-1.29-.09-.46-.21-.96-.38-1.45-.02-.24-.11-.51-.13-.75-.1-.45.1-.77.35-1.1l.22-.08c.15.07.33.07.48.14.09.09.22.11.35.12.24-.02.46.09.58.29l.55.36c.16.13.31.2.46.27.31.2.55.36.84.5.17.12.33.25.44.39l.24.16c.64.45,1.23,1.1,1.84,1.62.2.23.41.47.64.63.02.05.09.09.13.2.3.51.72.85,1.12,1.32l.51.43c.02.05.09.09.11.15.15.43.59.65.83.99.02.05.09.09.11.14.15.44.43.71.67,1.05.09.09.13.2.28.27.62.39,1.03,1.04,1.44,1.7.5.74,1.09,1.39,1.7,2.1l.39.6c.11.15.24.34.42.52.11.15.35.31.44.58.02.05.17.12.26.21.02.05.15.07.18.18.21.42.61.7.9,1.03.07.04.09.09.15.07.09.09.26.22.4.29.13-.17.12-.35.12-.53.03-.44,0-.91,0-1.4l.08-1.37c.05-.56.08-1.18.07-1.73.05-.38-.04-.84,0-1.22.01-.31.08-.64.08-1l.05-.38c.05-.56.08-1.18.16-1.82-.02-.24.01-.49.05-.75.1-.4.19-.86.22-1.29.1-.77.2-1.53.38-2.26.05-.2-.02-.42-.02-.6.07-.33.07-.69.13-1.02.02-.31.03-.62.06-.88l.05-.38c.16-.6.24-1.24.33-1.88-.02-.05.02-.13,0-.18l.5-2.24c.07-.33.14-.66.23-.93.02-.13.09-.27.21-.44.07-.15.2-.31.32-.48.32-.48.79-.7,1.34-.89.16-.06.47.14.59.29.21.42.39.78.42,1.2,0,.18.11.33.19.54.05.16.17.31.24.52.15.25.24.53.39.78l.04.11c.15.44.27.95.42,1.38.06.16.11.33.22.47.41.83.71,1.7,1.01,2.57l.51,1.47c.08.22.15.44.33.62l.13.2c.04.47.3.87.45,1.31.15.62.45,1.12.71,1.71.19.36.26.76.36,1.22l.06.16c.31.38.35.85.45,1.31.06.34.1.63.19.91,0,.18.08.4.13.56.09.27.19.54.28.82l.08.22c.3.87.58,1.69.81,2.52.07.22.22.47.12.69l.06.16c.18.18.21.42.23.65.06.16.11.33.22.47.13.2.13.38.13.56.02.05-.02.13.05.16.13.38.14.75.25,1.07.11.33.19.73.3,1.05.04.11.09.27.08.4l.02.05c.24.53.27,1.13.53,1.71.24.34.41.83.43,1.25l.11.33c.28.63.38,1.27.37,1.95.04.29.13.56.17.85.06.35.12.69.17,1.04l.02.24c.21.42,0,.86-.06,1.24-.05.2-.36.37-.63.28-.13-.02-.27-.09-.42-.16l-.68-.38c-.22-.11-.46-.27-.55-.54-.11-.14-.17-.31-.28-.45-.19-.36-.21-.78-.36-1.22-.07-.22-.15-.44-.17-.67-.09-.27-.17-.49-.21-.78-.03-.6-.29-1.18-.44-1.8l-.48-1.91c-.11-.51-.23-1.02-.36-1.58l-.51-2.02c-.02-.05-.04-.11,0-.18-.08-.77-.34-1.53-.55-2.31-.15-.62-.29-1.18-.49-1.78-.02-.24-.08-.4-.15-.62-.19-.54-.38-1.09-.53-1.71-.13-.38-.19-.73-.32-1.11-.02-.05-.04-.11,0-.18.01-.49-.19-.91-.32-1.29-.26-.76-.53-1.52-.82-2.21-.15-.44-.36-.85-.51-1.29-.17-.31-.28-.63-.37-.91l-.92-2.67c-.22-.47-.45-.94-.62-1.43-.19-.36-.32-.74-.45-1.12-.04-.11-.11-.14-.18-.18l-.12.17c-.09.27-.18.55-.14.84.04.47-.08,1-.17,1.46-.08.64-.19,1.22-.16,1.82,0,.36-.01.67-.12,1.07-.11.4-.06.88-.17,1.28l-.1.58c-.12,1.08-.38,2.08-.33,3.1l-.09.28c-.14.47-.1.95-.11,1.44l-.17,3.23c0,.55-.12,1.08-.13,1.57-.02.13-.03.25-.01.31.04.65-.02,1.35-.05,1.97-.01.67.05,1.38.04,2.06l.1.64c.04.11.06.16.08.22l.89,1.52s.07.04.09.09c.26.76.72,1.39.93,2.18-.05.02-.04.07.04.11.32.56.41,1.2.64,1.85.02.24.06.53.03.78-.04.07-.02.13,0,.18.19.36.04.84.23,1.2.02.05-.02.13-.09.09-.18,0-.2.13-.22.26-.02.13-.07.33-.07.51,0,.18-.07.33-.21.44s-.27.28-.3.53c.02.05-.05.2-.22.26l-.6.21c-.2.13-.38.13-.57-.05-.24-.16-.51-.07-.77-.1-.2-.05-.27-.09-.38-.23-.13-.2-.35-.31-.53-.49-.17-.13-.29-.32-.41-.47-.2-.24-.33-.43-.48-.69l-.15-.44c-.09-.27-.19-.54-.23-.84-.11-.33-.23-.65-.25-1.07,0-.36-.13-.75-.19-1.09-.15-.62-.1-1.18-.13-1.78.03-.44,0-.86.06-1.24,0-.18-.02-.42,0-.55.03-.26-.02-.42-.15-.62-.19-.36-.43-.71-.67-1.05l-.4-.47c-.29-.33-.59-.65-.83-.99-.31-.38-.63-.76-1.05-1.1-.39-.42-.72-.85-1.07-1.34-.26-.4-.57-.78-.94-1.14-.28-.27-.57-.6-.79-.88-.39-.41-.77-.83-1.07-1.34l-.72-1.03c-.07-.04-.11-.14-.18-.18-.55-.54-1.07-1.16-1.53-1.79-.17-.31-.41-.65-.74-.9l-.57-.59c-.33-.43-.72-.85-1.11-1.26-.22-.29-.37-.54-.63-.76l-.88-.79c-.07-.03-.14-.07-.2-.05,0,0-.04.07-.02.13-.02.13.02.23.06.34.23.47.39.96.51,1.47.08.4.26.76.38,1.09l.11.33c.02.05-.02.13,0,.18.45.94.68,1.96,1.02,2.94.32.74.58,1.5.79,2.29l.43,1.25c.25.71.49,1.42.7,2.2.09.27.32.56.37.91.1.45.27.94.42,1.38.34.8.64,1.67.97,2.47.21.6.45,1.12.66,1.72.28.63.49,1.23.71,1.89.07.22.2.42.28.63.13.56.36,1.04.6,1.56l.22.65c.04.11.15.25.21.42.11.33.17.67.28,1,.04.11.08.22.15.25.24.34.32.74.41,1.2.02.24.08.4.26.58.24.16.2.42.23.65.04.11.02.24.06.35.11.14.09.27.1.45-.07.15-.03.25.06.35.26.22.17.49.14.75-.02.13-.11.22-.22.26-.53.06-1.04,0-1.41-.37l-.83-.81c-.26-.21-.39-.42-.5-.74-.21-.6-.47-1.18-.67-1.78-.08-.22-.09-.45-.17-.67l-.02-.05c-.17-.31-.3-.69-.41-1.02-.13-.38-.37-.72-.45-1.12-.04-.11-.08-.22-.17-.31-.13-.38-.34-.8-.47-1.18-.37-.91-.77-1.87-1.08-2.79-.09-.09-.13-.2-.15-.25-.25-.71-.54-1.4-.86-2.14l-.54-1.58c-.06-.16-.13-.38-.21-.6ZM80.98,118.03c-.09-.27-.21-.6-.35-.85-.17-.31-.28-.63-.45-.94-.13-.2-.26-.22-.42.02-.04.07-.07.14-.09.27.04.29-.03.62.14.93.02.05-.02.13,0,.18-.03.44-.12.89.09,1.31,0,0-.05.02-.04.07-.05.2.02.42.1.64.06.16.11.33.12.51.09.27.24.34.49.2.11-.04.2-.13.29-.22.2-.13.32-.29.36-.55,0-.55-.07-1.07-.24-1.56Z"/>
    <path class="cls-1" d="M123.92,108.93c-.63.07-1.09.03-1.61.16l-.46.18c-.29.06-.34.3-.33.58-.04.87-.01,1.73.07,2.59.01.4-.04.81-.08,1.21l.04,1.55c0,.17-.05.29-.05.41-.05.17-.11.29-.05.46.06.17,0,.29-.1.46-.22.35-.56.53-.91.66-.28.12-.57.24-.86.2-.23,0-.35-.11-.41-.28-.06-.29-.19-.63-.25-.92l.04-.58c-.02-.86-.1-1.67-.07-2.53-.02-.63.02-1.27,0-1.9,0-.29-.07-.63-.14-.92,0-.12-.06-.23-.24-.22-.4-.05-.75.02-1.03.43-.05.12-.23.18-.34.3-.11.17-.22.29-.33.41-.22.24-.4.3-.69.19-.12-.05-.23-.05-.35-.05-.17,0-.23-.11-.3-.28-.07-.4.04-.69.32-.99.22-.24.33-.47.5-.71.11-.12.17-.18.22-.29.34-.3.62-.65,1.02-.89.11-.06.23-.12.34-.24.12,0,.23-.06.34-.12.46-.24.51-.36.38-.87-.07-.35-.08-.75-.09-1.15-.01-.58-.03-1.15-.16-1.72-.06-.06,0-.06-.06-.11-.09-1.44-.13-2.94-.17-4.38l-.03-1.27c-.01-.4.04-.87.08-1.33,0-.23.05-.4.04-.63,0-.4-.08-.8-.03-1.15.09-.92-.05-1.9-.01-2.82-.01-.4.09-.81.08-1.21.05-.46-.02-.92.02-1.38,0-.23-.01-.46.04-.69.05-.4.04-.81.08-1.21.05-.29.04-.63.09-.92.04-.52-.08-.98-.04-1.5,0-.29.04-.52.04-.81,0-.12-.06-.23-.12-.29-.18-.34-.42-.62-.77-.79-.29-.17-.47-.39-.42-.74,0-.23.16-.41.33-.53.11-.12.23-.18.28-.35.11-.18.22-.35.51-.3.29.05.52.04.8-.08.11-.06.34-.07.52-.07.29.05.58.1.87.09.35.05.75.04,1.1.03.35.05.69.04,1.04.03h.11c.86-.2,1.66-.28,2.53-.3l1.96-.05c.52.04.98.03,1.5.08.35,0,.75-.02,1.15.03.12,0,.23.05.29.11.46.22.87.38,1.28.66.29.22.48.56.71.9.06.06,0,.17-.05.23-.17.29-.39.59-.61.82-.06.06-.17.06-.29.06-.12,0-.23-.05-.35-.11-.12-.05-.29-.11-.4.07-.34.24-.63.19-.98.02-.06-.06-.12-.11-.23-.11-.52-.04-1.04-.09-1.62-.07-.06-.05-.17-.05-.23-.05-.46.18-.92.14-1.38.09-.29,0-.52.01-.8.08-.23.06-.52.13-.81.02-.06-.06-.12-.05-.17-.05-.34.12-.69.13-.97.2-.12,0-.17,0-.29.06-.11.12-.29.06-.46.01-.35-.05-.69-.1-.98-.09-.17,0-.57.36-.56.53-.05.41-.21.75-.09,1.16.06.06,0,.17,0,.23l-.05.4c.13.4-.04.81-.08,1.21,0,.06-.05.12-.05.17.01.46.02.98-.02,1.44v.34c.01.12-.04.17-.04.23.02.87.1,1.67.06,2.48-.04.63.09,1.32-.07,1.9l-.05.06c.12.46-.04.87.09,1.32,0,.17-.05.35-.04.52l.03.92c.01.46-.04.87-.02,1.33-.05.35.02.69.03,1.04l.02.86c.02.63.09,1.27.11,1.9v.35c.01.12.02.29.08.46.07.29.07.52.08.8.07.29-.04.58.14.8.06.06.06.17.06.23l.02.92c0,.23.01.52.08.75.07.29.12.34.41.28.4,0,.75-.02,1.09-.09h.52c.52.03.98-.04,1.5-.11.4-.12.8-.19,1.2-.26.17-.06.34-.12.51-.3l.45-.42c.06,0,.11-.06.17-.12.11-.06.17-.23.34-.12.23.11.52.16.59.39.07.35.13.63.08.98-.05.35-.22.58-.44.76l-1.02.78c-.28.18-.62.36-.97.37-.23,0-.46.13-.69.13l-1.09.03Z"/>
    <path class="cls-1" d="M139.17,115.13c.64-.04,1.21.02,1.8-.03.46,0,.94-.13,1.41-.19.63.01,1.29-.14,1.92-.07.4.04.86.1,1.18.31.05.06.11.07.17.08.11.07.22.08.27.15.16.13.26.26.36.39.16.13.19.37.11.59-.15.33-.45.41-.76.55-.12.04-.24.03-.41.07-.18.04-.3.08-.43.18-.2.21-.43.24-.72.21,0,0-.05-.06-.11-.07-.53.11-1.09-.06-1.62,0-.47.06-.99,0-1.46.07-.46,0-.94.13-1.44-.05h-.11c-.36.06-.71.08-1.06.16-.31.14-.59.05-.86-.1-.17-.08-.38-.27-.52-.52-.09-.19-.26-.26-.48-.34-.06,0-.11-.01-.22-.08-.34-.1-.48-.34-.39-.68.08-.22.04-.4.01-.64-.04-.12-.03-.24-.02-.29,0-.52.05-.98.11-1.5.13-.62.14-1.26.33-1.88v-.41c0-.11-.05-.18-.09-.3.05-.46.11-.97.11-1.5.03-.29,0-.58.04-.87l.22-2c.05-.4.15-.8.19-1.2.03-.23,0-.52.03-.75.12-.51.17-.97.22-1.48v-.11c.17-.91.27-1.77.43-2.68.03-.29.06-.52.15-.79.03-.23.1-.39.13-.62.05-.46.1-.92.16-1.37l.35-1.58c.11-.45.21-.85.26-1.3.13-.68.33-1.41.41-2.1l.13-1.14c.12-.57.19-1.14.31-1.71.02-.17.04-.34.06-.52l.2-1.77c0-.06.02-.17.03-.29l-.03-1.28c.02-.17.04-.34,0-.52l.02-.17c.08-.17.04-.34.06-.52-.02-.35.02-.69.05-.98,0-.06.02-.17.08-.16.25-.2.36-.6.66-.74.19-.15.37-.19.65-.1.34.1.69.08,1.09.06.41-.07.87-.02,1.28-.03l2.61-.05c.35-.02.69.02,1.04,0,.06,0,.06-.05.12-.05.8.09,1.67.13,2.46.28.62.13,1.23.43,1.56,1.05.05.06.1.13.09.24-.04.34-.08.69-.28.95-.19.15-.68.39-.97.35-.28-.09-.57-.12-.87-.04l-.17-.02c-.39-.1-.87-.04-1.32-.09-.35.02-.75-.03-1.15-.07l-.23-.03c-.48.12-1.01.18-1.45,0l-.17-.02c-.29.03-.53.06-.76.03-.28-.09-.57-.06-.87-.04-.4-.04-.67.33-.94.59-.06.05-.08.17-.09.28.06.47.01.93-.04,1.39-.03.23,0,.52-.03.75-.02.17-.09.28-.11.45-.08.74-.17,1.54-.26,2.29l-.23,2.06c-.06.52-.24,1.07-.36,1.64-.06.52-.17,1.03-.29,1.53-.24,1.07-.3,2.17-.48,3.25-.08.69-.15,1.32-.33,1.93l-.08.69c-.12,1.03-.23,2-.34,3.03l-.02.17c-.02.17.09.24.26.26.52,0,1.04,0,1.51,0l2.21-.1c.29-.03.58-.05.81-.03.52,0,.97.11,1.41.39.15.19.43.34.58.47.21.2.26.26.11.53,0,.06-.08.17-.09.28-.02.17-.15.27-.27.32-.31.14-.56.34-.85.31-.41.01-.71.09-1.07.23-.24.09-.47.06-.76.03-.46,0-.93.01-1.33-.03-.24.03-.46,0-.64-.01l-.3.08c-.3.08-.71.15-1.03.35-.18.09-.42.13-.66.22-.23.03-.37.19-.4.48-.07.63-.09,1.32-.1,1.96l-.14,1.26c-.11.45-.16.91-.09,1.32-.02.17-.03.29-.04.4l-.12,1.03c-.01.11.09.18.21.2.17.02.29.03.46.05v.06Z"/>
    <path class="cls-1" d="M153.92,117.33c.64.03,1.21.15,1.79.17.46.04.95-.02,1.42-.04.63.08,1.3,0,1.92.13.39.09.84.19,1.14.43.04.07.1.08.16.09.1.08.21.11.26.18.14.15.23.29.32.43.14.15.15.39.04.6-.19.31-.49.36-.81.47-.12.03-.24,0-.42.03-.18.02-.31.05-.44.14-.22.19-.46.19-.74.13,0,0-.04-.07-.1-.08-.54.05-1.08-.18-1.61-.18-.47.01-.98-.1-1.46-.09-.46-.04-.95.02-1.43-.2l-.11-.02c-.36.04-.71.02-1.08.05-.32.11-.59-.01-.84-.19-.16-.09-.34-.31-.46-.58-.07-.19-.23-.29-.44-.39-.06-.01-.11-.02-.21-.11-.32-.13-.44-.39-.31-.72.11-.21.09-.39.08-.63-.03-.12,0-.24,0-.29.06-.52.16-.97.27-1.47.19-.61.28-1.24.53-1.83l.03-.41c.03-.11-.02-.18-.05-.31.1-.45.21-.96.27-1.47.06-.28.07-.57.13-.86l.44-1.97c.09-.39.23-.78.32-1.17.05-.23.06-.52.11-.74.17-.49.27-.94.38-1.45l.03-.11c.26-.89.45-1.73.7-2.62.06-.28.11-.51.23-.78.05-.22.14-.38.19-.61.1-.45.2-.9.3-1.35l.52-1.54c.16-.44.3-.82.4-1.27.21-.66.48-1.37.63-2.04l.25-1.12c.18-.55.31-1.11.49-1.66.04-.17.08-.34.11-.51l.39-1.74c.01-.06.04-.17.06-.28l.11-1.28c.04-.17.07-.34.06-.52l.04-.17c.09-.16.08-.34.11-.51.02-.35.1-.69.16-.97.01-.06.04-.17.09-.15.28-.18.42-.56.74-.66.21-.13.39-.15.66-.03.32.13.67.15,1.08.18.42-.02.87.08,1.28.11l2.61.23c.35.02.69.1,1.04.11.06.01.07-.04.12-.03.79.18,1.64.31,2.42.54.61.2,1.17.56,1.44,1.21.04.07.09.14.06.25-.08.34-.15.67-.38.92-.21.13-.72.31-1,.25-.27-.12-.55-.18-.86-.13l-.17-.04c-.38-.14-.86-.13-1.31-.23-.35-.02-.74-.11-1.14-.2l-.22-.05c-.49.07-1.02.07-1.44-.14l-.17-.04c-.29,0-.53,0-.76-.05-.27-.12-.56-.12-.86-.13-.39-.09-.71.25-1,.49-.07.04-.09.16-.12.27.01.47-.09.92-.19,1.37-.05.22-.06.52-.11.74-.04.17-.12.27-.16.44-.16.73-.34,1.52-.5,2.25l-.45,2.02c-.11.51-.35,1.04-.53,1.59-.11.51-.28,1-.45,1.49-.35,1.04-.53,2.12-.83,3.18-.15.67-.29,1.29-.54,1.89l-.15.67c-.23,1.01-.44,1.97-.67,2.98l-.04.17c-.04.17.06.25.23.29.52.06,1.04.11,1.5.16l2.21.14c.29,0,.59.01.81.06.52.06.96.21,1.36.54.13.21.39.38.53.53.19.22.23.29.05.54-.01.06-.09.16-.12.27-.04.17-.18.26-.3.29-.32.11-.59.28-.88.22-.41-.03-.71.02-1.09.11-.25.06-.47.01-.76-.05-.46-.04-.92-.09-1.32-.18-.24,0-.46-.04-.63-.08l-.3.05c-.31.05-.73.07-1.06.24-.19.07-.43.08-.68.14-.24,0-.39.15-.45.43-.14.62-.23,1.31-.32,1.94l-.28,1.24c-.16.44-.26.89-.23,1.31-.04.17-.06.28-.09.39l-.23,1.01c-.03.11.07.19.19.22.17.04.28.06.45.1v.05Z"/>
    <path class="cls-1" d="M165.57,118.02c.31-.93.67-1.78.96-2.65.13-.38.3-.69.46-1,.08-.22.1-.46.17-.67.02-.05,0-.18.09-.27.18-.18.2-.42.28-.64.06-.16.18-.36.26-.58.17-.67.46-1.36.69-2.02.13-.38.32-.75.43-1.07.07-.22.09-.46.17-.67l.04-.11c.26-.4.24-.89.52-1.34.2-.42.3-.87.46-1.36.3-.69.56-1.45.91-2.12.22-.47.39-.96.56-1.45.18-.36.39-.78.52-1.16.07-.04.09-.09.11-.14.17-.49.32-.93.54-1.4.18-.36.37-.73.52-1.16.18-.36.33-.8.52-1.16.09-.27.24-.53.33-.8.09-.27.13-.56.22-.84.11-.33.26-.58.42-.89.15-.25.26-.58.35-.85.2-.42.35-.85.57-1.33.07-.22.2-.42.33-.62.18-.36.44-.76.35-1.22-.02-.13,0-.18.09-.27.13-.02.22-.11.29-.14.18,0,.33-.07.49-.2.24-.16.44-.22.71-.12.16.06.27.09.42.02.05.02.18,0,.16.05.27.27.58.44.69.84.07.33.18.55.27.82.13.16.14.29.09.46-.07.22-.15.44-.09.64l-.06.16c-.44.4-.55.91-.68,1.47-.13.38-.19.73-.32,1.11l-.85,1.96c-.05.16-.2.24-.26.4-.18.36-.37.73-.35,1.22.04.07-.05.16-.09.27-.06.16-.15.25-.2.42-.24.34-.44.76-.63,1.13-.07.22-.18.36-.31.56-.09.27-.21.6-.3.87l-.06.16c-.24.34-.4.65-.37,1.09,0,.18-.06.34-.24.53,0,0-.02.05-.09.09-.17.31-.33.62-.5.93l-.11.33c.03.26-.04.47-.22.66l-.06.16c.02.49-.3.87-.46,1.36-.11.33-.33.62-.33.98-.02.24-.15.44-.28.64-.09.09-.09.27-.13.38-.08.22-.13.38-.26.58-.08.22-.2.42-.17.67.04.07,0,.18-.02.24-.11.33-.3.69-.41,1.02l-.33.98c-.15.44-.35.85-.52,1.34-.06.16-.11.33-.11.51-.07.4-.19.73-.3,1.06-.13.2-.15.44-.17.67l-.13.38c-.04.11-.07.22-.06.34,0,.18-.06.35-.17.49-.2.24-.33.44-.48.69l-.06.16-.59,1.74c-.09.27,0,.37.22.44.27.09.56.13.84.22.44.15.91.19,1.38.23.64.09,1.22.17,1.88.21.16.06.36,0,.55,0,.33-.07.69-.07.98-.03.42.02.78.02,1.13.08.13-.02.18,0,.22.07.16.05.25.15.38.13.07-.04.13-.02.17.06.22.07.42.2.64.28q.25.15.22.44c0,.18,0,.36-.19.54-.07.04-.11.15-.07.22.07.33-.08.58-.22.84-.09.27-.37.36-.6.34-.29-.04-.58-.08-.8-.15-.33-.11-.62-.15-.89-.06-.16.13-.35.12-.58.11-.11-.04-.25.04-.38.05-.22.11-.46.09-.66-.04-.16-.05-.35-.06-.6-.02-.46.09-.98.03-1.51-.03-.22-.07-.4-.07-.66-.04-.29-.04-.56-.13-.89-.24-.04-.07-.15-.11-.22-.08-.33.07-.58-.08-.93-.13-.27-.09-.58-.26-.91-.37-.38-.13-.62-.33-.91-.55-.14-.11-.27-.28-.32-.48-.22-.44-.43-.88-.59-1.3-.07-.14-.09-.27-.11-.4-.11-.4-.16-.79-.08-1.18.11-.51.12-1.06.32-1.47Z"/>
    <path class="cls-1" d="M182.32,119.81c.17-.24.28-.51.45-.75l.07-.16c.15-.5.39-.9.59-1.38.18-.42.37-.85.6-1.25.14-.19.34-.35.38-.59.08-.47.34-.79.45-1.19.48-1.11.96-2.22,1.49-3.31.14-.32.35-.67.49-.98.08-.03.1-.08.12-.14.05-.42.23-.84.5-1.16.14-.19.18-.42.33-.61.29-.38.4-.77.61-1.12.07-.16.22-.22.32-.3l.29-.25c.11-.26.39-.33.67-.4.15-.06.89.26,1,.43.06.15.1.36.08.54.04.2,0,.44.01.7-.02.05-.02.18-.09.21-.23.09-.19.29-.26.45-.16.37-.21.79-.43,1.13-.21.35-.27.76-.42,1.13-.07.16-.11.27-.18.42l-.57,1.32c-.02.05-.07.16-.09.21l-.04.23c-.26.33-.27.76-.42,1.13-.07.16-.19.3-.29.38-.19.29-.27.63-.39.9-.11.39-.26.76-.4,1.08-.07.16-.19.29-.23.4-.17.24-.26.45-.37.72-.24.4-.31.87-.37,1.29-.04.23-.05.42-.17.55-.14.19-.24.4-.25.58-.04.23-.11.39-.33.48-.15.06-.22.22-.24.4.03.08-.07.16-.11.26-.02.05-.12.14-.11.26-.13.45-.45.75-.79.97-.3.25-.7.45-1.08.16-.35-.21-.67-.48-.94-.72-.25-.29-.32-.7-.16-1.07.08-.34.22-.66.3-1ZM190.02,101.06c.04-.11.17-.24.29-.38l.41-.51c.12-.14.2-.17.37-.28.38-.15.76-.3,1.22-.35.05.02.13,0,.18.02.42.18.96.1,1.41.36.19.14.33.27.34.52.13.56.11,1.05-.22,1.53-.05.11-.14.19-.22.22l-.36.41c-.25.14-.48.23-.67.4l-.58.32c-.27.2-.61.24-.95.16-.29-.06-.55-.17-.82-.29-.05-.02-.13-.12-.17-.2-.09-.23-.2-.4-.24-.61-.05-.46-.2-.84,0-1.32Z"/>
    <path class="cls-1" d="M186.43,128.45c.22-.53.48-1.25.78-1.93.22-.53.47-1.12.8-1.6.13-.12.21-.28.22-.4.36-.66.58-1.32.91-1.93.22-.53.47-1.12.78-1.68.11-.2.22-.41.38-.58.29-.3.46-.73.65-1.09.22-.53.47-1.12.75-1.62.14-.25.32-.48.46-.73.16-.3.25-.58.52-.83l.14-.25.36-.66c.08-.15.14-.25.17-.43.03-.18.14-.38.22-.53.27-.51.52-.96.72-1.45.08-.15.16-.3.17-.43.06-.1.08-.15.11-.2l.93-1.72c.28-.64.66-1.22,1.04-1.8.38-.58.63-1.17.98-1.7.25-.46.54-.88.79-1.34.19-.35.36-.66.55-1.01l.25-.46c.11-.07.19-.23.24-.33.27-.51.53-1.09.8-1.6l.22-.41c.08-.15.22-.28.33-.48.16-.3.38-.58.39-.97.06-.23.19-.35.4-.37.16-.05.23-.07.32-.22.06-.23.27-.25.42-.29l1.24-.12c.08-.02.1.05.15.08-.09.41.08.7.15,1.06,0,.26,0,.59.05.88.15.8.28,1.66.33,2.54.04.28.06.62.02.93-.01.39-.03.77-.09,1.13.02.21,0,.46,0,.72-.03.18-.04.31-.02.51-.03.05-.08.15-.03.18.11.52-.03,1.03-.15,1.49-.09.54-.29,1.02-.38,1.56-.1.67-.25,1.31-.25,2.03.03.54-.11,1.05-.13,1.57-.03.18-.04.31-.12.46-.08.75-.2,1.46-.36,2.23-.06.23-.12.46-.1.67-.02.52-.13.98-.2,1.46-.23.79-.33,1.59-.52,2.41-.04.31-.12.59-.23.92-.09.28-.12.59-.19.95-.09.28-.15.64-.26.97-.09.54-.19,1.08-.36,1.64-.09.28-.22.53-.21.87l-.05.1c.02.21.07.36.14.34.13,0,.13-.12.19-.23l.38-.71c.03-.05.13-.12.11-.2,0-.13.06-.23.21-.28.03-.05.06-.1.16-.18.08-.15.19-.35.27-.51l.05-.1c0-.26.22-.41.41-.63.03-.05.13-.12.19-.23.06-.23.19-.36.35-.53l.16-.3c.03-.18.19-.35.33-.48.16-.05.31-.09.34-.27l.08-.02c.3.16.21-.15.29-.3.08-.15.19-.23.22-.41.03-.18.11-.33.02-.51-.02-.08-.02-.21.06-.23.18-.1.19-.22.19-.35,0-.13.08-.15.14-.25.19-.36.43-.68.65-.96l.08-.15c.22-.4.42-.89.63-1.29,0-.13.11-.2.16-.3.37-.32.62-.78.92-1.21.17-.3.38-.58.54-.88l.03-.05c.32-.48.6-.99.92-1.46.35-.53.6-1.12.9-1.67.08-.15.17-.3.3-.43.1-.07.16-.18.21-.28.14-.25.27-.51.46-.73.27-.38.44-.81.66-1.22.08-.15.21-.28.32-.48.27-.38.47-.86.58-1.32.14-.25.27-.51.46-.73l.27-.51c.25-.46.62-.78,1.06-1,.08-.02.21-.02.36-.07l.28-.04c.24-.2.52-.11.75-.05.18.03.3.16.27.34-.04.31-.04.57,0,.85.05.16-.04.31-.04.44-.06.23-.15.51-.2.74l-.11.2c-.41.63-.71,1.32-1.07,1.98-.22.41-.47.86-.68,1.27l-.08.15c-.48.4-.73.98-1.08,1.51-.27.38-.52.83-.76,1.29-.27.38-.51.7-.73,1.11-.19.23-.35.4-.43.68-.03.18-.14.38-.3.56l-.65.96c-.38.45-.65.96-.97,1.44-.22.41-.52.83-.79,1.21l-.08.15c-.2.48-.52.83-.76,1.29-.22.41-.51.71-.78,1.08l-.03.05c-.17.43-.44.81-.66,1.22l-.95,1.39c-.14.25-.32.48-.49.78-.22.41-.47.86-.71,1.32l-.44.81c-.25.46-.49.91-.71,1.32l-1.18,2.18c-.16.3-.41.63-.57.94-.11.2-.22.41-.28.63-.17.3-.38.58-.65.83-.11.07-.24.2-.32.35-.08.15-.14.25-.32.35-.39.12-.68.42-.95.66-.24.2-.47.27-.78.23-.82-.18-1.14-.55-1.09-1.38l-.03-1.39c.12-.59.22-1.13.44-1.66.11-.2.14-.38.17-.56.14-.25.22-.53.39-.84,0,0,.03-.05-.02-.08.1-.67.37-1.17.57-1.79.14-.38.28-.76.29-1.15.02-.64.22-1.25.39-1.82.06-.36.1-.67.21-1-.02-.08,0-.13.03-.18.28-.63.33-1.33.48-1.97.01-.39.1-.8.25-1.18.05-.1.08-.15.06-.23.07-.49.21-.87.28-1.36.04-.57.11-1.05.21-1.59.09-.28.12-.59.13-.85.03-.77.23-1.51.41-2.2.09-.41.1-.79.19-1.21-.06-.62.12-1.18.03-1.75-.03-.54.11-1.05.23-1.51.17-.56.27-1.1.41-1.61.03-.05.06-.1.03-.18.04-.57.04-1.16.05-1.67,0-.13-.04-.29-.07-.36,0-.13-.07-.23-.15-.21s-.18.1-.21.15c-.33.61-.68,1.27-1.06,1.85l-.33.48c-.3.43-.52.83-.73,1.24-.19.23-.3.43-.43.68-.17.3-.28.64-.54.88l-.14.25c-.26.84-.72,1.57-1.08,2.36-.09.28-.22.54-.36.79l-1.23,2.28c-.66,1.22-1.32,2.43-1.97,3.65l-.9,1.67c-.41.76-.77,1.55-1.1,2.28-.25.46-.42.89-.66,1.34-.19.35-.43.68-.53,1.09l-.03.05c-.24.33-.33.74-.47,1.12-.33.74-.69,1.52-.85,2.29q-.06.36-.4.37c-.31-.04-.59,0-.93.02-.16.05-.33.02-.54.04-.44-.04-.64-.28-.67-.69,0-.59.22-1.13.62-1.76Z"/>
    <path class="cls-1" d="M209.28,127.76c.09-.22.25-.46.39-.64l.71-.98c.13-.19.32-.34.48-.58.1-.14.25-.25.38-.43.4-.36.75-.74,1.17-1.14l.46-.45c.28-.29.61-.55.94-.81l.71-.7c.21-.2.48-.37.69-.57l1.23-.82c.49-.29.98-.57,1.42-.9.31-.13.6-.35.91-.48.29-.21.6-.35.91-.48.15-.11.31-.13.42-.19.56-.38,1.23-.53,1.91-.69.08-.01.13.02.16-.03.34-.18.71-.2,1.08-.22.56-.09,1.09-.14,1.62-.18.37-.02.69-.07,1.04.04.13.02.25.04.42.01.58-.01,1.13.1,1.7.3.17.05.38.06.64.1.38.06.74.25,1.14.39.46.26.96.54,1.42.88.28.2.58.48.79.78.17.26.37.48.34.81l.09.28c.18.34.11.64-.13.97-.07.09-.18.15-.17.23-.06.38-.42.48-.69.57-.03.05-.21,0-.25-.04-.14-.1-.2-.21-.27-.41l-.19-.42c-.13-.31-.3-.57-.57-.69-.14-.1-.28-.2-.35-.4.03-.05-.06-.11-.11-.15-.22-.09-.45-.26-.66-.26-.33-.03-.68-.13-1.03-.24-.3-.07-.68-.14-1.04-.04-.19.07-.48.08-.7,0-.09-.07-.22-.09-.33-.03-.35.1-.72.12-1.09.14-.17-.05-.37.02-.53.05-.24.04-.52.13-.71.2l-.45.03c-.31.13-.54.25-.87.23-.03.05-.08.01-.11.06-.33.26-.73.33-1.12.47-.27.09-.58.22-.8.42-.56.38-1.17.65-1.7.98-.31.13-.6.35-.9.56-.38.23-.7.49-1.11.76-.38.23-.66.52-.94.82-.43.4-.86.8-1.24,1.24l-1.52,1.53c-.07.3-.43.4-.6.63-.12.27-.34.47-.5.7-.57.8-1.15,1.51-1.46,2.43-.14.39-.34.67-.48,1.07l-.23.62c-.04.25-.16.52-.28.79-.05.17-.09.43-.05.67.01.08.04.24.02.37-.02.13.05.32.08.48.21.5.65.68,1.14.89.09.07.27.12.44.17.27.12.55.12.88.06.19-.07.4-.07.56-.09l1.16-.23c.48-.08.87-.23,1.29-.42.38-.23.86-.31,1.33-.47.24-.04.52-.13.79-.21.13.02.24-.04.36-.1l1.75-1.15c.38-.23.74-.53,1.02-.83.21-.2.43-.4.72-.61l.82-.55c.36-.31.72-.62,1.04-.96.44-.32.79-.71,1.27-1.08.56-.38,1.1-.84,1.5-1.4.47-.66.91-1.26,1.25-1.94l.28-.58c.17-.23.26-.46.33-.76.22-.41.36-.8.54-1.24.16-.31.46-.45.8-.42.13.02.29,0,.37-.02.37-.02.6.15.69.42.07.19.08.48.07.69-.06.38-.25.74-.36,1.09-.09.43-.24.82-.2,1.27.03.16,0,.29-.14.39-.11.06-.17.23-.19.36-.09.22-.22.41-.39.64-.13.19-.27.37-.36.6-.14.39-.42.69-.61,1.05-.22.41-.52.83-.74,1.24-.3.42-.62.76-.92,1.19l-.03.05c-.18.44-.54.75-.77,1.07-.24.33-.48.58-.69.86l-.33.47c-.24.33-.52.62-.75.95l-.29.5c-.38.44-.72.9-1.07,1.29-.52.62-1,1.2-1.47,1.85-.31.34-.64.6-.91.98-.2.28-.5.49-.68.86-.1.14-.29.21-.43.4-.26.17-.51.41-.71.7-.32.34-.69.57-1.05.88-.26.17-.48.37-.7.49-.41.27-.82.55-1.18.86-.33.26-.72.41-1.05.67-.41.27-.83.47-1.28.5-.24.04-.47.16-.65.31-.19.07-.39.15-.55.17l-.87.23c-.58.22-1.15.02-1.74-.04-.41-.01-.81-.16-1.24-.25-.08.01-.21,0-.29,0l-.43-.1c-.13-.02-.22-.09-.3-.07-.13-.02-.17-.05-.27-.12-.41-.22-.83-.52-1.22-.87-.14-.1-.31-.16-.45-.25-.19-.13-.38-.27-.55-.32l-.42-.3c-.17-.05-.27-.12-.17-.26.15-.31.07-.59.02-.91-.07-.4-.15-.88-.18-1.33-.03-.45.11-.84.25-1.24.12-.27.2-.57.32-.84.07-.09.05-.17.12-.27.17-.23.34-.47.67-.44.13.02.16-.03.24-.04.28-.09.5,0,.66.26.18.34.29.78.12,1.22-.07.09-.05.17-.09.22-.18.44-.16.81.08,1.27.1.36.15.68.41,1l.23.17c.46.25.91.51,1.44.75.09.07.22.09.35.11.21,0,.43.09.64.1.53-.04.99,0,1.43-.11.16-.03.32-.05.45-.03.32-.05.64-.11.94-.32.46-.24.93-.4,1.35-.59.11-.06.23-.12.31-.13.41-.27.77-.58,1.23-.82.44-.32.87-.72,1.3-1.12.35-.39.71-.69,1.11-1.05.4-.35.81-.63,1.11-1.05.38-.44.83-.76,1.12-1.26.02-.13.13-.19.2-.28.03-.05.07-.09.05-.17-.05-.03-.13-.02-.17-.05-.16.03-.4.07-.55.17-.31.13-.62.27-.96.45-.43.11-.81.34-1.19.57-.11.06-.31.13-.47.16-.37.02-.69.07-.99.29-.21.2-.54.25-.82.26-.13-.02-.32.05-.48.08l-.24.04c-.29,0-.56.09-.79.21-.63.19-1.19.28-1.75-.12-.09-.07-.14-.1-.22-.09-.22-.09-.36-.19-.55-.32-.09-.07-.22-.09-.35-.11-.05-.03-.13-.02-.09-.07-.13-.31-.55-.32-.71-.58-.2-.21-.44-.38-.64-.6-.15-.18-.34-.32-.35-.6,0-.21-.08-.48-.15-.68-.06-.12-.15-.18-.26-.33-.21-.29-.36-.68-.38-1.05-.05-.32-.01-.58.03-.83.04-.26.01-.42.02-.62,0-.21.05-.46.1-.64.07-.3.19-.57.31-.83l.06-.38c.24-.54.44-1.1.63-1.67.28-.58.68-1.14.95-1.73.03-.05.07-.09.1-.14l.05.03Z"/>
    <path class="cls-1" d="M217.34,149.11c.33-.48.8-.76,1.41-.77.21.02.36-.07.61,0,.41.05.75.18,1.06.45.09.08.14.19.15.27-.02.29,0,.61-.05.94-.02.21-.17.38-.45.53-.12.05-.27.23-.38.36-.11.13-.23.18-.39.28-.28.06-.52.16-.71.3-.12.05-.32.11-.49.04-.17-.07-.38-.17-.63-.24-.17-.07-.26-.22-.28-.47.02-.21-.03-.41-.13-.64-.14-.27-.05-.57.13-.87l.15-.17Z"/>
    <path class="cls-1" d="M222.01,153.16c.35-.46.83-.73,1.44-.71.2.03.36-.05.61.02.41.07.74.21,1.04.49.08.08.13.2.13.28-.03.29-.02.61-.08.94-.03.21-.19.38-.47.51-.12.04-.28.21-.39.34-.12.13-.24.17-.4.26-.28.05-.52.14-.72.27-.12.05-.32.09-.49.02-.17-.07-.38-.19-.62-.26-.17-.07-.25-.23-.26-.48.03-.21-.02-.41-.11-.65-.13-.28-.02-.57.17-.86l.16-.17Z"/>
    <path class="cls-1" d="M226.52,157.41c.37-.45.86-.69,1.47-.65.2.04.37-.04.61.04.41.08.73.24,1.02.53.08.08.12.21.12.29-.04.29-.04.61-.12.94-.04.2-.2.37-.49.49-.12.04-.29.21-.41.33-.12.12-.24.16-.41.24-.29.04-.53.12-.73.24-.12.04-.33.08-.49,0s-.37-.2-.61-.29c-.16-.08-.25-.24-.24-.49.04-.2,0-.41-.08-.65-.12-.29,0-.57.2-.85l.16-.16Z"/>
  </g>
  <g>
    <path class="cls-1" d="M97.34,159.35c.01.06-.03.12-.02.18.24.54.25,1.13.37,1.69.1.45.2.9.13,1.39-.04.36.05.76.18,1.08.08.1.11.21.13.32.01.06-.03.12.03.11.3.29.13.62.08.92-.03.12.06.28.04.46l.13,1.39c.01.06-.04.07-.04.07.28.47.04.99.14,1.44.04.17-.04.36-.18.51-.1.08-.27.12-.43.21-.39-.15-.96-.08-1.24-.55-.16-.2-.32-.4-.43-.61v-.06c.07.1.08.16-.01,0-.02-.11-.1-.21-.19-.31l.02.11c-.09-.16-.21-.43-.47-.78-.09-.39-.11-.74-.18-1.08-.04-.17-.06-.28-.03-.41-.07-.34-.14-.62-.15-.97,0-.29-.07-.57-.19-.84l-.05-.22c-.04-.17,0-.29-.1-.45l-.04-.17c-.06-.28-.07-.58-.14-.91-.06-.28-.21-.43-.56-.41,0,0-.01-.06-.06.01-.38.14-.84.19-1.21.38-.16.09-.31.19-.49.17-.41.03-.81.06-1.18.26l-.11.03c-.66.21-1.39.37-2.12.53-.17.04-.34.07-.49.17-.28.06-.45.39-.38.67.21.42.2.9.3,1.35.18.55.3,1.11.5,1.72l.32,1.46v.06c-.08.37.12.74.15,1.15,0,.29.02.64-.08.96-.11.32-.26.41-.61.43-.58.07-.93-.21-1.27-.67-.01-.06-.09-.16-.16-.2-.29-.23-.42-.56-.48-.84-.14-.38-.17-.79-.25-1.12l-.05-.23c-.13-.32-.27-.71-.4-1.03l-.19-.84c-.05-.22-.09-.39-.14-.62-.21-.66-.35-1.34-.51-2.07-.12-.56-.25-1.12-.31-1.7l-.2-.9c-.1-.45-.2-.9-.18-1.37l-.04-.17c-.15-.67-.13-1.39-.15-2.03-.08-.63-.04-1.23-.1-1.81-.03-.41-.06-.81-.14-1.15.02-.18-.02-.35,0-.53-.02-.35-.02-.64-.1-.98-.07-.34-.04-.7-.05-1.05-.02-.35.02-.71,0-1.06l-.04-1.52c-.03-.41,0-.83.02-1.24s0-.83.02-1.24c-.03-.11,0-.24-.02-.35.04-.07.02-.18,0-.24-.17-.79-.12-1.62-.06-2.41,0-.77.08-1.49.15-2.27.01-.47.14-.97.21-1.46l.25-1.29c.14-.44.22-.87.36-1.32.02-.18.09-.37.04-.6-.04-.17.04-.36.24-.52.26-.17.43-.45.62-.67.19-.22.35-.31.57-.36.28-.06.55-.18.84-.19.11-.02.18.02.25.06.31.34.68.68.98.96.29.23.41.5.64.75.02.11.11.21.17.26.37.33.58.76.79,1.18.11.21.26.36.36.57.43.61.8,1.24,1.08,1.95.14.38.24.83.5,1.19.19.31.26.65.39.98l.89,2.16c.17.49.32.93.48,1.37l.42,1.09c.17.49.38.92.53,1.36l.16.73c.15.67.34,1.28.59,1.88l.19.84c.11.51.17,1.02.39,1.51l.09.39c.08.34.21.66.28,1l.07.34c0,.53.15.97.32,1.46.12.27.14.62.14.91.05.23.06.52.23.77.17.26.24.54.25.89ZM94.11,158.88l-.14-.62c-.03-.41-.06-.81-.15-1.21-.09-.39-.23-.78-.37-1.16-.1-.45-.14-.91-.3-1.35-.14-.62-.22-1.25-.45-1.79-.04-.17-.07-.34-.05-.52l-.11-.51c-.11-.51-.28-1-.39-1.51l-.25-1.12c-.03-.41-.22-.72-.42-1.09-.2-.37-.35-.81-.51-1.25-.18-.55-.26-1.18-.55-1.71-.28-.47-.39-.98-.61-1.46-.25-.6-.43-1.14-.73-1.73-.22-.48-.46-1.02-.74-1.49l-.82-1.29c-.19-.31-.33-.7-.63-.98-.08-.1-.17-.26-.34-.22-.23.05-.19.22-.21.4-.04.07-.02.18,0,.24l-.06.54c-.21.93-.29,1.89-.26,2.83.03.41,0,.82-.02,1.24-.04.6-.2,1.22-.01,1.83.05.22,0,.53.12.8.09.39.06.81.02,1.17.03.11,0,.24,0,.29.01.59.08,1.16.09,1.75,0,.53.01,1.12.13,1.68.03.41.07.87.23,1.31l.04.17c-.08.19-.04.36,0,.53l.07.57c.07.58.13,1.15.21,1.78.03.41.12.8.09,1.22-.08.43.06.81.03,1.23-.04.36.06.81.15,1.21.05.52.15.97.21,1.49.04.17.06.28.19.31.46.2.91.39,1.42.28.44-.16.89-.25,1.39-.37h.24c.49-.16.96-.2,1.45-.37.49-.17.99-.33,1.49-.45l.22-.05c.37-.2.45-.39.33-.66ZM96.22,167.91c-.01-.06-.09-.16-.16-.2.08.1.15.14.16.2Z"/>
    <path class="cls-1" d="M102.13,166.16c-.11-.57-.29-1.3-.41-2.04-.11-.57-.22-1.19-.22-1.77.04-.18.03-.35-.04-.46-.07-.75-.24-1.42-.3-2.11-.11-.57-.22-1.19-.28-1.83-.02-.23-.04-.46,0-.69.08-.41-.02-.87-.06-1.27-.11-.57-.22-1.2-.27-1.77-.03-.29,0-.58-.02-.87-.03-.34-.11-.63-.03-.98,0-.06-.01-.17-.03-.29l-.07-.75c-.01-.17-.03-.29-.1-.45-.07-.17-.09-.4-.11-.57-.05-.57-.1-1.09-.2-1.6-.02-.17-.03-.34-.1-.45-.01-.12-.02-.17-.02-.23l-.17-1.95c-.12-.68-.12-1.38-.13-2.07,0-.69-.12-1.32-.12-1.96-.05-.52-.04-1.04-.08-1.55-.04-.4-.07-.75-.1-1.15l-.05-.52c.05-.12.03-.29.02-.41-.05-.57-.17-1.2-.22-1.77l-.04-.46c-.02-.17.03-.35,0-.58-.03-.34,0-.69-.21-1.02-.08-.22-.04-.4.12-.53.1-.12.16-.19.14-.36-.08-.22.08-.35.19-.48l.97-.78c.05-.06.12-.01.17-.02.15.39.45.54.71.8.13.22.33.49.53.71.57.58,1.15,1.23,1.68,1.93.19.21.39.48.53.76.2.33.41.66.55.99.13.16.26.38.4.6.07.17.14.28.27.44,0,.06.02.17.07.17.38.37.54.88.7,1.33.22.5.32,1.01.54,1.51.29.61.52,1.23.92,1.83.33.43.49.94.76,1.38.07.17.14.28.16.45.35.66.64,1.33.94,2.06.08.22.16.45.29.61.27.44.43.89.64,1.33.24.79.6,1.51.9,2.29.14.28.22.56.31.9.08.28.22.56.37.89.08.28.23.62.32.95.22.5.44,1,.6,1.56.08.28.11.57.31.84v.12c.14.16.27.27.32.2.11-.07.04-.18.03-.29l-.07-.8c0-.06.04-.18-.02-.23-.07-.11-.08-.22.03-.35,0-.06-.01-.11.04-.24-.01-.17-.04-.4-.05-.57v-.12c-.14-.22-.05-.46-.02-.75,0-.06.04-.18.03-.29-.08-.22-.04-.4,0-.64l-.03-.34c-.07-.17-.04-.4,0-.58.1-.12.21-.25.14-.42l.05-.06c.34-.03.09-.24.08-.41-.02-.17.03-.29-.04-.46-.07-.17-.09-.34-.27-.44-.06-.05-.13-.16-.08-.22.1-.18.03-.29-.03-.4-.07-.11-.01-.17-.03-.29-.04-.4-.02-.81.01-1.16v-.17c-.06-.46-.16-.97-.2-1.43-.07-.11-.02-.23-.03-.34.13-.47.08-.99.1-1.51-.03-.34,0-.69-.04-1.04v-.06c0-.58-.05-1.15-.04-1.73,0-.64-.11-1.26-.17-1.89-.01-.17-.03-.34.01-.52.05-.12.04-.23.03-.35-.03-.29-.05-.57-.02-.86.02-.46-.08-.92-.12-1.38-.02-.17.03-.35,0-.58.01-.46-.09-.97-.24-1.42-.03-.29-.05-.57-.02-.86l-.05-.57c-.05-.52.08-.99.33-1.42.05-.06.16-.13.27-.26l.21-.19c.09-.3.37-.38.6-.46.17-.07.34-.03.42.14.14.28.28.5.47.71.12.1.14.28.21.39.08.22.16.51.24.73l.02.23c0,.75.13,1.49.2,2.24.04.46.09.97.13,1.43l.02.17c-.18.59-.06,1.22-.06,1.86-.02.46.03.98.08,1.5-.02.46-.04.87,0,1.33-.03.29-.07.53.02.81.07.17.09.4.06.63v1.16c-.08.58-.02,1.16-.03,1.74.04.46.03.98.02,1.44v.17c.12.51.04.98.09,1.5.04.46-.04.87-.05,1.33v.06c.1.45.09.92.13,1.38l-.02,1.68c.03.29,0,.58.03.92.04.46.09.98.13,1.49l.08.92c.05.52.09,1.03.13,1.49l.22,2.47c.03.35.01.75.04,1.1.02.23.04.46.12.68.03.34,0,.69-.08,1.05-.05.12-.09.3-.07.47s.03.29-.07.47c-.26.31-.34.72-.42,1.08-.09.3-.25.48-.52.62-.78.3-1.26.17-1.67-.54l-.8-1.14c-.22-.56-.44-1.06-.55-1.63-.02-.23-.09-.4-.17-.56-.03-.29-.11-.57-.14-.91,0,0,0-.06-.06-.05-.29-.61-.34-1.18-.51-1.8-.09-.4-.19-.79-.39-1.12-.34-.55-.51-1.17-.68-1.73-.15-.33-.29-.61-.38-.95-.06-.05-.07-.11-.07-.17-.12-.68-.46-1.29-.69-1.9-.2-.33-.35-.72-.45-1.12-.01-.11-.01-.17-.08-.22-.21-.44-.31-.84-.52-1.29-.28-.49-.49-.94-.71-1.44-.08-.28-.22-.56-.36-.78-.41-.66-.64-1.39-.88-2.06-.15-.39-.35-.72-.51-1.11-.39-.49-.56-1.05-.94-1.48-.33-.43-.49-.94-.64-1.39-.17-.56-.38-1.06-.55-1.57,0-.06-.01-.11-.07-.17-.28-.5-.61-.99-.88-1.42-.07-.11-.19-.21-.26-.27-.07-.11-.19-.16-.24-.09-.05.06-.1.18-.1.24.06.69.13,1.43.13,2.13v.58c-.02.52.03.98.07,1.44-.03.29-.01.52.01.81.03.34.12.68.04,1.04l.03.29c.25.85.27,1.71.4,2.57.08.28.11.57.13.86l.23,2.58c.12,1.38.25,2.75.37,4.13l.17,1.89c.08.86.21,1.72.34,2.51.05.52.14.97.19,1.49.04.4.02.81.17,1.2v.06c-.02.41.13.8.23,1.19.13.8.26,1.65.56,2.38q.15.33-.12.53c-.28.14-.49.33-.76.53-.1.12-.27.2-.43.33-.39.21-.68.12-.94-.21-.33-.49-.44-1.06-.45-1.81Z"/>
    <path class="cls-1" d="M120.85,152.98c-.05-.23-.03-.52-.02-.75l.06-1.21c.01-.23.08-.46.09-.74,0-.17.07-.34.09-.57.14-.51.22-1.03.36-1.6l.15-.63c.08-.4.21-.8.35-1.2l.22-.97c.07-.28.2-.57.27-.85l.58-1.36c.25-.51.51-1.01.71-1.52.19-.28.32-.62.5-.9.13-.34.32-.62.5-.9.07-.17.19-.28.25-.39.26-.62.75-1.12,1.23-1.61.06-.06.12-.05.12-.11.19-.34.49-.55.79-.77.42-.38.84-.71,1.26-1.04.3-.22.54-.43.89-.53.12-.05.24-.1.36-.21.48-.32,1.01-.53,1.59-.67.18-.05.35-.16.59-.26.35-.16.76-.19,1.17-.29.52-.03,1.1-.06,1.67-.04.35.02.75.09,1.09.22.28.13.57.2.72.5l.22.18c.34.19.44.48.42.88,0,.12-.07.23-.01.29.16.35-.09.63-.27.85,0,.06-.18.11-.24.1-.17,0-.29-.07-.45-.2l-.39-.25c-.28-.19-.56-.32-.85-.27-.17,0-.34-.02-.51-.14,0-.06-.11-.06-.17-.07-.23.05-.52.03-.7.14-.3.16-.65.26-1,.36-.29.1-.65.26-.89.53-.12.17-.36.33-.59.38-.12,0-.23.05-.3.16-.24.28-.54.49-.84.71-.17.05-.3.22-.42.33-.18.16-.36.39-.49.55l-.36.27c-.19.28-.31.5-.61.66,0,.06-.06.05-.06.11-.13.4-.44.67-.68,1.01-.18.22-.37.5-.44.79-.26.62-.63,1.18-.89,1.74-.19.28-.32.62-.45.96-.19.39-.33.79-.52,1.24-.19.39-.27.79-.35,1.19-.14.57-.29,1.14-.37,1.71l-.45,2.11c.1.29-.14.57-.16.86.04.29-.03.58-.04.86-.05.98-.15,1.9.1,2.83.1.41.08.75.17,1.16l.14.64c.1.24.15.53.19.82.05.17.15.41.32.59.06.06.16.18.22.3.05.12.22.24.33.36.45.31.91.22,1.44.13.11,0,.29-.04.47-.09.29-.04.53-.21.77-.42.12-.17.3-.27.42-.38l.85-.82c.36-.33.61-.66.86-1.05.19-.39.55-.72.86-1.11.18-.16.37-.39.55-.61.12-.05.18-.17.24-.28l.84-1.92c.19-.39.33-.85.41-1.25.07-.28.14-.57.27-.91l.39-.9c.14-.46.27-.91.35-1.37.2-.51.28-1.02.48-1.59.26-.62.47-1.3.5-1.99.04-.8.07-1.55,0-2.31l-.08-.64c.01-.29-.03-.52-.13-.81-.04-.46-.13-.87-.22-1.34-.04-.35.14-.63.44-.79.12-.05.24-.16.3-.22.3-.21.59-.2.81-.02.17.12.33.36.43.54.16.35.2.76.29,1.11.15.41.25.82.52,1.18.11.12.16.24.1.41-.06.11-.01.29.04.41.05.23.04.46.02.75-.01.23-.02.46.02.69.1.41.02.81.06,1.21.04.46.01.98.05,1.44-.03.52-.1.98-.13,1.49v.06c.09.47-.05.92-.07,1.32s-.09.74-.11,1.09l-.03.58c-.02.4-.1.8-.12,1.21l.03.58c-.09.57-.11,1.15-.2,1.66-.1.8-.19,1.55-.23,2.35-.08.46-.21.85-.24,1.31-.02.35-.15.69-.11,1.09,0,.17-.13.34-.14.57-.13.28-.2.62-.22.97-.08.46-.27.85-.41,1.31-.13.28-.2.57-.33.79-.2.45-.39.9-.53,1.36-.13.4-.38.73-.52,1.13-.19.45-.44.84-.8,1.11-.18.17-.31.39-.38.62-.12.17-.25.33-.37.44l-.61.66c-.37.5-.95.65-1.49.91-.36.21-.76.31-1.17.46-.06.05-.18.11-.24.16l-.41.15c-.12.05-.23.05-.29.1-.12.05-.18.05-.29.04-.46.04-.98,0-1.5-.07-.17,0-.35.04-.52.03-.23-.01-.46-.02-.63.03l-.52-.03c-.17.05-.29.04-.28-.13-.04-.35-.26-.53-.48-.77-.27-.3-.6-.66-.87-1.02s-.37-.77-.46-1.18c-.04-.29-.14-.58-.19-.87,0-.12-.05-.18-.04-.29.01-.29.03-.58.32-.74.12-.05.12-.11.18-.16.18-.22.42-.27.7-.14.34.19.67.49.76.96,0,.12.05.17.05.23.09.47.31.76.76,1.02.28.24.5.49.89.62h.29c.52-.02,1.04-.05,1.62-.14.12,0,.23-.05.35-.1.18-.11.41-.15.59-.26.42-.32.83-.54,1.14-.87.12-.11.24-.22.36-.27.24-.22.48-.44.61-.78.25-.45.56-.84.81-1.23.06-.11.12-.22.19-.28.19-.45.33-.91.58-1.36.2-.51.34-1.08.48-1.65.08-.52.22-.97.36-1.48.14-.51.33-.96.36-1.48.08-.57.28-1.08.25-1.66-.05-.12.01-.23.02-.35,0-.06,0-.11-.05-.17-.06,0-.12.05-.17.05-.12.11-.3.27-.37.44-.19.28-.37.56-.56.9-.3.33-.5.72-.69,1.12-.06.11-.19.28-.31.39-.3.22-.54.44-.67.78-.07.28-.31.5-.55.67-.12.05-.24.22-.36.33l-.18.17c-.24.16-.42.38-.55.61-.43.5-.85.88-1.54.85-.11,0-.17,0-.23.05-.23.05-.41.04-.63.03-.12,0-.23.04-.35.1-.06,0-.12.05-.12,0-.28-.19-.64.03-.92-.1-.28-.07-.57-.08-.86-.16-.23-.07-.46-.08-.62-.32-.11-.18-.33-.36-.5-.48-.11-.06-.23-.07-.4-.13-.34-.13-.67-.38-.89-.68-.22-.24-.32-.48-.43-.71-.1-.24-.21-.36-.32-.53-.11-.18-.21-.41-.26-.59-.1-.29-.14-.58-.19-.88l-.16-.35c-.09-.58-.23-1.16-.38-1.75-.09-.64-.05-1.33-.14-1.97,0-.06,0-.12,0-.17h.06Z"/>
    <path class="cls-1" d="M139.48,165.02c.1-.57.2-1.13.23-1.66.03-.17.12-.39.15-.56l.03-.17c.08-1.45.33-2.92.52-4.35.03-.17,0-.29.02-.46.03-.17.06-.34.1-.57l.11-.62c.15-.85.29-1.7.39-2.56l.2-1.13c.06-.34.17-.67.23-1.01,0-.06.08-.1.02-.11.02-.81.22-1.6.35-2.34.15-.85.3-1.7.44-2.55l.65-3.74c.08-.46.26-.83.34-1.29l.03-.17c.15-.85.3-1.7.44-2.55l.2-1.13c.12-.33.17-.61.17-.96.06-.34.05-.63.11-.97.03-.17.11-.27.14-.44.13-.39.26-.83.34-1.28.02-.11.05-.29.13-.39.08-.1.14-.15.2-.14.19-.08.38-.17.47-.33,0-.06.08-.1.13-.09.37-.11.74-.22,1.08-.16.11.02.23.04.27.11.08.19.31.23.48.26.58.04,1.14.14,1.7.29.45.08.9.21,1.34.35.38.18.8.43,1.18.61l.93.34c.44.14.8.43,1.18.61.27.11.42.25.62.46.21.15.42.31.61.52.06,0,.1.08.15.14.22.39.53.68.83.96.1.08.15.14.19.27.16.44.26.86.36,1.29.32.87.05,1.71-.21,2.54-.19.73-.52,1.31-.97,1.88-.15.21-.34.29-.5.5-.41.34-.92.6-1.28.95-.08.1-.2.14-.28.24-.07.05-.14.15-.26.13-.3.06-.46.33-.77.39-.24.02-.5.21-.7.35-.56.2-1.14.5-1.74.57-.18.03-.35,0-.47.04-.18.03-.26.13-.17.32.14.2.34.41.47.67.09.13.24.28.33.47l.62,1.16c.12.31.3.64.24.98-.01.06-.02.11.03.18.16.79.25,1.62.28,2.45,0,.29-.05.63-.04.93.01.94-.2,1.84-.25,2.76-.04.58-.08,1.15-.07,1.74-.04.58-.03,1.16-.01,1.75.02.53.06,1,.26,1.51.11.37.4.71.86.79l.17.03c.38.18.47.32.29.69-.19.43-.52.61-.97.53-.06-.01-.17-.03-.23-.04l-.28-.05c-.38-.18-.74-.42-1.11-.66-.17-.03-.26-.16-.36-.3-.1-.08-.13-.26-.29-.34-.21-.15-.3-.29-.37-.53-.34-.76-.56-1.5-.47-2.36.04-.58-.03-1.17.01-1.75l.1-1.56c.08-.45.17-.96.13-1.44.02-.46.1-.92.12-1.38-.05-.36.02-.76-.03-1.17-.06-.3,0-.64-.01-.94-.04-.47-.13-.96-.28-1.45-.04-.12-.13-.26-.22-.39-.08-.19-.22-.39-.37-.53-.31-.58-.68-1.11-1.27-1.45-.26-.16-.55-.21-.88-.33-.22-.1-.36.05-.34.29.03.18,0,.35-.03.52-.06.34-.17.67-.23,1.01-.11.62-.16,1.26-.27,1.88.03.18,0,.35.01.59l-.03.17c-.07.75-.2,1.49-.38,2.21-.08.45-.15.85-.45,1.27l-.02.11c.11.37,0,.7-.06,1.04-.14.44-.17.96-.19,1.43l-.12.68c-.07.75-.21,1.54-.29,2.35-.07.4-.01.76-.03,1.17-.04.58-.08,1.15-.18,1.72-.04.23-.14.44-.23.66v.06c-.01.35-.24.66-.25,1.07v.06c-.15.5-.12.97-.32,1.46l-.35.99c-.12.33-.25.42-.65.36-.06,0-.17-.03-.29,0-.58-.04-.92-.39-1.19-.91-.22-.39-.37-.88-.29-1.34.01-.41.02-.81.08-1.15ZM154.1,140.09c.12-.33.01-.76-.03-1.17-.03-.47-.32-.82-.76-1.01-.32-.17-.65-.29-.92-.45-.51-.44-1.17-.67-1.77-.89-.55-.21-1.16-.38-1.79-.49-.06-.01-.17-.03-.22-.1-.33-.12-.62-.11-.97-.11-.29,0-.36.05-.42.39-.13.74-.13,1.44-.31,2.11-.02.11.03.18,0,.29,0,.35,0,.7-.18,1.02-.12.33-.11.62-.17.96-.08.1-.03.17-.05.29-.12.68-.13,1.44-.37,2.1-.07.05-.08.1-.03.17.02.24-.09.51-.2.78-.12.33-.17.67-.23,1.01-.03.17.07.25.26.16.44-.16.83-.38,1.3-.42.53-.02,1.08-.16,1.56-.25l1.56-.25c.25-.07.44-.16.64-.3.14-.15.33-.23.52-.32.13-.09.31-.12.45-.21.33-.23.61-.48.83-.73.21-.2.42-.39.57-.6.34-.59.62-1.18.7-1.98Z"/>
    <path class="cls-1" d="M161.28,170.87c.13-.44.27-.88.47-1.36.07-.22.24-.41.33-.68-.02-.13.03-.29.06-.4.02-.05,0-.18.07-.22.1-.33.18-.61.34-.92.05-.17.1-.33.21-.48.07-.04.11-.15.14-.26.12-.39.38-.67.39-1.09.3-.21.2-.66.4-.9.21-.3.31-.63.41-.96q.02-.05.09-.09c.28-.34.36-.79.48-1.18.38-1.03.68-2.02,1.03-3,.13-.44.09-.88.09-1.3,0-.18-.14-.34-.27-.5-.15-.29-.36-.59-.37-.96l.02-.05c-.22-.25-.25-.56-.35-.83l-.2-.54-.06-.38-.06-.2c-.21-.49-.3-1-.26-1.53,0-.36.04-.71.03-1.08-.04-.25-.16-.47-.2-.72-.1-.45-.19-.96-.17-1.43-.01-.55.03-1.08-.04-1.64-.01-.36-.02-.73.04-1.13.07-.22-.05-.44-.04-.67-.03-.49-.06-.98.03-1.5.04-.35-.02-.73-.03-1.09-.04-.25-.03-.49-.07-.75-.03-.31-.04-.67-.13-.94-.08-.33,0-.6-.02-.91,0-.18.03-.29,0-.42.01-.24,0-.42.06-.58.03-.29-.09-.69.06-1,.02-.05-.08-.14-.04-.25-.08-.33-.02-.73.08-1.06.07-.22.17-.37.33-.5.22-.11.4-.12.6-.18.42,0,.73.16,1.01.43.54.4.66.98.61,1.57-.04.71-.09,1.48-.07,2.21,0,.37.09.69.1,1.05l.03.49c.03.49.12,1,.15,1.49.01.55-.07,1-.05,1.55-.02.47,0,.97.04,1.46.05.62.09,1.29.02,1.93-.08.28-.04.53-.02.84.03.31.11.63.13.94.06.38.07.75.08,1.11.04.67.14,1.31.31,1.96.02.13-.01.24,0,.36-.02.47.08.93.31,1.36.12.21.22.25.35.04.27-.28.61-.42.87-.7.02-.05.09-.09.16-.13.07-.04.14-.08.16-.13.28-.52.69-.88,1-1.32.21-.3.48-.58.69-.87l.32-.45c.16-.31.29-.57.54-.8.28-.34.47-.76.75-1.09.27-.28.46-.71.68-1.06l1.3-1.89q.07-.04.09-.09c.22-.53.59-.96.91-1.41.16-.13.23-.35.28-.52l.4-.72c.24-.41.49-.81.68-1.24l.49-1c.19-.42.53-.74.92-1.04.09-.09.22-.12.33-.08.33.1.59.24.85.38l.17.23c.08.33.29.63.31.94,0,.6.01,1.15-.38,1.63-.2.24-.29.57-.43.83-.19.42-.42.78-.59,1.14-.28.52-.48,1-.76,1.51l-.56.85c-.3.39-.65.76-.95,1.16-.21.3-.38.67-.55,1.04-.2.24-.28.52-.57.67l-.07.04c0,.42-.38.67-.59.96-.11.15-.21.3-.35.37-.07.04-.09.09-.11.15l-.15.5c-.32.45-.52.92-.93,1.28-.12.39-.52.51-.67.82-.12.2-.3.39-.42.59-.24.59-.72.99-1.22,1.43-.16.13-.32.26-.43.41-.16.13-.3.21-.5.27-.14.08-.25.22-.39.3l-.5.27c-.07.04-.16.13-.18.19-.02.05-.05.17-.03.29-.05.77-.4,1.5-.69,2.26-.12.2-.21.48-.27.7-.12.39-.22.72-.32,1.05l-.04.11c-.27.28-.26.64-.47.94-.03.11-.07.22-.14.26-.11.15-.23.35-.24.59-.02.05-.07.22-.14.26-.18.19-.21.48-.27.7l-.39.9c-.24.59-.42,1.2-.66,1.79-.19.42-.39.9-.53,1.34-.12.2-.19.42-.2.66-.03.29-.17.55-.36.79l-.07.22c.08.33.03.49-.16.73-.07.04-.09.09-.11.15v.55s0,.05-.06.04c-.25.04-.45.29-.72.38,0,0-.07.04-.13.02-.19-.18-.33-.1-.49.03-.13.02-.18,0-.2-.12-.08-.14-.14-.34.04-.53.02-.06.05-.17-.04-.25-.04-.07-.09-.09-.22-.07-.13.02-.17-.05-.13-.16q.01-.24-.19-.18c-.06-.02-.13.02-.25.04,0,0-.06-.02-.04-.07,0,0,.02-.05.03-.11.35.05.43-.23.55-.43.05.02.02-.06.03-.11-.02.05-.07.04-.13.02l-.07.04c-.09.09-.19.24-.29.15-.04-.07-.04-.25-.03-.31.13-.44.25-.83.37-1.21ZM162.07,173.82c.07-.04.14-.08.16-.13.06.02.02-.06-.02-.13l-.21.11c.05.02.04.07.08.14Z"/>
  </g>
</svg>