<?xml version="1.0" encoding="UTF-8"?>
<svg id="Layer_1" data-name="Layer 1" xmlns="http://www.w3.org/2000/svg" viewBox="0 0 260.55 262.85">
  <defs>
    <style>
      .cls-1 {
        fill: #231f20;
      }
    </style>
  </defs>
  <g>
    <path class="cls-1" d="M44.44,155.28c-.79-.18-1.57-.37-2.36-.55l-.22-.05c-.41-.27-.93-.33-1.45-.4-.39-.09-.83-.25-1.22-.34l-.39-.09c-.66-.21-1.32-.42-1.99-.58-.6-.2-1.17-.33-1.78-.47l-1.46-.34c-.73-.17-1.43-.45-2.16-.62-.79-.18-1.57-.37-2.37-.49-.56-.13-1.14-.2-1.7-.33-.35-.02-.74-.11-1.09-.14-.46-.05-.84-.2-1.22-.34-.22-.05-.41-.04-.57-.07-.65-.27-1.35-.31-2.02-.47-.38-.15-.83-.25-1.21-.4-.34-.08-.32-.13-.23-.53-.03-.12,0-.24-.03-.36-.09-.38.04-.7.18-1.02.01-.06.08-.1.15-.14.43-.08.85-.34,1.32-.34.22.05.46.05.66.21.1.08.2.16.31.19l2.53.59c.35.02.7.04,1.04.12.17.04.35.02.52.06.52.06,1.08.19,1.6.25l1.51.35c.41.04.77.24,1.23.29l.11.03c.24.23.54.24.82.31.34.08.66.21,1.05.3.39.09.77.24,1.18.27.07-.04.12-.03.18-.02.27.12.49.17.77.24.41.04.79.18,1.17.33.38.15.84.2,1.23.29.56.13,1.18.27,1.73.46l1.46.34c.27.12.52.06.79.18.49.17.95.22,1.46.34.32.13.63.09.88.26.11.03.17.04.29,0l.22.05c.41.27.83.25,1.22.34.38.15.84.2,1.14.44l.17.04c.39.09.8.13,1.26.17.11.03.28.07.44.16l.84.2c.16.1.27.12.38.15.06.01.1.08.11.03.36-.03.66.21,1.07.25.29,0,.62.14.88.26.39.09.74.11,1.08.19.28.06.59.02.83.25.46.05.73.41.99.82.03.12.12.26.21.35.09.14.06.25-.02.35-.29.23-.54.53-.87.69-.25.06-.49.06-.72.07-.07.04-.18.02-.24,0-.28.17-.49.06-.75-.06-.27-.12-.5-.12-.79-.18-.69-.1-1.43-.21-2.1-.37-.28-.07-.52-.06-.79-.18-.67-.16-.76-.06-.77.53-.12.5-.17.97-.23,1.48l-.48,2.08c-.16.44-.32.87-.41,1.26-.19.55-.37,1.1-.39,1.68.03.12-.07.28-.09.39s-.07.28-.04.41c.09.38-.06.75-.09,1.16-.09.39-.18.79-.15,1.15.03.12,0,.24-.02.35-.03.11,0,.24.03.36-.04.17.06.25.23.29l1.63.38c.28.07.56.13.88.26.06.01.17.04.29,0,.6-.04,1.15.15,1.68.39.06.01.16.09.24.23l.2.4c.1.08.19.22.27.36.06.01.11.03.1.08.34.32.31.72-.05.99l-.62.39c-.28.17-.61.33-1,.24-.56-.13-1.09-.14-1.67-.21-.11-.03-.17-.04-.29,0-.06-.01-.18.02-.22-.05-.44-.16-.91-.15-1.3-.24-.38-.15-.8-.13-1.2-.16l-.22-.05c-1.01-.24-1.96-.22-2.95-.27-.36.03-.64-.03-.98-.11l-1.4-.33c-.66-.21-1.26-.41-1.95-.51s-1.35-.31-2.03-.41c-.95-.22-1.89-.5-2.91-.73l-1.57-.37c-.34-.08-.66-.21-1-.29-.44-.16-.88-.27-1.26-.41-.44-.16-.88-.26-1.35-.31-.22-.05-.5-.12-.77-.24-.66-.21-1.25-.47-1.9-.74-.55-.19-1.11-.32-1.73-.46-.6-.2-1.29-.3-1.91-.44-.72-.23-1.43-.45-2.09-.66l-.9-.21c-.22-.05-.47,0-.71.01-.36.03-.48-.23-.66-.45-.1-.08-.02-.18.05-.22.09-.16.12-.27.04-.41-.09-.38-.18-.75-.16-1.1.04-.17.11-.21.23-.24.21-.13.42-.26.58-.46.17-.2.36-.27.57-.16.06.01.17.04.29,0,.28.06.55.19.66.45.1.08.16.1.33.13.18-.02.41.04.63.09.22.05.5.12.71.23,1.28.36,2.58.6,3.87.9.28.07.6.2.87.32l1.03.42c.11.03.22.05.32.13.31.19.7.28,1.05.3.12-.03.18-.02.24,0,.2.17.38.15.56.13.06.01.07-.04.12-.03.44.16.93.33,1.38.44l.28.07c.21.11.49.17.72.23.04.07.1.08.16.09.29,0,.57.08.82.31.11.03.29,0,.42-.02.42-.02.81.07,1.16.33.25.18.56.13.84.2.17.04.35.02.46.05.34.08.69.1,1.02.18.28.07.6.2.88.26.45.1.84.2,1.3.24.5.12,1.02.18,1.51.35.44.16.91.15,1.36.26.07-.04.12-.03.24,0,.45.1.91.15,1.39.14.29,0,.53,0,.81.07.24,0,.25-.06.3-.28.16-.44.2-.84.19-1.32,0-.29.13-.56.21-.9-.02-.18.02-.35,0-.53l.07-.28c.06-.52.18-1.02.3-1.53.18-.79.41-1.5.63-2.22.17-.49.29-1,.4-1.45.21-.9.3-1.82.39-2.69.07-.28-.03-.36-.26-.42-.84-.2-1.63-.38-2.47-.57v-.06Z"/>
    <path class="cls-1" d="M41.5,134.02c.38.14.72.2,1.05.31l1.46.52s.04.07.11.04c.64.1,1.23.5,1.83.71.38.14.7.43,1.08.57.21.26.5.3.78.4.22.08.42.21.61.34.21.26.52.43.83.6.5.3,1.04.68,1.49,1.14.12.17.27.28.41.39.25.33.46.59.66.91.09.09.1.22.14.29,0,.18.07.33.19.5.14.11.19.31.19.5.05.38.13.84.05,1.24-.04.29-.08.58-.05.84-.02.24,0,.49.09.77-.02.05.02.13.05.2.03.25-.06.34-.28.45-.07.04-.2.05-.29.14-.13.02-.24.16-.28.27-.15.25-.34.43-.52.61-.09.09-.1.27-.28.27,0,0-.09.09-.06.16,0,.18-.1.27-.19.36-.24.16-.45.39-.72.48-.09.09-.19.18-.33.25,0,0-.02.05-.09.09-.79.51-1.6.9-2.58.73l-.66-.05c-.53-.07-1.07-.08-1.55-.12l-.27-.1c-.18,0-.35-.06-.53-.07-.11-.04-.22-.08-.4-.08-.43-.15-.89-.25-1.39-.37l-.76-.27c-.69-.31-1.43-.63-2.09-.99-.72-.38-1.37-.79-2.02-1.21-.42-.21-.81-.47-1.21-.74-.34-.24-.65-.41-.92-.69-.41-.39-.9-.75-1.36-1.16-.23-.21-.48-.54-.69-.8-.09-.09-.12-.17-.16-.24-.66-.54-.94-1.31-1.42-2.03-.21-.26-.28-.59-.33-.97-.07-.33-.13-.66-.35-.92-.12-.17-.12-.35-.15-.6,0-.18.1-.27.22-.29l.15-.07c.45.1.66-.31.92-.53l.5-.37c.48-.32.98-.69,1.55-.92.44-.21.9-.47,1.43-.59.2-.05.46-.08.71-.11s.51-.06.79-.15c.4-.1.75-.04,1.11-.03.24.02.44-.03.67,0,.47.05.96.04,1.44.08.53.07,1,.11,1.41.32ZM40.16,135.56c-.24-.02-.43-.16-.67-.18-.6-.03-1.22,0-1.77-.02-.29-.04-.58-.08-.86,0-.66.13-1.27.47-1.91.73-.37.17-.45.57-.33.92.11.22.14.48.11.71-.01.55.12,1.02.46,1.45.09.09.16.24.19.31,0,.36.17.55.42.7.57.45,1.11,1.01,1.68,1.46.5.48,1.11.82,1.63,1.25.54.38,1.08.57,1.64.89.5.3,1.05.49,1.48.83l.16.06c.22.08.53.07.69.31-.02.05.11.04.16.06.6.21,1.19.42,1.81.58.72.2,1.4.37,2.1.44.24.02.36,0,.58-.1.2-.05.37-.17.55-.35.61-.52.88-1.28,1.13-1.98.12-.33.18-.67.17-.98.07-.53.04-.96-.23-1.43-.17-.37-.42-.7-.58-1.12-.14-.29-.41-.57-.69-.8l-1.42-.99c-.31-.17-.61-.34-.95-.58-.2-.13-.49-.17-.74-.33-.38-.13-.74-.32-1.1-.51-.47-.23-.97-.53-1.55-.62-.45-.1-.89-.25-1.28-.52l-.11-.04c-.28.09-.53-.06-.8-.16Z"/>
    <path class="cls-1" d="M41.47,113.26c.46.24.94.43,1.4.67l.23.06c.33-.02.58.24.84.38.18.03.36.19.48.32.2.24.49.32.77.4l1.33.31c.23.06.43.16.64.14.49.06.92.23,1.36.39l.59.12c.8.09,1.59.19,2.36.46.49.19.97.38,1.51.47.41.09.85.25,1.23.39.23.06.51.14.74.2l1.23.26c.05.03.13,0,.18.03.15.08.33.24.51.27l.64.14c.2.11.38.14.61.19l2.23.46c.64.14,1.36.26,2.03.35.52.01,1.05.1,1.59.32.2.11.41.09.49-.07.08-.15-.04-.28-.25-.39-.43-.29-.84-.64-1.27-.93-.43-.29-.89-.66-1.29-1.01-.46-.37-.94-.69-1.32-1.08-.18-.16-.3-.29-.46-.37l-2.03-1.59c-.66-.48-1.37-.98-2.08-1.49l-1.83-1.35c-.33-.24-.69-.43-1.02-.67l-.15-.08c-.5-.53-1.12-.85-1.7-1.22l-.94-.69c-.41-.34-.86-.71-1.37-.98-.43-.29-.84-.64-1.29-.88-.43-.16-.74-.45-1.07-.69-.13-.13-.28-.21-.48-.32-.05-.03-.15-.08-.23-.18-.58-.37-1.19-.82-1.75-1.25-.41-.09-.61-.45-.92-.61-.36-.19-.64-.4-.91-.61-.33-.24-.71-.5-1.07-.69-.13-.13-.25-.13-.43-.16-.18-.03-.33-.11-.51-.27-.1-.05-.18-.16-.28-.21-.18-.03-.25-.26-.38-.39.03-.05-.02-.08,0-.13.13-.25.09-.67.46-.87.16-.05.24-.2.42-.17.28.08.52.01.74.2l.36.19c.41.21.82.43,1.22.64l.05.03c.59.12.99.59,1.53.8.03-.05.08-.02.1.05l.99.72c.08.1.18.16.33.24.38.14.74.32,1.02.67.05.03.15.08.23.18l.92.48c.05.03.15.08.18.16.35.32.81.56,1.22.77l.15.08c.02.21.15.21.33.24l.41.21c.76.53,1.47,1.04,2.29,1.46.15.08.25.13.38.27.31.16.66.35.99.59.1.05.23.18.3.29.33.24.63.53,1.01.79.36.19.74.45,1.09.64.05.03.02.08.08.1.51.27.89.66,1.37.98.23.18.48.32.74.45.13.13.23.18.35.32l.25.13c.13.13.28.21.38.27.02.08.13.13.18.16.44.04.66.35.97.64.2.24.45.5.68.68.13.13.28.21.38.39l.15.08s.13,0,.1.05c.12.26.38.27.58.37.38.27.68.56,1.01.92.28.34.63.66,1.04.87.2.11.33.24.46.37.02.08.1.18.2.24.18.16.38.27.61.45.05.03.08.1.13.13.61.32,1.06.82,1.6,1.3.23.18.41.34.69.43.18.03.25.13.33.24.15.21.3.29.48.45.1.05.23.18.3.29.17.42.32.88.33,1.35-.03.18-.03.31-.19.36-.34.15-.57.35-.91.37l-.16.05c-.67-.09-1.37,0-1.98-.2-.36-.06-.67-.09-1.03-.02-.39.12-.8.03-1.13-.08-.56-.17-1.1-.25-1.67-.29-.21.02-.44-.04-.62-.06-.61-.19-1.23-.26-1.82-.37-.34.02-.67-.09-1-.2-.74-.2-1.43-.36-2.18-.56l-1-.33c-.13,0-.31-.03-.49-.06l-1.59-.45c-.51-.14-1.02-.41-1.59-.45-.41-.09-.79-.22-1.18-.36l-.54-.09c-.54-.09-1.05-.23-1.61-.39-.61-.19-1.23-.39-1.9-.48-.05-.03-.18-.03-.23.07-.08.15,0,.26.1.31.18.16.35.32.58.5l.79.61c.33.24.63.53.91.87.02.08.13.13.23.18.54.22,1.02.54,1.48.91.38.26.79.61,1.22.9.08.1.13.13.25.13.33.11.58.37.84.64.08.1.18.16.28.21.13.13.23.18.38.27.05.03.08.1.15.08.39,0,.56.42.92.61,0,0,.05.03.02.08.17.42.53.6.75.92l.53.47c.28.21.5.53.81.69.1.05.18.16.2.24.23.31.5.53.84.64.2.11.43.16.58.37.02.08.08.11.13.13.41.09.64.4.86.71.48.45.93.95,1.47,1.29.13.13.28.21.38.39.25.26.53.48.86.58.23.06.38.14.53.35.17.29.51.4.65.73.05.03.08.1.15.08.23.06.33.24.4.47l.37.91c.07.23.02.34-.16.43-.16.05-.26.12-.47.15-.28.04-.62.06-.98.13l-.1-.05c-.59-.24-1.18-.36-1.79-.42,0,0-.08.02-.13,0-.82-.3-1.72-.32-2.54-.62-.2-.11-.46-.11-.64-.14-.33-.11-.61-.19-.92-.35l-1.46-.31c-.46-.11-.87-.2-1.28-.41-.18-.16-.38-.27-.59-.24-.03.05-.08.02-.13,0-.38-.27-.84-.38-1.3-.49-.1-.05-.15-.08-.23-.06-.64-.14-1.25-.34-1.9-.48-.13,0-.18-.03-.23-.06-.84-.38-1.64-.6-2.48-.85-.13,0-.25-.13-.38-.14l-.31-.16c-.46-.11-.92-.22-1.36-.39-.25-.13-.51-.27-.82-.3-.08.02-.2-.11-.25-.13-.18-.03-.28-.08-.38-.14-.23-.06-.38-.14-.61-.19l-.84-.25c-.56-.17-1.1-.38-1.66-.55-1.74-.53-3.34-1.44-4.92-2.27l-3.01-1.58c-.2-.11-.38-.27-.56-.42-.2-.11-.38-.27-.56-.29-.41-.21-.53-.47-.52-.86-.04-.54.22-.79.56-1.07.05.03.08-.02.08-.02.36.06.67-.17,1.01-.18.39,0,.8.09,1.15.28.23.06.49.19.69.3.08-.02.18.03.2.11.13.13.36.19.51.27.67.22,1.28.54,1.84.97.38.27.74.45,1.15.67.1.05.2.11.33.11.26,0,.49.19.77.27l.15.08c.56.17,1.05.49,1.58.7.15.08.36.19.53.35.1.05.2.11.25.13l.66.35c.05.03.08.1.15.08.39,0,.69.3,1.02.41.18.03.28.08.41.09.38.14.79.22,1.13.33.28.08.54.09.74.2l1.07.56c.1.05.25.13.41.21l.05.03c.28.08.59.24.9.28.23.06.51.14.69.3.18.16.41.09.64.14.36.06.7.04,1.03.15.33.11.69.3,1,.46.58.37,1.22.64,1.94.76.08-.02.15.08.25.13.2.11.41.21.72.25.28-.05.57.04.82.17.31.16.61.32.97.38.13,0,.23.06.38.14.23.18.54.22.84.25.1.05.26,0,.28-.05.05-.1-.05-.16-.15-.21-.25-.26-.53-.47-.81-.69-.74-.58-1.45-1.09-2.16-1.59l-1.14-.8-.36-.19c-.63-.53-1.29-1.01-1.93-1.53-.48-.32-.99-.59-1.45-.96-.13-.13-.33-.24-.51-.4-.33-.37-.71-.63-1.17-.88-.38-.27-.81-.56-1.14-.93l-.41-.21c-.25-.13-.46-.24-.64-.4l-.74-.58c-.35-.32-.66-.61-.91-1-.33-.37-.63-.66-1.01-.92-.33-.24-.58-.5-.86-.71l-1.78-1.33c-.51-.4-.96-.9-1.33-1.42-.02-.33-.33-.5-.42-.81-.05-.16-.17-.29-.33-.37-.2-.11-.25-.26-.2-.49l.06-.62c.03-.31.48-.66.76-.71l.21-.02c.37-.2.67-.04.98.12.38.14.69.3,1.07.43Z"/>
    <path class="cls-1" d="M91.26,92.82c-.12-.12-.29-.29-.41-.57-.2-.37-.45-.69-.69-1.1l-.9-1.38c-.2-.29-.41-.57-.65-.81-.12-.2-.29-.37-.45-.53-.04-.04-.08-.08-.08-.16-.12-.12-.16-.24-.29-.37-.45-.53-.86-1.02-1.26-1.59-.08-.16-.45-.29-.65-.16-.2.12-.45.29-.53.53-.16.16-.29.37-.49.41-.08,0-.16.08-.2.12-.16.25-.37.45-.61.69-.2.2-.45.45-.69.61-.08.08-.12.2-.16.33-.04.2-.2.45-.33.65-.2.2-.37.37-.53.61-.16.24-.37.53-.49.82-.12.12-.16.24-.2.37-.08.16-.08.33.04.45.33.24.61.61.94.77.08,0,.12.04.16.08.37.45.86.77,1.26,1.1l.08.08c.41.49.94.77,1.47,1.14.29.28.57.49.9.73l.65.41c.08,0,.16,0,.2.04.33.33.69.53.98.89.2.2.2.45.25.73-.04.04-.04.12-.08.16-.2.12-.41.25-.61.2-.16-.08-.33,0-.49.08-.49.33-1.02.29-1.55,0l-.08-.08c-.08-.16-.25-.24-.37-.29-.2-.04-.41-.16-.61-.2-.12-.04-.2-.12-.33-.16-.2-.04-.37-.2-.49-.33-.25-.16-.53-.29-.73-.41-.12-.12-.29-.2-.37-.28-.61-.53-1.22-.98-1.83-1.34-.04-.04-.08,0-.12-.04-.29-.45-.86-.61-1.26-1.02l-1.26-1.02c-.16-.08-.41-.08-.45-.28-.49-.33-.86-.77-1.26-1.18l-3.02-3.01c-.41-.41-.73-.9-1.14-1.3-.04-.12-.16-.16-.16-.24-.33-.33-.57-.65-.86-1.02-.29-.29-.57-.65-.82-.98-.24-.24-.41-.49-.61-.77-.08-.08-.12-.2-.2-.29l-.78-1.02c-.45-.53-.98-1.06-1.43-1.67-.2-.29-.49-.65-.61-1.02-.16-.33-.33-.65-.49-.98l-1.06-2.04c-.16-.33-.25-.65-.41-.98-.33-.49-.45-1.1-.65-1.63l-.12-.29c-.08-.24-.16-.49-.2-.77,0-.08,0-.16-.04-.29-.12-.29-.08-.65-.12-1.02.04-.12,0-.24-.04-.45-.12-.37,0-.65.41-.73.16-.08.24-.16.28-.37.04-.37.37-.53.65-.65.29-.12.49-.25.73-.41.28-.2.53-.37.85-.37.08,0,.16,0,.2-.04.33-.08.65-.16.98-.08.24.08.57.08.81,0,.24,0,.45-.04.65.08.08.08.16.08.25.08.57.08,1.14.16,1.67.37.25.08.53.2.73.33l.04.04c.53.12.98.49,1.43.77.08,0,.16.08.24.16.16.24.49.41.73.57.45.37.98.57,1.51.85.24.16.45.28.65.49.29.28.57.49.86.69l.37.37c.12.2.24.33.41.49.41.24.73.57,1.02.85.16.24.41.33.61.53.25.16.45.45.65.65.08.08.2.2.33.24.29.2.49.41.69.61.08,0,.08.08.12.12.2.37.49.57.77.86.16.16.37.28.37.53l.08.08c.33.24.57.49.77.77.24.41.61.61.86.94.29.29.57.49.86.77.04.04.08.16.16.24,0,0,0,.08.04.12.45.2.57.73.9.98.08.08.12.2.2.29.33.73.86,1.34,1.39,1.95.2.29.57.49.77.77.29.28.49.57.69.85.53.69.94,1.42,1.43,2.16l.04.04c.24.16.37.45.53.69.2.2.33.49.49.73.12.2.24.41.37.61l.65,1.14c.12.2.25.33.33.49.29.37.16.82-.28.94l-.65.16c-.16,0-.33,0-.41-.08-.24-.16-.57-.24-.77-.53l-.12-.12ZM75.4,74.55l.04-.04-.29-.28c-.2-.2-.37-.37-.61-.45-.08,0-.12-.04-.16-.08-.53-.37-1.06-.73-1.63-1.06-.25-.16-.49-.33-.77-.53l-.77-.53s-.08-.08-.16-.08c-.33-.16-.65-.24-1.02-.37-.24-.16-.49-.16-.73-.24-.2-.04-.41,0-.61.12-.24.08-.53.2-.77.37-.57.33-.81.73-.57,1.38.12.37.33.73.37,1.1.12.53.33,1.06.53,1.51.25.81.69,1.51,1.18,2.16.25.33.41.65.61.94.2.37.41.73.57,1.14.33.73.86,1.34,1.43,1.91.41.41.73.9,1.18,1.26.45.45.73.98,1.1,1.42.33.33.53.69.86,1.02l.16.16c.08.33.33.49.53.77l.29.29c.24.24.41.49.65.65.08.08.16.08.16.16.12.29.37.53.61.69.12.04.12.12.2.2.33.33.57.65.98.81.12.04.2.2.29.28q.16.16.37.04c.08-.08.16-.16.2-.29.24-.49.49-.9.98-1.22l.08-.08c.16-.25.37-.45.53-.61.2-.2.33-.49.53-.69l.94-.94c.24-.25.57-.33.69-.69l.04-.04c.28-.2.53-.45.77-.61.16-.16.2-.29,0-.49l-.16-.16c-.53-.77-1.18-1.42-1.83-2.08-.24-.24-.49-.57-.73-.81-.33-.41-.69-.77-.98-1.14-.24-.25-.49-.49-.69-.77l-.29-.29c-.49-.49-.98-.98-1.43-1.51-.08-.08-.16-.24-.29-.29-.41-.41-.9-.73-1.26-1.1-.33-.33-.69-.61-1.1-.94Z"/>
    <path class="cls-1" d="M95.72,87.03c-.36-.45-.71-.9-1.08-1.28-.11-.14-.21-.35-.31-.49l-.11-.14c-1.03-1.02-1.96-2.2-2.89-3.29-.11-.14-.22-.19-.33-.33-.11-.14-.21-.27-.36-.45l-.39-.5c-.54-.68-1.07-1.36-1.65-2l-.71-.91c-.21-.27-.38-.58-.6-.85-.04-.04-.03-.13-.07-.09-.59-.56-1.04-1.23-1.51-1.82-.54-.68-1.07-1.36-1.61-2.04l-2.35-2.98c-.29-.36-.44-.75-.73-1.11l-.11-.14c-.54-.68-1.07-1.36-1.61-2.04l-.71-.9c-.17-.31-.35-.53-.61-.77-.21-.27-.44-.46-.65-.73-.11-.14-.13-.26-.24-.4-.2-.35-.44-.75-.73-1.11-.07-.09-.18-.23-.21-.35-.03-.13-.02-.21.03-.24.06-.2.13-.39.07-.57-.04-.05-.03-.13.02-.16.16-.35.33-.7.6-.91.09-.07.18-.14.26-.13.2.06.38-.08.51-.19.42-.4.87-.76,1.36-1.07.36-.29.76-.53,1.16-.77.39-.16.86-.31,1.24-.47l.88-.47c.4-.24.86-.31,1.25-.47.26-.13.47-.15.76-.16.25-.05.5-.1.79-.11.04-.04.13-.03.21-.02.44.09.85.06,1.27.03.13-.03.21-.02.32.04.43.17.82.38,1.2.59.86.35,1.31,1.1,1.75,1.85.42.62.63,1.26.75,1.98.05.25-.01.45.04.7-.02.53-.17,1.09-.15,1.58.03.13-.03.24,0,.37,0,.08.02.21-.07.28-.16.27-.07.57-.22.83-.15.19-.18.51-.21.75-.23.55-.39,1.18-.73,1.68-.1.15-.24.26-.29.38-.1.15-.07.28.12.34.24.03.53.02.81.1.16.02.37,0,.57.07l1.28.31c.31.12.67.2.89.47.04.05.07.09.15.1.69.41,1.37.9,2,1.43.22.19.44.46.66.65.71.62,1.23,1.38,1.89,2.03.4.42.8.83,1.25,1.21.4.42.85.8,1.3,1.18.41.34.79.63,1.3.81.35.16.8.18,1.16-.11l.14-.11c.39-.16.55-.14.71.25.2.43.11.79-.25,1.08-.04.04-.14.11-.18.14l-.23.18c-.39.16-.81.27-1.24.39-.14.11-.3.09-.46.07-.13.03-.28-.07-.45-.01-.25.05-.41.03-.65-.08-.79-.26-1.49-.59-2.07-1.23-.4-.42-.89-.76-1.3-1.18l-1.1-1.11c-.29-.36-.61-.77-.98-1.06-.33-.33-.62-.69-.95-1.01-.3-.2-.55-.52-.89-.76-.27-.15-.48-.43-.71-.62-.38-.29-.8-.54-1.26-.76-.12-.05-.28-.07-.44-.09-.2-.06-.44-.09-.65-.08-.64-.16-1.29-.23-1.93-.02-.3.09-.52.27-.83.44-.22.1-.2.3-.01.45.15.1.26.24.37.37.21.27.38.58.6.85.39.5.83.96,1.22,1.46.15.1.26.24.45.38l.11.14c.51.55.97,1.14,1.39,1.76.29.36.54.68.64,1.18l.07.09c.35.17.52.47.73.74.24.4.61.77.94,1.09l.43.54c.51.55,1.01,1.19,1.55,1.78.25.32.55.52.85.8.4.42.8.83,1.16,1.29.14.18.24.4.34.61l.04.04c.26.24.34.61.63.89l.04.05c.28.44.65.73.88,1.21l.51.92c.17.31.15.47-.17.72-.05.04-.14.11-.19.22-.42.4-.91.43-1.47.28-.44-.09-.91-.31-1.19-.67-.29-.28-.59-.56-.8-.83ZM86.91,59.5c-.17-.31-.55-.52-.89-.76-.38-.29-.83-.3-1.26-.11-.34.12-.65.29-.95.38-.67.09-1.28.42-1.85.73-.52.27-1.06.61-1.55,1.01-.04.04-.13.11-.22.1-.31.17-.5.39-.73.65-.19.22-.2.3.01.58.46.59.98,1.06,1.37,1.64.07.09.15.1.22.19.26.24.52.47.64.81.17.31.39.5.61.77.03.13.11.13.18.23.43.54.98,1.06,1.32,1.67,0,.08.03.13.11.14.19.14.32.41.45.67.17.31.38.58.6.85.11.14.23.11.3-.09.17-.43.27-.87.56-1.25.34-.41.6-.91.86-1.33l.85-1.33c.11-.23.17-.43.2-.67-.02-.21.05-.4.11-.6.02-.16.12-.31.14-.48.05-.41.05-.77,0-1.11,0-.29-.01-.58-.07-.83-.21-.64-.47-1.25-1.01-1.84Z"/>
    <path class="cls-1" d="M111.42,76.13c.48-.43.97-.74,1.4-1.14.36-.29.66-.68.99-1.02.51-.38.92-.91,1.46-1.25.34-.21.73-.46,1.12-.49.08.02.13-.01.18-.04.13-.01.23-.07.3-.05.21,0,.37.04.53.08.21,0,.38.17.45.4.08.35-.1.6-.25.9-.07.11-.17.17-.28.31-.12.14-.18.25-.22.41-.03.29-.19.46-.44.61,0,0-.08-.02-.13.01-.35.42-.9.63-1.28,1-.33.34-.77.61-1.1.96-.36.29-.66.68-1.16.86l-.1.06c-.23.28-.5.51-.73.79-.15.3-.43.4-.73.46-.18.04-.46.02-.73-.09-.19-.09-.37-.04-.59.03-.05.03-.1.06-.23.07-.32.13-.59.03-.73-.29-.07-.23-.21-.34-.38-.51-.11-.07-.17-.17-.2-.21-.32-.41-.57-.8-.84-1.24-.29-.57-.67-1.08-.91-1.68l-.26-.31c-.06-.1-.14-.12-.25-.18-.24-.39-.52-.83-.84-1.24-.15-.24-.35-.46-.5-.7l-1.06-1.71c-.21-.34-.38-.72-.59-1.06-.12-.2-.32-.41-.44-.61-.23-.47-.47-.86-.74-1.3l-.06-.1c-.44-.81-.89-1.55-1.33-2.36-.15-.25-.27-.44-.38-.72-.12-.2-.16-.37-.29-.57l-.73-1.17-.7-1.46c-.19-.42-.36-.79-.6-1.19-.32-.62-.61-1.31-.98-1.9l-.61-.98c-.25-.52-.56-1.01-.81-1.53-.09-.15-.18-.29-.27-.44l-.94-1.52-.15-.24-.82-.99c-.09-.15-.18-.29-.32-.41l-.09-.15c-.04-.18-.18-.29-.27-.44-.23-.26-.41-.56-.57-.8-.03-.05-.09-.15-.04-.18.07-.32-.09-.69.06-.99.06-.24.17-.38.45-.48.32-.13.59-.37.9-.63.28-.31.67-.55.99-.82l2.02-1.66c.26-.23.56-.41.82-.64.05-.03.02-.08.07-.11.68-.43,1.39-.93,2.1-1.31.57-.29,1.23-.42,1.88-.15.08.02.16.04.22.13.18.29.36.59.37.92-.06.24-.29.73-.54.88-.28.1-.52.25-.7.5l-.15.09c-.37.16-.7.5-1.09.75-.26.23-.61.44-.95.66l-.2.12c-.3.39-.68.76-1.13.91l-.15.09c-.21.2-.38.37-.58.49-.27.1-.49.3-.7.5-.34.21-.33.68-.37,1.04-.02.08.04.18.1.28.34.33.58.72.83,1.11.12.2.32.41.44.61.09.15.1.28.19.42.39.64.82,1.32,1.21,1.96l1.09,1.76c.27.44.48.99.73,1.51.27.44.5.91.72,1.38.48.99,1.11,1.89,1.63,2.85.36.59.7,1.13.94,1.72l.37.59c.55.88,1.06,1.71,1.61,2.59l.09.15c.09.15.22.13.37.04.41-.32.82-.65,1.18-.94l1.68-1.45c.21-.2.43-.4.62-.52.41-.32.83-.52,1.34-.56.24.06.54,0,.75,0,.29.03.37.04.42.35.03.05.04.18.1.28.09.15.05.3-.01.42-.15.3-.23.62-.47.77-.31.26-.5.51-.7.84-.13.22-.33.34-.58.49-.36.29-.72.58-1.06.8-.17.17-.36.29-.51.38l-.18.25c-.18.25-.47.56-.59.91-.09.19-.25.36-.39.58-.17.17-.17.38-.02.62.33.54.75,1.09,1.13,1.6l.67,1.08c.19.42.44.81.75,1.09.09.15.15.25.21.34l.55.88c.06.1.19.09.29.03.15-.09.24-.15.39-.24l.03.05Z"/>
    <path class="cls-1" d="M145.49,60.71c-.14-.44-.27-.88-.37-1.39-.07-.22-.03-.47-.11-.75-.09-.09-.14-.26-.17-.37-.02-.05-.11-.15-.07-.22-.1-.33-.19-.61-.23-.95-.05-.17-.1-.33-.1-.51.04-.07,0-.18-.03-.29-.12-.39-.05-.77-.28-1.12.13-.34-.2-.66-.18-.97,0-.36-.09-.69-.19-1.02q-.02-.06.02-.13c.05-.44-.14-.86-.26-1.25-.27-1.06-.57-2.05-.82-3.06-.14-.44-.42-.77-.65-1.13-.11-.15-.3-.21-.5-.27-.29-.15-.63-.29-.84-.58l-.02-.05c-.33-.08-.52-.32-.75-.49l-.47-.34c-.09-.09-.18-.19-.27-.28l-.16-.13c-.45-.28-.8-.66-1.07-1.12-.21-.3-.37-.61-.58-.91-.18-.19-.39-.3-.57-.49-.34-.32-.69-.69-.94-1.1-.32-.44-.58-.91-.95-1.33-.21-.3-.42-.59-.6-.96-.07-.22-.28-.33-.41-.54-.3-.39-.6-.78-.81-1.26-.16-.31-.42-.59-.64-.89-.18-.19-.3-.39-.48-.58-.19-.24-.41-.54-.64-.71-.25-.22-.33-.5-.53-.74-.11-.15-.14-.26-.23-.35-.12-.2-.23-.35-.28-.52-.14-.26-.46-.52-.51-.87-.02-.06-.14-.08-.18-.19-.25-.22-.42-.59-.53-.92-.07-.22-.06-.4,0-.6.11-.22.26-.32.39-.48.35-.23.7-.28,1.08-.21.67.03,1.1.45,1.38.96.37.61.75,1.27,1.18,1.87.21.3.46.52.67.82l.3.39c.3.39.66.76.96,1.15.32.44.51.87.83,1.31.25.41.55.8.85,1.19.39.48.8,1.02,1.09,1.59.08.28.26.46.46.7.2.24.44.47.64.71.27.28.48.58.69.87.41.54.85,1,1.35,1.45.09.09.12.2.21.3.25.41.58.72,1.02.95.22.11.33.08.31-.16.06-.38.27-.69.33-1.07-.02-.05.02-.13.06-.2s.08-.14.06-.2c-.06-.58.08-1.11.09-1.66,0-.36.07-.75.08-1.11v-.55c-.03-.35-.06-.64.02-.97.05-.44-.03-.89.01-1.33.06-.38-.02-.84-.03-1.26l.02-2.29q.04-.07.02-.13c-.11-.57-.05-1.13-.03-1.68.06-.2,0-.42-.06-.58l-.07-.82c-.03-.47-.05-.95-.13-1.41l-.16-1.1c-.08-.46.02-.91.18-1.38.02-.13.11-.22.22-.25.33-.1.62-.13.92-.16l.27.1c.25.22.59.36.79.6.33.5.65.94.6,1.56-.03.31.08.64.11.93.08.46.09.88.15,1.28.06.58.16,1.1.22,1.68v1.02c-.02.49-.1,1-.13,1.49,0,.36.05.77.12,1.17-.03.31.06.58-.09.87l-.04.07c.23.35.05.77.05,1.13,0,.18,0,.36-.08.51-.04.07-.02.13,0,.18l.15.5c-.01.55.08,1.06-.05,1.58.12.38-.14.71-.1,1.05.01.24-.03.49-.02.73.13.62-.05,1.22-.21,1.87-.06.2-.12.4-.12.58-.06.2-.13.34-.27.5-.08.14-.08.33-.16.47l-.27.5c-.04.07-.06.2-.04.25.02.05.05.17.14.26.39.67.51,1.47.69,2.26.01.24.1.51.17.73.12.38.22.72.32,1.05l.03.11c-.06.38.15.68.14,1.04.03.11.07.22.03.29,0,.18,0,.42.13.62.02.06.07.22.03.29-.04.25.1.51.17.73l.18.97c.13.62.32,1.23.45,1.85.08.46.18.97.31,1.41.01.24.08.46.2.66.14.26.17.55.14.86l.07.22c.25.22.3.39.28.7-.04.07-.02.13,0,.18l.32.44s.02.06-.04.07c-.19.18-.21.49-.38.72,0,0-.04.07-.09.09-.25-.04-.33.1-.39.3-.09.09-.15.11-.24.01-.14-.08-.3-.21-.26-.46-.02-.06-.05-.17-.18-.19-.07-.04-.13-.02-.22.07s-.17.05-.2-.06q-.12-.2-.25-.04c-.05.02-.09.09-.19.18,0,0-.06.02-.07-.04,0,0-.02-.05-.03-.11.31-.16.23-.43.22-.67.05-.02-.02-.05-.03-.11.02.05-.04.07-.09.09l-.04.07c-.02.13-.03.31-.15.29-.07-.04-.18-.19-.2-.24-.14-.44-.25-.83-.37-1.21ZM147.79,62.71c.04-.07.08-.14.06-.2.06-.02-.02-.05-.09-.09l-.11.22c.06-.02.07.04.14.08Z"/>
    <path class="cls-1" d="M166.05,36.58c.07.4.19.73.25,1.07l.28,1.53s-.05.07.02.11c.23.6.18,1.31.29,1.94.07.4-.03.82.05,1.22-.12.31,0,.59.04.87.04.23.03.46.01.7-.12.31-.11.66-.11,1.01,0,.59-.07,1.24-.25,1.86-.08.19-.11.37-.13.55-.17.38-.28.7-.46,1.02-.04.12-.14.2-.19.27-.16.09-.25.22-.33.41-.03.18-.17.32-.33.41-.31.23-.67.53-1.05.66-.27.11-.55.22-.75.37-.22.1-.42.25-.62.46-.06.01-.1.08-.15.14-.21.15-.33.12-.53-.02-.07-.05-.15-.15-.27-.19-.08-.1-.26-.13-.37-.11-.29,0-.54-.08-.79-.15-.12-.04-.28.05-.37-.11,0,0-.12-.04-.17.03-.16.09-.28.05-.41.02-.26-.13-.56-.19-.77-.39-.12-.04-.25-.07-.38-.17,0,0-.06.01-.12-.04-.84-.43-1.58-.94-1.92-1.87l-.28-.59c-.21-.49-.47-.97-.67-1.4l-.05-.28c-.09-.16-.12-.33-.21-.49-.02-.11-.04-.23-.13-.39-.08-.45-.22-.9-.37-1.4l-.14-.79c-.08-.75-.17-1.55-.19-2.31-.03-.81,0-1.58.04-2.35-.03-.46,0-.94.04-1.41.04-.42.04-.77.14-1.14.13-.55.2-1.15.32-1.76.06-.3.23-.69.34-1,.04-.12.08-.19.13-.26.14-.84.67-1.47,1.05-2.24.12-.31.37-.54.68-.77.25-.22.5-.44.62-.76.08-.19.24-.28.45-.43.16-.09.28-.05.36.05l.13.09c.14.44.6.42.92.54l.57.25c.51.26,1.09.5,1.57.89.4.28.86.55,1.23.95.14.15.3.36.45.56.15.21.31.41.52.61.29.3.41.63.58.95.1.22.24.37.34.58.2.43.45.85.64,1.29.21.49.4.92.43,1.39ZM164.05,36.18c-.1-.22-.08-.45-.18-.67-.27-.54-.6-1.06-.87-1.54-.11-.27-.22-.55-.43-.74-.44-.5-1.04-.87-1.58-1.29-.33-.23-.72-.1-.96.18-.14.2-.34.36-.56.45-.48.26-.82.62-1.02,1.12-.04.12-.13.26-.18.33-.32.17-.39.42-.4.72-.1.72-.32,1.46-.42,2.18-.17.68-.16,1.38-.27,2.04-.06.65.05,1.22.05,1.87-.01.59.09,1.15.02,1.69l.03.17c.04.23.21.49.08.75-.06,0,.02.11.03.17.11.62.23,1.25.4,1.86.19.73.37,1.4.67,2.04.1.22.17.32.38.46.14.15.33.23.58.3.75.27,1.55.13,2.28,0,.34-.06.67-.18.93-.34.49-.21.86-.45,1.12-.91.23-.33.4-.72.68-1.06.19-.27.29-.64.34-1l.15-1.73c0-.35-.01-.7.03-1.12.02-.24-.09-.51-.09-.8-.07-.4-.09-.8-.1-1.21-.04-.52-.03-1.11-.24-1.65-.14-.44-.22-.9-.19-1.37l-.02-.11c-.21-.2-.21-.49-.26-.77Z"/>
    <path class="cls-1" d="M171.22,41.6c-.05-.69-.03-1.27-.08-1.9l-.23-3.16c-.05-.75-.1-1.44-.1-2.19.01-.64.08-1.28.09-1.91.02-.46,0-.92.07-1.39-.02-.29.07-.58.11-.93l.21-1.92c-.02-.29.02-.58.06-.81.09-.29.18-.65.28-.89.04-.18.15-.3.26-.42s.28-.08.46-.03c.06,0,.11,0,.17-.07.17-.01.34-.02.53.13.06,0,.06.05.12.05.29.04.42.26.55.48,0,.11.07.23.08.34-.04.18.03.4.16.57.07.11.07.17-.04.29-.22.19-.32.43-.3.66-.03.35-.06.76.02,1.1.09.46-.05.87.09,1.26.07.17.03.46,0,.69.01.17-.03.35-.02.52l.03.34c-.18.76-.12,1.51-.07,2.26.01.17.02.34-.02.52l.03.34c.07.23.14.39.05.63,0,.06,0,.11.07.11.13.16.14.34.15.51-.03.41,0,.87.03,1.27.04.58.14,1.09.23,1.6,0,.12.01.17.02.29l.19,2.64c.02.23.15.45,0,.69v.06c.25.21.1.57.3.85.07.11.08.28.09.46-.02.46.12.92.27,1.37.09.4.23.79.37,1.19l.09.4c.03.34.22.62.36.96.15.51.47.89.79,1.33.39.61,1.04.85,1.75.97.12,0,.17-.01.28-.08.74-.11,1.35-.5,1.95-.95.06,0,.11-.07.22-.13.17-.07.22-.19.32-.37.14-.42.23-.88.31-1.29l.25-1.29c.03-.35.18-.65.22-1,.09-.41.11-.82.14-1.28.12-.7.07-1.45.25-2.15.13-.59.14-1.22.15-1.86l.1-1.05c.05-.06.05-.12.04-.18-.04-.52-.02-1.1,0-1.62,0-.92-.07-1.79-.08-2.71.01-.64-.1-1.32-.14-1.95-.02-.23-.15-.51-.11-.74.07-.58-.08-1.09-.12-1.67-.12-.8-.18-1.66-.29-2.46-.05-.63-.14-1.2-.3-1.77-.02-.29.02-.52,0-.81.04-.18.15-.36.38-.32.23-.02.52-.04.75,0l.23.04c.46-.09.6.3.91.57.18.16.21.5.23.79.07.23-.02.52,0,.81.09.46.18.85.21,1.31.08.28.04.58.23.85,0,.06,0,.12.01.17l.33,2.17c.09.51.19.97.34,1.48l.02.23c-.09.35-.01.64.07.98.11.74.17,1.55.22,2.29l.03.46c-.04.18-.15.36-.02.58.06,0,.06.05.07.11-.15.36,0,.69-.15,1.05-.05.06-.05.12-.05.12.14.39.11.74.08,1.09-.03.35-.07.7-.04.99l-.07.64q-.06,0-.05.06c.04.52-.1.99-.18,1.51-.02.46-.11.87-.25,1.35-.04.23-.02.52-.12.76-.09.3-.02.58-.05.87,0,.06,0,.12-.04.18-.15.3-.19.59-.22.94-.04.18-.15.3-.25.48l-.15.36c-.03.41-.11.82-.37,1.24,0,0-.05.06-.05.12.03.4-.29.77-.32,1.18l-.1.18c-.33.2-.48.61-.8.87-.11.12-.22.19-.38.32-.11.12-.27.25-.39.26-.4.09-.73.34-1.07.42-.12,0-.22.13-.28.19-.32.37-.59.68-1.11.66-.11,0-.22.13-.4.03h-.06c-.21.25-.45.21-.68.23-.23.02-.46.03-.7-.06-.18-.1-.47-.08-.7-.12-.06-.05-.12,0-.18-.04-.37-.26-.84-.4-1.15-.78,0-.06-.07-.11-.13-.16-.3-.15-.49-.37-.62-.65-.07-.11-.19-.22-.31-.27-.24-.1-.37-.26-.39-.55,0-.11-.02-.23-.08-.28-.26-.44-.41-.89-.67-1.28-.26-.39-.35-.84-.49-1.23-.08-.28-.22-.62-.19-.97,0-.06-.13-.16-.14-.28l-.68-2.26c-.23-.79-.29-1.54-.34-2.34l-.09-1.21Z"/>
  </g>
  <g>
    <path class="cls-1" d="M80.47,225.16c.02.64-.07,1.09.01,1.62l.14.47c.04.29.27.36.55.38.86.11,1.72.17,2.59.17.4.03.8.11,1.2.19l1.55.1c.17,0,.28.08.4.08.17.07.28.13.46.09s.29.02.45.14c.33.25.48.61.57.96.1.29.19.59.12.87-.01.23-.14.34-.31.38-.29.04-.64.13-.93.17l-.57-.09c-.86-.05-1.67-.05-2.53-.16-.63-.04-1.26-.14-1.89-.18-.29-.02-.64.02-.93.06-.12,0-.23.04-.25.21-.08.4-.05.75.34,1.06.11.06.16.24.27.36.17.13.27.25.38.37.21.24.26.42.13.7-.06.11-.07.23-.08.34-.01.17-.13.22-.31.27-.41.03-.69-.1-.96-.41-.22-.25-.44-.38-.66-.56-.11-.12-.16-.18-.27-.25-.27-.36-.59-.67-.8-1.09-.05-.12-.1-.24-.21-.36,0-.12-.04-.23-.09-.35-.2-.47-.31-.54-.84-.46-.35.04-.75,0-1.15-.02-.57-.04-1.15-.07-1.73,0-.06.05-.06,0-.12.05-1.44-.04-2.93-.13-4.37-.22l-1.26-.08c-.4-.03-.86-.11-1.31-.2-.23-.01-.4-.08-.63-.1-.4-.03-.81,0-1.15-.07-.91-.17-1.9-.12-2.81-.24-.4-.03-.8-.17-1.2-.19-.46-.09-.92-.06-1.38-.15-.23-.01-.46-.03-.69-.1-.4-.08-.8-.11-1.2-.19-.28-.08-.63-.1-.91-.17-.51-.09-.98,0-1.5-.1-.29-.02-.51-.09-.8-.11-.12,0-.23.04-.29.1-.36.15-.66.36-.85.7-.19.28-.43.43-.77.35-.23-.02-.39-.2-.5-.38-.11-.12-.16-.24-.33-.31-.17-.12-.33-.25-.25-.54.08-.28.09-.51,0-.81-.05-.12-.04-.35-.03-.52.08-.28.15-.57.17-.86.08-.34.11-.74.13-1.09.08-.34.1-.69.12-1.03v-.11c-.11-.87-.12-1.68-.06-2.54l.12-1.96c.09-.51.12-.97.21-1.49.02-.34.05-.75.13-1.15,0-.11.07-.23.13-.28.26-.45.46-.84.77-1.22.25-.27.6-.42.96-.63.06-.05.17.01.23.07.28.19.55.44.76.68.05.06.05.18.04.29,0,.12-.07.23-.14.34-.06.11-.13.28.03.41.21.36.13.64-.06.98-.06.05-.12.11-.13.22-.09.51-.18,1.03-.22,1.6-.06.05-.07.17-.07.23.14.47.06.93-.03,1.38-.02.29-.03.52,0,.81.04.23.08.52-.05.8-.06.05-.07.11-.07.17.09.35.07.7.11.99,0,.11-.01.17.04.29.11.12.04.29-.03.46-.08.34-.16.68-.18.97-.01.17.31.6.48.61.4.08.73.28,1.14.19.06-.05.17.01.23.01l.4.08c.41-.09.8.11,1.2.19.06,0,.11.06.17.07.46.03.98.06,1.43.15l.34.02c.12,0,.17.07.23.07.86.05,1.67.05,2.47.16.63.1,1.33.03,1.89.24l.05.06c.47-.09.86.11,1.32.03.17.01.34.08.51.09l.92.06c.46.03.86.11,1.32.14.34.08.69.04,1.03.06l.86.05c.63.04,1.27.02,1.9.06l.34.02c.12,0,.29.02.46-.03.29-.04.52-.02.81,0,.29-.04.57.1.81-.06.06-.05.18-.05.23-.04l.92.06c.23.01.52.03.75,0,.29-.04.35-.09.31-.38.03-.4.05-.75.01-1.1l.03-.52c.09-.51.06-.98.04-1.5-.09-.41-.12-.82-.15-1.22-.05-.18-.09-.35-.25-.53l-.37-.49c0-.06-.05-.12-.1-.18-.05-.12-.22-.19-.09-.35.13-.22.21-.51.44-.55.35-.04.64-.08.98,0,.34.08.56.27.72.51l.68,1.08c.15.3.3.65.28,1-.01.23.09.47.07.7l-.07,1.09Z"/>
    <path class="cls-1" d="M87.75,210.36c0-.64.1-1.21.08-1.8.02-.46-.07-.95-.1-1.42.05-.63-.07-1.3.04-1.92.07-.4.15-.85.38-1.16.07-.05.08-.1.09-.16.08-.1.1-.22.16-.26.14-.15.28-.25.41-.34.14-.15.38-.17.6-.07.32.17.38.48.51.79.04.12.02.24.04.42.03.18.06.3.16.44.2.21.21.45.17.73,0,0-.07.05-.08.1.08.54-.13,1.09-.11,1.62.03.47-.06.98-.02,1.46-.02.46.07.95-.13,1.44l-.02.11c.05.36.05.71.11,1.07.12.31.01.59-.15.85-.09.16-.3.36-.55.49-.19.08-.28.24-.37.46-.01.06-.02.11-.1.22-.12.33-.37.46-.7.34-.22-.1-.4-.07-.63-.05-.12.04-.24.02-.29,0-.52-.03-.97-.11-1.49-.2-.61-.17-1.25-.22-1.85-.44h-.41c-.11-.03-.18.01-.3.05-.45-.08-.96-.17-1.48-.2-.28-.05-.58-.04-.86-.09l-1.99-.35c-.39-.07-.78-.2-1.18-.27-.23-.04-.52-.03-.75-.07-.5-.15-.96-.23-1.47-.32l-.11-.02c-.9-.22-1.75-.37-2.65-.58-.28-.05-.51-.09-.78-.2-.23-.04-.39-.12-.61-.17-.45-.08-.91-.16-1.36-.24l-1.56-.45c-.44-.14-.83-.26-1.29-.34-.67-.18-1.39-.42-2.07-.54l-1.13-.2c-.56-.16-1.12-.26-1.68-.41-.17-.03-.34-.06-.51-.09l-1.76-.31c-.06,0-.17-.03-.28-.05l-1.28-.05c-.17-.03-.34-.06-.52-.03l-.17-.03c-.16-.09-.34-.06-.51-.09-.35,0-.69-.06-.97-.11-.06,0-.17-.03-.16-.09-.19-.27-.57-.39-.7-.71-.14-.2-.17-.38-.06-.65.12-.33.12-.68.13-1.09-.04-.42.04-.87.05-1.28l.11-2.61c0-.35.06-.69.07-1.04,0-.06-.05-.07-.04-.12.14-.79.23-1.65.43-2.44.17-.62.5-1.2,1.14-1.5.07-.05.13-.09.25-.07.34.06.68.12.94.34.14.2.34.7.29.99-.11.27-.16.56-.09.86l-.03.17c-.13.39-.09.86-.17,1.31,0,.35-.07.75-.14,1.14l-.04.23c.09.48.11,1.01-.08,1.45l-.03.17c0,.29.02.53-.02.76-.11.27-.1.57-.09.86-.07.4.29.69.53.97.05.07.16.09.27.11.47-.03.93.04,1.38.13.23.04.52.03.75.07.17.03.27.11.44.14.73.13,1.53.27,2.27.4l2.04.36c.51.09,1.06.3,1.62.46.51.09,1.01.23,1.51.38,1.06.3,2.15.43,3.21.68.68.12,1.3.23,1.91.45l.68.12c1.02.18,1.99.35,3.01.53l.17.03c.17.03.25-.07.28-.24.03-.52.07-1.04.09-1.5l.04-2.21c0-.29-.01-.59.03-.81.03-.52.17-.96.48-1.38.2-.14.36-.4.51-.55.21-.2.28-.24.54-.08.06,0,.16.09.27.11.17.03.26.16.3.29.12.31.31.58.26.86-.01.41.05.71.16,1.08.07.25.03.47-.02.76-.02.46-.05.93-.12,1.32.02.24-.02.46-.05.63l.06.3c.06.3.11.72.29,1.04.08.19.1.43.17.67.02.24.17.38.45.43.62.11,1.31.17,1.95.22l1.25.22c.44.14.9.22,1.31.17.17.03.28.05.4.07l1.02.18c.11.02.19-.08.21-.2.03-.17.05-.28.08-.45h.06Z"/>
    <path class="cls-1" d="M90.82,195.74c.06-.64.22-1.2.26-1.78.07-.46.03-.95.04-1.42.12-.62.07-1.3.24-1.91.11-.39.23-.83.49-1.12.07-.04.09-.1.1-.15.09-.1.12-.21.19-.25.16-.14.3-.22.44-.29.16-.14.39-.13.6-.01.3.2.33.51.42.84.02.13,0,.24,0,.42,0,.18.03.31.11.45.17.23.17.47.09.74,0,0-.07.04-.09.1.03.54-.24,1.07-.27,1.6-.01.47-.15.97-.17,1.45-.07.46-.03.95-.28,1.42l-.03.11c.02.36-.02.71,0,1.08.09.32-.04.59-.23.83-.1.15-.33.33-.6.43-.2.06-.3.21-.42.42-.02.06-.03.11-.12.21-.15.32-.42.42-.74.27-.21-.12-.39-.11-.62-.12-.13.02-.24,0-.29-.02-.51-.08-.96-.21-1.46-.35-.59-.23-1.22-.34-1.8-.62l-.4-.05c-.11-.03-.18,0-.31.03-.44-.12-.94-.26-1.46-.35-.28-.08-.57-.1-.85-.18l-1.94-.55c-.39-.11-.76-.27-1.15-.38-.22-.06-.51-.08-.74-.15-.49-.2-.93-.32-1.43-.46l-.11-.03c-.87-.3-1.7-.54-2.58-.84-.28-.08-.5-.14-.76-.27-.22-.06-.37-.17-.59-.23-.44-.12-.89-.25-1.33-.37l-1.51-.6c-.43-.18-.8-.35-1.24-.47-.65-.24-1.34-.56-2-.74l-1.11-.31c-.54-.21-1.09-.37-1.63-.58-.17-.05-.33-.09-.5-.14l-1.72-.48c-.06-.02-.17-.05-.28-.08l-1.27-.18c-.17-.05-.33-.09-.51-.08l-.17-.05c-.15-.1-.33-.09-.5-.14-.35-.04-.68-.13-.96-.21-.06-.01-.17-.05-.15-.1-.16-.28-.53-.45-.62-.77-.12-.21-.13-.4,0-.66.15-.32.19-.67.24-1.07,0-.42.12-.86.18-1.27l.37-2.59c.04-.35.13-.68.17-1.03.02-.05-.04-.07-.02-.13.22-.78.4-1.62.67-2.38.23-.59.62-1.14,1.28-1.38.07-.04.14-.08.25-.05.33.09.67.19.9.43.12.21.27.73.19,1.01-.13.26-.21.54-.18.85l-.05.17c-.17.37-.18.85-.3,1.29-.04.35-.15.74-.25,1.13l-.06.22c.04.49.01,1.02-.22,1.43l-.05.17c-.02.29-.03.53-.09.75-.13.26-.16.56-.18.85-.11.39.22.72.43,1.02.04.07.15.1.26.13.47.01.92.14,1.36.26.23.06.52.08.74.15.17.05.26.13.43.18.72.2,1.49.42,2.21.62l2,.56c.5.14,1.02.41,1.56.62.5.14.98.33,1.47.53,1.02.41,2.09.65,3.13,1,.67.19,1.28.36,1.85.64l.67.19c1,.28,1.94.55,2.94.83l.17.05c.17.05.25-.05.3-.21.08-.51.17-1.03.24-1.49l.26-2.2c.02-.29.04-.59.11-.81.08-.51.26-.94.61-1.32.21-.12.4-.37.56-.5.23-.17.3-.22.55-.03.06.02.15.1.26.13.17.05.25.19.27.32.09.32.25.61.17.89-.05.4-.02.71.05,1.09.05.25-.01.47-.09.75-.07.46-.14.92-.25,1.31,0,.24-.07.46-.12.62l.03.31c.03.31.03.73.18,1.07.06.2.06.44.11.69,0,.24.13.4.41.47.61.17,1.29.3,1.92.42l1.22.34c.43.18.87.3,1.29.3.17.05.28.08.39.11l1,.28c.11.03.2-.06.23-.17.05-.17.08-.28.12-.44l.06.02Z"/>
    <path class="cls-1" d="M92.13,184.13c-.91-.37-1.74-.76-2.6-1.11-.37-.15-.67-.33-.97-.51-.21-.09-.45-.12-.66-.21-.05-.02-.18,0-.27-.11-.17-.19-.41-.23-.62-.31-.16-.06-.35-.2-.57-.29-.66-.21-1.34-.54-1.98-.79-.37-.15-.73-.35-1.05-.48-.21-.09-.45-.12-.66-.2l-.11-.04c-.38-.28-.88-.29-1.31-.59-.41-.23-.86-.34-1.34-.54-.67-.33-1.42-.63-2.07-1.02-.46-.25-.94-.44-1.42-.63-.35-.2-.76-.43-1.13-.58-.03-.08-.08-.1-.14-.12-.48-.19-.91-.36-1.37-.61-.35-.2-.71-.41-1.13-.58-.35-.2-.78-.37-1.13-.58-.27-.11-.51-.27-.78-.38-.27-.11-.56-.16-.82-.27-.32-.13-.57-.29-.87-.47-.25-.16-.57-.29-.83-.4-.41-.22-.83-.4-1.29-.64-.21-.09-.41-.22-.6-.36-.35-.2-.74-.48-1.2-.42-.13.01-.18-.01-.27-.11,0-.13-.09-.22-.13-.3.01-.18-.05-.33-.17-.5-.15-.25-.19-.45-.08-.72.07-.16.11-.27.04-.42.02-.05.01-.18.06-.16.29-.25.47-.55.88-.64.33-.05.56-.15.83-.22.17-.12.3-.13.46-.06.21.09.43.17.63.13l.16.06c.37.46.88.6,1.43.76.37.15.72.23,1.09.38l1.91.95c.16.07.22.21.38.28.35.2.71.41,1.2.42.08-.03.16.06.27.11.16.06.25.16.41.22.33.26.74.48,1.09.69.21.09.35.21.54.34.27.11.59.24.86.34l.16.07c.33.26.63.44,1.07.43.18.01.34.08.51.27,0,0,.05.02.09.1.3.18.6.37.9.55l.32.13c.26-.02.47.07.64.26l.16.06c.49.01.86.34,1.34.54.32.13.6.36.96.39.24.03.43.17.62.31.08.09.27.11.37.15.21.09.37.15.57.29.21.08.41.22.66.2.07-.03.18.01.23.03.32.13.67.33,1,.46l.96.39c.43.17.83.4,1.31.59.16.06.32.13.5.14.39.1.72.22,1.04.35.19.14.43.17.66.21l.37.15c.11.04.21.08.34.07.18.01.34.08.48.19.22.21.42.35.66.51.05.02.11.04.16.07l1.71.69c.27.11.36.02.45-.19.11-.27.16-.56.27-.82.17-.43.24-.9.3-1.37.13-.63.24-1.21.31-1.86.06-.16.02-.36.03-.55-.05-.33-.03-.7.02-.98.04-.42.07-.78.14-1.12-.01-.13.01-.18.09-.21.06-.16.16-.25.15-.37-.03-.07-.01-.13.06-.16.09-.21.23-.41.31-.62q.16-.25.45-.19c.18,0,.36.02.53.21.03.08.14.12.21.09.33-.05.58.11.82.27.27.11.34.38.31.62-.05.29-.11.58-.19.79-.13.32-.18.61-.11.89.12.17.11.35.07.59-.04.11.02.26.03.39.1.22.06.46-.08.65-.06.16-.08.34-.05.6.06.46-.02.98-.11,1.51-.09.21-.1.4-.08.65-.05.29-.16.56-.29.88-.07.03-.12.14-.09.21.05.33-.11.58-.18.92-.11.27-.29.57-.42.89-.15.38-.36.6-.6.88-.12.14-.29.26-.49.3-.45.19-.9.38-1.33.52-.15.06-.28.07-.41.08-.41.08-.79.12-1.19.02-.5-.14-1.05-.17-1.45-.4Z"/>
    <path class="cls-1" d="M94.83,167.51c-.23-.18-.49-.31-.72-.49l-.16-.08c-.49-.18-.88-.44-1.34-.67-.41-.21-.82-.41-1.21-.67-.18-.16-.33-.36-.57-.41-.46-.1-.77-.39-1.16-.52-1.08-.54-2.16-1.08-3.22-1.68-.31-.15-.64-.39-.95-.54-.03-.08-.08-.1-.13-.13-.41-.08-.82-.28-1.13-.57-.18-.16-.41-.21-.59-.36-.36-.31-.75-.44-1.08-.67-.15-.08-.21-.23-.28-.33l-.23-.31c-.26-.13-.31-.41-.36-.7-.05-.15.31-.88.49-.98.15-.05.36-.08.54-.05.21-.03.44.03.7.03.05.03.18.03.21.1.08.23.28.21.44.28.36.18.77.26,1.11.49.33.23.75.31,1.11.49.15.08.26.13.41.21l1.29.64c.05.03.15.08.21.1l.23.05c.31.28.75.31,1.11.49.15.08.28.21.36.31.28.21.62.31.88.44.39.13.75.31,1.06.46.16.08.28.21.39.26.23.18.44.28.69.41.39.26.85.36,1.26.44.23.05.41.08.54.21.18.15.39.26.57.29.23.05.39.13.46.36.05.16.21.23.39.26.08-.03.15.08.26.13.05.03.13.13.26.13.44.15.72.49.93.85.23.31.41.72.1,1.08-.23.33-.52.64-.77.9-.31.23-.72.28-1.08.1-.33-.1-.64-.26-.98-.36ZM76.55,158.73c-.1-.05-.23-.18-.36-.31l-.49-.44c-.13-.13-.15-.21-.26-.39-.13-.39-.26-.77-.28-1.24.03-.05,0-.13.03-.18.21-.41.16-.95.44-1.39.15-.18.28-.31.54-.31.57-.1,1.06-.05,1.52.31.1.05.18.16.21.23l.39.39c.13.26.21.49.36.7l.28.59c.18.28.21.62.1.95-.08.28-.21.54-.34.8-.03.05-.13.13-.21.15-.23.08-.41.18-.62.21-.46.02-.85.15-1.31-.08Z"/>
    <path class="cls-1" d="M103.66,163.94c-.52-.26-1.21-.56-1.88-.91-.52-.26-1.08-.55-1.54-.9-.12-.14-.26-.23-.39-.24-.63-.4-1.28-.67-1.86-1.04-.52-.26-1.08-.55-1.62-.88-.2-.12-.39-.25-.55-.42-.28-.31-.7-.51-1.04-.72-.52-.26-1.08-.55-1.57-.85-.24-.16-.46-.36-.7-.51-.29-.18-.57-.29-.8-.57-.05-.03-.15-.09-.24-.15l-.63-.4c-.15-.09-.24-.16-.42-.2-.18-.04-.37-.17-.52-.26-.49-.31-.93-.58-1.4-.81-.15-.09-.29-.18-.42-.2-.1-.06-.15-.09-.2-.12l-1.66-1.04c-.62-.32-1.17-.74-1.72-1.15s-1.12-.71-1.63-1.09c-.44-.28-.85-.6-1.29-.88-.34-.22-.63-.4-.97-.62l-.44-.28c-.07-.11-.21-.2-.31-.26-.49-.31-1.05-.6-1.54-.9l-.39-.25c-.15-.09-.26-.23-.46-.36-.29-.18-.55-.42-.94-.46-.23-.07-.34-.21-.35-.42-.04-.16-.05-.24-.2-.33-.23-.07-.23-.28-.27-.44l-.03-1.25c-.02-.08.06-.1.09-.15.4.12.7-.03,1.07-.08.26.03.59.03.88,0,.81-.1,1.67-.17,2.55-.16.29-.02.62-.02.93.04.38.04.77.08,1.12.16.21,0,.46.02.72.05.18.04.31.06.51.05.05.03.15.09.18.04.53-.08,1.03.1,1.48.25.53.13,1,.36,1.53.49.66.14,1.29.33,2.01.38.54,0,1.04.18,1.56.23.18.04.3.06.45.15.74.12,1.45.3,2.2.5.23.07.45.15.66.14.51.05.96.2,1.45.3.77.28,1.56.44,2.37.67.31.06.58.16.9.29.27.11.58.16.93.25.27.1.63.19.95.33.53.13,1.06.26,1.61.47.27.11.52.26.85.27l.1.06c.21,0,.37-.04.35-.12.01-.13-.12-.14-.21-.2l-.68-.43s-.12-.14-.2-.12c-.13-.01-.23-.07-.26-.23-.05-.03-.1-.06-.16-.17-.15-.09-.34-.21-.49-.31l-.1-.06c-.26-.03-.39-.25-.6-.45-.05-.03-.12-.14-.21-.2-.23-.07-.34-.21-.5-.39l-.29-.18c-.18-.04-.34-.21-.46-.36-.04-.16-.07-.32-.25-.36l-.02-.08c.18-.29-.13-.22-.28-.31s-.21-.2-.39-.25-.32-.14-.51-.05c-.08.02-.21,0-.22-.07-.08-.19-.21-.2-.34-.21-.13-.01-.15-.09-.24-.16-.34-.21-.65-.48-.92-.71l-.15-.09c-.39-.25-.86-.47-1.25-.72-.13-.01-.19-.12-.29-.18-.3-.39-.74-.67-1.14-.99-.29-.18-.55-.42-.85-.6l-.05-.03c-.46-.36-.94-.66-1.4-1.02-.51-.39-1.07-.68-1.61-1.01-.15-.09-.29-.18-.41-.33-.07-.11-.16-.17-.26-.23-.24-.15-.49-.31-.7-.51-.36-.29-.78-.49-1.17-.74-.15-.09-.26-.23-.46-.36-.36-.3-.83-.52-1.28-.67-.24-.15-.49-.31-.7-.51l-.49-.31c-.44-.28-.74-.67-.92-1.13-.02-.08,0-.21-.04-.37l-.02-.29c-.18-.25-.08-.52,0-.75.04-.17.18-.29.36-.25.31.06.56.08.85.06.16-.04.3.06.43.07.23.07.5.18.73.25l.2.12c.6.45,1.27.8,1.9,1.2.39.24.83.52,1.22.77l.15.09c.36.5.93.79,1.44,1.18.36.29.8.57,1.24.85.36.29.67.56,1.06.8.21.2.38.37.65.48.18.04.37.17.54.34l.91.71c.43.4.91.71,1.37,1.07.39.25.8.57,1.16.87l.15.09c.47.23.8.57,1.24.85.39.25.67.56,1.03.85l.05.03c.42.2.78.49,1.17.74l1.32,1.04c.24.15.46.36.75.54.39.25.83.52,1.27.8l.78.49c.44.28.88.55,1.27.8l2.09,1.32c.29.18.6.45.9.63.19.12.39.25.62.32.29.18.55.42.79.7.07.11.18.25.33.34.15.09.24.15.33.34.09.4.37.71.6.99.18.25.24.49.18.79-.23.81-.63,1.1-1.44,1l-1.39-.06c-.58-.16-1.11-.29-1.63-.55-.19-.12-.37-.17-.55-.21-.24-.15-.52-.26-.81-.44,0,0-.05-.03-.08.02-.66-.14-1.15-.45-1.74-.69-.37-.17-.74-.33-1.13-.37-.64-.06-1.24-.31-1.79-.51-.35-.09-.66-.14-.98-.28-.08.02-.13-.01-.18-.04-.62-.32-1.3-.41-1.93-.61-.38-.04-.79-.16-1.16-.32-.1-.06-.15-.09-.22-.07-.48-.1-.85-.27-1.34-.37-.56-.08-1.04-.18-1.57-.31-.27-.11-.58-.16-.84-.19-.77-.08-1.49-.33-2.17-.55-.4-.12-.79-.16-1.19-.27-.62.02-1.17-.19-1.75-.15-.54,0-1.04-.18-1.49-.33-.55-.21-1.08-.34-1.58-.52-.05-.03-.1-.06-.18-.04-.56-.08-1.15-.11-1.67-.17-.13-.01-.29.02-.37.04-.13-.01-.24.05-.22.13.02.08.09.19.13.22.58.37,1.22.77,1.77,1.19l.46.36c.41.33.8.57,1.19.82.21.2.41.32.65.48.29.19.62.32.85.6l.24.15c.82.31,1.52.82,2.28,1.23.28.1.52.26.76.41l2.19,1.38c1.17.74,2.34,1.47,3.51,2.21l1.61,1.01c.73.46,1.49.87,2.21,1.25.44.28.86.47,1.3.75.34.21.65.48,1.05.6l.05.03c.31.26.71.38,1.08.55.71.38,1.47.79,2.23,1q.35.09.35.42c-.06.3-.03.59-.04.93.04.16,0,.34,0,.54-.07.43-.32.62-.74.63-.59-.03-1.11-.29-1.71-.74Z"/>
    <path class="cls-1" d="M104.54,141.07c-.21-.11-.43-.29-.61-.44l-.92-.78c-.18-.15-.31-.34-.53-.53-.13-.11-.23-.27-.4-.42-.32-.42-.68-.8-1.04-1.26l-.41-.5c-.27-.3-.5-.65-.74-1l-.64-.76c-.18-.23-.33-.5-.51-.73l-.72-1.29c-.25-.51-.49-1.02-.78-1.49-.11-.32-.3-.63-.41-.95-.19-.31-.3-.63-.41-.95-.09-.15-.11-.32-.16-.44-.33-.58-.43-1.27-.53-1.96,0-.08.03-.12-.01-.16-.15-.36-.14-.72-.13-1.09-.05-.57-.05-1.1-.05-1.63,0-.37-.02-.69.12-1.03.03-.13.06-.25.05-.41.03-.57.19-1.12.43-1.67.07-.17.09-.37.15-.62.09-.38.31-.72.48-1.1.29-.43.62-.91.99-1.35.22-.26.53-.54.84-.72.27-.14.5-.33.83-.27l.28-.06c.35-.15.65-.05.96.21.09.08.14.19.22.19.38.09.45.45.51.74.04.04-.02.21-.06.25-.11.13-.23.18-.43.24l-.44.16c-.32.11-.59.25-.73.51-.11.13-.22.26-.42.32-.04-.04-.12.05-.16.09-.1.21-.29.43-.31.64-.05.33-.19.67-.32,1.01-.1.29-.19.67-.12,1.03.06.2.04.49-.06.7-.07.09-.1.21-.05.33.07.36.06.73.05,1.1-.07.17,0,.37,0,.53.02.24.08.52.14.72v.45c.11.32.21.55.15.89.04.04,0,.08.05.12.23.35.27.76.38,1.15.06.28.17.6.35.83.33.59.55,1.22.84,1.77.11.32.3.63.49.94.2.39.43.74.67,1.17.2.39.47.7.74,1,.37.46.73.92,1.13,1.34l1.4,1.64c.29.1.37.46.59.65.26.14.44.37.66.56.75.63,1.41,1.27,2.3,1.65.38.17.65.4,1.03.57l.59.28c.25.06.51.2.77.34.17.07.42.13.66.11.08,0,.24-.02.37,0s.33-.03.49-.04c.52-.17.73-.59.97-1.06.07-.09.14-.26.21-.43.14-.26.16-.54.13-.87-.06-.2-.03-.41-.05-.57l-.14-1.17c-.04-.49-.16-.89-.31-1.32-.2-.39-.24-.88-.36-1.36-.02-.24-.08-.52-.15-.8.03-.13-.02-.25-.07-.36l-1.01-1.84c-.2-.39-.47-.78-.74-1.08-.18-.23-.37-.46-.55-.77l-.48-.86c-.28-.38-.55-.77-.87-1.11-.28-.47-.64-.85-.97-1.35-.33-.59-.75-1.16-1.28-1.61-.62-.52-1.19-1-1.83-1.4l-.56-.32c-.22-.19-.43-.29-.73-.39-.39-.25-.77-.43-1.2-.64-.3-.18-.41-.5-.36-.83.03-.12.02-.29,0-.37.01-.37.2-.59.48-.65.2-.06.49-.04.69-.02.38.09.72.31,1.06.44.42.13.8.3,1.25.3.16-.01.29.02.38.17.05.12.22.19.34.22.21.1.39.25.61.44.18.15.35.3.56.4.38.17.65.48,1,.69.39.25.79.59,1.17.84.4.33.71.68,1.11,1.01l.04.04c.43.21.7.59,1.01.85.31.26.53.53.8.75l.44.37c.31.26.58.56.89.82l.48.33c.4.42.84.79,1.2,1.17.58.57,1.11,1.09,1.73,1.61.32.34.55.69.9.99.26.22.45.53.8.75.13.11.19.31.37.46.15.27.37.54.64.76.31.34.51.73.79,1.12.15.27.33.5.43.74.24.43.48.86.76,1.24.23.35.35.75.58,1.1.24.43.4.87.4,1.32.02.24.12.48.26.67.06.2.12.4.13.56l.16.89c.17.6-.07,1.15-.18,1.73-.05.41-.22.79-.35,1.21,0,.08-.02.21-.02.29l-.13.42c-.03.12-.1.21-.1.29-.03.12-.07.17-.14.26-.25.39-.59.79-.97,1.14-.11.13-.18.3-.29.43-.15.18-.3.35-.37.52l-.33.4c-.07.17-.14.26-.27.15-.3-.18-.58-.11-.91-.09-.41.03-.89.08-1.34.07-.45,0-.83-.18-1.21-.35-.26-.14-.55-.24-.81-.38-.09-.07-.17-.07-.26-.14-.22-.19-.44-.37-.38-.7.03-.13-.01-.16-.02-.24-.06-.28.04-.49.31-.64.36-.15.8-.23,1.22-.02.09.07.17.07.21.1.43.21.79.22,1.27.02.36-.07.69-.1,1.04-.33l.19-.22c.29-.43.58-.87.87-1.38.07-.09.1-.21.13-.34.02-.21.13-.42.15-.63,0-.53.08-.99,0-1.43-.01-.16-.03-.33,0-.45-.03-.32-.05-.65-.24-.96-.2-.47-.33-.95-.48-1.39-.05-.12-.1-.24-.11-.32-.24-.43-.52-.82-.72-1.29-.29-.47-.65-.92-1.02-1.39-.36-.38-.64-.76-.96-1.19-.32-.42-.56-.85-.96-1.19-.4-.42-.69-.88-1.16-1.21-.12-.03-.18-.15-.26-.22-.04-.04-.09-.07-.17-.07-.04.04-.03.12-.07.17.01.16.03.41.13.56.11.32.22.63.37.99.08.44.27.84.47,1.23.05.12.11.32.12.48,0,.37.02.69.21,1,.18.23.21.55.19.84-.03.12.03.32.04.49l.02.24c-.02.29.05.57.15.81.14.64.18,1.21-.26,1.74-.07.09-.11.13-.1.21-.11.21-.22.34-.37.52-.08.09-.1.21-.13.34-.04.04-.03.13-.08.09-.32.11-.37.52-.64.67-.23.18-.42.4-.65.58-.19.14-.34.31-.63.3-.21-.02-.49.04-.69.1-.12.05-.19.14-.35.23-.31.19-.71.3-1.08.29-.32.03-.57-.03-.83-.09-.25-.06-.41-.05-.62-.07-.21-.02-.46-.08-.63-.15-.29-.1-.55-.24-.81-.38l-.38-.09c-.51-.28-1.07-.52-1.62-.76-.56-.32-1.08-.77-1.64-1.09-.04-.04-.09-.07-.13-.11l.04-.04Z"/>
    <path class="cls-1" d="M145.06,116.73c-.53-.89-1.04-1.66-1.51-2.45-.16-.24-.32-.48-.51-.77l-.32-.48c-.06-.09-.18-.16-.19-.29-.26-.59-.64-1.16-1.03-1.74-.34-.61-.74-1.1-1-1.69l-.13-.19c-.1-.14-.19-.29-.32-.48l-.32-.48c-.21-.42-.51-.76-.72-1.18-.39-.57-.72-1.18-1.09-1.83-.18-.37-.48-.72-.74-1.1-.26-.38-.48-.72-.8-.99-.21-.21-.32-.48-.48-.72-.43-.54-.82-1.12-1.16-1.72l-.84-1.24c-.59-.78-1.13-1.67-1.75-2.5-.48-.72-.95-1.51-1.48-2.2-.45-.67-.9-1.34-1.4-1.97-.1-.14-.19-.29-.34-.4-.35-.32-.54-.4-.93-.14-.14.1-.25.24-.4.34-.4.13-.67.45-.92.69-.45.37-.89.74-1.37,1.06l-1.34.9c-.29.19-.67.24-1.05.29,0,0-.08-.02-.13.02-.58-.03-.75-.19-.8-.78-.02-.13.01-.29.05-.45l.17-.67c-.02-.13.05-.24.16-.38.37-.39.84-.71,1.29-1.08.24-.16.4-.34.61-.54l.57-.39c.49-.4.91-.82,1.35-1.19l.1-.06c.57-.39,1.07-.79,1.64-1.17.05-.03.1-.06.11-.14.19-.34.51-.48.75-.64.24-.16.49-.4.73-.56.56-.31,1.05-.71,1.62-1.09.46-.24.86-.58,1.29-.87.29-.19.6-.34.89-.53.13-.02.18-.05.3-.07l.67-.24c.22-.08.3-.07.48.09l.18.16c.32.27.56.52.48.92-.03.16-.05.24-.03.37.02.33-.12.64-.41.83-.32.35-.75.64-1.21.88-.51.27-1,.68-1.48,1l-.38.26c-.32.14-.57.38-.84.71-.11.14-.19.34-.06.53.03.05.06.09.05.17-.02.29.11.48.27.72.58.65,1.09,1.42,1.72,2.04l.13.19c.32.69.79,1.27,1.29,1.91.21.21.35.53.55.81.13.19.29.43.45.67l.68,1c.71.84,1.19,1.77,1.8,2.68.27.3.5.64.74.89.22.33.45.67.72.97.13.19.23.33.4.49l.06.1c-.01.29.13.4.31.56l.03.05c.24.46.48.92.72,1.38l.13.19c.42.41.64.96.96,1.43.26.38.47.8.72,1.18.11.27.27.51.39.78.1.14.18.37.37.45l.06.09c.14.32.32.69.52.97.11.27.27.51.47.8.23.33.36.73.63,1.04.21.21.34.4.5.64l.18.37c.16.24.29.43.47.59.24.25.48.51.58.86l.08.22c.21.21.37.45.53.68.27.3.42.62.69.92.3.35.48.72.79,1.07.1.14.11.27.08.43-.11.56-.25,1.07-.84,1.33-.24.16-.49.19-.72.07-.22-.13-.48-.3-.71-.43l-.71-.64c-.46-.38-.82-.91-1.03-1.32Z"/>
    <path class="cls-1" d="M158.54,89.18c.18.36.39.64.55.95l.71,1.38s-.03.08.05.1c.39.51.55,1.21.84,1.77.18.36.21.8.4,1.16-.02.33.16.56.29.82.1.21.16.44.21.67-.02.33.08.67.19,1,.16.57.29,1.21.3,1.85-.02.21,0,.39.03.57-.05.41-.07.75-.14,1.11,0,.13-.08.23-.1.31-.13.13-.18.28-.2.49.03.18-.07.36-.2.49-.23.31-.48.7-.82.93-.23.18-.46.37-.61.57-.18.16-.33.36-.46.62-.05.03-.08.1-.1.18-.15.21-.28.21-.51.13-.08-.02-.18-.1-.31-.1-.1-.08-.28-.05-.39,0-.28.08-.54.08-.8.08-.13,0-.26.13-.39,0,0,0-.13,0-.15.08-.13.13-.26.13-.38.13-.28-.05-.59-.02-.85-.15-.13,0-.26,0-.41-.05,0,0-.05.03-.13,0-.93-.17-1.78-.45-2.38-1.24l-.44-.49c-.34-.41-.73-.79-1.04-1.15l-.13-.26c-.13-.13-.21-.28-.34-.41-.05-.1-.11-.21-.24-.33-.21-.41-.47-.79-.76-1.23l-.37-.72c-.29-.69-.6-1.44-.84-2.16-.26-.77-.45-1.51-.64-2.26-.16-.44-.26-.9-.37-1.36-.08-.41-.19-.75-.19-1.13-.03-.57-.14-1.16-.2-1.78-.03-.31.02-.72.04-1.06,0-.13.02-.21.05-.28-.11-.85.22-1.6.37-2.45.02-.34.2-.62.43-.93.18-.29.36-.57.38-.91.02-.21.15-.34.3-.54.13-.13.26-.13.36-.05l.16.05c.26.38.7.23,1.03.25l.62.07c.57.1,1.19.17,1.75.4.46.15.98.27,1.45.55.18.1.39.25.6.41.21.15.42.31.67.43.36.2.57.48.83.74.16.18.34.28.49.46.31.36.68.69.99,1.05.34.41.65.77.81,1.2ZM156.51,89.38c-.16-.18-.21-.41-.37-.59-.42-.43-.88-.84-1.27-1.22-.18-.23-.37-.46-.62-.59-.57-.36-1.24-.53-1.89-.78-.39-.13-.72.11-.87.45-.08.23-.23.44-.41.6-.38.39-.61.83-.66,1.37,0,.13-.05.29-.07.36-.26.26-.25.52-.17.8.11.72.12,1.49.23,2.21.03.69.24,1.36.33,2.03.13.64.4,1.16.58,1.77.16.57.42,1.08.5,1.62l.08.15c.1.21.34.41.29.69-.05.03.05.1.08.15.29.56.58,1.13.92,1.67.39.64.76,1.23,1.23,1.77.16.18.26.26.49.33.18.1.39.13.65.12.8.04,1.52-.32,2.18-.66.31-.16.59-.37.79-.6.41-.34.69-.68.81-1.19.12-.39.17-.8.35-1.21.1-.31.1-.7.04-1.06l-.35-1.7c-.11-.33-.21-.67-.29-1.08-.05-.23-.24-.46-.32-.75-.18-.36-.32-.74-.45-1.13-.18-.49-.34-1.05-.71-1.51-.26-.38-.47-.79-.58-1.26l-.05-.1c-.26-.13-.34-.41-.47-.67Z"/>
    <path class="cls-1" d="M161.9,70.77c.4-.08.72-.21,1.07-.27.34-.07.65-.06.96-.05l1.25-.09c.49,0,.98-.18,1.46-.05.13.01.24-.03.34-.07.6-.04,1.2-.08,1.79.01.26.03.55-.02.8.01.18,0,.28.08.48.13.28.08.47-.05.53-.38l.08-.77.21-.94c-.02-.05.03-.07.01-.13-.06-.65-.06-1.33-.52-1.9-.25-.34-.35-.79-.39-1.21-.06-.16-.03-.24.14-.3l.32-.12c.2-.13.34-.07.49,0,.3.13.54.29.81.37.15.07.19.18.25.34.11.14.17.3.29.45.1.27.22.59.37.84.12.32.26.7.22,1.09,0,.18.12.32.11.45.07.53.07,1.02-.04,1.55-.04.38-.08.77-.13,1.15l.06.16c.17.3.33.55.61.82.38.35.72.78,1.09,1.13.33.24.62.51.81.87.27.39.61.82.93,1.19.19.18.34.43.5.68.21.41.45.88.61,1.31.41.95.79,1.98,1.15,2.95.1.27.09.58.19.85.02.05-.01.13,0,.18.2.54.29,1.12.38,1.7,0,.18.03.42.2.54l.04.11c0,.49.23.96.26,1.38.02.73.23,1.45.2,2.2.01.36.08.71.14,1.05l.02.55c0,.49-.06,1-.03,1.42,0,.67-.07,1.31-.12,2.01.01.37-.08.77-.18,1.17l-.12.84c-.07.15-.06.33-.13.48,0,0-.05.02-.04.08l-.66,1.71c-.2.44-.28.9-.56,1.31-.16.24-.18.5-.34.74-.05.2-.12.35-.24.52-.2.44-.48.85-.71,1.24-.22.39-.42.71-.6,1.02l-1.04,1.67c-.07.15-.21.26-.35.37-.09.09-.2.13-.28.23-.07.15-.14.29-.15.42,0,.18.03.42.06.66l.02.05c.05.47-.12.66-.56.64-.26-.03-.49,0-.7-.23-.02-.05-.15-.07-.2-.05-.4-.1-.77-.27-1.06-.53-.43-.33-.68-.67-.86-1.16-.1-.27-.25-.52-.41-.77l-.9-1.94c-.47-.93-.86-1.83-1.27-2.78-.12-.32-.31-.68-.45-1.06-.09-.4-.3-.81-.49-1.17-.12-.32-.27-.57-.39-.9-.16-.43-.45-.88-.55-1.33-.06-.16-.17-.3-.23-.47-.1-.27-.2-.54-.3-.81l-.82-2.21c-.18-.49-.31-.99-.48-1.48-.18-.49-.29-.94-.45-1.37-.11-.45-.27-.88-.37-1.34-.2-.54-.35-1.1-.54-1.64l-.48-1.3c-.27-.88-.48-1.79-.74-2.67-.13-.51-.29-.94-.46-1.42l-.34-.92c-.08-.22-.17-.3-.36-.3-.49,0-.83-.25-1.24-.53-.26-.21-.52-.42-.81-.68-.09-.09-.19-.18-.23-.29-.12-.32-.29-.63-.3-.99-.04-.11-.03-.24.06-.33l.05-.2c.19-.31.27-.59.21-.93-.04-.11-.03-.24.12-.35.14-.11.34-.25.48-.36l.53-.56c.21-.26.42-.52.78-.72l1.13-.6ZM174.93,77.93c-.26-.7-.45-1.37-.79-1.98-.37-.66-.63-1.36-1.22-1.82-.34-.24-.62-.51-.93-.7-.17-.12-.28-.08-.42.03-.16.24-.31.48-.54.69-.03.07-.1.22-.16.24-.41.4-.81.79-1.24,1.13-.05.02-.09.09-.14.11-.26-.03-.43.16-.63.29-.8.48-1.7.88-2.56,1.38-.2.13-.43.16-.63.29-.05.02-.09.09-.07.15.08.22.09.4.2.54l.5,1.35c.07.35.19.67.2,1.03l.06.16c.15.07.15.25.16.43.08.22.09.4.17.61l.28.76c.1.27.18.49.23.78.09.4.28.76.39,1.21l.32.87c.06.16.14.38.15.56,0,.18.04.29.16.43.1.27.25.52.3.81.18.49.29.94.39,1.39.04.11.06.16.08.22l.4,1.08c.24.65.3,1.3.65,1.91.16.43.23.96.5,1.35l.03.24c.04.11.03.24.07.34.32.86.64,1.73,1.01,2.57.4,1.08.85,2.14,1.31,3.2l.08.22c.04.11.17.12.2.05.1-.22.22-.39.35-.56.19-.32.36-.69.55-1l.17-.37c.07-.15.12-.35.24-.52.17-.37.34-.74.44-1.14l.24-.34c.14-.29.27-.59.28-.9.01-.13.1-.22.12-.35.21-.75.5-1.47.66-2.21.18-.68.2-1.3.32-1.96-.03-.24.02-.44.02-.62-.06-.65.03-1.24.05-1.86,0-.49-.03-.91-.06-1.33,0-.31-.07-.53-.04-.78.03-.26.02-.44-.06-.65-.04-.6-.11-1.13-.18-1.65-.09-.58-.2-1.21-.4-1.75l-.23-.96c-.13-.51-.36-.97-.36-1.47-.02-.05-.04-.11-.04-.11l-.52-1.41ZM165.45,75.54c.24-.03.54-.2.82-.43.03-.07.14-.11.18-.19.49-.18.84-.56,1.25-.77l.74-.64c.18-.19.37-.32.5-.49.21-.26.12-.35-.14-.38-.33-.06-.69-.05-1.02.07l-.27.1c-.47.05-.96.05-1.41.34l-.16.06c-.6.04-1.1.34-1.58.71-.18.19-.3.36-.22.57.14.38.28.76.47,1.12.08.22.13.2.35.12l.49-.18Z"/>
    <path class="cls-1" d="M197.19,96.11c-.04-.17-.09-.39-.05-.7.02-.42-.02-.82-.01-1.3l-.04-1.65c-.03-.35-.05-.7-.13-1.04,0-.24-.05-.46-.1-.69-.01-.06-.03-.11.02-.18-.04-.17-.01-.29-.05-.46-.11-.69-.2-1.31-.24-2.01.02-.18-.23-.48-.47-.48-.24,0-.53,0-.73.17-.22.05-.43.16-.63.09-.07-.04-.18-.01-.24,0-.27.12-.55.19-.88.27-.28.07-.62.15-.91.16-.11.03-.21.11-.31.19-.14.15-.41.28-.62.39-.28.07-.5.12-.77.24-.27.12-.59.26-.84.44-.17.04-.27.12-.37.21-.15.1-.24.23-.2.4.15.38.2.84.39,1.15.07.04.08.1.1.16.08.57.32,1.11.5,1.6l.03.11c.09.63.39,1.15.65,1.74.09.39.23.71.38,1.09l.34.69c.07.04.14.08.15.14.11.45.31.81.36,1.27.07.28-.06.49-.18.75-.06.01-.1.08-.15.1-.24,0-.47,0-.63-.15-.1-.16-.28-.17-.46-.19-.59.02-1.02-.29-1.32-.81l-.03-.11c.02-.18-.08-.34-.16-.43-.15-.14-.26-.35-.41-.49-.08-.1-.11-.21-.19-.31-.15-.14-.21-.37-.25-.53-.12-.27-.3-.52-.41-.73-.04-.17-.14-.32-.16-.43-.24-.77-.53-1.47-.86-2.1-.01-.06-.07-.04-.08-.1,0-.53-.41-.97-.54-1.53l-.54-1.53c-.1-.15-.3-.28-.23-.48-.25-.53-.32-1.11-.46-1.67l-.99-4.15c-.13-.56-.15-1.15-.29-1.71.03-.12-.05-.22-.01-.29-.11-.45-.14-.85-.2-1.31-.09-.39-.15-.85-.18-1.26-.08-.34-.09-.63-.12-.98-.03-.11,0-.24-.02-.35l-.13-1.27c-.1-.69-.28-1.42-.34-2.17-.02-.35-.08-.81.01-1.19.03-.36.06-.73.09-1.09l.17-2.29c.03-.36.13-.68.16-1.04-.02-.59.19-1.17.3-1.73l.04-.31c.06-.25.12-.5.23-.77.04-.07.09-.14.12-.26.04-.31.27-.6.43-.93.1-.08.13-.21.2-.4.09-.38.34-.56.73-.41.18.01.29-.01.43-.16.23-.29.59-.26.9-.21s.54.05.84.04c.35-.02.64-.04.92.13.07.04.14.09.2.07.32.1.64.2.88.44.17.2.44.37.69.43.21.13.4.2.51.41.03.11.1.16.17.2.44.37.89.74,1.23,1.19.17.2.34.45.46.66v.06c.4.38.59.93.82,1.41.07.04.1.15.12.27.01.29.2.6.33.87.19.55.53,1,.84,1.52.12.27.23.48.3.76.09.39.23.72.37,1.04l.12.5c0,.24.04.41.09.63.22.42.33.87.42,1.26.01.29.18.49.24.77.12.27.15.62.21.9.03.11.07.28.15.38.14.32.2.6.27.88.07.04.03.11.04.17-.02.42.12.74.21,1.13.05.22.16.44.04.64l.03.11c.15.38.23.71.25,1.06,0,.47.2.84.24,1.25.09.39.23.71.32,1.11.01.06-.01.18.01.29,0,0-.04.07-.03.12.28.41.1.92.25,1.3.03.11,0,.24.02.35-.11.8.03,1.59.16,2.39.02.35.23.71.25,1.07.09.39.12.74.14,1.09.09.87.05,1.7.08,2.58v.06c.14.27.09.57.1.87.07.28.02.59.03.88,0,.24,0,.48,0,.71l-.04,1.31c0,.24.04.41.02.59.05.46-.29.78-.73.65l-.64-.2c-.14-.08-.28-.17-.3-.28-.12-.27-.36-.51-.38-.86l-.04-.17ZM193.26,72.23h.06s-.09-.41-.09-.41c-.07-.28-.12-.5-.29-.7-.07-.04-.08-.1-.1-.16-.26-.59-.52-1.18-.83-1.75-.12-.27-.25-.53-.38-.86l-.38-.86c-.01-.06-.03-.11-.1-.16-.19-.31-.43-.55-.68-.85-.12-.27-.33-.39-.5-.59-.15-.14-.35-.21-.58-.22-.25-.06-.56-.1-.85-.09-.66-.02-1.08.2-1.21.88-.09.38-.11.79-.26,1.13-.17.51-.28,1.07-.34,1.56-.22.82-.2,1.65-.12,2.46.04.41,0,.77.03,1.12-.02.42-.04.84-.11,1.27-.11.79.03,1.59.21,2.38.13.56.15,1.15.34,1.69.15.62.11,1.22.19,1.79.11.45.09.87.2,1.31l.05.22c-.1.32.02.59.05.94l.09.39c.08.34.09.63.21.9.03.11.1.16.05.23-.04.31.04.64.16.91.08.1.04.17.07.28.11.45.14.85.41,1.21.08.1.07.28.09.39q.05.22.29.23c.11-.03.22-.05.32-.14.46-.29.89-.51,1.47-.53l.11-.03c.27-.12.55-.19.77-.24.28-.07.53-.25.81-.31l1.29-.31c.34-.08.66.02.95-.23h.06c.35-.04.69-.12.98-.13.22-.05.32-.14.26-.42l-.05-.22c-.05-.94-.26-1.83-.47-2.73-.08-.34-.12-.74-.2-1.08-.06-.52-.18-1.02-.24-1.48-.08-.34-.16-.67-.19-1.02l-.09-.39c-.16-.67-.32-1.34-.43-2.03-.03-.11-.01-.29-.09-.39-.13-.56-.38-1.09-.5-1.6-.11-.45-.27-.88-.45-1.38Z"/>
    <path class="cls-1" d="M210.96,93.68c-.05-.46-.11-.92-.11-1.44-.03-.23.06-.47.03-.76-.07-.11-.09-.28-.1-.39,0-.06-.08-.17-.03-.23-.04-.34-.07-.63-.06-.98-.02-.17-.04-.34,0-.52.05-.06.04-.18.02-.29-.05-.4.08-.76-.08-1.15.2-.31-.08-.69,0-.99.07-.36.03-.7,0-1.04q0-.06.04-.12c.12-.42.01-.87-.04-1.27-.07-1.09-.19-2.12-.26-3.16-.05-.46-.27-.84-.43-1.22-.08-.17-.26-.26-.45-.35-.25-.2-.57-.4-.72-.73v-.06c-.31-.14-.46-.41-.66-.62l-.4-.42c-.07-.11-.14-.21-.21-.32l-.13-.16c-.39-.36-.67-.79-.85-1.29-.15-.33-.25-.67-.41-1-.14-.21-.33-.37-.47-.58-.28-.37-.56-.8-.73-1.25-.23-.5-.41-1-.7-1.48-.16-.33-.31-.66-.42-1.05-.03-.23-.22-.38-.3-.6-.23-.44-.45-.87-.57-1.38-.1-.34-.31-.66-.47-.99-.14-.21-.23-.44-.37-.65-.15-.27-.3-.6-.5-.81-.21-.27-.24-.55-.39-.82-.08-.17-.09-.28-.16-.39-.08-.22-.16-.39-.18-.56-.09-.28-.36-.59-.34-.95,0-.06-.13-.1-.14-.22-.21-.26-.31-.66-.35-1-.03-.23,0-.41.1-.59.15-.19.32-.27.47-.4.39-.16.74-.14,1.1-.01.66.16,1,.63,1.19,1.19.25.67.51,1.39.82,2.05.16.33.36.59.52.92l.23.44c.23.44.51.87.73,1.3.23.49.34.95.58,1.44.17.44.39.88.62,1.32.3.54.6,1.15.79,1.76.03.29.17.5.32.77s.35.54.5.81c.21.32.37.65.52.98.3.6.66,1.14,1.07,1.67.07.11.08.22.16.33.17.44.44.82.83,1.12.19.15.31.14.34-.1.13-.36.39-.63.52-.99,0-.06.04-.12.09-.19.05-.06.1-.13.09-.18.05-.59.28-1.08.39-1.61.07-.36.21-.72.28-1.08l.11-.54c.02-.35.04-.64.18-.95.12-.42.13-.89.25-1.31.13-.36.13-.83.2-1.24l.43-2.25q.05-.06.04-.12c-.01-.58.16-1.12.27-1.66.09-.19.07-.41.05-.58l.08-.82c.06-.47.12-.94.12-1.41l.04-1.11c0-.46.18-.89.42-1.33.04-.12.15-.19.26-.21.34-.04.64-.02.93,0l.25.15c.21.26.52.46.67.73.24.55.47,1.04.31,1.64-.08.3-.04.64-.06.94,0,.46-.07.88-.08,1.29-.05.58-.04,1.11-.09,1.69l-.17,1.01c-.12.48-.29.96-.41,1.44-.07.36-.08.76-.09,1.17-.08.3-.05.59-.25.84l-.05.06c.16.39-.08.76-.16,1.12-.04.18-.07.36-.17.48-.05.06-.04.12-.04.18l.06.51c-.11.54-.11,1.06-.34,1.55.05.4-.27.67-.29,1.02-.03.24-.12.48-.15.71.02.64-.27,1.19-.54,1.8-.09.18-.19.37-.22.55-.09.19-.2.31-.35.45-.1.13-.14.31-.24.43l-.35.45c-.05.06-.09.18-.09.24,0,.06.02.17.09.28.26.72.24,1.54.28,2.34-.03.24,0,.52.03.75.05.4.09.74.13,1.09v.12c-.12.36.04.69-.04,1.05.01.11.03.23-.02.29-.04.18-.07.41.02.64,0,.06.03.23-.02.29-.09.24,0,.52.03.75v.99c.02.64.09,1.26.11,1.9,0,.46,0,.99.05,1.44-.03.24,0,.46.08.69.09.28.07.57-.01.87l.03.23c.21.27.23.44.15.74-.05.06-.04.12-.04.18l.23.49s0,.06-.05.06c-.22.14-.3.44-.5.64,0,0-.05.06-.11.07-.24-.09-.34.04-.44.23-.11.07-.17.08-.24-.03-.13-.1-.26-.26-.18-.5,0-.06-.02-.17-.14-.21-.06-.05-.12-.04-.23.03-.11.07-.17.02-.19-.09q-.08-.22-.24-.09c-.06,0-.11.07-.21.14,0,0-.06,0-.06-.05,0,0,0-.06-.01-.12.34-.1.3-.38.33-.62.06,0,0-.06-.01-.12,0,.06-.05.07-.11.07l-.05.06c-.04.12-.08.3-.2.26-.06-.05-.14-.22-.15-.27-.05-.46-.1-.86-.15-1.26ZM212.87,96.07c.05-.06.1-.13.09-.18.06,0,0-.06-.07-.11l-.15.19c.06,0,.06.05.13.1Z"/>
    <path class="cls-1" d="M228.8,92.98c-.06.23-.11.46-.34.63-.17.06-.29.23-.52.23-.17,0-.29.17-.46.29-.35.35-.81.41-1.27.18-.4-.11-.58-.52-.81-.75-.17-.17-.12-.46-.06-.69.12-.23.23-.4.29-.64.06-.29.29-.4.52-.46.23-.06.52-.17.69-.23.29-.17.58-.17.86-.06.12.06.29.11.4.11.35,0,.46.12.46.46.06.23.06.4.17.58,0,.12,0,.23.06.35ZM228.92,60.49h-.35c-.52,0-.86.23-1.04.75-.12.29-.23.46-.52.63-.52.23-.69.75-.69,1.33l.06.23c.11.17.12.4,0,.58-.17.29-.11.63-.23.98,0,.11.06.23.17.29.35.23.46.52.46.86,0,.29.06.58,0,.86-.06.29-.29.58-.63.63-.17,0-.29.06-.46.06-.23.06-.46.12-.69-.06,0-.06-.06-.06-.12-.06-.63-.06-.87-.52-1.1-.98-.17-.23-.29-.4-.4-.63-.12-.23-.17-.46-.23-.69,0-.23-.06-.46-.06-.63v-.69c.06-.17.06-.34.06-.52.11-.52.17-.98.46-1.38,0-.06.06-.06.06-.12.17-.58.57-.98.98-1.38l.06-.06c.17-.23.29-.52.52-.69.23-.23.52-.4.69-.64.17-.23.4-.4.63-.52.23-.17.52-.35.81-.52.4-.17.86-.29,1.32-.35h.23c.63-.17,1.27-.06,1.9,0,.63.11,1.21.29,1.73.63l.29.17c.63.23,1.15.63,1.61,1.09.06.06.12.12.17.23.35.4.75.75.98,1.15.29.52.58.98.69,1.55l.35.98c.06.06.12.11.12.17l.17,1.04c.06.17.12.34.12.58,0,.35.12.69,0,1.09-.06.12-.06.29,0,.4.06.29,0,.58,0,.87,0,.4-.06.75-.34,1.09-.06.06-.12.17-.12.29,0,.23-.06.4-.17.58q-.06.06-.06.12c-.06.52-.52.81-.57,1.33l-.17.17c-.23.23-.29.46-.34.75-.06.11-.12.29-.23.4,0,.11-.06.17-.11.23-.23.4-.4.75-.57,1.15l-.17.12c-.23.29-.4.58-.63.92l-.57,1.04c-.17.29-.34.58-.57.87l-.23.23c-.23.12-.35.29-.46.46-.17.23-.34.46-.46.69-.06,0-.12.06-.12.12-.06.35-.34.58-.52.87,0,.12-.12.17-.17.23,0,.06-.12.12-.12.17,0,.17-.17.35-.34.46-.23.17-.34.46-.46.75-.17.35-.34.69-.57,1.04-.17.35-.34.69-.34,1.1-.06.17-.06.29-.17.46-.23.17-.29.46-.29.75l-.06.4c-.12.35-.11.69-.06.98.12.52.17.98.41,1.38.06.06.06.17.12.23.12.06.12.23.12.34v.29c.12.29.06.58-.05.86-.12.23-.34.46-.69.46h-.17c-.4.29-.69,0-.98-.17-.4-.29-.69-.63-.92-1.09-.12-.4-.29-.81-.35-1.21-.17-.75-.18-1.5,0-2.19.17-.69.28-1.38.46-2.08.06-.29.17-.58.29-.81.17-.52.4-1.1.63-1.61l.8-1.5c.17-.35.34-.69.57-1.04.4-.58.63-1.27,1.03-1.85.34-.46.69-.87,1.04-1.27l1.09-1.44c.12-.17.29-.4.4-.58l.11-.17c.11-.23.23-.46.4-.64,0-.06.06-.11.12-.17.06-.29.23-.52.4-.81.29-.4.52-.81.63-1.27.06-.17.17-.35.29-.52.29-.52.46-1.1.63-1.67.11-.58,0-1.1,0-1.61,0-.58-.17-1.15-.35-1.73-.17-.35-.46-.63-.63-.92-.17-.35-.46-.58-.75-.81-.29-.29-.69-.52-1.04-.81-.17-.11-.46-.29-.75-.23-.06,0-.17-.06-.29-.11-.52-.23-1.09-.34-1.67-.28Z"/>
  </g>
</svg>