<?xml version="1.0" encoding="UTF-8"?>
<svg id="Layer_1" data-name="Layer 1" xmlns="http://www.w3.org/2000/svg" viewBox="0 0 260.55 262.85">
  <defs>
    <style>
      .cls-1 {
        fill: #231f20;
      }
    </style>
  </defs>
  <g>
    <path class="cls-1" d="M30.26,127.28c-.11-.14-.31-.49-.53-.76-.13-.26-.35-.53-.52-.84-.11-.13-.22-.27-.31-.49-.22-.27-.43-.54-.6-.85-.16-.39-.54-.68-.82-1.04-.49-.71-1-1.34-1.53-2.02-.32-.41-.7-.7-.99-1.06-.29-.36-.71-.61-.99-1.06,0-.08-.11-.13-.19-.14-.15-.1-.3-.28-.44-.46-.04-.05-.07-.09-.06-.17l-.04-1.07c-.04-.33.15-.56.41-.69q.61-.34,1.28-.06l1.29.52c.15.1.26.23.28.44,0,.08.06.17.13.26l1.17,1.2c.44.46.8.91,1.19,1.41l1.33,1.67c.07.09.19.14.26.24l.39.5s.03.13.06.17c.45.38.72.9,1.03,1.39.21.35.49.71.7,1.06.1.22.24.4.38.58.3.28.55.59.88.92.21.27.47.51.69.78.35.53.7,1.06,1.09,1.56l.21.27c.68,1.23,1.64,2.16,2.46,3.27.07.09.1.22.17.31.03.13.05.25.09.3.26.24.43.54.69.78.26.24.43.54.61.77.11.14.21.35.31.49l1.29,1.62c.11.14.26.24.37.37.04.04.12.05.07.09.23.48.65.81.92,1.25.18.23.28.44.41.7l.72.9c.06.17.17.31.28.44l.18.22.72.9c.14.18.29.36.39.58.05.25.2.43.17.67,0,.08.06.17.05.25.16.39.14.55-.13.76-.13.11-.23.26-.3.46-.06.2-.32.25-.48.23-.37,0-.69-.04-1.01-.16-.2-.06-.35-.16-.46-.3-.33-.32-.62-.69-.91-1.05-.14-.18-.24-.4-.38-.58l-2.55-3.2c-.14-.18-.37-.37-.55-.6l-.25-.32c-.61-.77-1.18-1.49-1.75-2.29-.43-.54-.9-1.13-1.28-1.7-.3-.57-.74-1.03-1.17-1.57-.31-.49-.71-.98-1.06-1.52-.29-.36-.53-.76-.77-1.15l-.43-.54c-.43-.54-.82-1.04-1.3-1.54-.3-.28-.54-.68-.9-1.13Z"/>
    <path class="cls-1" d="M71.96,116.48c.03.05,0,.13.03.18.37.46.53,1.02.8,1.53.21.41.42.82.49,1.31.06.36.24.72.45,1,.1.08.16.18.21.28.03.05,0,.13.05.1.36.2.29.56.32.87,0,.13.13.26.16.44l.49,1.31c.03.05-.03.08-.03.08.39.38.3.95.51,1.36.08.15.06.36-.04.54-.08.1-.23.18-.36.31-.41-.04-.95.17-1.34-.21-.21-.15-.42-.3-.57-.48l-.03-.05c.1.08.13.13,0,0-.05-.1-.16-.18-.26-.25l.05.1c-.13-.13-.31-.36-.65-.63-.19-.36-.29-.69-.45-1-.08-.15-.13-.26-.14-.38-.16-.31-.29-.56-.4-.9-.08-.28-.21-.54-.4-.77l-.11-.21c-.08-.15-.08-.28-.21-.41l-.08-.15c-.13-.26-.21-.54-.37-.84-.13-.25-.31-.36-.65-.25,0,0-.03-.05-.05.03-.33.24-.77.4-1.07.69-.13.13-.25.26-.43.29-.38.13-.77.27-1.07.56l-.1.05c-.59.37-1.25.71-1.92,1.06-.15.08-.31.16-.43.29-.26.13-.33.49-.19.75.31.36.43.82.64,1.23.32.48.58,1,.93,1.53l.69,1.33.03.05c0,.39.29.69.43,1.07.08.28.19.62.17.95-.02.33-.15.47-.48.57-.54.21-.95.04-1.4-.31-.03-.05-.13-.13-.21-.15-.34-.15-.55-.43-.68-.68-.24-.33-.37-.72-.53-1.02l-.11-.2c-.21-.28-.45-.61-.66-.89l-.4-.77c-.11-.2-.19-.36-.29-.56-.37-.59-.69-1.2-1.04-1.86-.27-.51-.53-1.02-.75-1.56l-.42-.82c-.21-.41-.43-.82-.54-1.28l-.08-.15c-.32-.61-.49-1.31-.68-1.92-.24-.59-.35-1.18-.57-1.72-.14-.38-.27-.77-.43-1.08-.03-.18-.11-.33-.14-.51-.11-.33-.19-.62-.35-.92-.16-.31-.22-.67-.33-1-.11-.33-.17-.69-.27-1.03l-.44-1.46c-.14-.38-.22-.79-.3-1.21-.08-.41-.22-.79-.3-1.21-.05-.1-.05-.23-.11-.33.02-.08-.03-.18-.06-.23-.37-.72-.54-1.54-.68-2.31-.19-.74-.31-1.46-.45-2.23-.11-.46-.12-.98-.18-1.47l-.1-1.31c.02-.46-.01-.9,0-1.37-.03-.18,0-.39-.11-.59-.08-.15-.06-.36.09-.57.2-.24.3-.55.43-.81.12-.26.25-.39.46-.5.26-.13.48-.32.77-.4.1-.05.18-.03.26,0,.39.25.83.48,1.2.68.34.15.52.38.81.55.05.1.16.18.24.2.44.22.76.58,1.07.94.16.18.34.28.5.46.58.48,1.1.99,1.55,1.6.24.33.45.74.79,1.02.26.25.42.56.63.84l1.42,1.86c.29.43.55.81.82,1.2l.68.94c.29.43.61.79.87,1.17l.35.66c.32.62.66,1.15,1.06,1.66l.4.77c.24.46.43.95.77,1.35l.19.36c.16.31.37.59.53.89l.16.31c.14.51.4.9.69,1.33.18.23.29.56.37.84.11.21.19.49.42.69.24.2.37.46.48.79ZM68.72,116.87l-.29-.56c-.14-.38-.27-.77-.46-1.13-.19-.36-.42-.69-.66-1.02-.21-.41-.37-.84-.64-1.23-.29-.56-.53-1.15-.9-1.61-.08-.15-.16-.31-.19-.49l-.24-.46c-.24-.46-.53-.89-.77-1.35l-.53-1.02c-.13-.38-.4-.64-.69-.94-.29-.3-.55-.69-.82-1.07-.32-.48-.56-1.07-.98-1.5-.39-.38-.63-.84-.97-1.25-.39-.51-.71-.99-1.16-1.48-.34-.41-.71-.86-1.1-1.25l-1.12-1.04c-.26-.25-.5-.58-.86-.78-.1-.08-.24-.2-.39-.12-.2.11-.12.26-.1.44-.02.08.03.18.05.23l.09.54c.04.95.21,1.9.48,2.8.13.38.22.79.3,1.21.11.59.12,1.23.47,1.77.11.21.14.51.32.74.18.36.27.77.33,1.13.05.1.05.23.08.28.16.56.38,1.1.54,1.67.14.51.3,1.08.57,1.59.13.38.3.82.56,1.2l.08.15c-.02.21.06.36.14.51l.21.54c.22.54.43,1.07.67,1.66.13.38.32.74.41,1.15.03.44.27.77.35,1.18.06.36.27.77.46,1.13.19.49.4.9.59,1.38.08.15.13.26.26.25.49.07.98.14,1.44-.1.38-.26.79-.48,1.25-.72l.23-.06c.43-.29.87-.45,1.3-.74.43-.29.87-.58,1.33-.82l.2-.11c.3-.29.33-.5.14-.72ZM72.89,124.89c.1.08.18.1.21.15-.03-.05-.13-.13-.21-.15h0Z"/>
    <path class="cls-1" d="M72.47,107.18c-.24-.71-.49-1.42-.71-2.07l-.13-.38c.02-.13,0-.18-.02-.24l-.84-2.45c-.09-.27-.11-.51-.21-.78-.15-.44-.36-.85-.45-1.31l-.6-1.74c-.04-.11,0-.18-.02-.24-.26-.76-.51-1.47-.72-2.25-.17-.49-.28-1-.4-1.51-.02-.24-.11-.51-.19-.73-.1-.46-.23-.84-.32-1.29-.09-.45-.21-.96-.38-1.45-.02-.24-.11-.51-.13-.75-.1-.46.1-.77.35-1.1l.22-.07c.15.07.33.07.48.14.09.09.22.11.35.12.24-.02.46.09.58.29l.55.36c.16.13.31.2.46.27.31.2.55.36.84.5.17.13.33.25.44.4l.24.16c.64.45,1.23,1.1,1.84,1.62.2.23.41.47.64.63.02.05.09.09.13.2.3.51.72.85,1.12,1.32l.51.43c.02.06.09.09.11.15.15.43.59.65.83.99.02.05.09.09.11.14.15.44.43.71.67,1.05.09.09.13.2.28.27.62.39,1.03,1.04,1.44,1.7.5.74,1.09,1.39,1.7,2.09l.39.6c.11.15.24.34.42.52.11.15.35.31.44.58.02.05.17.13.26.22.02.05.15.07.18.18.21.42.61.7.9,1.03.07.04.09.09.15.07.09.09.26.22.4.29.13-.17.12-.35.12-.53.03-.44,0-.91,0-1.4l.08-1.37c.05-.56.08-1.18.07-1.73.05-.38-.04-.84,0-1.22.01-.31.08-.64.08-1l.05-.38c.05-.57.08-1.18.16-1.82-.02-.24.01-.49.05-.75.1-.4.19-.86.22-1.3.1-.77.2-1.53.38-2.26.05-.2-.02-.42-.02-.6.07-.33.07-.69.13-1.02.02-.31.03-.62.06-.88l.05-.38c.16-.6.24-1.24.33-1.88-.02-.05.02-.13,0-.18l.5-2.25c.07-.33.14-.66.23-.93.02-.13.09-.27.21-.44.07-.15.2-.31.32-.48.32-.48.79-.7,1.34-.89.16-.06.47.14.59.29.21.42.39.78.42,1.2,0,.18.11.33.19.54.05.16.17.31.24.52.15.25.24.53.39.78l.04.11c.15.44.27.95.42,1.38.06.16.11.33.22.47.41.83.71,1.7,1.01,2.57l.51,1.47c.08.22.15.43.33.62l.13.2c.04.47.3.87.45,1.31.15.62.45,1.12.71,1.7.19.36.26.76.36,1.22l.06.16c.31.38.35.85.45,1.31.06.35.1.64.19.91,0,.18.08.4.13.56.09.27.19.54.28.82l.08.22c.3.87.58,1.69.81,2.52.07.22.22.47.12.69l.06.16c.18.18.21.42.23.65.06.16.11.33.22.47.13.2.13.38.13.56.02.05-.02.13.05.16.13.38.14.74.25,1.07.11.33.19.73.3,1.05.04.11.09.27.08.4l.02.05c.24.53.27,1.13.53,1.71.24.34.41.83.43,1.25l.11.33c.28.63.38,1.27.37,1.94.04.29.13.56.17.85.06.35.12.69.17,1.04l.02.24c.21.42,0,.86-.06,1.24-.05.2-.36.37-.63.28-.13-.02-.27-.09-.42-.16l-.68-.38c-.22-.11-.46-.27-.55-.54-.11-.14-.17-.31-.28-.45-.19-.36-.21-.78-.36-1.22-.07-.22-.15-.44-.17-.67-.09-.27-.17-.49-.21-.78-.03-.6-.29-1.18-.44-1.8l-.48-1.91c-.11-.51-.23-1.02-.36-1.58l-.51-2.02c-.02-.05-.04-.11,0-.18-.08-.76-.34-1.53-.55-2.31-.15-.62-.29-1.18-.49-1.78-.02-.24-.08-.4-.15-.62-.19-.54-.38-1.09-.53-1.71-.13-.38-.19-.73-.32-1.11-.02-.06-.04-.11,0-.18.01-.49-.19-.91-.32-1.29-.26-.76-.53-1.52-.82-2.21-.15-.44-.36-.85-.51-1.29-.17-.31-.28-.63-.37-.91l-.92-2.67c-.22-.47-.45-.94-.62-1.43-.19-.36-.32-.74-.45-1.12-.04-.11-.11-.14-.18-.18l-.12.17c-.09.27-.18.55-.14.84.04.47-.08,1-.17,1.46-.08.64-.19,1.22-.16,1.82,0,.37-.01.67-.12,1.08s-.06.88-.17,1.28l-.1.58c-.12,1.08-.38,2.08-.33,3.1l-.09.27c-.14.48-.1.95-.11,1.44l-.17,3.22c0,.55-.12,1.08-.13,1.57-.02.13-.03.25-.01.31.04.66-.02,1.35-.05,1.97-.01.67.05,1.38.04,2.06l.1.64c.04.11.06.16.08.22l.89,1.52s.07.04.09.09c.26.76.72,1.39.93,2.17-.05.02-.04.07.04.11.32.56.41,1.2.64,1.85.02.24.06.53.03.78-.04.07-.02.13,0,.18.19.36.04.84.23,1.2.02.05-.02.13-.09.09-.18,0-.2.13-.22.26-.02.13-.07.33-.07.51,0,.18-.07.33-.21.44-.14.11-.27.28-.3.53.02.05-.05.2-.22.26l-.6.21c-.2.13-.38.13-.57-.05-.24-.16-.51-.07-.77-.1-.2-.05-.27-.09-.38-.23-.13-.2-.35-.3-.53-.49-.17-.13-.29-.32-.41-.47-.2-.23-.33-.43-.48-.69l-.15-.44c-.09-.27-.19-.54-.23-.83-.11-.33-.23-.65-.25-1.07,0-.37-.13-.75-.19-1.09-.15-.62-.1-1.18-.13-1.78.03-.44,0-.86.06-1.24,0-.18-.02-.42,0-.55.03-.26-.02-.42-.15-.62-.19-.36-.43-.71-.67-1.05l-.4-.47c-.29-.32-.59-.65-.83-.99-.31-.38-.63-.76-1.05-1.1-.39-.41-.72-.85-1.07-1.34-.26-.4-.57-.78-.94-1.14-.28-.27-.57-.6-.79-.88-.39-.42-.77-.83-1.07-1.34l-.72-1.03c-.07-.04-.11-.14-.18-.18-.55-.54-1.07-1.15-1.53-1.79-.17-.31-.41-.65-.74-.9l-.57-.6c-.33-.43-.72-.85-1.11-1.26-.22-.29-.37-.54-.63-.76l-.88-.79c-.07-.03-.14-.07-.2-.05,0,0-.04.07-.02.13-.02.13.02.24.06.34.23.47.39.96.51,1.47.08.4.26.76.38,1.09l.11.33c.02.05-.02.13,0,.18.45.94.68,1.96,1.02,2.94.32.74.58,1.5.79,2.29l.43,1.25c.25.71.49,1.42.7,2.2.09.27.32.56.37.91.1.45.27.94.42,1.38.34.8.64,1.67.97,2.47.21.6.45,1.12.66,1.72.28.63.49,1.23.71,1.89.07.22.2.42.28.63.13.56.36,1.03.6,1.56l.22.65c.04.11.15.25.21.42.11.33.17.67.28,1,.04.11.08.22.15.25.24.34.32.74.41,1.2.02.24.08.4.26.58.24.16.2.42.23.65.04.11.02.24.06.34.11.14.09.27.1.46-.07.15-.03.25.06.35.26.21.17.49.14.74-.02.13-.11.22-.22.26-.53.06-1.04,0-1.41-.37l-.83-.81c-.26-.22-.39-.42-.5-.74-.21-.6-.47-1.18-.67-1.78-.08-.22-.09-.45-.17-.67l-.02-.05c-.17-.31-.3-.69-.41-1.02-.13-.38-.37-.72-.45-1.12-.04-.11-.08-.22-.17-.31-.13-.38-.34-.8-.47-1.18-.37-.91-.77-1.87-1.08-2.79-.09-.09-.13-.2-.15-.25-.25-.71-.54-1.4-.86-2.14l-.54-1.58c-.06-.16-.13-.38-.21-.6ZM87.56,113.49c-.09-.27-.21-.6-.35-.85-.17-.31-.28-.63-.45-.94-.13-.2-.26-.22-.42.02-.04.07-.07.15-.09.27.04.29-.03.62.14.93.02.05-.02.13,0,.18-.03.44-.12.89.09,1.31,0,0-.05.02-.04.07-.05.2.02.42.1.64.06.16.11.33.12.51.09.27.24.34.49.2.11-.04.2-.13.29-.22.2-.13.32-.3.36-.55,0-.55-.07-1.07-.24-1.56Z"/>
    <path class="cls-1" d="M130.51,104.4c-.63.07-1.09.03-1.61.16l-.46.18c-.29.06-.34.3-.33.58-.04.87-.01,1.73.07,2.59.01.4-.04.81-.08,1.21l.04,1.55c0,.17-.05.29-.05.4-.05.17-.11.29-.05.46s0,.29-.1.46c-.22.35-.56.53-.91.66-.28.12-.57.25-.86.2-.23,0-.35-.11-.41-.28-.06-.29-.19-.63-.25-.92l.04-.58c-.02-.86-.1-1.67-.07-2.53-.02-.63.02-1.27,0-1.9,0-.29-.07-.63-.14-.92,0-.12-.06-.23-.24-.22-.4-.05-.75.02-1.03.43-.05.12-.23.18-.34.3-.11.18-.22.29-.33.41-.22.24-.4.3-.69.19-.12-.06-.23-.05-.35-.05-.17,0-.23-.11-.3-.28-.07-.4.04-.69.32-.99.22-.24.33-.47.5-.7.11-.12.17-.18.22-.29.34-.3.62-.65,1.02-.89.11-.06.23-.12.34-.24.12,0,.23-.06.34-.12.46-.24.51-.36.38-.87-.07-.34-.08-.75-.09-1.15-.01-.58-.03-1.15-.16-1.72-.06-.06,0-.06-.06-.11-.09-1.44-.13-2.94-.17-4.38l-.03-1.27c-.01-.4.04-.87.08-1.33,0-.23.05-.41.04-.64,0-.4-.08-.8-.03-1.15.09-.92-.05-1.9-.01-2.82-.01-.4.09-.81.08-1.21.05-.46-.02-.92.02-1.38,0-.23-.01-.46.04-.69.05-.41.04-.81.08-1.21.05-.29.04-.63.09-.92.04-.52-.08-.98-.04-1.5,0-.29.04-.52.04-.81,0-.11-.06-.23-.12-.29-.18-.34-.42-.62-.77-.79-.29-.17-.47-.39-.42-.74,0-.23.16-.41.33-.53.11-.12.23-.18.28-.35.11-.18.22-.35.51-.3.29.05.52.04.8-.08.11-.06.34-.07.52-.07.29.05.58.1.87.09.35.05.75.04,1.1.03.35.05.69.04,1.04.03h.11c.86-.2,1.66-.28,2.53-.3l1.96-.05c.52.04.98.03,1.5.08.35,0,.75-.02,1.15.03.12,0,.23.05.29.11.46.22.87.38,1.28.66.29.22.48.56.71.9.06.06,0,.17-.05.23-.17.29-.39.58-.61.82-.06.06-.17.06-.29.07-.12,0-.23-.05-.35-.11-.12-.05-.29-.11-.4.07-.34.24-.63.19-.98.03-.06-.06-.12-.11-.23-.11-.52-.04-1.04-.09-1.62-.07-.06-.06-.17-.05-.23-.05-.46.18-.92.14-1.38.09-.29,0-.52.01-.8.08-.23.06-.52.13-.81.02-.06-.06-.12-.05-.17-.05-.34.12-.69.13-.97.2-.12,0-.17,0-.29.06-.11.12-.29.07-.46.01-.35-.05-.69-.1-.98-.09-.17,0-.57.36-.56.53-.05.4-.21.75-.09,1.15.06.06,0,.17,0,.23l-.05.4c.13.4-.04.81-.08,1.21,0,.06-.05.12-.05.17.01.46.02.98-.02,1.44v.35c.01.12-.04.17-.04.23.02.86.1,1.67.06,2.48-.04.64.09,1.32-.07,1.9l-.05.06c.12.46-.04.87.09,1.32,0,.17-.05.35-.04.52l.03.92c.01.46-.04.87-.02,1.33-.05.35.02.69.03,1.04l.02.86c.02.63.09,1.27.11,1.9v.35c.01.11.02.29.08.46.07.29.07.52.08.8.07.29-.04.58.14.8.06.05.06.17.06.23l.02.92c0,.23.01.52.08.75.07.29.12.34.41.28.4-.01.75-.02,1.09-.09h.52c.52.03.98-.04,1.5-.11.4-.12.8-.19,1.2-.26.17-.06.34-.12.51-.3l.45-.41c.06,0,.11-.06.17-.12.11-.06.17-.24.34-.12.23.11.52.16.59.39.07.34.13.63.08.98-.05.35-.22.58-.44.76l-1.02.78c-.28.18-.62.36-.97.37-.23,0-.46.13-.69.13l-1.09.03Z"/>
    <path class="cls-1" d="M145.76,110.6c.64-.04,1.21.02,1.8-.03.46,0,.94-.13,1.41-.19.63.01,1.29-.14,1.92-.07.4.04.86.1,1.18.31.05.06.11.07.17.08.11.07.22.08.27.15.16.13.26.26.36.39.16.13.19.37.11.59-.15.33-.45.41-.76.55-.12.04-.24.03-.41.07s-.3.08-.43.18c-.2.21-.43.24-.72.21,0,0-.05-.06-.11-.07-.53.11-1.09-.06-1.62,0-.47.06-.99,0-1.46.07-.46,0-.94.12-1.44-.05h-.11c-.36.06-.71.08-1.06.16-.31.14-.59.05-.86-.1-.17-.08-.38-.27-.52-.52-.09-.18-.26-.26-.48-.34-.06,0-.11-.01-.22-.08-.34-.09-.48-.34-.39-.68.08-.22.04-.4.01-.64-.04-.12-.03-.24-.02-.29,0-.52.05-.98.11-1.5.13-.62.14-1.26.33-1.88v-.41c0-.11-.05-.18-.09-.3.05-.46.11-.97.11-1.5.03-.29,0-.58.04-.86l.22-2c.05-.4.15-.79.19-1.2.03-.23,0-.52.03-.75.12-.51.17-.97.22-1.48v-.12c.17-.91.27-1.77.43-2.68.03-.29.06-.51.15-.79.03-.23.1-.39.13-.62.05-.46.1-.92.16-1.37l.35-1.58c.11-.45.21-.85.26-1.3.13-.68.33-1.41.41-2.1l.13-1.14c.12-.57.19-1.14.31-1.71.02-.17.04-.34.06-.52l.2-1.77c0-.06.02-.17.03-.29l-.03-1.28c.02-.17.04-.34,0-.52l.02-.17c.08-.17.04-.34.06-.52-.02-.35.02-.69.05-.98,0-.06.02-.17.08-.17.25-.2.36-.6.66-.74.19-.15.37-.19.65-.1.34.1.69.08,1.09.07.41-.07.87-.02,1.28-.03l2.61-.05c.35-.02.69.02,1.04,0,.06,0,.06-.05.12-.04.8.09,1.67.13,2.46.28.62.13,1.23.43,1.56,1.05.05.06.1.13.09.24-.04.34-.08.69-.28.95-.19.15-.68.39-.97.35-.28-.09-.57-.12-.87-.04l-.17-.02c-.39-.1-.87-.04-1.32-.09-.35.02-.75-.03-1.15-.07l-.23-.02c-.48.12-1.01.18-1.45,0l-.17-.02c-.29.03-.53.06-.76.03-.28-.09-.57-.06-.87-.04-.4-.05-.67.33-.94.59-.06.05-.08.16-.09.28.06.47.01.93-.04,1.39-.03.23,0,.52-.03.75-.02.17-.09.28-.11.45-.08.74-.17,1.55-.26,2.29l-.23,2.06c-.06.52-.24,1.08-.36,1.64-.06.52-.17,1.02-.29,1.53-.24,1.07-.3,2.17-.48,3.25-.08.69-.15,1.32-.33,1.93l-.08.69c-.12,1.03-.23,2-.34,3.03l-.02.17c-.02.17.09.24.26.26.52,0,1.04,0,1.51,0l2.21-.1c.29-.03.58-.05.81-.02.52,0,.97.11,1.41.39.15.19.43.34.58.47.21.2.26.26.11.54,0,.06-.08.16-.09.28-.02.17-.15.27-.27.32-.31.14-.56.34-.85.31-.41.01-.71.09-1.07.23-.24.09-.47.06-.76.03-.46,0-.93.01-1.33-.03-.24.03-.46,0-.64-.01l-.3.08c-.3.08-.71.15-1.03.35-.18.09-.42.13-.66.21-.23.03-.37.19-.4.48-.07.63-.09,1.32-.1,1.96l-.14,1.26c-.11.45-.16.91-.09,1.32-.02.17-.03.29-.04.4l-.12,1.03c-.01.12.09.19.21.2.17.02.29.03.46.05v.06Z"/>
    <path class="cls-1" d="M160.51,112.8c.64.03,1.21.15,1.79.16.46.04.95-.02,1.42-.03.63.08,1.3,0,1.92.13.39.09.84.19,1.14.43.04.07.1.08.16.09.1.08.21.11.26.18.14.15.23.29.32.42.14.15.15.39.04.6-.19.31-.49.36-.81.47-.12.03-.24,0-.42.02-.18.02-.31.05-.44.14-.22.19-.46.19-.74.13,0,0-.04-.07-.1-.08-.54.06-1.08-.18-1.61-.18-.47.01-.98-.1-1.46-.09-.46-.04-.95.02-1.43-.2l-.11-.03c-.36.04-.71.02-1.08.05-.32.11-.59-.01-.84-.19-.16-.09-.34-.31-.46-.57-.07-.19-.23-.29-.44-.39-.06-.01-.11-.03-.21-.11-.32-.13-.44-.39-.31-.72.11-.21.09-.39.08-.63-.03-.12,0-.24,0-.29.06-.52.16-.97.27-1.47.19-.61.28-1.24.53-1.83l.03-.41c.03-.11-.02-.18-.05-.31.1-.45.21-.96.27-1.47.06-.28.07-.57.13-.86l.44-1.97c.09-.39.23-.78.32-1.17.05-.22.06-.52.11-.74.17-.49.27-.94.38-1.45l.03-.11c.26-.89.45-1.73.7-2.62.06-.28.11-.51.23-.77.05-.23.14-.38.19-.61.1-.45.2-.9.3-1.35l.52-1.54c.16-.44.3-.82.4-1.27.21-.66.48-1.37.63-2.04l.25-1.12c.18-.55.31-1.11.49-1.66.04-.17.08-.34.11-.51l.39-1.74c.01-.06.04-.17.06-.28l.11-1.28c.04-.17.07-.34.06-.52l.04-.17c.09-.16.08-.34.11-.51.02-.35.1-.69.16-.97.01-.06.04-.17.09-.16.28-.17.42-.56.74-.66.21-.13.39-.15.66-.03.32.13.67.15,1.08.18.42-.02.87.08,1.28.11l2.61.23c.35.02.69.09,1.04.11.06.01.07-.04.12-.03.79.18,1.64.31,2.42.54.61.2,1.17.56,1.44,1.21.04.07.09.14.06.25-.08.34-.15.67-.38.92-.21.13-.72.31-1,.25-.27-.12-.55-.18-.86-.13l-.17-.04c-.38-.14-.86-.13-1.31-.23-.35-.02-.74-.11-1.14-.2l-.22-.05c-.49.07-1.02.07-1.44-.15l-.17-.04c-.29,0-.53,0-.76-.05-.27-.12-.56-.13-.86-.13-.39-.09-.71.25-1,.49-.07.04-.09.16-.12.27.01.47-.09.92-.19,1.38-.05.22-.06.52-.11.74-.04.17-.12.27-.16.44-.16.73-.34,1.52-.5,2.25l-.45,2.02c-.11.51-.35,1.04-.53,1.59-.11.51-.28,1-.45,1.49-.35,1.04-.53,2.12-.83,3.18-.15.67-.29,1.29-.54,1.88l-.15.68c-.23,1.01-.44,1.97-.67,2.98l-.04.17c-.04.17.06.25.23.29.52.06,1.04.11,1.5.16l2.21.14c.29,0,.59.01.81.06.52.06.96.21,1.36.54.13.21.39.38.53.53.19.22.23.29.05.54-.01.06-.09.16-.12.27-.04.17-.18.26-.3.29-.32.11-.59.28-.88.22-.41-.03-.71.02-1.09.11-.25.06-.47.01-.76-.05-.46-.04-.92-.09-1.32-.18-.24,0-.46-.04-.63-.08l-.3.05c-.31.05-.73.08-1.06.24-.19.08-.43.08-.68.14-.24,0-.39.15-.45.43-.14.62-.23,1.3-.32,1.94l-.28,1.24c-.16.44-.26.89-.23,1.3-.04.17-.06.28-.09.39l-.23,1.01c-.03.11.07.2.19.22.17.04.28.06.45.1v.06Z"/>
    <path class="cls-1" d="M172.16,113.49c.31-.93.67-1.78.96-2.65.13-.38.3-.69.46-1,.08-.22.1-.46.17-.67.02-.06,0-.18.09-.27.18-.18.2-.42.28-.64.06-.16.18-.36.26-.58.17-.67.46-1.36.69-2.02.13-.38.32-.74.43-1.07.07-.22.09-.45.17-.67l.04-.11c.26-.4.24-.89.52-1.35.2-.42.3-.87.46-1.36.3-.69.56-1.45.91-2.12.22-.47.39-.96.56-1.45.18-.36.39-.78.52-1.16.07-.04.09-.09.11-.14.17-.49.32-.93.54-1.4.18-.36.37-.73.52-1.16.18-.36.33-.8.52-1.16.09-.27.24-.53.33-.8.09-.27.13-.56.22-.84.11-.33.26-.58.42-.89.15-.25.26-.58.35-.85.2-.42.35-.85.57-1.33.07-.22.2-.42.33-.62.18-.36.44-.76.35-1.22-.02-.13,0-.18.09-.27.13-.02.22-.11.29-.14.18,0,.33-.07.49-.2.24-.16.44-.22.71-.12.16.06.27.09.42.02.05.02.18,0,.16.05.27.28.58.44.69.84.07.33.18.55.27.82.13.17.14.29.09.46-.07.22-.15.44-.09.64l-.06.16c-.44.4-.55.91-.68,1.47-.13.38-.19.73-.32,1.11l-.85,1.96c-.05.16-.2.24-.26.4-.18.36-.37.73-.35,1.22.04.07-.05.16-.09.27-.06.16-.15.25-.2.42-.24.34-.44.76-.63,1.13-.07.22-.18.36-.31.56-.09.27-.21.6-.3.87l-.06.16c-.24.34-.4.65-.37,1.09,0,.18-.06.35-.24.53,0,0-.02.06-.09.09-.17.31-.33.62-.5.93l-.11.33c.03.25-.04.47-.22.65l-.06.16c.02.49-.3.87-.46,1.36-.11.33-.33.62-.33.98-.02.24-.15.44-.28.64-.09.09-.09.27-.13.38-.08.22-.13.38-.26.58-.08.22-.2.42-.17.67.04.07,0,.18-.02.24-.11.33-.3.69-.41,1.02l-.33.98c-.15.44-.35.85-.52,1.35-.06.16-.11.33-.11.51-.07.4-.19.73-.3,1.05-.13.2-.15.44-.17.67l-.13.38c-.04.11-.07.22-.06.35,0,.18-.06.35-.17.49-.2.24-.33.44-.48.69l-.06.16-.59,1.75c-.09.27,0,.37.22.44.27.09.56.13.84.22.44.15.91.19,1.38.23.64.1,1.22.17,1.88.21.16.05.36,0,.55,0,.33-.07.69-.07.98-.03.42.02.78.02,1.13.08.13-.02.18,0,.22.07.16.06.25.15.38.13.07-.04.13-.02.17.05.22.08.42.2.64.28q.25.15.22.44c0,.18,0,.36-.19.54-.07.04-.11.14-.07.22.07.33-.08.58-.22.84-.09.27-.37.36-.6.34-.29-.04-.58-.08-.8-.15-.33-.11-.62-.15-.89-.06-.16.13-.35.12-.58.1-.11-.04-.25.04-.38.05-.22.11-.46.09-.66-.04-.16-.06-.35-.06-.6-.02-.46.09-.98.03-1.51-.03-.22-.08-.4-.08-.66-.04-.29-.04-.56-.13-.89-.24-.04-.07-.15-.11-.22-.08-.33.07-.58-.08-.93-.13-.27-.09-.58-.26-.91-.37-.38-.13-.62-.33-.91-.55-.14-.11-.27-.27-.32-.48-.22-.44-.43-.88-.59-1.3-.07-.15-.09-.27-.11-.4-.11-.4-.16-.78-.08-1.18.11-.51.12-1.06.32-1.47Z"/>
    <path class="cls-1" d="M188.9,115.28c.17-.24.28-.51.45-.75l.07-.16c.15-.5.39-.9.59-1.38.18-.42.37-.85.6-1.25.14-.19.34-.35.38-.59.08-.47.34-.79.45-1.19.48-1.11.96-2.22,1.49-3.31.14-.32.35-.66.49-.98.08-.03.1-.08.12-.14.05-.42.23-.84.5-1.16.14-.19.18-.42.33-.61.29-.38.4-.77.61-1.12.07-.16.22-.22.32-.3l.29-.25c.11-.26.39-.33.67-.4.15-.06.89.26,1,.43.06.15.1.36.08.54.04.21,0,.44.01.7-.02.05-.02.18-.09.21-.23.09-.19.29-.26.45-.16.37-.21.79-.43,1.13s-.27.76-.42,1.13c-.07.16-.11.27-.18.42l-.57,1.32c-.02.05-.07.16-.09.21l-.04.23c-.26.32-.27.76-.42,1.13-.07.16-.19.29-.29.38-.19.29-.27.64-.39.9-.11.39-.26.76-.4,1.08-.07.16-.19.29-.23.4-.17.24-.26.45-.37.72-.24.4-.31.87-.37,1.29-.04.24-.05.42-.17.55-.14.19-.24.4-.25.58-.04.23-.11.39-.33.48-.15.06-.22.22-.24.4.03.08-.07.16-.11.26-.02.05-.12.14-.11.26-.13.45-.45.75-.79.97-.3.25-.7.45-1.08.17-.35-.21-.67-.48-.94-.72-.25-.3-.32-.71-.16-1.08.08-.34.22-.66.3-1ZM196.61,96.52c.04-.11.17-.24.29-.38l.41-.51c.12-.14.2-.17.37-.28.38-.15.76-.3,1.22-.35.05.02.13,0,.18.02.42.18.96.1,1.41.36.19.14.33.27.34.52.13.56.11,1.05-.22,1.53-.05.11-.14.19-.22.22l-.36.41c-.25.14-.48.23-.67.4l-.58.32c-.27.2-.61.24-.95.16-.29-.06-.55-.18-.82-.29-.05-.02-.13-.12-.17-.2-.09-.23-.2-.4-.24-.61-.05-.46-.2-.84,0-1.32Z"/>
    <path class="cls-1" d="M193.02,123.92c.22-.53.48-1.25.78-1.93.22-.54.47-1.12.8-1.6.13-.12.21-.28.22-.41.36-.66.58-1.32.91-1.93.22-.53.47-1.12.78-1.68.11-.2.22-.4.38-.58.29-.3.46-.73.65-1.09.22-.53.47-1.12.75-1.63.14-.25.32-.48.46-.73.16-.3.25-.58.52-.83.03-.05.08-.15.14-.25l.36-.66c.08-.15.14-.25.17-.43.03-.18.14-.38.22-.54.27-.51.52-.96.72-1.45.08-.15.16-.3.17-.43.06-.1.08-.15.11-.2l.93-1.72c.28-.63.66-1.21,1.04-1.8.38-.58.63-1.17.98-1.7.25-.46.54-.88.79-1.34.19-.35.36-.66.55-1.01l.25-.46c.11-.07.19-.23.24-.33.27-.51.53-1.09.8-1.6l.22-.4c.08-.15.22-.28.33-.48.16-.3.38-.58.39-.97.06-.23.19-.36.4-.38.16-.05.23-.07.32-.22.06-.23.27-.25.42-.3l1.24-.11c.08-.02.1.06.15.08-.09.41.08.7.15,1.06,0,.26,0,.59.05.88.15.8.28,1.66.33,2.54.04.29.06.62.02.93-.01.39-.03.77-.09,1.13.02.21,0,.46,0,.72-.03.18-.04.31-.02.52-.03.05-.08.15-.03.18.11.52-.03,1.03-.15,1.49-.09.54-.29,1.02-.38,1.56-.1.67-.25,1.31-.25,2.03.03.54-.11,1.05-.13,1.57-.03.18-.04.31-.12.46-.08.75-.2,1.46-.36,2.23-.06.23-.12.46-.1.67-.02.51-.13.97-.2,1.46-.23.79-.33,1.59-.52,2.41-.04.31-.12.59-.23.92-.09.28-.12.59-.19.95-.09.28-.15.64-.26.97-.09.54-.19,1.08-.36,1.64-.09.28-.22.54-.21.87l-.05.1c.02.21.07.36.14.34.13,0,.13-.12.19-.22l.38-.71s.13-.12.11-.2c0-.13.06-.23.21-.28.03-.05.06-.1.16-.17.08-.15.19-.36.27-.51l.05-.1c0-.26.22-.4.41-.63.03-.05.13-.12.19-.23.06-.23.19-.35.35-.53l.16-.3c.03-.18.19-.36.33-.48.16-.05.31-.09.34-.27l.08-.02c.3.17.21-.15.29-.3.08-.15.19-.23.22-.41.03-.18.11-.33.02-.52-.02-.08-.02-.21.06-.23.18-.1.19-.23.19-.36,0-.13.08-.15.14-.25.19-.36.43-.68.65-.96l.08-.15c.22-.41.42-.89.63-1.29,0-.13.11-.2.16-.3.37-.32.62-.78.92-1.21.17-.3.38-.58.54-.88l.03-.05c.32-.48.6-.99.92-1.46.35-.53.6-1.11.9-1.67.08-.15.17-.3.3-.43.1-.07.16-.18.21-.28.14-.25.27-.51.46-.73.27-.38.44-.81.66-1.22.08-.15.21-.28.32-.48.27-.38.47-.86.58-1.32.14-.25.27-.51.46-.73l.27-.51c.25-.46.62-.78,1.06-1,.08-.02.21-.02.36-.06l.28-.04c.24-.2.52-.11.75-.05.18.03.3.16.27.34-.04.31-.04.57,0,.85.05.16-.04.31-.04.44-.06.23-.15.51-.2.74l-.11.2c-.41.63-.71,1.32-1.07,1.98-.22.41-.47.86-.68,1.27l-.08.15c-.48.4-.73.98-1.08,1.51-.27.38-.52.83-.76,1.29-.27.38-.51.71-.73,1.11-.19.23-.35.4-.43.68-.03.18-.14.38-.3.56l-.65.96c-.38.45-.65.96-.97,1.44-.22.4-.52.83-.79,1.21l-.08.15c-.2.48-.52.83-.76,1.29-.22.41-.51.71-.78,1.08l-.03.05c-.17.43-.44.81-.66,1.22l-.95,1.39c-.14.25-.32.48-.49.78-.22.41-.47.86-.71,1.32l-.44.81c-.25.46-.49.91-.71,1.32l-1.18,2.18c-.16.31-.41.63-.57.94-.11.2-.22.4-.28.63-.17.3-.38.58-.65.83-.11.07-.24.2-.32.35-.08.15-.14.25-.32.35-.39.12-.68.42-.95.67-.24.2-.47.27-.78.23-.82-.18-1.14-.55-1.09-1.38l-.03-1.39c.12-.59.22-1.13.44-1.66.11-.2.14-.38.17-.56.14-.25.22-.54.39-.84,0,0,.03-.05-.02-.08.1-.67.37-1.17.57-1.79.14-.38.28-.77.29-1.15.02-.64.22-1.25.39-1.82.06-.36.1-.67.21-1-.02-.08,0-.13.03-.18.28-.64.33-1.33.48-1.97.01-.39.1-.79.25-1.18.05-.1.08-.15.06-.23.07-.49.21-.87.28-1.36.04-.57.11-1.05.21-1.59.09-.28.12-.59.13-.85.03-.77.23-1.51.41-2.2.09-.41.1-.8.19-1.21-.06-.62.12-1.18.03-1.75-.03-.54.11-1.05.23-1.51.17-.56.27-1.1.41-1.61.03-.05.06-.1.03-.18.04-.57.04-1.16.05-1.67,0-.13-.04-.29-.07-.36,0-.13-.07-.23-.15-.21-.08.02-.18.1-.21.15-.33.61-.68,1.27-1.06,1.85l-.33.48c-.3.43-.52.83-.73,1.24-.19.23-.3.43-.43.68-.17.3-.28.63-.54.88l-.14.25c-.26.84-.72,1.57-1.08,2.36-.09.28-.22.54-.36.79l-1.23,2.28c-.66,1.22-1.32,2.43-1.97,3.65l-.9,1.67c-.41.76-.77,1.55-1.1,2.28-.25.46-.42.89-.66,1.34-.19.35-.43.68-.53,1.09l-.03.05c-.24.33-.33.74-.47,1.12-.33.74-.69,1.53-.85,2.29q-.06.36-.4.37c-.31-.04-.59,0-.93.02-.16.05-.33.02-.54.03-.44-.04-.64-.28-.67-.69,0-.59.22-1.13.62-1.76Z"/>
    <path class="cls-1" d="M215.86,123.22c.09-.22.25-.46.39-.64l.71-.98c.13-.19.32-.34.48-.58.1-.14.25-.25.38-.43.4-.35.75-.74,1.17-1.14l.46-.45c.28-.29.61-.55.94-.81l.71-.7c.21-.2.48-.37.69-.57l1.23-.82c.49-.29.98-.57,1.42-.89.31-.13.6-.35.91-.48.29-.21.6-.35.91-.48.15-.11.31-.13.42-.19.56-.38,1.23-.53,1.91-.69.08-.01.13.02.16-.03.34-.18.71-.2,1.08-.22.56-.09,1.09-.14,1.62-.18.37-.02.69-.07,1.04.04.13.02.25.04.42.01.58-.01,1.13.1,1.7.3.17.05.38.06.64.1.38.06.74.25,1.14.39.46.26.96.54,1.42.88.28.2.58.48.79.78.17.26.37.48.34.81l.09.27c.18.34.11.64-.13.97-.07.09-.18.15-.17.23-.06.38-.42.48-.69.57-.03.05-.21,0-.25-.04-.14-.1-.2-.21-.27-.41l-.19-.42c-.13-.31-.3-.57-.57-.69-.14-.1-.28-.2-.35-.4.03-.05-.06-.11-.11-.15-.22-.09-.45-.26-.66-.26-.33-.03-.68-.14-1.03-.24-.3-.07-.68-.13-1.04-.04-.19.07-.48.08-.7,0-.09-.07-.22-.09-.33-.03-.35.1-.72.12-1.09.14-.17-.05-.37.02-.53.05-.24.04-.52.13-.71.2l-.45.03c-.31.13-.54.25-.87.23-.03.05-.08.01-.11.06-.33.26-.73.33-1.12.47-.27.09-.58.22-.8.42-.56.38-1.17.65-1.7.98-.31.13-.6.35-.9.56-.38.23-.7.49-1.11.76-.38.23-.66.52-.94.81-.43.4-.86.8-1.24,1.24l-1.52,1.53c-.07.3-.43.4-.6.63-.12.27-.34.47-.5.7-.57.79-1.15,1.51-1.46,2.43-.14.39-.34.68-.48,1.07l-.23.62c-.04.25-.16.52-.28.79-.05.17-.09.43-.05.67.01.08.04.24.02.37-.02.13.05.32.08.48.21.5.65.68,1.14.89.09.07.27.12.44.18.27.12.55.12.88.06.19-.07.4-.07.56-.09l1.16-.23c.48-.08.87-.23,1.29-.42.38-.23.86-.3,1.33-.46.24-.04.52-.13.79-.21.13.02.24-.04.36-.1l1.75-1.15c.38-.23.74-.53,1.02-.83.21-.2.43-.4.72-.62l.82-.55c.36-.31.72-.61,1.04-.96.44-.32.79-.71,1.27-1.07.56-.38,1.1-.84,1.5-1.4.47-.65.91-1.26,1.25-1.94l.28-.58c.17-.23.26-.46.33-.76.22-.41.36-.8.54-1.25.16-.31.46-.45.8-.42.13.02.29,0,.37-.02.37-.02.6.15.69.42.07.19.08.48.07.69-.06.38-.25.74-.36,1.09-.09.43-.24.82-.2,1.27.03.16,0,.29-.14.39-.11.06-.17.23-.19.36-.09.22-.22.41-.39.64-.13.19-.27.38-.36.6-.14.39-.42.69-.61,1.05-.22.41-.52.83-.74,1.24-.3.42-.62.76-.92,1.18l-.03.05c-.18.44-.54.75-.77,1.08-.24.33-.48.57-.69.86l-.33.47c-.24.33-.52.62-.75.95l-.29.5c-.38.43-.72.9-1.07,1.29-.52.62-1,1.2-1.47,1.85-.31.34-.64.6-.91.98-.2.28-.5.49-.68.86-.1.14-.29.21-.43.4-.26.17-.51.41-.71.7-.32.34-.69.57-1.05.88-.26.17-.48.37-.7.49-.41.28-.82.55-1.18.86-.33.26-.72.41-1.05.67-.41.27-.83.47-1.28.5-.24.04-.47.16-.65.31-.19.07-.39.15-.55.17l-.87.23c-.58.22-1.15.02-1.74-.04-.41-.01-.81-.16-1.24-.25-.08.01-.21,0-.29,0l-.43-.09c-.13-.02-.22-.09-.3-.07-.13-.02-.17-.05-.27-.12-.41-.22-.83-.52-1.22-.87-.14-.1-.31-.15-.45-.25-.19-.14-.38-.27-.55-.32l-.42-.3c-.17-.05-.27-.12-.17-.26.15-.31.07-.59.02-.91-.07-.4-.15-.88-.18-1.33-.03-.45.11-.84.25-1.24.12-.27.2-.57.32-.84.07-.09.05-.17.12-.27.17-.23.34-.47.67-.44.13.02.16-.03.24-.04.28-.09.5,0,.66.26.18.34.29.78.12,1.22-.07.09-.05.17-.09.22-.18.44-.16.81.08,1.27.1.35.15.68.41,1l.23.17c.46.25.91.51,1.44.75.09.07.22.09.35.11.21,0,.43.09.64.1.53-.05.99,0,1.43-.11.16-.03.32-.05.45-.03.32-.05.64-.11.94-.32.46-.24.93-.4,1.35-.59.11-.06.23-.12.31-.13.41-.27.77-.58,1.23-.82.44-.32.87-.72,1.3-1.12.35-.39.71-.69,1.11-1.05.4-.35.81-.63,1.11-1.05.38-.43.83-.75,1.12-1.26.02-.13.13-.19.2-.28.03-.05.07-.09.05-.17-.05-.03-.13-.02-.17-.05-.16.03-.4.07-.55.17-.31.13-.62.27-.96.45-.43.11-.81.34-1.19.57-.11.06-.31.13-.47.16-.37.02-.69.07-.99.29-.21.2-.54.25-.82.26-.13-.02-.32.05-.48.08l-.24.04c-.29,0-.56.09-.79.21-.63.19-1.19.28-1.75-.12-.09-.07-.14-.1-.22-.09-.22-.09-.36-.19-.55-.32-.09-.07-.22-.09-.35-.11-.05-.03-.13-.02-.09-.07-.13-.31-.55-.32-.71-.58-.2-.21-.44-.38-.64-.6-.15-.18-.34-.32-.35-.6,0-.21-.08-.48-.15-.68-.06-.11-.15-.18-.26-.33-.21-.29-.36-.68-.38-1.05-.05-.32-.01-.58.03-.83.04-.25.01-.42.02-.62s.05-.46.1-.64c.07-.3.19-.57.31-.84l.06-.38c.24-.54.44-1.1.63-1.67.28-.58.68-1.14.95-1.73.03-.05.07-.09.1-.14l.05.03Z"/>
    <path class="cls-1" d="M223.92,144.57c.33-.48.8-.76,1.41-.77.21.02.36-.07.61,0,.41.05.75.19,1.06.45.09.07.14.19.15.27-.02.29,0,.61-.05.94-.02.21-.17.38-.45.53-.12.05-.27.23-.38.36-.11.13-.23.18-.39.28-.28.06-.52.17-.71.3-.12.05-.32.11-.49.04-.17-.07-.38-.17-.63-.24-.17-.07-.26-.22-.28-.47.02-.21-.03-.41-.13-.64-.14-.27-.05-.57.13-.87l.15-.18Z"/>
    <path class="cls-1" d="M228.59,148.63c.35-.46.83-.73,1.44-.71.2.03.36-.06.61.02.41.06.74.21,1.04.49.08.08.13.2.13.28-.03.29-.02.61-.08.94-.03.21-.19.37-.47.51-.12.04-.28.21-.39.34s-.24.17-.4.26c-.28.05-.52.14-.72.28-.12.05-.32.09-.49.02s-.38-.19-.62-.26c-.17-.07-.25-.23-.26-.48.03-.21-.02-.41-.11-.65-.13-.28-.02-.57.17-.86l.16-.17Z"/>
    <path class="cls-1" d="M233.11,152.88c.37-.45.86-.69,1.47-.65.2.04.37-.04.61.04.41.08.73.25,1.02.53.08.08.12.2.12.29-.04.29-.04.61-.12.94-.04.2-.2.37-.49.49-.12.04-.29.2-.41.33-.12.12-.24.16-.41.24-.29.04-.53.12-.73.24-.12.04-.33.08-.49,0-.16-.08-.37-.2-.61-.28-.16-.08-.25-.24-.24-.49.04-.2,0-.41-.08-.65-.12-.28,0-.57.2-.85l.16-.16Z"/>
  </g>
  <g>
    <path class="cls-1" d="M99.92,155.82c-.16-.79-.33-1.58-.49-2.37l-.05-.23c.08-.49-.08-.98-.25-1.48-.08-.39-.12-.86-.2-1.25l-.08-.4c-.08-.69-.17-1.38-.31-2.05-.07-.63-.19-1.2-.32-1.82l-.3-1.47c-.15-.73-.19-1.49-.34-2.22-.16-.79-.33-1.58-.55-2.36-.12-.56-.29-1.12-.41-1.68-.13-.33-.21-.72-.33-1.05-.15-.44-.17-.85-.2-1.25-.05-.23-.14-.38-.17-.55-.03-.7-.28-1.36-.42-2.03-.03-.41-.12-.86-.14-1.26-.07-.34-.01-.35.38-.43.1-.08.21-.1.31-.18.3-.24.65-.25,1-.27.06-.01.12.03.19.08.25.36.66.63.87,1.06.05.23.15.44.08.69-.03.12-.07.25-.04.36l.53,2.54c.13.33.25.65.32.99.03.17.13.33.16.5.16.5.28,1.06.44,1.56l.32,1.52c.14.38.11.8.26,1.24l.02.11c-.11.32,0,.59.06.87.07.34.08.69.16,1.08.08.39.11.8.25,1.18.07.04.08.1.09.16,0,.29.05.52.11.8.14.38.16.79.19,1.2.03.41.18.85.26,1.24.12.56.24,1.18.3,1.76l.3,1.47c0,.29.16.5.16.79.05.52.2.96.3,1.47.01.35.19.61.13.91.02.11.04.17.12.27l.05.23c-.08.49.12.86.2,1.25.03.41.18.85.08,1.22l.04.17c.08.39.22.78.37,1.22.02.11.06.28.04.46l.18.85c-.02.18,0,.29.03.41.01.06-.03.12.02.11.18.32.08.69.22,1.07.11.27.13.62.13.91.08.39.21.72.28,1.06.06.28.23.54.12.86.15.44-.06.84-.33,1.25-.1.08-.19.22-.22.34-.09.14-.2.16-.33.13-.33-.17-.7-.27-.99-.5-.16-.2-.26-.42-.37-.63-.07-.04-.09-.16-.1-.21-.27-.18-.26-.42-.26-.71,0-.29-.1-.51-.16-.79-.2-.66-.41-1.39-.55-2.06-.06-.28-.16-.5-.16-.79-.14-.68-.26-.71-.81-.48-.51.1-.95.25-1.44.42l-2.09.43c-.46.04-.92.07-1.32.15-.58.06-1.15.12-1.69.35-.1.08-.28.06-.39.08-.11.02-.28.06-.38.14-.3.24-.71.26-1.09.4-.39.08-.79.16-1.11.35-.1.08-.21.1-.33.13-.11.02-.21.1-.31.18-.17.04-.2.16-.17.33l.34,1.64c.06.28.12.57.13.92.01.06.04.17.12.27.29.53.35,1.1.35,1.69.01.06-.02.18-.11.32l-.28.35c-.03.12-.12.26-.21.4.01.06.02.11-.03.12-.14.44-.53.58-.92.37l-.61-.4c-.27-.18-.56-.42-.64-.81-.12-.56-.33-1.05-.51-1.6-.02-.11-.04-.17-.12-.27-.01-.06-.09-.16-.05-.22-.04-.46-.24-.89-.32-1.29-.03-.41-.22-.78-.36-1.16l-.05-.23c-.21-1.02-.62-1.87-.99-2.79-.18-.32-.24-.6-.31-.94l-.29-1.41c-.08-.69-.16-1.32-.35-1.99-.2-.67-.28-1.35-.48-2.02-.2-.96-.34-1.93-.55-2.95l-.33-1.58c-.07-.34-.08-.69-.15-1.03-.04-.46-.13-.91-.16-1.32-.04-.46-.13-.92-.28-1.35-.05-.23-.11-.51-.11-.8-.08-.69-.1-1.33-.13-2.03-.06-.58-.18-1.14-.31-1.76-.07-.63-.27-1.3-.4-1.92-.1-.75-.19-1.49-.27-2.18l-.19-.9c-.05-.23-.21-.43-.31-.64-.18-.31,0-.53.13-.79.03-.12.16-.09.23-.05.18.02.29,0,.38-.14.3-.24.61-.48.93-.61.17-.03.24,0,.32.11.2.13.41.27.66.33.25.07.4.21.39.45.01.06.04.17.12.27.06.28.06.58-.13.79-.03.13-.02.18.01.35.09.16.14.38.18.61.05.22.1.51.09.74.21,1.31.54,2.59.81,3.89.06.28.07.63.07.93l.05,1.11c.02.11.04.23.01.35-.04.36.04.76.17,1.08.08.1.09.16.1.21-.07.25.03.41.12.56.01.06.07.04.08.1.04.46.09.98.18,1.43l.06.28c0,.24.05.52.1.74-.04.07-.03.12-.02.18.12.27.17.55.06.87.02.11.12.27.2.37.19.37.28.77.19,1.2-.05.3.12.56.17.85.04.17.13.33.15.44.07.34.2.67.27,1,.06.28.07.63.13.91.09.45.17.85.32,1.29.11.51.27,1,.31,1.52.04.46.24.89.34,1.34.07.04.08.1.1.21.09.45.24.89.45,1.32.11.27.22.48.28.77.1.21.16.2.38.16.46-.04.85-.17,1.27-.38.27-.12.56-.12.9-.19.16-.09.33-.13.48-.22l.28-.06c.5-.16,1-.27,1.51-.37.79-.16,1.54-.26,2.28-.35.52-.05,1.03-.15,1.48-.25.9-.19,1.78-.49,2.6-.77.28-.06.32-.18.27-.41-.17-.85-.34-1.64-.51-2.48h.06Z"/>
    <path class="cls-1" d="M116.73,163.39c-.02-.17-.04-.4.05-.7.08-.41.1-.82.18-1.29l.2-1.64c.03-.35.05-.7.02-1.04.04-.24.02-.46,0-.69,0-.06,0-.12.04-.18-.02-.17.03-.29.02-.46,0-.69,0-1.33.05-2.03.04-.18-.16-.51-.39-.54-.24-.04-.53-.07-.75.07-.23.02-.45.1-.63,0-.06-.05-.18-.04-.23-.04-.28.08-.57.11-.91.14-.29.03-.63.05-.92.02-.11,0-.22.08-.33.14-.16.13-.44.21-.67.29-.29.02-.52.04-.8.13-.28.08-.62.17-.9.31-.17.01-.28.08-.39.15-.17.07-.27.2-.26.37.09.4.08.86.22,1.2.06.05.07.11.07.17,0,.58.16,1.14.26,1.65v.12c0,.64.23,1.19.4,1.82.04.4.12.74.21,1.14l.24.73c.06.05.12.1.13.16.04.46.19.85.17,1.31.03.29-.13.47-.28.72-.06,0-.11.07-.17.07-.23-.04-.47-.07-.6-.24-.07-.17-.25-.21-.43-.25-.58-.06-.96-.44-1.19-1v-.12c.03-.18-.04-.34-.11-.45-.13-.16-.21-.39-.34-.55-.07-.11-.08-.22-.15-.33-.13-.16-.15-.39-.17-.56-.08-.28-.22-.56-.3-.78-.02-.17-.09-.34-.1-.45-.13-.8-.31-1.54-.54-2.21,0-.06-.06-.05-.07-.11.07-.53-.26-1.02-.31-1.59l-.31-1.59c-.07-.17-.26-.32-.16-.51-.16-.56-.16-1.14-.21-1.72l-.37-4.25c-.05-.57.02-1.16-.04-1.73.05-.12-.02-.23.03-.29-.04-.46-.02-.87,0-1.33-.04-.4-.02-.87,0-1.27-.03-.34,0-.64.03-.99,0-.11.04-.24.03-.35l.06-1.28c0-.69-.07-1.44-.02-2.2.03-.35.04-.81.19-1.17.08-.35.17-.71.25-1.06l.5-2.24c.08-.35.23-.66.32-1.01.07-.58.36-1.13.55-1.67l.09-.3c.09-.24.19-.48.34-.72.05-.06.1-.12.15-.24.09-.3.36-.55.56-.86.11-.07.16-.19.26-.37.14-.36.42-.5.78-.3.18.04.29.03.45-.1.27-.25.62-.17.92-.08.3.09.53.13.82.16.35.03.64.06.89.27.06.05.12.1.18.1.3.15.6.29.8.57.13.22.38.43.62.52.19.16.37.26.45.48,0,.12.07.17.13.22.38.43.77.86,1.04,1.35.13.22.28.5.35.72v.06c.33.43.44,1,.6,1.51.06.05.07.17.08.28-.03.29.11.63.2.91.11.57.38,1.07.6,1.62.08.28.16.51.18.79.04.4.12.74.21,1.08l.04.52c-.04.23-.02.41,0,.64.16.45.2.91.23,1.31-.03.29.1.51.13.8.08.28.06.63.08.92.01.12.03.29.09.4.09.34.11.63.14.91.06.05.01.11.02.17-.08.41,0,.75.04,1.15.02.23.1.45-.06.64v.12c.1.4.13.74.1,1.09-.07.47.08.86.05,1.27.03.4.12.74.16,1.14,0,.06-.04.18-.03.29,0,0-.05.06-.05.12.21.44-.04.93.06,1.33,0,.11-.04.23-.03.35-.22.77-.21,1.58-.2,2.39-.03.35.12.74.09,1.09.04.4,0,.75-.02,1.1-.04.87-.2,1.69-.29,2.57v.06c.09.28,0,.58-.04.87.03.29-.06.58-.1.88-.04.23-.07.47-.11.7l-.23,1.29c-.04.23-.02.41-.07.58-.02.46-.4.73-.82.53l-.6-.29c-.12-.1-.25-.21-.26-.32-.08-.28-.28-.55-.25-.9v-.17ZM116.35,139.2h.06s-.04-.41-.04-.41c-.03-.29-.05-.52-.18-.74-.06-.05-.07-.11-.07-.17-.17-.62-.34-1.24-.57-1.86-.08-.28-.16-.56-.25-.9l-.25-.9c0-.06,0-.12-.07-.17-.14-.33-.34-.61-.54-.94-.08-.28-.27-.44-.41-.66-.13-.16-.31-.26-.55-.3-.24-.09-.54-.18-.83-.22-.65-.12-1.1.04-1.33.69-.14.36-.22.77-.43,1.08-.25.48-.43,1.02-.56,1.5-.34.78-.44,1.6-.48,2.41-.02.41-.11.76-.13,1.11-.08.41-.16.82-.3,1.24-.22.77-.21,1.58-.14,2.38.05.57-.01,1.16.09,1.73.05.63-.07,1.22-.08,1.8.04.46-.04.87,0,1.33l.02.23c-.15.3-.06.58-.09.93l.04.4c.03.34,0,.64.08.92,0,.12.07.17.02.23-.09.3-.06.64.02.92.07.11.01.17.02.29.04.46.02.87.23,1.25.07.11.03.29.04.4q.02.23.25.27c.12,0,.23-.02.34-.09.5-.22.95-.37,1.54-.31h.12c.28-.09.57-.12.8-.14.29-.03.56-.17.85-.19l1.32-.12c.34-.03.65.12.98-.08h.06c.35.02.69,0,.99.02.23-.02.34-.09.31-.37l-.02-.23c.09-.93.01-1.85-.07-2.77-.03-.34,0-.75-.04-1.1.01-.52-.03-1.04-.02-1.5-.03-.34-.06-.69-.03-1.04l-.04-.4c-.06-.69-.12-1.38-.12-2.07,0-.11.03-.29-.04-.4-.05-.57-.21-1.14-.26-1.66-.04-.46-.14-.91-.24-1.42Z"/>
    <path class="cls-1" d="M127.69,128.52c1.04.08,1.96.1,2.81.35.4.07.8.19,1.2.32.46.12.97.25,1.43.43l.34.18c.46.24.85.48,1.31.78.23.12.45.36.68.59.34.29.62.71.9,1.12.28.47.56.88.78,1.34.11.23.16.52.21.81.05.12.05.29.11.41v.29c-.02.58-.03,1.21.01,1.79,0,.23,0,.4-.13.57-.06.06-.06.17-.06.29-.06.29-.13.63-.36.86-.12.17-.18.34-.24.57l-.18.23c0,.06-.12.11-.12.23-.07.34-.42.62-.54.91-.41.22-.53.62-.83.9-.24.23-.47.51-.65.74-.24.28-.53.45-.82.67-.23.17-.47.39-.76.56-.23.11-.47.34-.76.33-.11,0-.17.11-.29.17l-.7.39c-.12.05-.17.05-.29.05-.23.05-.41.11-.58.28-.35.22-.7.39-1.1.38-.4,0-.81.1-1.16.2-.29.11-.58.16-.87.21l-.41.16c-.23.11-.35.28-.36.51-.01.63-.14,1.26-.16,1.9,0,.29-.02.63.04.92v.69c.04.29.03.58.08.87.05.46.04.92-.03,1.38-.07.52.04.98.02,1.5,0,.23.05.46.04.69.04.69.03,1.44,0,2.13.05.29.04.63.09.92.11.41.1.87.08,1.33s-.14.92-.03,1.33v.23c-.07.11-.07.29-.07.4.04.69.14,1.39.18,2.14,0,.29.04.63.03.98-.01.58-.37.97-.83,1.25-.35.16-.64.22-.98.04-.11-.06-.23,0-.29,0h-.23c-.34-.07-.45-.3-.33-.59l.18-.34c.06-.17.12-.4.01-.63-.06-.06-.05-.12-.05-.17.07-.4-.1-.87-.09-1.33-.05-.46-.09-.98-.03-1.44.06-.29.01-.63.02-.92,0-.23.07-.52.08-.8,0-.12-.05-.23-.05-.35-.05-.17-.05-.35-.1-.58-.04-.63.03-1.27.04-1.96v-.35c0-.06-.05-.12-.05-.17.02-.81-.08-1.61-.06-2.42.07-.52.08-1.04.15-1.49v-.23c-.16-.58-.03-1.21-.07-1.85-.04-.69.09-1.32.1-1.96v-.12c.19-.74.15-1.44.17-2.19l.04-1.55c0-.12.06-.29.07-.46.06-.29.07-.57.13-.86.01-.52.02-1.04.09-1.55v-.23c-.1-.52.03-1.04.04-1.5.07-.69.26-1.32.28-2.01l.02-1.09c-.05-.46.02-.92.15-1.38.13-.57.14-1.15.1-1.72-.17-.29-.04-.63-.04-.98,0-.29.07-.52-.04-.81.12-.29.01-.52-.21-.75-.06-.06-.05-.23-.05-.35,0-.17.12-.17.24-.28.06,0,.17-.05.18-.17.18-.23.47-.33.65-.56.06-.06.17-.05.29-.05.58-.04,1.15-.03,1.62-.08ZM128.09,131.18c-.12,0-.17,0-.29,0h-.35c-.29-.01-.4.1-.41.39v.17c.1.46.09.92-.03,1.32-.07.46-.08.92-.14,1.32v.17c-.03.98.01,1.9-.01,2.88,0,.29-.13.57-.13.86-.07.69-.03,1.44-.05,2.13,0,.12.05.29,0,.46-.13.69.03,1.44-.22,2.07v.06c0,.17.16.29.28.24l1.22-.49c.29-.05.52-.16.81-.27.46-.16.93-.27,1.39-.43l1.4-.77c.18-.17.41-.28.59-.45.12-.11.24-.28.41-.39.53-.33.88-.84,1.24-1.36.24-.4.54-.79.66-1.25.18-.17.24-.46.3-.68.12-.4.08-.86.09-1.32l-.16-.69c-.17-.35-.33-.7-.55-1.05-.11-.23-.33-.47-.5-.7-.17-.23-.28-.47-.5-.64-.28-.24-.68-.42-1.02-.66-.23-.12-.51-.24-.8-.31-.17-.12-.4-.18-.57-.24-.12,0-.17,0-.23-.06-.4-.18-.74-.25-1.15-.26l-1.27-.03Z"/>
    <path class="cls-1" d="M147.48,129.71c1.02.2,1.93.32,2.76.67.39.11.78.28,1.16.45.44.18.94.36,1.37.6l.32.22c.42.29.79.57,1.21.92.21.15.41.41.61.67.3.33.53.77.76,1.21.22.5.45.93.62,1.42.08.24.1.54.12.83.04.12.02.29.06.42l-.04.29c-.08.57-.17,1.2-.19,1.78-.03.23-.06.4-.19.56-.06.05-.08.16-.1.28-.1.28-.2.61-.46.81-.14.16-.22.32-.31.54l-.2.2c0,.06-.13.1-.15.21-.1.33-.49.57-.64.84-.43.17-.6.56-.92.8-.26.2-.53.45-.73.65-.27.25-.58.39-.89.57-.25.14-.51.34-.82.47-.24.08-.5.28-.79.24-.11-.02-.19.09-.31.13l-.74.31c-.12.04-.18.03-.29.02-.24.03-.42.06-.61.21-.37.18-.74.3-1.14.25-.4-.06-.81,0-1.17.07-.3.08-.59.09-.89.11l-.42.12c-.24.08-.38.24-.41.47-.09.63-.29,1.24-.37,1.87-.04.29-.09.63-.07.92l-.09.68c.02.29-.02.58,0,.87,0,.46-.07.92-.19,1.37-.13.51-.08.98-.15,1.49-.03.23,0,.46-.04.69-.04.69-.14,1.44-.23,2.12.02.29-.03.63-.01.93.06.41,0,.87-.07,1.33-.06.46-.24.9-.18,1.31l-.03.23c-.07.11-.1.28-.11.39-.04.69-.02,1.39-.06,2.14-.04.29-.03.63-.08.98-.08.57-.48.92-.97,1.15-.37.12-.66.14-.98-.08-.11-.07-.23-.03-.29-.04l-.23-.03c-.33-.1-.42-.35-.26-.62l.22-.32c.08-.16.17-.38.09-.63-.05-.06-.04-.12-.03-.18.11-.39,0-.87.07-1.33,0-.46.02-.99.14-1.43.1-.28.09-.63.12-.91.03-.23.13-.5.17-.79.02-.11-.03-.24,0-.35-.03-.18,0-.35-.04-.59.03-.63.17-1.25.27-1.94l.05-.34c0-.06-.04-.12-.03-.18.11-.8.11-1.61.22-2.41.13-.51.2-1.02.32-1.47l.03-.23c-.09-.59.11-1.21.14-1.84.04-.69.24-1.3.32-1.93l.02-.12c.27-.72.31-1.41.41-2.15l.21-1.54c.02-.11.1-.28.12-.45.1-.28.14-.56.23-.84.07-.51.14-1.03.27-1.53l.03-.23c-.04-.53.14-1.03.21-1.48.15-.68.41-1.28.5-1.96l.15-1.08c0-.46.12-.91.3-1.35.19-.55.27-1.12.29-1.7-.13-.31.03-.64.08-.98.04-.29.13-.51.05-.81.15-.27.07-.51-.13-.77-.05-.07-.03-.24,0-.35.02-.17.14-.15.27-.25.06,0,.18-.03.2-.15.2-.21.5-.28.71-.48.06-.05.18-.03.29-.02.58.02,1.15.1,1.61.11ZM147.57,132.4c-.11-.02-.17-.02-.28-.04l-.34-.05c-.29-.04-.41.06-.45.34l-.02.17c.05.47-.01.93-.18,1.31-.12.45-.18.9-.29,1.3l-.02.17c-.13.97-.2,1.89-.34,2.86-.04.29-.19.55-.23.84-.15.68-.2,1.43-.29,2.11-.02.12.02.29-.06.46-.21.67-.14,1.43-.45,2.03v.06c-.03.17.12.31.25.27l1.27-.35c.29-.02.54-.1.84-.18.48-.11.95-.16,1.43-.27l1.48-.61c.19-.15.44-.23.63-.38.13-.1.27-.25.46-.34.56-.27.97-.74,1.39-1.2.28-.37.62-.73.8-1.17.2-.15.29-.42.38-.65.17-.38.18-.85.24-1.3l-.08-.71c-.12-.37-.25-.73-.43-1.11-.08-.24-.28-.5-.42-.76s-.22-.5-.43-.7c-.25-.27-.63-.49-.94-.77-.21-.15-.48-.3-.76-.4-.16-.14-.38-.23-.54-.31-.11-.02-.17-.02-.22-.09-.38-.23-.71-.33-1.11-.38l-1.26-.17Z"/>
    <path class="cls-1" d="M162.06,167.49c.12-.44.25-.89.44-1.37.06-.22.23-.41.31-.69-.03-.13.02-.29.05-.4.01-.06-.01-.18.06-.22.09-.33.17-.61.32-.93.04-.17.09-.33.19-.48.07-.04.1-.15.13-.26.11-.39.37-.68.36-1.09.3-.22.18-.67.37-.91.2-.3.29-.64.38-.97q.02-.06.09-.1c.27-.34.34-.8.45-1.19.35-1.04.62-2.04.95-3.02.12-.44.06-.88.06-1.3,0-.18-.15-.34-.28-.5-.16-.28-.38-.58-.4-.95v-.06c-.22-.24-.25-.55-.36-.82l-.21-.54c-.03-.13-.05-.25-.08-.38l-.07-.2c-.23-.48-.33-.99-.3-1.52-.02-.36.02-.71,0-1.08-.05-.25-.17-.46-.22-.72-.11-.45-.21-.96-.2-1.43-.03-.55,0-1.08-.09-1.64-.02-.36-.04-.73.01-1.13.06-.22-.06-.43-.05-.67-.04-.49-.09-.98,0-1.5.04-.35-.04-.73-.06-1.09-.05-.25-.04-.49-.09-.74-.04-.31-.05-.67-.16-.94-.09-.32-.01-.6-.05-.91,0-.18.02-.29,0-.42,0-.24,0-.42.04-.58.02-.29-.11-.69.04-1,.02-.06-.08-.14-.05-.25-.09-.32-.04-.73.05-1.06.06-.22.16-.37.32-.51.21-.12.39-.13.59-.2.42,0,.74.14,1.02.4.55.39.69.97.65,1.55-.02.71-.05,1.48,0,2.21.02.36.11.69.13,1.05l.04.49c.04.49.14,1,.19,1.49.03.55-.04,1.01,0,1.55-.01.48.03.96.08,1.46.07.62.12,1.29.07,1.93-.08.28-.03.53,0,.84.04.31.12.63.16.94.08.38.09.74.11,1.11.05.67.18,1.3.36,1.95.03.13,0,.24.02.36-.01.47.1.92.35,1.35.12.21.23.24.35.04.26-.29.6-.43.86-.72.01-.05.08-.09.16-.14.07-.04.14-.08.16-.14.26-.53.67-.89.97-1.35.2-.3.46-.59.66-.89l.3-.46c.15-.32.28-.58.52-.81.27-.34.45-.77.72-1.12.26-.29.44-.72.65-1.07l1.25-1.93q.07-.04.09-.1c.21-.54.57-.98.87-1.43.16-.14.22-.36.26-.53l.38-.73c.23-.41.47-.83.64-1.26l.46-1.01c.18-.43.51-.76.89-1.07.09-.09.21-.12.32-.09.33.09.6.22.86.36l.18.23c.09.32.31.62.34.93.01.6.04,1.15-.33,1.64-.19.25-.28.58-.41.84-.18.43-.4.79-.56,1.16-.26.52-.46,1.01-.72,1.53l-.54.87c-.29.4-.63.78-.92,1.18-.2.3-.36.68-.53,1.05-.19.25-.26.52-.55.69l-.07.04c0,.42-.36.68-.57.98-.1.15-.2.3-.34.38-.07.04-.09.1-.1.15l-.14.5c-.3.45-.5.94-.9,1.31-.11.39-.5.52-.65.84-.12.21-.29.4-.41.6-.22.6-.69,1-1.18,1.47-.16.14-.31.27-.42.42-.16.14-.3.22-.5.28-.14.08-.24.23-.38.31l-.5.28c-.07.04-.16.14-.17.19s-.05.17-.02.29c-.03.77-.36,1.51-.63,2.28-.12.21-.19.48-.25.71-.11.39-.2.72-.29,1.06l-.03.11c-.26.29-.24.65-.44.95-.03.11-.06.22-.13.26-.1.15-.22.36-.22.59-.02.06-.06.22-.13.26-.17.19-.19.48-.25.71l-.37.91c-.22.6-.39,1.21-.62,1.8-.18.43-.37.91-.49,1.36-.12.21-.18.43-.18.67-.02.29-.15.56-.34.8l-.06.22c.09.32.04.49-.14.74-.07.04-.09.1-.1.15l.03.55s-.02.06-.07.04c-.25.05-.44.3-.71.4,0,0-.07.04-.13.03-.19-.17-.33-.09-.49.04-.13.03-.18.01-.21-.12-.08-.14-.15-.34.03-.53.02-.05.05-.17-.05-.25-.04-.07-.1-.09-.22-.06-.13.02-.17-.05-.14-.16q0-.24-.19-.17c-.06-.02-.13.02-.25.05,0,0-.05-.02-.04-.07,0,0,.02-.06.03-.11.35.04.43-.24.54-.45.06.01.01-.06.03-.11-.02.06-.07.04-.13.02l-.07.04c-.09.1-.19.25-.28.16-.04-.07-.05-.25-.03-.31.12-.44.23-.83.33-1.22ZM162.93,170.41c.07-.04.14-.08.16-.14.06.01.02-.06-.03-.13l-.21.12c.06.02.04.07.08.14Z"/>
  </g>
</svg>