<?xml version="1.0" encoding="UTF-8"?>
<svg id="Layer_1" data-name="Layer 1" xmlns="http://www.w3.org/2000/svg" viewBox="0 0 260.55 262.85">
  <defs>
    <style>
      .cls-1 {
        fill: #231f20;
      }
    </style>
  </defs>
  <g>
    <path class="cls-1" d="M26.58,131.17c-.11-.14-.31-.49-.53-.76-.13-.26-.35-.53-.52-.84-.11-.13-.22-.27-.31-.49-.22-.27-.43-.54-.6-.85-.16-.39-.54-.68-.82-1.04-.49-.71-1-1.34-1.53-2.02-.32-.41-.7-.7-.99-1.06-.29-.36-.71-.61-.99-1.06,0-.08-.11-.13-.19-.14-.15-.1-.3-.28-.44-.46-.04-.05-.07-.09-.06-.17l-.04-1.07c-.04-.33.15-.56.41-.69q.61-.34,1.28-.06l1.29.52c.15.1.26.23.28.44,0,.08.06.17.13.26l1.17,1.2c.44.46.8.91,1.19,1.41l1.33,1.67c.07.09.19.14.26.24l.39.5s.03.13.06.17c.45.38.72.9,1.03,1.39.21.35.49.71.7,1.06.1.22.24.4.38.58.3.28.55.59.88.92.21.27.47.51.69.78.35.53.7,1.06,1.09,1.56l.21.27c.68,1.23,1.64,2.16,2.46,3.27.07.09.1.22.17.31.03.13.05.25.09.3.26.24.43.54.69.78.26.24.43.54.61.77.11.14.21.35.31.49l1.29,1.62c.11.14.26.24.37.37.04.04.12.05.07.09.23.48.65.81.92,1.25.18.23.28.44.41.7l.72.9c.06.17.17.31.28.44l.18.22.72.9c.14.18.29.36.39.58.05.25.2.43.17.67,0,.08.06.17.05.25.16.39.14.55-.13.76-.13.11-.23.26-.3.46-.06.2-.32.25-.48.23-.37,0-.69-.04-1.01-.16-.2-.06-.35-.16-.46-.3-.33-.32-.62-.69-.91-1.05-.14-.18-.24-.4-.38-.58l-2.55-3.2c-.14-.18-.37-.37-.55-.6l-.25-.32c-.61-.77-1.18-1.49-1.75-2.29-.43-.54-.9-1.13-1.28-1.7-.3-.57-.74-1.03-1.17-1.57-.31-.49-.71-.98-1.06-1.52-.29-.36-.53-.76-.77-1.15l-.43-.54c-.43-.54-.82-1.04-1.3-1.54-.3-.28-.54-.68-.9-1.13Z"/>
    <path class="cls-1" d="M68.27,120.38c.03.05,0,.13.03.18.37.46.53,1.02.8,1.53.21.41.42.82.49,1.31.06.36.24.72.45,1,.1.08.16.18.21.28.03.05,0,.13.05.1.36.2.29.56.32.87,0,.13.13.26.16.44l.49,1.31c.03.05-.03.08-.03.08.39.38.3.95.51,1.36.08.15.06.36-.04.54-.08.1-.23.18-.36.31-.41-.04-.95.17-1.34-.21-.21-.15-.42-.3-.57-.48l-.03-.05c.1.08.13.13,0,0-.05-.1-.16-.18-.26-.25l.05.1c-.13-.13-.31-.36-.65-.63-.19-.36-.29-.69-.45-1-.08-.15-.13-.26-.14-.38-.16-.31-.29-.56-.4-.9-.08-.28-.21-.54-.4-.77l-.11-.21c-.08-.15-.08-.28-.21-.41l-.08-.15c-.13-.26-.21-.54-.37-.84-.13-.25-.31-.36-.65-.25,0,0-.03-.05-.05.03-.33.24-.77.4-1.07.69-.13.13-.25.26-.43.29-.38.13-.77.27-1.07.56l-.1.05c-.59.37-1.25.71-1.92,1.06-.15.08-.31.16-.43.29-.26.13-.33.49-.19.75.31.36.43.82.64,1.23.32.48.58,1,.93,1.53l.69,1.33.03.05c0,.39.29.69.43,1.07.08.28.19.62.17.95-.02.33-.15.47-.48.57-.54.21-.95.04-1.4-.31-.03-.05-.13-.13-.21-.15-.34-.15-.55-.43-.68-.68-.24-.33-.37-.72-.53-1.02l-.11-.2c-.21-.28-.45-.61-.66-.89l-.4-.77c-.11-.2-.19-.36-.29-.56-.37-.59-.69-1.2-1.04-1.86-.27-.51-.53-1.02-.75-1.56l-.42-.82c-.21-.41-.43-.82-.54-1.28l-.08-.15c-.32-.61-.49-1.31-.68-1.92-.24-.59-.35-1.18-.57-1.72-.14-.38-.27-.77-.43-1.08-.03-.18-.11-.33-.14-.51-.11-.33-.19-.62-.35-.92-.16-.31-.22-.67-.33-1-.11-.33-.17-.69-.27-1.03l-.44-1.46c-.14-.38-.22-.79-.3-1.21-.08-.41-.22-.79-.3-1.21-.05-.1-.05-.23-.11-.33.02-.08-.03-.18-.06-.23-.37-.72-.54-1.54-.68-2.31-.19-.74-.31-1.46-.45-2.23-.11-.46-.12-.98-.18-1.47l-.1-1.31c.02-.46-.01-.9,0-1.37-.03-.18,0-.39-.11-.59-.08-.15-.06-.36.09-.57.2-.24.3-.55.43-.81.12-.26.25-.39.46-.5.26-.13.48-.32.77-.4.1-.05.18-.03.26,0,.39.25.83.48,1.2.68.34.15.52.38.81.55.05.1.16.18.24.2.44.22.76.58,1.07.94.16.18.34.28.5.46.58.48,1.1.99,1.55,1.6.24.33.45.74.79,1.02.26.25.42.56.63.84l1.42,1.86c.29.43.55.81.82,1.2l.68.94c.29.43.61.79.87,1.17l.35.66c.32.62.66,1.15,1.06,1.66l.4.77c.24.46.43.95.77,1.35l.19.36c.16.31.37.59.53.89l.16.31c.14.51.4.9.69,1.33.18.23.29.56.37.84.11.21.19.49.42.69.24.2.37.46.48.79ZM65.04,120.77l-.29-.56c-.14-.38-.27-.77-.46-1.13-.19-.36-.42-.69-.66-1.02-.21-.41-.37-.84-.64-1.23-.29-.56-.53-1.15-.9-1.61-.08-.15-.16-.31-.19-.49l-.24-.46c-.24-.46-.53-.89-.77-1.35l-.53-1.02c-.13-.38-.4-.64-.69-.94-.29-.3-.55-.69-.82-1.07-.32-.48-.56-1.07-.98-1.5-.39-.38-.63-.84-.97-1.25-.39-.51-.71-.99-1.16-1.48-.34-.41-.71-.86-1.1-1.25l-1.12-1.04c-.26-.25-.5-.58-.86-.78-.1-.08-.24-.2-.39-.12-.2.11-.12.26-.1.44-.02.08.03.18.05.23l.09.54c.04.95.21,1.9.48,2.8.13.38.22.79.3,1.21.11.59.12,1.23.47,1.77.11.21.14.51.32.74.18.36.27.77.33,1.13.05.1.05.23.08.28.16.56.38,1.1.54,1.67.14.51.3,1.08.57,1.59.13.38.3.82.56,1.2l.08.15c-.02.21.06.36.14.51l.21.54c.22.54.43,1.07.67,1.66.13.38.32.74.41,1.15.03.44.27.77.35,1.18.06.36.27.77.46,1.13.19.49.4.9.59,1.38.08.15.13.26.26.25.49.07.98.14,1.44-.1.38-.26.79-.48,1.25-.72l.23-.06c.43-.29.87-.45,1.3-.74.43-.29.87-.58,1.33-.82l.2-.11c.3-.29.33-.5.14-.72ZM69.21,128.79c.1.08.18.1.21.15-.03-.05-.13-.13-.21-.15h0Z"/>
    <path class="cls-1" d="M68.78,111.08c-.24-.71-.49-1.42-.71-2.07l-.13-.38c.02-.13,0-.18-.02-.24l-.84-2.45c-.09-.27-.11-.51-.21-.78-.15-.44-.36-.85-.45-1.31l-.6-1.74c-.04-.11,0-.18-.02-.24-.26-.76-.51-1.47-.72-2.25-.17-.49-.28-1-.4-1.51-.02-.24-.11-.51-.19-.73-.1-.46-.23-.84-.32-1.29-.09-.45-.21-.96-.38-1.45-.02-.24-.11-.51-.13-.75-.1-.46.1-.77.35-1.1l.22-.07c.15.07.33.07.48.14.09.09.22.11.35.12.24-.02.46.09.58.29l.55.36c.16.13.31.2.46.27.31.2.55.36.84.5.17.13.33.25.44.4l.24.16c.64.45,1.23,1.1,1.84,1.62.2.23.41.47.64.63.02.05.09.09.13.2.3.51.72.85,1.12,1.32l.51.43c.02.06.09.09.11.15.15.43.59.65.83.99.02.05.09.09.11.14.15.44.43.71.67,1.05.09.09.13.2.28.27.62.39,1.03,1.04,1.44,1.7.5.74,1.09,1.39,1.7,2.09l.39.6c.11.15.24.34.42.52.11.15.35.31.44.58.02.05.17.13.26.22.02.05.15.07.18.18.21.42.61.7.9,1.03.07.04.09.09.15.07.09.09.26.22.4.29.13-.17.12-.35.12-.53.03-.44,0-.91,0-1.4l.08-1.37c.05-.56.08-1.18.07-1.73.05-.38-.04-.84,0-1.22.01-.31.08-.64.08-1l.05-.38c.05-.57.08-1.18.16-1.82-.02-.24.01-.49.05-.75.1-.4.19-.86.22-1.3.1-.77.2-1.53.38-2.26.05-.2-.02-.42-.02-.6.07-.33.07-.69.13-1.02.02-.31.03-.62.06-.88l.05-.38c.16-.6.24-1.24.33-1.88-.02-.05.02-.13,0-.18l.5-2.25c.07-.33.14-.66.23-.93.02-.13.09-.27.21-.44.07-.15.2-.31.32-.48.32-.48.79-.7,1.34-.89.16-.06.47.14.59.29.21.42.39.78.42,1.2,0,.18.11.33.19.54.05.16.17.31.24.52.15.25.24.53.39.78l.04.11c.15.44.27.95.42,1.38.06.16.11.33.22.47.41.83.71,1.7,1.01,2.57l.51,1.47c.08.22.15.43.33.62l.13.2c.04.47.3.87.45,1.31.15.62.45,1.12.71,1.7.19.36.26.76.36,1.22l.06.16c.31.38.35.85.45,1.31.06.35.1.64.19.91,0,.18.08.4.13.56.09.27.19.54.28.82l.08.22c.3.87.58,1.69.81,2.52.07.22.22.47.12.69l.06.16c.18.18.21.42.23.65.06.16.11.33.22.47.13.2.13.38.13.56.02.05-.02.13.05.16.13.38.14.74.25,1.07.11.33.19.73.3,1.05.04.11.09.27.08.4l.02.05c.24.53.27,1.13.53,1.71.24.34.41.83.43,1.25l.11.33c.28.63.38,1.27.37,1.94.04.29.13.56.17.85.06.35.12.69.17,1.04l.02.24c.21.42,0,.86-.06,1.24-.05.2-.36.37-.63.28-.13-.02-.27-.09-.42-.16l-.68-.38c-.22-.11-.46-.27-.55-.54-.11-.14-.17-.31-.28-.45-.19-.36-.21-.78-.36-1.22-.07-.22-.15-.44-.17-.67-.09-.27-.17-.49-.21-.78-.03-.6-.29-1.18-.44-1.8l-.48-1.91c-.11-.51-.23-1.02-.36-1.58l-.51-2.02c-.02-.05-.04-.11,0-.18-.08-.76-.34-1.53-.55-2.31-.15-.62-.29-1.18-.49-1.78-.02-.24-.08-.4-.15-.62-.19-.54-.38-1.09-.53-1.71-.13-.38-.19-.73-.32-1.11-.02-.06-.04-.11,0-.18.01-.49-.19-.91-.32-1.29-.26-.76-.53-1.52-.82-2.21-.15-.44-.36-.85-.51-1.29-.17-.31-.28-.63-.37-.91l-.92-2.67c-.22-.47-.45-.94-.62-1.43-.19-.36-.32-.74-.45-1.12-.04-.11-.11-.14-.18-.18l-.12.17c-.09.27-.18.55-.14.84.04.47-.08,1-.17,1.46-.08.64-.19,1.22-.16,1.82,0,.37-.01.67-.12,1.08s-.06.88-.17,1.28l-.1.58c-.12,1.08-.38,2.08-.33,3.1l-.09.27c-.14.48-.1.95-.11,1.44l-.17,3.22c0,.55-.12,1.08-.13,1.57-.02.13-.03.25-.01.31.04.66-.02,1.35-.05,1.97-.01.67.05,1.38.04,2.06l.1.64c.04.11.06.16.08.22l.89,1.52s.07.04.09.09c.26.76.72,1.39.93,2.17-.05.02-.04.07.04.11.32.56.41,1.2.64,1.85.02.24.06.53.03.78-.04.07-.02.13,0,.18.19.36.04.84.23,1.2.02.05-.02.13-.09.09-.18,0-.2.13-.22.26-.02.13-.07.33-.07.51,0,.18-.07.33-.21.44-.14.11-.27.28-.3.53.02.05-.05.2-.22.26l-.6.21c-.2.13-.38.13-.57-.05-.24-.16-.51-.07-.77-.1-.2-.05-.27-.09-.38-.23-.13-.2-.35-.3-.53-.49-.17-.13-.29-.32-.41-.47-.2-.23-.33-.43-.48-.69l-.15-.44c-.09-.27-.19-.54-.23-.83-.11-.33-.23-.65-.25-1.07,0-.37-.13-.75-.19-1.09-.15-.62-.1-1.18-.13-1.78.03-.44,0-.86.06-1.24,0-.18-.02-.42,0-.55.03-.26-.02-.42-.15-.62-.19-.36-.43-.71-.67-1.05l-.4-.47c-.29-.32-.59-.65-.83-.99-.31-.38-.63-.76-1.05-1.1-.39-.41-.72-.85-1.07-1.34-.26-.4-.57-.78-.94-1.14-.28-.27-.57-.6-.79-.88-.39-.42-.77-.83-1.07-1.34l-.72-1.03c-.07-.04-.11-.14-.18-.18-.55-.54-1.07-1.15-1.53-1.79-.17-.31-.41-.65-.74-.9l-.57-.6c-.33-.43-.72-.85-1.11-1.26-.22-.29-.37-.54-.63-.76l-.88-.79c-.07-.03-.14-.07-.2-.05,0,0-.04.07-.02.13-.02.13.02.24.06.34.23.47.39.96.51,1.47.08.4.26.76.38,1.09l.11.33c.02.05-.02.13,0,.18.45.94.68,1.96,1.02,2.94.32.74.58,1.5.79,2.29l.43,1.25c.25.71.49,1.42.7,2.2.09.27.32.56.37.91.1.45.27.94.42,1.38.34.8.64,1.67.97,2.47.21.6.45,1.12.66,1.72.28.63.49,1.23.71,1.89.07.22.2.42.28.63.13.56.36,1.03.6,1.56l.22.65c.04.11.15.25.21.42.11.33.17.67.28,1,.04.11.08.22.15.25.24.34.32.74.41,1.2.02.24.08.4.26.58.24.16.2.42.23.65.04.11.02.24.06.34.11.14.09.27.1.46-.07.15-.03.25.06.35.26.21.17.49.14.74-.02.13-.11.22-.22.26-.53.06-1.04,0-1.41-.37l-.83-.81c-.26-.22-.39-.42-.5-.74-.21-.6-.47-1.18-.67-1.78-.08-.22-.09-.45-.17-.67l-.02-.05c-.17-.31-.3-.69-.41-1.02-.13-.38-.37-.72-.45-1.12-.04-.11-.08-.22-.17-.31-.13-.38-.34-.8-.47-1.18-.37-.91-.77-1.87-1.08-2.79-.09-.09-.13-.2-.15-.25-.25-.71-.54-1.4-.86-2.14l-.54-1.58c-.06-.16-.13-.38-.21-.6ZM83.88,117.38c-.09-.27-.21-.6-.35-.85-.17-.31-.28-.63-.45-.94-.13-.2-.26-.22-.42.02-.04.07-.07.15-.09.27.04.29-.03.62.14.93.02.05-.02.13,0,.18-.03.44-.12.89.09,1.31,0,0-.05.02-.04.07-.05.2.02.42.1.64.06.16.11.33.12.51.09.27.24.34.49.2.11-.04.2-.13.29-.22.2-.13.32-.3.36-.55,0-.55-.07-1.07-.24-1.56Z"/>
    <path class="cls-1" d="M126.82,108.29c-.63.07-1.09.03-1.61.16l-.46.18c-.29.06-.34.3-.33.58-.04.87-.01,1.73.07,2.59.01.4-.04.81-.08,1.21l.04,1.55c0,.17-.05.29-.05.4-.05.17-.11.29-.05.46s0,.29-.1.46c-.22.35-.56.53-.91.66-.28.12-.57.25-.86.2-.23,0-.35-.11-.41-.28-.06-.29-.19-.63-.25-.92l.04-.58c-.02-.86-.1-1.67-.07-2.53-.02-.63.02-1.27,0-1.9,0-.29-.07-.63-.14-.92,0-.12-.06-.23-.24-.22-.4-.05-.75.02-1.03.43-.05.12-.23.18-.34.3-.11.18-.22.29-.33.41-.22.24-.4.3-.69.19-.12-.06-.23-.05-.35-.05-.17,0-.23-.11-.3-.28-.07-.4.04-.69.32-.99.22-.24.33-.47.5-.7.11-.12.17-.18.22-.29.34-.3.62-.65,1.02-.89.11-.06.23-.12.34-.24.12,0,.23-.06.34-.12.46-.24.51-.36.38-.87-.07-.34-.08-.75-.09-1.15-.01-.58-.03-1.15-.16-1.72-.06-.06,0-.06-.06-.11-.09-1.44-.13-2.94-.17-4.38l-.03-1.27c-.01-.4.04-.87.08-1.33,0-.23.05-.41.04-.64,0-.4-.08-.8-.03-1.15.09-.92-.05-1.9-.01-2.82-.01-.4.09-.81.08-1.21.05-.46-.02-.92.02-1.38,0-.23-.01-.46.04-.69.05-.41.04-.81.08-1.21.05-.29.04-.63.09-.92.04-.52-.08-.98-.04-1.5,0-.29.04-.52.04-.81,0-.11-.06-.23-.12-.29-.18-.34-.42-.62-.77-.79-.29-.17-.47-.39-.42-.74,0-.23.16-.41.33-.53.11-.12.23-.18.28-.35.11-.18.22-.35.51-.3.29.05.52.04.8-.08.11-.06.34-.07.52-.07.29.05.58.1.87.09.35.05.75.04,1.1.03.35.05.69.04,1.04.03h.11c.86-.2,1.66-.28,2.53-.3l1.96-.05c.52.04.98.03,1.5.08.35,0,.75-.02,1.15.03.12,0,.23.05.29.11.46.22.87.38,1.28.66.29.22.48.56.71.9.06.06,0,.17-.05.23-.17.29-.39.58-.61.82-.06.06-.17.06-.29.07-.12,0-.23-.05-.35-.11-.12-.05-.29-.11-.4.07-.34.24-.63.19-.98.03-.06-.06-.12-.11-.23-.11-.52-.04-1.04-.09-1.62-.07-.06-.06-.17-.05-.23-.05-.46.18-.92.14-1.38.09-.29,0-.52.01-.8.08-.23.06-.52.13-.81.02-.06-.06-.12-.05-.17-.05-.34.12-.69.13-.97.2-.12,0-.17,0-.29.06-.11.12-.29.07-.46.01-.35-.05-.69-.1-.98-.09-.17,0-.57.36-.56.53-.05.4-.21.75-.09,1.15.06.06,0,.17,0,.23l-.05.4c.13.4-.04.81-.08,1.21,0,.06-.05.12-.05.17.01.46.02.98-.02,1.44v.35c.01.12-.04.17-.04.23.02.86.1,1.67.06,2.48-.04.64.09,1.32-.07,1.9l-.05.06c.12.46-.04.87.09,1.32,0,.17-.05.35-.04.52l.03.92c.01.46-.04.87-.02,1.33-.05.35.02.69.03,1.04l.02.86c.02.63.09,1.27.11,1.9v.35c.01.11.02.29.08.46.07.29.07.52.08.8.07.29-.04.58.14.8.06.05.06.17.06.23l.02.92c0,.23.01.52.08.75.07.29.12.34.41.28.4-.01.75-.02,1.09-.09h.52c.52.03.98-.04,1.5-.11.4-.12.8-.19,1.2-.26.17-.06.34-.12.51-.3l.45-.41c.06,0,.11-.06.17-.12.11-.06.17-.24.34-.12.23.11.52.16.59.39.07.34.13.63.08.98-.05.35-.22.58-.44.76l-1.02.78c-.28.18-.62.36-.97.37-.23,0-.46.13-.69.13l-1.09.03Z"/>
    <path class="cls-1" d="M142.07,114.49c.64-.04,1.21.02,1.8-.03.46,0,.94-.13,1.41-.19.63.01,1.29-.14,1.92-.07.4.04.86.1,1.18.31.05.06.11.07.17.08.11.07.22.08.27.15.16.13.26.26.36.39.16.13.19.37.11.59-.15.33-.45.41-.76.55-.12.04-.24.03-.41.07s-.3.08-.43.18c-.2.21-.43.24-.72.21,0,0-.05-.06-.11-.07-.53.11-1.09-.06-1.62,0-.47.06-.99,0-1.46.07-.46,0-.94.12-1.44-.05h-.11c-.36.06-.71.08-1.06.16-.31.14-.59.05-.86-.1-.17-.08-.38-.27-.52-.52-.09-.18-.26-.26-.48-.34-.06,0-.11-.01-.22-.08-.34-.09-.48-.34-.39-.68.08-.22.04-.4.01-.64-.04-.12-.03-.24-.02-.29,0-.52.05-.98.11-1.5.13-.62.14-1.26.33-1.88v-.41c0-.11-.05-.18-.09-.3.05-.46.11-.97.11-1.5.03-.29,0-.58.04-.86l.22-2c.05-.4.15-.79.19-1.2.03-.23,0-.52.03-.75.12-.51.17-.97.22-1.48v-.12c.17-.91.27-1.77.43-2.68.03-.29.06-.51.15-.79.03-.23.1-.39.13-.62.05-.46.1-.92.16-1.37l.35-1.58c.11-.45.21-.85.26-1.3.13-.68.33-1.41.41-2.1l.13-1.14c.12-.57.19-1.14.31-1.71.02-.17.04-.34.06-.52l.2-1.77c0-.06.02-.17.03-.29l-.03-1.28c.02-.17.04-.34,0-.52l.02-.17c.08-.17.04-.34.06-.52-.02-.35.02-.69.05-.98,0-.06.02-.17.08-.17.25-.2.36-.6.66-.74.19-.15.37-.19.65-.1.34.1.69.08,1.09.07.41-.07.87-.02,1.28-.03l2.61-.05c.35-.02.69.02,1.04,0,.06,0,.06-.05.12-.04.8.09,1.67.13,2.46.28.62.13,1.23.43,1.56,1.05.05.06.1.13.09.24-.04.34-.08.69-.28.95-.19.15-.68.39-.97.35-.28-.09-.57-.12-.87-.04l-.17-.02c-.39-.1-.87-.04-1.32-.09-.35.02-.75-.03-1.15-.07l-.23-.02c-.48.12-1.01.18-1.45,0l-.17-.02c-.29.03-.53.06-.76.03-.28-.09-.57-.06-.87-.04-.4-.05-.67.33-.94.59-.06.05-.08.16-.09.28.06.47.01.93-.04,1.39-.03.23,0,.52-.03.75-.02.17-.09.28-.11.45-.08.74-.17,1.55-.26,2.29l-.23,2.06c-.06.52-.24,1.08-.36,1.64-.06.52-.17,1.02-.29,1.53-.24,1.07-.3,2.17-.48,3.25-.08.69-.15,1.32-.33,1.93l-.08.69c-.12,1.03-.23,2-.34,3.03l-.02.17c-.02.17.09.24.26.26.52,0,1.04,0,1.51,0l2.21-.1c.29-.03.58-.05.81-.02.52,0,.97.11,1.41.39.15.19.43.34.58.47.21.2.26.26.11.54,0,.06-.08.16-.09.28-.02.17-.15.27-.27.32-.31.14-.56.34-.85.31-.41.01-.71.09-1.07.23-.24.09-.47.06-.76.03-.46,0-.93.01-1.33-.03-.24.03-.46,0-.64-.01l-.3.08c-.3.08-.71.15-1.03.35-.18.09-.42.13-.66.21-.23.03-.37.19-.4.48-.07.63-.09,1.32-.1,1.96l-.14,1.26c-.11.45-.16.91-.09,1.32-.02.17-.03.29-.04.4l-.12,1.03c-.01.12.09.19.21.2.17.02.29.03.46.05v.06Z"/>
    <path class="cls-1" d="M156.82,116.69c.64.03,1.21.15,1.79.16.46.04.95-.02,1.42-.03.63.08,1.3,0,1.92.13.39.09.84.19,1.14.43.04.07.1.08.16.09.1.08.21.11.26.18.14.15.23.29.32.42.14.15.15.39.04.6-.19.31-.49.36-.81.47-.12.03-.24,0-.42.02-.18.02-.31.05-.44.14-.22.19-.46.19-.74.13,0,0-.04-.07-.1-.08-.54.06-1.08-.18-1.61-.18-.47.01-.98-.1-1.46-.09-.46-.04-.95.02-1.43-.2l-.11-.03c-.36.04-.71.02-1.08.05-.32.11-.59-.01-.84-.19-.16-.09-.34-.31-.46-.57-.07-.19-.23-.29-.44-.39-.06-.01-.11-.03-.21-.11-.32-.13-.44-.39-.31-.72.11-.21.09-.39.08-.63-.03-.12,0-.24,0-.29.06-.52.16-.97.27-1.47.19-.61.28-1.24.53-1.83l.03-.41c.03-.11-.02-.18-.05-.31.1-.45.21-.96.27-1.47.06-.28.07-.57.13-.86l.44-1.97c.09-.39.23-.78.32-1.17.05-.22.06-.52.11-.74.17-.49.27-.94.38-1.45l.03-.11c.26-.89.45-1.73.7-2.62.06-.28.11-.51.23-.77.05-.23.14-.38.19-.61.1-.45.2-.9.3-1.35l.52-1.54c.16-.44.3-.82.4-1.27.21-.66.48-1.37.63-2.04l.25-1.12c.18-.55.31-1.11.49-1.66.04-.17.08-.34.11-.51l.39-1.74c.01-.06.04-.17.06-.28l.11-1.28c.04-.17.07-.34.06-.52l.04-.17c.09-.16.08-.34.11-.51.02-.35.1-.69.16-.97.01-.06.04-.17.09-.16.28-.17.42-.56.74-.66.21-.13.39-.15.66-.03.32.13.67.15,1.08.18.42-.02.87.08,1.28.11l2.61.23c.35.02.69.09,1.04.11.06.01.07-.04.12-.03.79.18,1.64.31,2.42.54.61.2,1.17.56,1.44,1.21.04.07.09.14.06.25-.08.34-.15.67-.38.92-.21.13-.72.31-1,.25-.27-.12-.55-.18-.86-.13l-.17-.04c-.38-.14-.86-.13-1.31-.23-.35-.02-.74-.11-1.14-.2l-.22-.05c-.49.07-1.02.07-1.44-.15l-.17-.04c-.29,0-.53,0-.76-.05-.27-.12-.56-.13-.86-.13-.39-.09-.71.25-1,.49-.07.04-.09.16-.12.27.01.47-.09.92-.19,1.38-.05.22-.06.52-.11.74-.04.17-.12.27-.16.44-.16.73-.34,1.52-.5,2.25l-.45,2.02c-.11.51-.35,1.04-.53,1.59-.11.51-.28,1-.45,1.49-.35,1.04-.53,2.12-.83,3.18-.15.67-.29,1.29-.54,1.88l-.15.68c-.23,1.01-.44,1.97-.67,2.98l-.04.17c-.04.17.06.25.23.29.52.06,1.04.11,1.5.16l2.21.14c.29,0,.59.01.81.06.52.06.96.21,1.36.54.13.21.39.38.53.53.19.22.23.29.05.54-.01.06-.09.16-.12.27-.04.17-.18.26-.3.29-.32.11-.59.28-.88.22-.41-.03-.71.02-1.09.11-.25.06-.47.01-.76-.05-.46-.04-.92-.09-1.32-.18-.24,0-.46-.04-.63-.08l-.3.05c-.31.05-.73.08-1.06.24-.19.08-.43.08-.68.14-.24,0-.39.15-.45.43-.14.62-.23,1.3-.32,1.94l-.28,1.24c-.16.44-.26.89-.23,1.3-.04.17-.06.28-.09.39l-.23,1.01c-.03.11.07.2.19.22.17.04.28.06.45.1v.06Z"/>
    <path class="cls-1" d="M168.47,117.38c.31-.93.67-1.78.96-2.65.13-.38.3-.69.46-1,.08-.22.1-.46.17-.67.02-.06,0-.18.09-.27.18-.18.2-.42.28-.64.06-.16.18-.36.26-.58.17-.67.46-1.36.69-2.02.13-.38.32-.74.43-1.07.07-.22.09-.45.17-.67l.04-.11c.26-.4.24-.89.52-1.35.2-.42.3-.87.46-1.36.3-.69.56-1.45.91-2.12.22-.47.39-.96.56-1.45.18-.36.39-.78.52-1.16.07-.04.09-.09.11-.14.17-.49.32-.93.54-1.4.18-.36.37-.73.52-1.16.18-.36.33-.8.52-1.16.09-.27.24-.53.33-.8.09-.27.13-.56.22-.84.11-.33.26-.58.42-.89.15-.25.26-.58.35-.85.2-.42.35-.85.57-1.33.07-.22.2-.42.33-.62.18-.36.44-.76.35-1.22-.02-.13,0-.18.09-.27.13-.02.22-.11.29-.14.18,0,.33-.07.49-.2.24-.16.44-.22.71-.12.16.06.27.09.42.02.05.02.18,0,.16.05.27.28.58.44.69.84.07.33.18.55.27.82.13.17.14.29.09.46-.07.22-.15.44-.09.64l-.06.16c-.44.4-.55.91-.68,1.47-.13.38-.19.73-.32,1.11l-.85,1.96c-.05.16-.2.24-.26.4-.18.36-.37.73-.35,1.22.04.07-.05.16-.09.27-.06.16-.15.25-.2.42-.24.34-.44.76-.63,1.13-.07.22-.18.36-.31.56-.09.27-.21.6-.3.87l-.06.16c-.24.34-.4.65-.37,1.09,0,.18-.06.35-.24.53,0,0-.02.06-.09.09-.17.31-.33.62-.5.93l-.11.33c.03.25-.04.47-.22.65l-.06.16c.02.49-.3.87-.46,1.36-.11.33-.33.62-.33.98-.02.24-.15.44-.28.64-.09.09-.09.27-.13.38-.08.22-.13.38-.26.58-.08.22-.2.42-.17.67.04.07,0,.18-.02.24-.11.33-.3.69-.41,1.02l-.33.98c-.15.44-.35.85-.52,1.35-.06.16-.11.33-.11.51-.07.4-.19.73-.3,1.05-.13.2-.15.44-.17.67l-.13.38c-.04.11-.07.22-.06.35,0,.18-.06.35-.17.49-.2.24-.33.44-.48.69l-.06.16-.59,1.75c-.09.27,0,.37.22.44.27.09.56.13.84.22.44.15.91.19,1.38.23.64.1,1.22.17,1.88.21.16.05.36,0,.55,0,.33-.07.69-.07.98-.03.42.02.78.02,1.13.08.13-.02.18,0,.22.07.16.06.25.15.38.13.07-.04.13-.02.17.05.22.08.42.2.64.28q.25.15.22.44c0,.18,0,.36-.19.54-.07.04-.11.14-.07.22.07.33-.08.58-.22.84-.09.27-.37.36-.6.34-.29-.04-.58-.08-.8-.15-.33-.11-.62-.15-.89-.06-.16.13-.35.12-.58.1-.11-.04-.25.04-.38.05-.22.11-.46.09-.66-.04-.16-.06-.35-.06-.6-.02-.46.09-.98.03-1.51-.03-.22-.08-.4-.08-.66-.04-.29-.04-.56-.13-.89-.24-.04-.07-.15-.11-.22-.08-.33.07-.58-.08-.93-.13-.27-.09-.58-.26-.91-.37-.38-.13-.62-.33-.91-.55-.14-.11-.27-.27-.32-.48-.22-.44-.43-.88-.59-1.3-.07-.15-.09-.27-.11-.4-.11-.4-.16-.78-.08-1.18.11-.51.12-1.06.32-1.47Z"/>
    <path class="cls-1" d="M185.22,119.17c.17-.24.28-.51.45-.75l.07-.16c.15-.5.39-.9.59-1.38.18-.42.37-.85.6-1.25.14-.19.34-.35.38-.59.08-.47.34-.79.45-1.19.48-1.11.96-2.22,1.49-3.31.14-.32.35-.66.49-.98.08-.03.1-.08.12-.14.05-.42.23-.84.5-1.16.14-.19.18-.42.33-.61.29-.38.4-.77.61-1.12.07-.16.22-.22.32-.3l.29-.25c.11-.26.39-.33.67-.4.15-.06.89.26,1,.43.06.15.1.36.08.54.04.21,0,.44.01.7-.02.05-.02.18-.09.21-.23.09-.19.29-.26.45-.16.37-.21.79-.43,1.13s-.27.76-.42,1.13c-.07.16-.11.27-.18.42l-.57,1.32c-.02.05-.07.16-.09.21l-.04.23c-.26.32-.27.76-.42,1.13-.07.16-.19.29-.29.38-.19.29-.27.64-.39.9-.11.39-.26.76-.4,1.08-.07.16-.19.29-.23.4-.17.24-.26.45-.37.72-.24.4-.31.87-.37,1.29-.04.24-.05.42-.17.55-.14.19-.24.4-.25.58-.04.23-.11.39-.33.48-.15.06-.22.22-.24.4.03.08-.07.16-.11.26-.02.05-.12.14-.11.26-.13.45-.45.75-.79.97-.3.25-.7.45-1.08.17-.35-.21-.67-.48-.94-.72-.25-.3-.32-.71-.16-1.08.08-.34.22-.66.3-1ZM192.92,100.42c.04-.11.17-.24.29-.38l.41-.51c.12-.14.2-.17.37-.28.38-.15.76-.3,1.22-.35.05.02.13,0,.18.02.42.18.96.1,1.41.36.19.14.33.27.34.52.13.56.11,1.05-.22,1.53-.05.11-.14.19-.22.22l-.36.41c-.25.14-.48.23-.67.4l-.58.32c-.27.2-.61.24-.95.16-.29-.06-.55-.18-.82-.29-.05-.02-.13-.12-.17-.2-.09-.23-.2-.4-.24-.61-.05-.46-.2-.84,0-1.32Z"/>
    <path class="cls-1" d="M189.33,127.81c.22-.53.48-1.25.78-1.93.22-.54.47-1.12.8-1.6.13-.12.21-.28.22-.41.36-.66.58-1.32.91-1.93.22-.53.47-1.12.78-1.68.11-.2.22-.4.38-.58.29-.3.46-.73.65-1.09.22-.53.47-1.12.75-1.63.14-.25.32-.48.46-.73.16-.3.25-.58.52-.83.03-.05.08-.15.14-.25l.36-.66c.08-.15.14-.25.17-.43.03-.18.14-.38.22-.54.27-.51.52-.96.72-1.45.08-.15.16-.3.17-.43.06-.1.08-.15.11-.2l.93-1.72c.28-.63.66-1.21,1.04-1.8.38-.58.63-1.17.98-1.7.25-.46.54-.88.79-1.34.19-.35.36-.66.55-1.01l.25-.46c.11-.07.19-.23.24-.33.27-.51.53-1.09.8-1.6l.22-.4c.08-.15.22-.28.33-.48.16-.3.38-.58.39-.97.06-.23.19-.36.4-.38.16-.05.23-.07.32-.22.06-.23.27-.25.42-.3l1.24-.11c.08-.02.1.06.15.08-.09.41.08.7.15,1.06,0,.26,0,.59.05.88.15.8.28,1.66.33,2.54.04.29.06.62.02.93-.01.39-.03.77-.09,1.13.02.21,0,.46,0,.72-.03.18-.04.31-.02.52-.03.05-.08.15-.03.18.11.52-.03,1.03-.15,1.49-.09.54-.29,1.02-.38,1.56-.1.67-.25,1.31-.25,2.03.03.54-.11,1.05-.13,1.57-.03.18-.04.31-.12.46-.08.75-.2,1.46-.36,2.23-.06.23-.12.46-.1.67-.02.51-.13.97-.2,1.46-.23.79-.33,1.59-.52,2.41-.04.31-.12.59-.23.92-.09.28-.12.59-.19.95-.09.28-.15.64-.26.97-.09.54-.19,1.08-.36,1.64-.09.28-.22.54-.21.87l-.05.1c.02.21.07.36.14.34.13,0,.13-.12.19-.22l.38-.71s.13-.12.11-.2c0-.13.06-.23.21-.28.03-.05.06-.1.16-.17.08-.15.19-.36.27-.51l.05-.1c0-.26.22-.4.41-.63.03-.05.13-.12.19-.23.06-.23.19-.35.35-.53l.16-.3c.03-.18.19-.36.33-.48.16-.05.31-.09.34-.27l.08-.02c.3.17.21-.15.29-.3.08-.15.19-.23.22-.41.03-.18.11-.33.02-.52-.02-.08-.02-.21.06-.23.18-.1.19-.23.19-.36,0-.13.08-.15.14-.25.19-.36.43-.68.65-.96l.08-.15c.22-.41.42-.89.63-1.29,0-.13.11-.2.16-.3.37-.32.62-.78.92-1.21.17-.3.38-.58.54-.88l.03-.05c.32-.48.6-.99.92-1.46.35-.53.6-1.11.9-1.67.08-.15.17-.3.3-.43.1-.07.16-.18.21-.28.14-.25.27-.51.46-.73.27-.38.44-.81.66-1.22.08-.15.21-.28.32-.48.27-.38.47-.86.58-1.32.14-.25.27-.51.46-.73l.27-.51c.25-.46.62-.78,1.06-1,.08-.02.21-.02.36-.06l.28-.04c.24-.2.52-.11.75-.05.18.03.3.16.27.34-.04.31-.04.57,0,.85.05.16-.04.31-.04.44-.06.23-.15.51-.2.74l-.11.2c-.41.63-.71,1.32-1.07,1.98-.22.41-.47.86-.68,1.27l-.08.15c-.48.4-.73.98-1.08,1.51-.27.38-.52.83-.76,1.29-.27.38-.51.71-.73,1.11-.19.23-.35.4-.43.68-.03.18-.14.38-.3.56l-.65.96c-.38.45-.65.96-.97,1.44-.22.4-.52.83-.79,1.21l-.08.15c-.2.48-.52.83-.76,1.29-.22.41-.51.71-.78,1.08l-.03.05c-.17.43-.44.81-.66,1.22l-.95,1.39c-.14.25-.32.48-.49.78-.22.41-.47.86-.71,1.32l-.44.81c-.25.46-.49.91-.71,1.32l-1.18,2.18c-.16.31-.41.63-.57.94-.11.2-.22.4-.28.63-.17.3-.38.58-.65.83-.11.07-.24.2-.32.35-.08.15-.14.25-.32.35-.39.12-.68.42-.95.67-.24.2-.47.27-.78.23-.82-.18-1.14-.55-1.09-1.38l-.03-1.39c.12-.59.22-1.13.44-1.66.11-.2.14-.38.17-.56.14-.25.22-.54.39-.84,0,0,.03-.05-.02-.08.1-.67.37-1.17.57-1.79.14-.38.28-.77.29-1.15.02-.64.22-1.25.39-1.82.06-.36.1-.67.21-1-.02-.08,0-.13.03-.18.28-.64.33-1.33.48-1.97.01-.39.1-.79.25-1.18.05-.1.08-.15.06-.23.07-.49.21-.87.28-1.36.04-.57.11-1.05.21-1.59.09-.28.12-.59.13-.85.03-.77.23-1.51.41-2.2.09-.41.1-.8.19-1.21-.06-.62.12-1.18.03-1.75-.03-.54.11-1.05.23-1.51.17-.56.27-1.1.41-1.61.03-.05.06-.1.03-.18.04-.57.04-1.16.05-1.67,0-.13-.04-.29-.07-.36,0-.13-.07-.23-.15-.21-.08.02-.18.1-.21.15-.33.61-.68,1.27-1.06,1.85l-.33.48c-.3.43-.52.83-.73,1.24-.19.23-.3.43-.43.68-.17.3-.28.63-.54.88l-.14.25c-.26.84-.72,1.57-1.08,2.36-.09.28-.22.54-.36.79l-1.23,2.28c-.66,1.22-1.32,2.43-1.97,3.65l-.9,1.67c-.41.76-.77,1.55-1.1,2.28-.25.46-.42.89-.66,1.34-.19.35-.43.68-.53,1.09l-.03.05c-.24.33-.33.74-.47,1.12-.33.74-.69,1.53-.85,2.29q-.06.36-.4.37c-.31-.04-.59,0-.93.02-.16.05-.33.02-.54.03-.44-.04-.64-.28-.67-.69,0-.59.22-1.13.62-1.76Z"/>
    <path class="cls-1" d="M212.18,127.12c.09-.22.25-.46.39-.64l.71-.98c.13-.19.32-.34.48-.58.1-.14.25-.25.38-.43.4-.35.75-.74,1.17-1.14l.46-.45c.28-.29.61-.55.94-.81l.71-.7c.21-.2.48-.37.69-.57l1.23-.82c.49-.29.98-.57,1.42-.89.31-.13.6-.35.91-.48.29-.21.6-.35.91-.48.15-.11.31-.13.42-.19.56-.38,1.23-.53,1.91-.69.08-.01.13.02.16-.03.34-.18.71-.2,1.08-.22.56-.09,1.09-.14,1.62-.18.37-.02.69-.07,1.04.04.13.02.25.04.42.01.58-.01,1.13.1,1.7.3.17.05.38.06.64.1.38.06.74.25,1.14.39.46.26.96.54,1.42.88.28.2.58.48.79.78.17.26.37.48.34.81l.09.27c.18.34.11.64-.13.97-.07.09-.18.15-.17.23-.06.38-.42.48-.69.57-.03.05-.21,0-.25-.04-.14-.1-.2-.21-.27-.41l-.19-.42c-.13-.31-.3-.57-.57-.69-.14-.1-.28-.2-.35-.4.03-.05-.06-.11-.11-.15-.22-.09-.45-.26-.66-.26-.33-.03-.68-.14-1.03-.24-.3-.07-.68-.13-1.04-.04-.19.07-.48.08-.7,0-.09-.07-.22-.09-.33-.03-.35.1-.72.12-1.09.14-.17-.05-.37.02-.53.05-.24.04-.52.13-.71.2l-.45.03c-.31.13-.54.25-.87.23-.03.05-.08.01-.11.06-.33.26-.73.33-1.12.47-.27.09-.58.22-.8.42-.56.38-1.17.65-1.7.98-.31.13-.6.35-.9.56-.38.23-.7.49-1.11.76-.38.23-.66.52-.94.81-.43.4-.86.8-1.24,1.24l-1.52,1.53c-.07.3-.43.4-.6.63-.12.27-.34.47-.5.7-.57.79-1.15,1.51-1.46,2.43-.14.39-.34.68-.48,1.07l-.23.62c-.04.25-.16.52-.28.79-.05.17-.09.43-.05.67.01.08.04.24.02.37-.02.13.05.32.08.48.21.5.65.68,1.14.89.09.07.27.12.44.18.27.12.55.12.88.06.19-.07.4-.07.56-.09l1.16-.23c.48-.08.87-.23,1.29-.42.38-.23.86-.3,1.33-.46.24-.04.52-.13.79-.21.13.02.24-.04.36-.1l1.75-1.15c.38-.23.74-.53,1.02-.83.21-.2.43-.4.72-.62l.82-.55c.36-.31.72-.61,1.04-.96.44-.32.79-.71,1.27-1.07.56-.38,1.1-.84,1.5-1.4.47-.65.91-1.26,1.25-1.94l.28-.58c.17-.23.26-.46.33-.76.22-.41.36-.8.54-1.25.16-.31.46-.45.8-.42.13.02.29,0,.37-.02.37-.02.6.15.69.42.07.19.08.48.07.69-.06.38-.25.74-.36,1.09-.09.43-.24.82-.2,1.27.03.16,0,.29-.14.39-.11.06-.17.23-.19.36-.09.22-.22.41-.39.64-.13.19-.27.38-.36.6-.14.39-.42.69-.61,1.05-.22.41-.52.83-.74,1.24-.3.42-.62.76-.92,1.18l-.03.05c-.18.44-.54.75-.77,1.08-.24.33-.48.57-.69.86l-.33.47c-.24.33-.52.62-.75.95l-.29.5c-.38.43-.72.9-1.07,1.29-.52.62-1,1.2-1.47,1.85-.31.34-.64.6-.91.98-.2.28-.5.49-.68.86-.1.14-.29.21-.43.4-.26.17-.51.41-.71.7-.32.34-.69.57-1.05.88-.26.17-.48.37-.7.49-.41.28-.82.55-1.18.86-.33.26-.72.41-1.05.67-.41.27-.83.47-1.28.5-.24.04-.47.16-.65.31-.19.07-.39.15-.55.17l-.87.23c-.58.22-1.15.02-1.74-.04-.41-.01-.81-.16-1.24-.25-.08.01-.21,0-.29,0l-.43-.09c-.13-.02-.22-.09-.3-.07-.13-.02-.17-.05-.27-.12-.41-.22-.83-.52-1.22-.87-.14-.1-.31-.15-.45-.25-.19-.14-.38-.27-.55-.32l-.42-.3c-.17-.05-.27-.12-.17-.26.15-.31.07-.59.02-.91-.07-.4-.15-.88-.18-1.33-.03-.45.11-.84.25-1.24.12-.27.2-.57.32-.84.07-.09.05-.17.12-.27.17-.23.34-.47.67-.44.13.02.16-.03.24-.04.28-.09.5,0,.66.26.18.34.29.78.12,1.22-.07.09-.05.17-.09.22-.18.44-.16.81.08,1.27.1.35.15.68.41,1l.23.17c.46.25.91.51,1.44.75.09.07.22.09.35.11.21,0,.43.09.64.1.53-.05.99,0,1.43-.11.16-.03.32-.05.45-.03.32-.05.64-.11.94-.32.46-.24.93-.4,1.35-.59.11-.06.23-.12.31-.13.41-.27.77-.58,1.23-.82.44-.32.87-.72,1.3-1.12.35-.39.71-.69,1.11-1.05.4-.35.81-.63,1.11-1.05.38-.43.83-.75,1.12-1.26.02-.13.13-.19.2-.28.03-.05.07-.09.05-.17-.05-.03-.13-.02-.17-.05-.16.03-.4.07-.55.17-.31.13-.62.27-.96.45-.43.11-.81.34-1.19.57-.11.06-.31.13-.47.16-.37.02-.69.07-.99.29-.21.2-.54.25-.82.26-.13-.02-.32.05-.48.08l-.24.04c-.29,0-.56.09-.79.21-.63.19-1.19.28-1.75-.12-.09-.07-.14-.1-.22-.09-.22-.09-.36-.19-.55-.32-.09-.07-.22-.09-.35-.11-.05-.03-.13-.02-.09-.07-.13-.31-.55-.32-.71-.58-.2-.21-.44-.38-.64-.6-.15-.18-.34-.32-.35-.6,0-.21-.08-.48-.15-.68-.06-.11-.15-.18-.26-.33-.21-.29-.36-.68-.38-1.05-.05-.32-.01-.58.03-.83.04-.25.01-.42.02-.62s.05-.46.1-.64c.07-.3.19-.57.31-.84l.06-.38c.24-.54.44-1.1.63-1.67.28-.58.68-1.14.95-1.73.03-.05.07-.09.1-.14l.05.03Z"/>
    <path class="cls-1" d="M220.24,148.47c.33-.48.8-.76,1.41-.77.21.02.36-.07.61,0,.41.05.75.19,1.06.45.09.07.14.19.15.27-.02.29,0,.61-.05.94-.02.21-.17.38-.45.53-.12.05-.27.23-.38.36-.11.13-.23.18-.39.28-.28.06-.52.17-.71.3-.12.05-.32.11-.49.04-.17-.07-.38-.17-.63-.24-.17-.07-.26-.22-.28-.47.02-.21-.03-.41-.13-.64-.14-.27-.05-.57.13-.87l.15-.18Z"/>
    <path class="cls-1" d="M224.91,152.52c.35-.46.83-.73,1.44-.71.2.03.36-.06.61.02.41.06.74.21,1.04.49.08.08.13.2.13.28-.03.29-.02.61-.08.94-.03.21-.19.37-.47.51-.12.04-.28.21-.39.34s-.24.17-.4.26c-.28.05-.52.14-.72.28-.12.05-.32.09-.49.02s-.38-.19-.62-.26c-.17-.07-.25-.23-.26-.48.03-.21-.02-.41-.11-.65-.13-.28-.02-.57.17-.86l.16-.17Z"/>
    <path class="cls-1" d="M229.42,156.77c.37-.45.86-.69,1.47-.65.2.04.37-.04.61.04.41.08.73.25,1.02.53.08.08.12.2.12.29-.04.29-.04.61-.12.94-.04.2-.2.37-.49.49-.12.04-.29.2-.41.33-.12.12-.24.16-.41.24-.29.04-.53.12-.73.24-.12.04-.33.08-.49,0-.16-.08-.37-.2-.61-.28-.16-.08-.25-.24-.24-.49.04-.2,0-.41-.08-.65-.12-.28,0-.57.2-.85l.16-.16Z"/>
  </g>
  <g>
    <path class="cls-1" d="M117.17,148.4l-.24-2.64c-.11-1.15-.21-2.24-.37-3.38,0-.11-.07-.17-.08-.28-.11.07-.22.08-.27.2-.05.06-.11.12-.15.25l-.23,1.24c-.03.29-.07.53-.1.76l-.15.3c-.1.12-.2.31-.3.49l-.04.24c.14.28,0,.52.02.81-.04.23-.01.52-.16.77v.06c.09.34-.06.58-.09.88-.04.24-.19.42-.29.66-.05.06-.1.13-.15.25.03.34-.17.65-.14,1,.02.17-.08.36-.13.47-.08.41-.21.89-.29,1.24-.09.3-.25.48-.34.72-.13.47-.43.97-.5,1.49,0,.06-.05.12-.04.18-.31.43-.49.97-.61,1.5-.04.18-.08.36-.19.48-.04.18-.09.3-.14.42l-.13.42c-.16.19-.19.42-.23.66-.03.35-.17.71-.31,1.01-.04.23-.13.47-.22.71-.07.47-.2,1-.51,1.38-.1.12-.15.25-.14.36.08.22-.02.41-.12.53-.1.18-.14.36-.12.53-.04.24-.07.47-.23.6-.1.18-.14.36-.18.6-.03.35-.17.71-.25,1.06-.04.18-.03.35-.07.53l.02.17c-.14.36-.05.7-.13,1.05-.04.23-.12.53-.22.71-.09.24-.19.48-.17.71.02.23.04.46,0,.64-.03.35-.51.68-.86.66-.41-.02-.76-.1-1.06-.25-.25-.15-.44-.37-.57-.58-.13-.16-.26-.32-.34-.55-.21-.39-.36-.78-.52-1.22-.14-.22-.21-.44-.29-.67-.22-.56-.45-1.12-.62-1.68l-.65-1.44c-.15-.33-.25-.79-.39-1.12l-.67-1.62c-.21-.44-.43-.89-.53-1.4v-.11c-.27-.27-.3-.67-.56-.93-.06-.05-.07-.11-.14-.22l-.47-1.35c-.07-.17-.09-.4-.22-.56-.34-.55-.51-1.17-.74-1.73-.23-.62-.4-1.24-.63-1.79-.07-.17-.14-.28-.15-.39l-.69-1.84c-.07-.11-.08-.22-.15-.33-.14-.28-.28-.55-.31-.84l-.23-.62c-.21-.44-.38-.95-.48-1.46v-.11c-.3-.61-.42-1.29-.65-1.91l-.47-1.29c-.06,0-.06-.05-.12-.1-.06-.05-.12-.05-.17.07,0,.06-.04.18-.03.29-.07.47-.08.99-.09,1.51-.21.25,0,.58-.09.88.2.33.06.63.09.97.07.75.13,1.43.08,2.19-.05.06-.05.12.01.12.14.85.1,1.72.18,2.59.04.46-.03.93.01,1.39,0,.58-.07,1.16.1,1.67.07.11.08.22.09.34.03.34-.06.64.08.92.01.12.02.23-.03.29-.01.52.04,1.04.14,1.55.06.05.07.17.02.23-.02.41.07.8.22,1.2,0,.06.01.11-.05.12-.08.41.07.8.11,1.2-.05.12.02.17.02.23.21.44.2.85.24,1.31l.03.29c.18.74.19,1.43.32,2.17.2,1.54.34,3.09.49,4.7v.11c.22.39.2.79.12,1.15-.03.29-.19.42-.48.45-.06,0-.06-.05-.06,0-.34.03-.58-.06-.83-.21-.25-.27-.51-.53-.66-.92-.16-.45-.26-.9-.42-1.41v-.12c-.09-.92-.18-1.83-.32-2.75-.04-.4-.13-.8-.23-1.19-.03-.34-.06-.69-.16-1.08-.02-.17-.04-.4-.12-.63-.04-.4-.08-.8-.12-1.26l-.03-.34c-.18-.68-.24-1.37-.36-2.05-.16-1.14-.27-2.35-.38-3.55-.15-.33,0-.69-.09-1.03-.16-.45-.14-.91-.19-1.43-.02-.23-.04-.46-.06-.69l-.04-.4c.04-.18.03-.35-.05-.57l-.03-.29c.02-.41-.07-.75-.1-1.15-.05-.57-.05-1.15-.04-1.73.02-.41-.02-.81-.05-1.21-.08-.92-.17-1.89-.26-2.87l-.02-.23c.05-.06.1-.12.04-.18-.11-.51.08-.99.04-1.45-.07-.11-.07-.17-.02-.23.07-.47.03-.93.05-1.39,0-.11-.02-.23-.03-.34l-.02-.17c.2-.31.06-.64.14-1,.07-.53-.04-1.1-.04-1.67-.04-.4-.13-.8.06-1.22.05-.07.04-.18.03-.24-.07-.11-.08-.22-.09-.34-.02-.23.09-.29.33-.26l.76.1c.17-.02.29-.03.46.01l1.12.24c.12.05.18.04.23.04.47.07.78.28,1.1.59s.53.7.63,1.16c.08.28.05.52-.1.76-.21.25-.19.48-.05.76.33.49.45,1.12.73,1.67.08.28.17.56.2.91.02.17.09.4.17.56l.38.95c.01.12.08.28.16.45l.08.22c.09.4.18.73.39,1.06l.24.73c.1.45.26.9.41,1.35l.04.4c.02.17.03.34.16.45,0,.06.06.05.07.11-.02.41.29.67.5.99,0,.06.13.16.08.28.04.4.3.78.46,1.17,0,0,.06.05.07.11,0,.52.26.96.42,1.41l.21.38c.28.55.51,1.17.62,1.74.02.17.08.28.15.39.2.33.35.66.44,1.06l.24.67c.07.11.08.22.15.33.08.28.17.56.37.83.13.16.26.32.28.55,0,.06.01.11.07.17.19.16.16.45.24.67.15.39.19.85.4,1.24l.54.82c.06.05.12.05.12.1.04.46.3.78.35,1.24l.03.34c0,.06.07.11.12.1.12-.01.17-.07.22-.08q0-.06.05-.12v-.06c.13-.42.2-.89.34-1.25.19-.42.33-.84.46-1.26l.13-.42c.03-.29.06-.58.27-.84.06,0,.05-.12.04-.18l.54-1.67c-.01-.12.04-.23.08-.36.09-.3.23-.6.38-.96.09-.3.23-.66.32-.96l.42-1.08c.09-.24.19-.48.34-.72.19-.42.38-.85.57-1.33.14-.42.27-.83.46-1.31.13-.42.15-.88.23-1.29.07-.47.16-.82.29-1.24.12-.53.25-1.06.43-1.6.04-.23.07-.47.17-.71.15-.3.29-.61.38-.9.09-.24.12-.53.16-.82.03-.29.07-.53.16-.77.13-.42.33-.84.46-1.26l.35-.55c.1-.18.19-.42.23-.6.12-.53.2-1,.51-1.38,0-.06.05-.06.05-.12.13-.48.32-.95.45-1.43.04-.18.14-.42.24-.6.2-.36.16-.77.24-1.18.09-.24.07-.47.17-.71.1-.13.04-.23.08-.41,0-.06-.02-.17.04-.24.27-.2.31-.43.45-.73.09-.24.15-.3.43-.33.24.04.49.25.72.28.24.04.47.07.66.29.07.11.19.16.31.26.25.15.38.31.46.59.01.12.08.22.15.33.13.16.21.38.22.55-.03.35.01.75-.07,1.11-.04.18-.02.41,0,.58.09.34.17.62.09.98.02.17.03.34.11.51l.03.34c.01.17-.08.41.11.62-.01.52.21,1.08.1,1.67v.06c.12.62,0,1.21,0,1.85-.03.35-.1.76.1,1.09l.02.23c.02.23-.02.46.06.69.1.51.16,1.09.15,1.61-.05.06-.04.18.02.23.09.34.12.68.1,1.09-.06,0-.05.06-.05.06.17.56.1,1.15.04,1.67v.11c.1.34.13.68.22,1.02l.02.23c.05.52.16,1.08.15,1.61.05.52.04,1.04.03,1.56l.06.63c.03.34.06.69.1,1.03l.03.29c.14.22.1.4.12.63.02.23-.07.53.07.8.06,0,.06.05,0,.12-.07.53.04,1.04.14,1.55.09.34.06.63.09.98l-.04.24c.16.45.03.92.13,1.38l.12,1.32c.08.28.17.56.19.85.11.51.15,1.03.08,1.55-.03.35,0,.64.15.97.16.45-.03.87-.35,1.25-.15.25-.36.44-.51.68-.16.19-.32.32-.55.34-.12-.05-.29-.03-.4.04-.23.02-.41-.02-.6-.23-.07-.11-.19-.16-.25-.21-.36-.14-.5-.42-.58-.7l-.26-.96c-.12-.63-.29-1.25-.29-1.94.02-.46-.03-.92-.02-1.44l-.05-.52c-.02-.17-.08-.28-.09-.4.07-.53-.1-1.03-.14-1.55,0-.52.02-1.04-.03-1.56q.06,0,.05-.06c-.21-.44-.09-.98-.13-1.43-.1-.51-.15-1.03-.14-1.49-.04-.46-.03-.98-.02-1.44-.01-.12-.02-.23-.03-.29l-.29-3.16c-.08-.92-.17-1.83-.26-2.81h.06Z"/>
    <path class="cls-1" d="M128.52,166.26c.64-.08,1.21-.05,1.8-.14.46-.03.93-.18,1.4-.27.63-.03,1.28-.22,1.91-.19.4.02.86.04,1.2.23.05.06.11.06.17.07.11.06.23.07.28.13.17.12.28.25.38.37.17.12.21.36.14.58-.13.34-.43.44-.72.6-.12.05-.23.05-.41.09-.18.05-.29.1-.42.21-.18.22-.42.27-.7.25,0,0-.05-.06-.11-.06-.53.15-1.1,0-1.62.09-.47.09-.99.07-1.45.16-.46.03-.93.18-1.44.04h-.12c-.35.09-.7.13-1.05.23-.3.16-.58.09-.86-.04-.17-.07-.39-.25-.55-.49-.11-.18-.28-.24-.5-.31-.06,0-.12,0-.23-.07-.34-.08-.5-.31-.43-.66.07-.23.02-.4-.03-.64-.05-.12-.04-.23-.04-.29-.03-.52,0-.98.02-1.5.09-.63.06-1.26.21-1.89l-.04-.4c0-.12-.05-.18-.1-.29.02-.46.05-.98.02-1.5.01-.29-.03-.58-.01-.87l.1-2.01c.02-.4.1-.8.12-1.2.01-.23-.03-.52-.02-.75.08-.52.11-.98.13-1.5v-.11c.11-.92.15-1.78.26-2.7.01-.29.03-.52.1-.8.01-.23.08-.4.09-.63.03-.46.05-.92.07-1.38l.26-1.6c.08-.46.16-.86.18-1.32.09-.69.25-1.43.28-2.12l.06-1.15c.09-.57.12-1.15.2-1.72,0-.17.02-.34.03-.52l.09-1.78c0-.06,0-.17.01-.29l-.11-1.27c0-.17.02-.35-.03-.52v-.17c.08-.17.03-.35.04-.52-.04-.35-.02-.69,0-.98,0-.06,0-.17.07-.17.24-.22.32-.62.62-.78.18-.16.36-.21.64-.14.34.08.69.04,1.1,0,.41-.09.87-.07,1.28-.11l2.61-.21c.35-.04.69-.02,1.04-.06.06,0,.06-.05.12-.05.8.04,1.67.03,2.47.13.63.09,1.25.35,1.62.95.05.06.11.12.1.24-.02.35-.04.69-.22.97-.18.16-.65.43-.94.41-.29-.07-.57-.09-.87.01h-.17c-.4-.09-.87,0-1.33-.02-.35.04-.75.02-1.15,0h-.23c-.47.14-.99.22-1.45.09h-.17c-.29.03-.52.08-.75.07-.29-.07-.58-.03-.87.01-.4-.02-.65.37-.9.65-.06.05-.07.17-.07.29.09.47.07.93.04,1.39,0,.23.03.53.02.75,0,.17-.07.29-.08.46-.04.74-.08,1.55-.12,2.3l-.11,2.07c-.03.52-.17,1.09-.26,1.66-.03.52-.11,1.03-.19,1.55-.17,1.09-.17,2.18-.28,3.27-.04.69-.07,1.32-.22,1.95l-.04.69c-.05,1.04-.1,2.01-.15,3.05v.17c-.02.17.09.24.27.24.52-.03,1.04-.06,1.5-.1l2.2-.23c.29-.04.58-.09.81-.07.52-.03.98.05,1.43.3.16.18.45.31.61.43.22.19.28.25.15.53,0,.06-.07.17-.07.29,0,.17-.13.28-.25.33-.3.16-.54.38-.83.36-.41.04-.7.14-1.05.29-.23.1-.47.09-.75.08-.46.03-.93.07-1.33.05-.23.05-.46.03-.63.03l-.29.1c-.29.1-.7.19-1,.41-.18.11-.41.15-.65.26-.23.05-.36.21-.37.5-.03.63,0,1.33.02,1.96l-.06,1.27c-.08.46-.1.92,0,1.33,0,.17-.02.29-.02.4l-.05,1.04c0,.12.11.18.22.18.17,0,.29.02.46.02v.06Z"/>
    <path class="cls-1" d="M140.42,163.16l.36-2.1c.18-.73.25-1.42.36-2.1.18-1.02.3-2.05.47-3.08.23-1.31.45-2.61.68-3.92l.17-.96c.15-.85.35-1.69.5-2.54.11-.62.22-1.25.38-1.86.1-.22.09-.51.14-.79l.53-2.07c.07-.4.19-.79.26-1.18.17-.67.34-1.29.46-1.97.12-.39.19-.79.27-1.24,0-.06.08-.1.09-.16.24-.72.36-1.4.49-2.14.15-.56.32-1.17.43-1.8.12-.33.33-.53.69-.58.18-.03.29,0,.44.13.05.07.15.14.22.1.24-.02.45.08.68.12.24-.02.33.11.42.3l.28.4c.29.34.4.71,0,1.05-.19.08-.23.31-.32.47-.27.54-.37,1.16-.53,1.72-.11.62-.27,1.24-.43,1.79-.07.05-.08.11-.09.16-.24,1.07-.44,2.2-.68,3.27l-.14.79c-.03.17-.04.23.13.26.11.02.18-.03.29,0,.42-.04.84-.15,1.26-.19.42-.04.9-.14,1.37-.17.59-.02,1.23-.02,1.81.02.41.01.86.09,1.28.04.94-.01,1.91.1,2.87.32.28.05.49.2.76.36.33.12.65.29.92.45.17.03.24-.02.32-.18v-.06c.12-.62.22-1.19.38-1.81.11-.62.33-1.23.45-1.91.12-.68.23-1.36.41-2.03.06-.34.17-.67.23-1.01.05-.29.14-.5.18-.73.11-.33.17-.67.34-.94.1-.22.29-.3.51-.26.29,0,.57.1.85.15.11.02.22.1.25.22.14.2.28.4.41.66.09.13.12.31.04.47,0,.06-.08.1-.03.17.07.25-.03.52-.18.73q-.07.05-.08.1c-.22.96-.44,1.85-.49,2.84.02.24-.08.46-.12.68-.04.23-.14.5-.13.74-.01.4-.14.79-.21,1.19-.06.34-.17.67-.28.95l-.02.11c-.01.41-.14.79-.26,1.18l-.02.11c0,.64-.23,1.31-.29,2-.06.34,0,.64-.28.95v.06c.05.66-.11,1.27-.21,1.84-.05.28-.15.56-.27.89v.4c-.03.11,0,.24,0,.29-.18.38-.2.84-.27,1.24.03.18,0,.29-.08.46-.13.45-.2.84-.22,1.31.05.07.04.12.03.18-.1.57-.15,1.2-.25,1.77-.06.34-.06.69-.11.98-.06.34-.18.73-.24,1.07-.16.91-.25,1.77-.23,2.71l-.07.4c-.21,1.19-.34,2.34-.54,3.47l-.37,2.16c-.04.23-.15.5-.18.73,0,.06-.08.1-.14.15-.27.24-.54.43-.83.73,0,.06-.08.11-.19.09-.12.04-.26.13-.39.22-.2.14-.3.07-.44-.13-.04-.12-.07-.25-.18-.32-.26-.16-.28-.4-.36-.65-.15-.84-.18-1.67.02-2.51.15-.85.3-1.76.4-2.68.09-.86.29-1.7.34-2.63.06-.34.18-.73.2-1.13l.14-.79c.17-.96.38-1.86.54-2.83.13-.74.2-1.48.32-2.17.14-.79.27-1.59.47-2.38l.18-1.02c.18-1.02.41-2.03.64-3.04l.04-.23c.12-.33.11-.62-.15-.84-.11-.02-.16-.09-.21-.15-.24-.28-.51-.44-.86-.44-.28-.05-.5-.14-.73-.18l-.45-.08c-.35,0-.76-.01-1.1-.07l-.57-.1c-.5-.14-1.06.05-1.57-.04-.29,0-.6.07-.89.08-.53.03-1.07.11-1.67.18-.18.03-.42.04-.66.12-.37.11-.78.1-1.17.33-.19.08-.44.16-.68.23-.18.03-.31.12-.35.35-.37,1.46-.67,2.87-.87,4.35-.14,1.14-.33,2.28-.53,3.41-.07.4-.07.75-.14,1.14-.04.23-.2.49-.07.75l-.02.11c-.22.26-.15.56-.2.84-.06.34-.05.63-.11.97l-.06.34c-.09.51-.12,1.03-.14,1.5l-.03.17c-.37,1.46-.57,2.94-.82,4.42-.06.34-.06.69-.12,1.03-.07.4-.25.77-.59,1.07-.21.2-.38.52-.6.77-.09.16-.16.27-.29.36-.13.09-.25.07-.35,0-.16-.09-.31-.23-.47-.32-.1-.08-.15-.14-.19-.27.02-.11-.03-.18,0-.29.09-.51-.13-.96-.21-1.5-.07-.6-.19-1.26-.02-1.93.18-.73.25-1.42.37-2.16Z"/>
  </g>
</svg>