<?xml version="1.0" encoding="UTF-8"?>
<svg id="Layer_1" data-name="Layer 1" xmlns="http://www.w3.org/2000/svg" viewBox="0 0 260.55 262.85">
  <defs>
    <style>
      .cls-1 {
        fill: #231f20;
      }
    </style>
  </defs>
  <g>
    <path class="cls-1" d="M32.34,132.29c-.11-.14-.31-.49-.53-.76-.13-.26-.35-.53-.52-.84-.11-.13-.22-.27-.31-.49-.22-.27-.43-.54-.6-.85-.16-.39-.54-.68-.82-1.04-.49-.71-1-1.34-1.53-2.02-.32-.41-.7-.7-.99-1.06-.29-.36-.71-.61-.99-1.06,0-.08-.11-.14-.19-.15-.15-.1-.3-.28-.44-.46-.04-.04-.07-.09-.06-.17l-.04-1.07c-.04-.33.15-.56.41-.69q.61-.34,1.28-.06l1.29.52c.15.1.26.24.28.44,0,.08.06.17.13.26l1.17,1.2c.44.46.8.91,1.19,1.41l1.33,1.67c.07.09.19.15.26.24l.39.5s.03.12.06.17c.45.38.72.9,1.03,1.39.21.35.49.71.7,1.06.1.22.24.4.38.58.3.28.55.6.88.92.21.27.47.5.69.78.35.53.7,1.06,1.09,1.56l.21.27c.68,1.22,1.64,2.15,2.46,3.27.07.09.1.22.17.31.03.13.05.25.09.3.26.23.43.54.69.78s.43.54.61.77c.11.14.21.35.31.49l1.29,1.62c.11.14.26.23.37.37.04.04.12.05.07.09.23.48.65.81.92,1.25.18.23.28.44.41.7l.72.9c.06.17.17.31.28.44.07.09.11.14.18.23l.72.9c.14.18.29.36.39.58.05.25.2.43.17.67,0,.08.06.17.05.25.16.39.14.55-.13.76-.13.11-.23.26-.3.46-.06.2-.32.25-.48.23-.37,0-.69-.04-1.01-.16-.2-.06-.35-.16-.46-.3-.33-.33-.62-.69-.91-1.05-.14-.18-.24-.4-.38-.58l-2.55-3.2c-.14-.18-.37-.37-.55-.59l-.25-.32c-.61-.77-1.18-1.49-1.75-2.29-.43-.54-.9-1.13-1.28-1.7-.3-.57-.74-1.03-1.17-1.57-.31-.49-.71-.98-1.06-1.51-.29-.36-.53-.76-.77-1.15l-.43-.54c-.43-.54-.82-1.04-1.3-1.54-.3-.28-.54-.68-.9-1.13Z"/>
    <path class="cls-1" d="M74.04,121.5c.03.05,0,.13.03.18.37.46.53,1.02.8,1.53.21.41.42.82.49,1.31.06.36.24.72.45,1,.1.08.16.18.21.28.03.05,0,.13.05.1.36.2.29.56.32.87,0,.13.13.26.16.44l.49,1.31c.03.05-.03.08-.03.08.39.38.3.95.51,1.36.08.15.06.36-.04.54-.08.11-.23.18-.36.32-.41-.04-.95.17-1.34-.21-.21-.15-.42-.3-.57-.48l-.03-.05c.1.08.13.13,0,0-.05-.1-.16-.18-.26-.25l.05.1c-.13-.13-.31-.36-.65-.63-.19-.36-.29-.69-.45-1-.08-.15-.13-.26-.14-.38-.16-.31-.29-.56-.4-.89-.08-.28-.21-.54-.4-.77l-.11-.2c-.08-.15-.08-.28-.21-.41l-.08-.15c-.13-.26-.21-.54-.37-.84-.13-.26-.31-.36-.65-.25,0,0-.03-.05-.05.03-.33.24-.77.4-1.07.69-.13.13-.25.26-.43.29-.38.14-.77.27-1.07.56l-.1.05c-.59.37-1.25.72-1.92,1.06-.15.08-.31.16-.43.29-.26.13-.33.5-.19.75.31.36.43.82.64,1.23.32.48.58,1,.93,1.53l.69,1.33.03.05c0,.39.29.69.43,1.08.08.28.19.62.17.95-.02.33-.15.47-.48.57-.54.21-.95.04-1.4-.31-.03-.05-.13-.13-.21-.15-.34-.15-.55-.43-.68-.68-.24-.33-.37-.71-.53-1.02l-.11-.21c-.21-.28-.45-.61-.66-.89l-.4-.77c-.11-.21-.19-.36-.29-.56-.37-.59-.69-1.2-1.04-1.86-.27-.51-.53-1.02-.75-1.56l-.42-.82c-.21-.41-.43-.82-.54-1.28l-.08-.15c-.32-.61-.49-1.3-.68-1.92-.24-.59-.35-1.18-.57-1.72-.14-.38-.27-.77-.43-1.08-.03-.18-.11-.33-.14-.51-.11-.33-.19-.62-.35-.92s-.22-.67-.33-1c-.11-.33-.17-.69-.27-1.03l-.44-1.46c-.14-.38-.22-.79-.3-1.21-.08-.41-.22-.79-.3-1.21-.05-.1-.05-.23-.11-.33.02-.08-.03-.18-.06-.23-.37-.71-.54-1.54-.68-2.31-.19-.74-.31-1.46-.45-2.23-.11-.46-.12-.98-.18-1.46l-.1-1.31c.02-.46-.01-.9,0-1.37-.03-.18,0-.39-.11-.59-.08-.15-.06-.36.09-.57.2-.24.3-.55.43-.81.12-.26.25-.39.46-.5.26-.13.48-.32.77-.4.1-.05.18-.03.26,0,.39.25.83.48,1.2.68.34.15.52.38.81.55.05.1.16.18.24.2.44.23.76.58,1.07.94.16.18.34.28.5.46.58.48,1.1.99,1.55,1.6.24.33.45.74.79,1.02.26.25.42.56.63.84l1.42,1.86c.29.43.55.81.82,1.2l.68.94c.29.43.61.79.87,1.17l.35.66c.32.61.66,1.15,1.06,1.66l.4.77c.24.46.43.95.77,1.35l.19.36c.16.31.37.59.53.89l.16.31c.14.51.4.89.69,1.33.18.23.29.56.37.84.11.2.19.49.42.69s.37.46.48.79ZM70.8,121.89l-.29-.56c-.14-.38-.27-.77-.46-1.13-.19-.36-.42-.69-.66-1.02-.21-.41-.37-.84-.64-1.23-.29-.56-.53-1.15-.9-1.61-.08-.15-.16-.31-.19-.49l-.24-.46c-.24-.46-.53-.89-.77-1.35l-.53-1.02c-.13-.38-.4-.64-.69-.94-.29-.3-.55-.69-.82-1.07-.32-.48-.56-1.07-.98-1.5-.39-.38-.63-.84-.97-1.25-.39-.51-.71-.99-1.16-1.48-.34-.41-.71-.86-1.1-1.24l-1.12-1.04c-.26-.25-.5-.58-.86-.78-.1-.08-.24-.2-.39-.12-.2.11-.12.26-.1.44-.02.08.03.18.05.23l.09.54c.04.95.21,1.9.48,2.8.13.38.22.79.3,1.21.11.59.12,1.23.47,1.77.11.2.14.51.32.74.18.36.27.77.33,1.13.05.1.05.23.08.28.16.56.38,1.1.54,1.67.14.51.3,1.08.57,1.59.13.38.3.82.56,1.2l.08.15c-.02.21.06.36.14.51l.21.54c.22.54.43,1.07.67,1.66.13.38.32.74.41,1.15.03.44.27.77.35,1.18.06.36.27.77.46,1.12.19.49.4.89.59,1.38.08.15.13.25.26.25.49.07.98.14,1.44-.1.38-.27.79-.48,1.25-.72l.23-.05c.43-.29.87-.45,1.3-.74s.87-.58,1.33-.82l.2-.11c.3-.29.33-.49.14-.72ZM75.18,130.06c-.03-.05-.13-.13-.21-.15.1.07.18.1.21.15Z"/>
    <path class="cls-1" d="M74.55,112.2c-.24-.71-.49-1.42-.71-2.07l-.13-.38c.02-.13,0-.18-.02-.24l-.84-2.45c-.09-.27-.11-.51-.21-.78-.15-.44-.36-.85-.45-1.31l-.6-1.74c-.04-.11,0-.18-.02-.24-.26-.76-.51-1.47-.72-2.25-.17-.49-.28-1-.4-1.51-.02-.24-.11-.51-.19-.73-.1-.45-.23-.83-.32-1.29-.09-.46-.21-.96-.38-1.45-.02-.24-.11-.51-.13-.75-.1-.45.1-.77.35-1.1l.22-.08c.15.07.33.07.48.14.09.09.22.11.35.12.24-.02.46.09.58.29l.55.36c.16.13.31.2.46.27.31.2.55.36.84.5.17.12.33.25.44.39l.24.16c.64.45,1.23,1.1,1.84,1.62.2.23.41.47.64.63.02.05.09.09.13.2.3.51.72.85,1.12,1.32l.51.43c.02.05.09.09.11.15.15.43.59.65.83.99.02.05.09.09.11.14.15.44.43.71.67,1.05.09.09.13.2.28.27.62.39,1.03,1.04,1.44,1.7.5.74,1.09,1.39,1.7,2.1l.39.6c.11.15.24.34.42.52.11.15.35.31.44.58.02.05.17.12.26.21.02.05.15.07.18.18.21.42.61.7.9,1.03.07.04.09.09.15.07.09.09.26.22.4.29.13-.17.12-.35.12-.53.03-.44,0-.91,0-1.4l.08-1.37c.05-.56.08-1.18.07-1.73.05-.38-.04-.84,0-1.22.01-.31.08-.64.08-1l.05-.38c.05-.56.08-1.18.16-1.82-.02-.24.01-.49.05-.75.1-.4.19-.86.22-1.29.1-.77.2-1.53.38-2.26.05-.2-.02-.42-.02-.6.07-.33.07-.69.13-1.02.02-.31.03-.62.06-.88l.05-.38c.16-.6.24-1.24.33-1.88-.02-.05.02-.13,0-.18l.5-2.24c.07-.33.14-.66.23-.93.02-.13.09-.27.21-.44.07-.15.2-.31.32-.48.32-.48.79-.7,1.34-.89.16-.06.47.14.59.29.21.42.39.78.42,1.2,0,.18.11.33.19.54.05.16.17.31.24.52.15.25.24.53.39.78l.04.11c.15.44.27.95.42,1.38.06.16.11.33.22.47.41.83.71,1.7,1.01,2.57l.51,1.47c.08.22.15.44.33.62l.13.2c.04.47.3.87.45,1.31.15.62.45,1.12.71,1.71.19.36.26.76.36,1.22l.06.16c.31.38.35.85.45,1.31.06.34.1.63.19.91,0,.18.08.4.13.56.09.27.19.54.28.82l.08.22c.3.87.58,1.69.81,2.52.07.22.22.47.12.69l.06.16c.18.18.21.42.23.65.06.16.11.33.22.47.13.2.13.38.13.56.02.05-.02.13.05.16.13.38.14.75.25,1.07.11.33.19.73.3,1.05.04.11.09.27.08.4l.02.05c.24.53.27,1.13.53,1.71.24.34.41.83.43,1.25l.11.33c.28.63.38,1.27.37,1.95.04.29.13.56.17.85.06.35.12.69.17,1.04l.02.24c.21.42,0,.86-.06,1.24-.05.2-.36.37-.63.28-.13-.02-.27-.09-.42-.16l-.68-.38c-.22-.11-.46-.27-.55-.54-.11-.14-.17-.31-.28-.45-.19-.36-.21-.78-.36-1.22-.07-.22-.15-.44-.17-.67-.09-.27-.17-.49-.21-.78-.03-.6-.29-1.18-.44-1.8l-.48-1.91c-.11-.51-.23-1.02-.36-1.58l-.51-2.02c-.02-.05-.04-.11,0-.18-.08-.77-.34-1.53-.55-2.31-.15-.62-.29-1.18-.49-1.78-.02-.24-.08-.4-.15-.62-.19-.54-.38-1.09-.53-1.71-.13-.38-.19-.73-.32-1.11-.02-.05-.04-.11,0-.18.01-.49-.19-.91-.32-1.29-.26-.76-.53-1.52-.82-2.21-.15-.44-.36-.85-.51-1.29-.17-.31-.28-.63-.37-.91l-.92-2.67c-.22-.47-.45-.94-.62-1.43-.19-.36-.32-.74-.45-1.12-.04-.11-.11-.14-.18-.18l-.12.17c-.09.27-.18.55-.14.84.04.47-.08,1-.17,1.46-.08.64-.19,1.22-.16,1.82,0,.36-.01.67-.12,1.07-.11.4-.06.88-.17,1.28l-.1.58c-.12,1.08-.38,2.08-.33,3.1l-.09.28c-.14.47-.1.95-.11,1.44l-.17,3.23c0,.55-.12,1.08-.13,1.57-.02.13-.03.25-.01.31.04.65-.02,1.35-.05,1.97-.01.67.05,1.38.04,2.06l.1.64c.04.11.06.16.08.22l.89,1.52s.07.04.09.09c.26.76.72,1.39.93,2.18-.05.02-.04.07.04.11.32.56.41,1.2.64,1.85.02.24.06.53.03.78-.04.07-.02.13,0,.18.19.36.04.84.23,1.2.02.05-.02.13-.09.09-.18,0-.2.13-.22.26-.02.13-.07.33-.07.51,0,.18-.07.33-.21.44s-.27.28-.3.53c.02.05-.05.2-.22.26l-.6.21c-.2.13-.38.13-.57-.05-.24-.16-.51-.07-.77-.1-.2-.05-.27-.09-.38-.23-.13-.2-.35-.31-.53-.49-.17-.13-.29-.32-.41-.47-.2-.24-.33-.43-.48-.69l-.15-.44c-.09-.27-.19-.54-.23-.84-.11-.33-.23-.65-.25-1.07,0-.36-.13-.75-.19-1.09-.15-.62-.1-1.18-.13-1.78.03-.44,0-.86.06-1.24,0-.18-.02-.42,0-.55.03-.26-.02-.42-.15-.62-.19-.36-.43-.71-.67-1.05l-.4-.47c-.29-.33-.59-.65-.83-.99-.31-.38-.63-.76-1.05-1.1-.39-.42-.72-.85-1.07-1.34-.26-.4-.57-.78-.94-1.14-.28-.27-.57-.6-.79-.88-.39-.41-.77-.83-1.07-1.34l-.72-1.03c-.07-.04-.11-.14-.18-.18-.55-.54-1.07-1.16-1.53-1.79-.17-.31-.41-.65-.74-.9l-.57-.59c-.33-.43-.72-.85-1.11-1.26-.22-.29-.37-.54-.63-.76l-.88-.79c-.07-.03-.14-.07-.2-.05,0,0-.04.07-.02.13-.02.13.02.23.06.34.23.47.39.96.51,1.47.08.4.26.76.38,1.09l.11.33c.02.05-.02.13,0,.18.45.94.68,1.96,1.02,2.94.32.74.58,1.5.79,2.29l.43,1.25c.25.71.49,1.42.7,2.2.09.27.32.56.37.91.1.45.27.94.42,1.38.34.8.64,1.67.97,2.47.21.6.45,1.12.66,1.72.28.63.49,1.23.71,1.89.07.22.2.42.28.63.13.56.36,1.04.6,1.56l.22.65c.04.11.15.25.21.42.11.33.17.67.28,1,.04.11.08.22.15.25.24.34.32.74.41,1.2.02.24.08.4.26.58.24.16.2.42.23.65.04.11.02.24.06.35.11.14.09.27.1.45-.07.15-.03.25.06.35.26.22.17.49.14.75-.02.13-.11.22-.22.26-.53.06-1.04,0-1.41-.37l-.83-.81c-.26-.21-.39-.42-.5-.74-.21-.6-.47-1.18-.67-1.78-.08-.22-.09-.45-.17-.67l-.02-.05c-.17-.31-.3-.69-.41-1.02-.13-.38-.37-.72-.45-1.12-.04-.11-.08-.22-.17-.31-.13-.38-.34-.8-.47-1.18-.37-.91-.77-1.87-1.08-2.79-.09-.09-.13-.2-.15-.25-.25-.71-.54-1.4-.86-2.14l-.54-1.58c-.06-.16-.13-.38-.21-.6ZM89.64,118.51c-.09-.27-.21-.6-.35-.85-.17-.31-.28-.63-.45-.94-.13-.2-.26-.22-.42.02-.04.07-.07.14-.09.27.04.29-.03.62.14.93.02.05-.02.13,0,.18-.03.44-.12.89.09,1.31,0,0-.05.02-.04.07-.05.2.02.42.1.64.06.16.11.33.12.51.09.27.24.34.49.2.11-.04.2-.13.29-.22.2-.13.32-.29.36-.55,0-.55-.07-1.07-.24-1.56Z"/>
    <path class="cls-1" d="M132.59,109.41c-.63.07-1.09.03-1.61.16l-.46.18c-.29.06-.34.3-.33.58-.04.87-.01,1.73.07,2.59.01.4-.04.81-.08,1.21l.04,1.55c0,.17-.05.29-.05.41-.05.17-.11.29-.05.46.06.17,0,.29-.1.46-.22.35-.56.53-.91.66-.28.12-.57.24-.86.2-.23,0-.35-.11-.41-.28-.06-.29-.19-.63-.25-.92l.04-.58c-.02-.86-.1-1.67-.07-2.53-.02-.63.02-1.27,0-1.9,0-.29-.07-.63-.14-.92,0-.12-.06-.23-.24-.22-.4-.05-.75.02-1.03.43-.05.12-.23.18-.34.3-.11.17-.22.29-.33.41-.22.24-.4.3-.69.19-.12-.05-.23-.05-.35-.05-.17,0-.23-.11-.3-.28-.07-.4.04-.69.32-.99.22-.24.33-.47.5-.71.11-.12.17-.18.22-.29.34-.3.62-.65,1.02-.89.11-.06.23-.12.34-.24.12,0,.23-.06.34-.12.46-.24.51-.36.38-.87-.07-.35-.08-.75-.09-1.15-.01-.58-.03-1.15-.16-1.72-.06-.06,0-.06-.06-.11-.09-1.44-.13-2.94-.17-4.38l-.03-1.27c-.01-.4.04-.87.08-1.33,0-.23.05-.4.04-.63,0-.4-.08-.8-.03-1.15.09-.92-.05-1.9-.01-2.82-.01-.4.09-.81.08-1.21.05-.46-.02-.92.02-1.38,0-.23-.01-.46.04-.69.05-.4.04-.81.08-1.21.05-.29.04-.63.09-.92.04-.52-.08-.98-.04-1.5,0-.29.04-.52.04-.81,0-.12-.06-.23-.12-.29-.18-.34-.42-.62-.77-.79-.29-.17-.47-.39-.42-.74,0-.23.16-.41.33-.53.11-.12.23-.18.28-.35.11-.18.22-.35.51-.3.29.05.52.04.8-.08.11-.06.34-.07.52-.07.29.05.58.1.87.09.35.05.75.04,1.1.03.35.05.69.04,1.04.03h.11c.86-.2,1.66-.28,2.53-.3l1.96-.05c.52.04.98.03,1.5.08.35,0,.75-.02,1.15.03.12,0,.23.05.29.11.46.22.87.38,1.28.66.29.22.48.56.71.9.06.06,0,.17-.05.23-.17.29-.39.59-.61.82-.06.06-.17.06-.29.06-.12,0-.23-.05-.35-.11-.12-.05-.29-.11-.4.07-.34.24-.63.19-.98.02-.06-.06-.12-.11-.23-.11-.52-.04-1.04-.09-1.62-.07-.06-.05-.17-.05-.23-.05-.46.18-.92.14-1.38.09-.29,0-.52.01-.8.08-.23.06-.52.13-.81.02-.06-.06-.12-.05-.17-.05-.34.12-.69.13-.97.2-.12,0-.17,0-.29.06-.11.12-.29.06-.46.01-.35-.05-.69-.1-.98-.09-.17,0-.57.36-.56.53-.05.41-.21.75-.09,1.16.06.06,0,.17,0,.23l-.05.4c.13.4-.04.81-.08,1.21,0,.06-.05.12-.05.17.01.46.02.98-.02,1.44v.34c.01.12-.04.17-.04.23.02.87.1,1.67.06,2.48-.04.63.09,1.32-.07,1.9l-.05.06c.12.46-.04.87.09,1.32,0,.17-.05.35-.04.52l.03.92c.01.46-.04.87-.02,1.33-.05.35.02.69.03,1.04l.02.86c.02.63.09,1.27.11,1.9v.35c.01.12.02.29.08.46.07.29.07.52.08.8.07.29-.04.58.14.8.06.06.06.17.06.23l.02.92c0,.23.01.52.08.75.07.29.12.34.41.28.4,0,.75-.02,1.09-.09h.52c.52.03.98-.04,1.5-.11.4-.12.8-.19,1.2-.26.17-.06.34-.12.51-.3l.45-.42c.06,0,.11-.06.17-.12.11-.06.17-.23.34-.12.23.11.52.16.59.39.07.35.13.63.08.98-.05.35-.22.58-.44.76l-1.02.78c-.28.18-.62.36-.97.37-.23,0-.46.13-.69.13l-1.09.03Z"/>
    <path class="cls-1" d="M147.84,115.61c.64-.04,1.21.02,1.8-.03.46,0,.94-.13,1.41-.19.63.01,1.29-.14,1.92-.07.4.04.86.1,1.18.31.05.06.11.07.17.08.11.07.22.08.27.15.16.13.26.26.36.39.16.13.19.37.11.59-.15.33-.45.41-.76.55-.12.04-.24.03-.41.07-.18.04-.3.08-.43.18-.2.21-.43.24-.72.21,0,0-.05-.06-.11-.07-.53.11-1.09-.06-1.62,0-.47.06-.99,0-1.46.07-.46,0-.94.13-1.44-.05h-.11c-.36.06-.71.08-1.06.16-.31.14-.59.05-.86-.1-.17-.08-.38-.27-.52-.52-.09-.19-.26-.26-.48-.34-.06,0-.11-.01-.22-.08-.34-.1-.48-.34-.39-.68.08-.22.04-.4.01-.64-.04-.12-.03-.24-.02-.29,0-.52.05-.98.11-1.5.13-.62.14-1.26.33-1.88v-.41c0-.11-.05-.18-.09-.3.05-.46.11-.97.11-1.5.03-.29,0-.58.04-.87l.22-2c.05-.4.15-.8.19-1.2.03-.23,0-.52.03-.75.12-.51.17-.97.22-1.48v-.11c.17-.91.27-1.77.43-2.68.03-.29.06-.52.15-.79.03-.23.1-.39.13-.62.05-.46.1-.92.16-1.37l.35-1.58c.11-.45.21-.85.26-1.3.13-.68.33-1.41.41-2.1l.13-1.14c.12-.57.19-1.14.31-1.71.02-.17.04-.34.06-.52l.2-1.77c0-.06.02-.17.03-.29l-.03-1.28c.02-.17.04-.34,0-.52l.02-.17c.08-.17.04-.34.06-.52-.02-.35.02-.69.05-.98,0-.06.02-.17.08-.16.25-.2.36-.6.66-.74.19-.15.37-.19.65-.1.34.1.69.08,1.09.06.41-.07.87-.02,1.28-.03l2.61-.05c.35-.02.69.02,1.04,0,.06,0,.06-.05.12-.05.8.09,1.67.13,2.46.28.62.13,1.23.43,1.56,1.05.05.06.1.13.09.24-.04.34-.08.69-.28.95-.19.15-.68.39-.97.35-.28-.09-.57-.12-.87-.04l-.17-.02c-.39-.1-.87-.04-1.32-.09-.35.02-.75-.03-1.15-.07l-.23-.03c-.48.12-1.01.18-1.45,0l-.17-.02c-.29.03-.53.06-.76.03-.28-.09-.57-.06-.87-.04-.4-.04-.67.33-.94.59-.06.05-.08.17-.09.28.06.47.01.93-.04,1.39-.03.23,0,.52-.03.75-.02.17-.09.28-.11.45-.08.74-.17,1.54-.26,2.29l-.23,2.06c-.06.52-.24,1.07-.36,1.64-.06.52-.17,1.03-.29,1.53-.24,1.07-.3,2.17-.48,3.25-.08.69-.15,1.32-.33,1.93l-.08.69c-.12,1.03-.23,2-.34,3.03l-.02.17c-.02.17.09.24.26.26.52,0,1.04,0,1.51,0l2.21-.1c.29-.03.58-.05.81-.03.52,0,.97.11,1.41.39.15.19.43.34.58.47.21.2.26.26.11.53,0,.06-.08.17-.09.28-.02.17-.15.27-.27.32-.31.14-.56.34-.85.31-.41.01-.71.09-1.07.23-.24.09-.47.06-.76.03-.46,0-.93.01-1.33-.03-.24.03-.46,0-.64-.01l-.3.08c-.3.08-.71.15-1.03.35-.18.09-.42.13-.66.22-.23.03-.37.19-.4.48-.07.63-.09,1.32-.1,1.96l-.14,1.26c-.11.45-.16.91-.09,1.32-.02.17-.03.29-.04.4l-.12,1.03c-.01.11.09.18.21.2.17.02.29.03.46.05v.06Z"/>
    <path class="cls-1" d="M162.58,117.81c.64.03,1.21.15,1.79.17.46.04.95-.02,1.42-.04.63.08,1.3,0,1.92.13.39.09.84.19,1.14.43.04.07.1.08.16.09.1.08.21.11.26.18.14.15.23.29.32.43.14.15.15.39.04.6-.19.31-.49.36-.81.47-.12.03-.24,0-.42.03-.18.02-.31.05-.44.14-.22.19-.46.19-.74.13,0,0-.04-.07-.1-.08-.54.05-1.08-.18-1.61-.18-.47.01-.98-.1-1.46-.09-.46-.04-.95.02-1.43-.2l-.11-.02c-.36.04-.71.02-1.08.05-.32.11-.59-.01-.84-.19-.16-.09-.34-.31-.46-.58-.07-.19-.23-.29-.44-.39-.06-.01-.11-.02-.21-.11-.32-.13-.44-.39-.31-.72.11-.21.09-.39.08-.63-.03-.12,0-.24,0-.29.06-.52.16-.97.27-1.47.19-.61.28-1.24.53-1.83l.03-.41c.03-.11-.02-.18-.05-.31.1-.45.21-.96.27-1.47.06-.28.07-.57.13-.86l.44-1.97c.09-.39.23-.78.32-1.17.05-.23.06-.52.11-.74.17-.49.27-.94.38-1.45l.03-.11c.26-.89.45-1.73.7-2.62.06-.28.11-.51.23-.78.05-.22.14-.38.19-.61.1-.45.2-.9.3-1.35l.52-1.54c.16-.44.3-.82.4-1.27.21-.66.48-1.37.63-2.04l.25-1.12c.18-.55.31-1.11.49-1.66.04-.17.08-.34.11-.51l.39-1.74c.01-.06.04-.17.06-.28l.11-1.28c.04-.17.07-.34.06-.52l.04-.17c.09-.16.08-.34.11-.51.02-.35.1-.69.16-.97.01-.06.04-.17.09-.15.28-.18.42-.56.74-.66.21-.13.39-.15.66-.03.32.13.67.15,1.08.18.42-.02.87.08,1.28.11l2.61.23c.35.02.69.1,1.04.11.06.01.07-.04.12-.03.79.18,1.64.31,2.42.54.61.2,1.17.56,1.44,1.21.04.07.09.14.06.25-.08.34-.15.67-.38.92-.21.13-.72.31-1,.25-.27-.12-.55-.18-.86-.13l-.17-.04c-.38-.14-.86-.13-1.31-.23-.35-.02-.74-.11-1.14-.2l-.22-.05c-.49.07-1.02.07-1.44-.14l-.17-.04c-.29,0-.53,0-.76-.05-.27-.12-.56-.12-.86-.13-.39-.09-.71.25-1,.49-.07.04-.09.16-.12.27.01.47-.09.92-.19,1.37-.05.22-.06.52-.11.74-.04.17-.12.27-.16.44-.16.73-.34,1.52-.5,2.25l-.45,2.02c-.11.51-.35,1.04-.53,1.59-.11.51-.28,1-.45,1.49-.35,1.04-.53,2.12-.83,3.18-.15.67-.29,1.29-.54,1.89l-.15.67c-.23,1.01-.44,1.97-.67,2.98l-.04.17c-.04.17.06.25.23.29.52.06,1.04.11,1.5.16l2.21.14c.29,0,.59.01.81.06.52.06.96.21,1.36.54.13.21.39.38.53.53.19.22.23.29.05.54-.01.06-.09.16-.12.27-.04.17-.18.26-.3.29-.32.11-.59.28-.88.22-.41-.03-.71.02-1.09.11-.25.06-.47.01-.76-.05-.46-.04-.92-.09-1.32-.18-.24,0-.46-.04-.63-.08l-.3.05c-.31.05-.73.07-1.06.24-.19.07-.43.08-.68.14-.24,0-.39.15-.45.43-.14.62-.23,1.31-.32,1.94l-.28,1.24c-.16.44-.26.89-.23,1.31-.04.17-.06.28-.09.39l-.23,1.01c-.03.11.07.19.19.22.17.04.28.06.45.1v.05Z"/>
    <path class="cls-1" d="M174.24,118.5c.31-.93.67-1.78.96-2.65.13-.38.3-.69.46-1,.08-.22.1-.46.17-.67.02-.05,0-.18.09-.27.18-.18.2-.42.28-.64.06-.16.18-.36.26-.58.17-.67.46-1.36.69-2.02.13-.38.32-.75.43-1.07.07-.22.09-.46.17-.67l.04-.11c.26-.4.24-.89.52-1.34.2-.42.3-.87.46-1.36.3-.69.56-1.45.91-2.12.22-.47.39-.96.56-1.45.18-.36.39-.78.52-1.16.07-.04.09-.09.11-.14.17-.49.32-.93.54-1.4.18-.36.37-.73.52-1.16.18-.36.33-.8.52-1.16.09-.27.24-.53.33-.8.09-.27.13-.56.22-.84.11-.33.26-.58.42-.89.15-.25.26-.58.35-.85.2-.42.35-.85.57-1.33.07-.22.2-.42.33-.62.18-.36.44-.76.35-1.22-.02-.13,0-.18.09-.27.13-.02.22-.11.29-.14.18,0,.33-.07.49-.2.24-.16.44-.22.71-.12.16.06.27.09.42.02.05.02.18,0,.16.05.27.27.58.44.69.84.07.33.18.55.27.82.13.16.14.29.09.46-.07.22-.15.44-.09.64l-.06.16c-.44.4-.55.91-.68,1.47-.13.38-.19.73-.32,1.11l-.85,1.96c-.05.16-.2.24-.26.4-.18.36-.37.73-.35,1.22.04.07-.05.16-.09.27-.06.16-.15.25-.2.42-.24.34-.44.76-.63,1.13-.07.22-.18.36-.31.56-.09.27-.21.6-.3.87l-.06.16c-.24.34-.4.65-.37,1.09,0,.18-.06.34-.24.53,0,0-.02.05-.09.09-.17.31-.33.62-.5.93l-.11.33c.03.26-.04.47-.22.66l-.06.16c.02.49-.3.87-.46,1.36-.11.33-.33.62-.33.98-.02.24-.15.44-.28.64-.09.09-.09.27-.13.38-.08.22-.13.38-.26.58-.08.22-.2.42-.17.67.04.07,0,.18-.02.24-.11.33-.3.69-.41,1.02l-.33.98c-.15.44-.35.85-.52,1.34-.06.16-.11.33-.11.51-.07.4-.19.73-.3,1.06-.13.2-.15.44-.17.67l-.13.38c-.04.11-.07.22-.06.34,0,.18-.06.35-.17.49-.2.24-.33.44-.48.69l-.06.16-.59,1.74c-.09.27,0,.37.22.44.27.09.56.13.84.22.44.15.91.19,1.38.23.64.09,1.22.17,1.88.21.16.06.36,0,.55,0,.33-.07.69-.07.98-.03.42.02.78.02,1.13.08.13-.02.18,0,.22.07.16.05.25.15.38.13.07-.04.13-.02.17.06.22.07.42.2.64.28q.25.15.22.44c0,.18,0,.36-.19.54-.07.04-.11.15-.07.22.07.33-.08.58-.22.84-.09.27-.37.36-.6.34-.29-.04-.58-.08-.8-.15-.33-.11-.62-.15-.89-.06-.16.13-.35.12-.58.11-.11-.04-.25.04-.38.05-.22.11-.46.09-.66-.04-.16-.05-.35-.06-.6-.02-.46.09-.98.03-1.51-.03-.22-.07-.4-.07-.66-.04-.29-.04-.56-.13-.89-.24-.04-.07-.15-.11-.22-.08-.33.07-.58-.08-.93-.13-.27-.09-.58-.26-.91-.37-.38-.13-.62-.33-.91-.55-.14-.11-.27-.28-.32-.48-.22-.44-.43-.88-.59-1.3-.07-.14-.09-.27-.11-.4-.11-.4-.16-.79-.08-1.18.11-.51.12-1.06.32-1.47Z"/>
    <path class="cls-1" d="M190.98,120.29c.17-.24.28-.51.45-.75l.07-.16c.15-.5.39-.9.59-1.38.18-.42.37-.85.6-1.25.14-.19.34-.35.38-.59.08-.47.34-.79.45-1.19.48-1.11.96-2.22,1.49-3.31.14-.32.35-.67.49-.98.08-.03.1-.08.12-.14.05-.42.23-.84.5-1.16.14-.19.18-.42.33-.61.29-.38.4-.77.61-1.12.07-.16.22-.22.32-.3l.29-.25c.11-.26.39-.33.67-.4.15-.06.89.26,1,.43.06.15.1.36.08.54.04.2,0,.44.01.7-.02.05-.02.18-.09.21-.23.09-.19.29-.26.45-.16.37-.21.79-.43,1.13-.21.35-.27.76-.42,1.13-.07.16-.11.27-.18.42l-.57,1.32c-.02.05-.07.16-.09.21l-.04.23c-.26.33-.27.76-.42,1.13-.07.16-.19.3-.29.38-.19.29-.27.63-.39.9-.11.39-.26.76-.4,1.08-.07.16-.19.29-.23.4-.17.24-.26.45-.37.72-.24.4-.31.87-.37,1.29-.04.23-.05.42-.17.55-.14.19-.24.4-.25.58-.04.23-.11.39-.33.48-.15.06-.22.22-.24.4.03.08-.07.16-.11.26-.02.05-.12.14-.11.26-.13.45-.45.75-.79.97-.3.25-.7.45-1.08.16-.35-.21-.67-.48-.94-.72-.25-.29-.32-.7-.16-1.07.08-.34.22-.66.3-1ZM198.69,101.54c.04-.11.17-.24.29-.38l.41-.51c.12-.14.2-.17.37-.28.38-.15.76-.3,1.22-.35.05.02.13,0,.18.02.42.18.96.1,1.41.36.19.14.33.27.34.52.13.56.11,1.05-.22,1.53-.05.11-.14.19-.22.22l-.36.41c-.25.14-.48.23-.67.4l-.58.32c-.27.2-.61.24-.95.16-.29-.06-.55-.17-.82-.29-.05-.02-.13-.12-.17-.2-.09-.23-.2-.4-.24-.61-.05-.46-.2-.84,0-1.32Z"/>
    <path class="cls-1" d="M195.1,128.93c.22-.53.48-1.25.78-1.93.22-.53.47-1.12.8-1.6.13-.12.21-.28.22-.4.36-.66.58-1.32.91-1.93.22-.53.47-1.12.78-1.68.11-.2.22-.41.38-.58.29-.3.46-.73.65-1.09.22-.53.47-1.12.75-1.62.14-.25.32-.48.46-.73.16-.3.25-.58.52-.83l.14-.25.36-.66c.08-.15.14-.25.17-.43.03-.18.14-.38.22-.53.27-.51.52-.96.72-1.45.08-.15.16-.3.17-.43.06-.1.08-.15.11-.2l.93-1.72c.28-.64.66-1.22,1.04-1.8.38-.58.63-1.17.98-1.7.25-.46.54-.88.79-1.34.19-.35.36-.66.55-1.01l.25-.46c.11-.07.19-.23.24-.33.27-.51.53-1.09.8-1.6l.22-.41c.08-.15.22-.28.33-.48.16-.3.38-.58.39-.97.06-.23.19-.35.4-.37.16-.05.23-.07.32-.22.06-.23.27-.25.42-.29l1.24-.12c.08-.02.1.05.15.08-.09.41.08.7.15,1.06,0,.26,0,.59.05.88.15.8.28,1.66.33,2.54.04.28.06.62.02.93-.01.39-.03.77-.09,1.13.02.21,0,.46,0,.72-.03.18-.04.31-.02.51-.03.05-.08.15-.03.18.11.52-.03,1.03-.15,1.49-.09.54-.29,1.02-.38,1.56-.1.67-.25,1.31-.25,2.03.03.54-.11,1.05-.13,1.57-.03.18-.04.31-.12.46-.08.75-.2,1.46-.36,2.23-.06.23-.12.46-.1.67-.02.52-.13.98-.2,1.46-.23.79-.33,1.59-.52,2.41-.04.31-.12.59-.23.92-.09.28-.12.59-.19.95-.09.28-.15.64-.26.97-.09.54-.19,1.08-.36,1.64-.09.28-.22.53-.21.87l-.05.1c.02.21.07.36.14.34.13,0,.13-.12.19-.23l.38-.71c.03-.05.13-.12.11-.2,0-.13.06-.23.21-.28.03-.05.06-.1.16-.18.08-.15.19-.35.27-.51l.05-.1c0-.26.22-.41.41-.63.03-.05.13-.12.19-.23.06-.23.19-.36.35-.53l.16-.3c.03-.18.19-.35.33-.48.16-.05.31-.09.34-.27l.08-.02c.3.16.21-.15.29-.3.08-.15.19-.23.22-.41.03-.18.11-.33.02-.51-.02-.08-.02-.21.06-.23.18-.1.19-.22.19-.35,0-.13.08-.15.14-.25.19-.36.43-.68.65-.96l.08-.15c.22-.4.42-.89.63-1.29,0-.13.11-.2.16-.3.37-.32.62-.78.92-1.21.17-.3.38-.58.54-.88l.03-.05c.32-.48.6-.99.92-1.46.35-.53.6-1.12.9-1.67.08-.15.17-.3.3-.43.1-.07.16-.18.21-.28.14-.25.27-.51.46-.73.27-.38.44-.81.66-1.22.08-.15.21-.28.32-.48.27-.38.47-.86.58-1.32.14-.25.27-.51.46-.73l.27-.51c.25-.46.62-.78,1.06-1,.08-.02.21-.02.36-.07l.28-.04c.24-.2.52-.11.75-.05.18.03.3.16.27.34-.04.31-.04.57,0,.85.05.16-.04.31-.04.44-.06.23-.15.51-.2.74l-.11.2c-.41.63-.71,1.32-1.07,1.98-.22.41-.47.86-.68,1.27l-.08.15c-.48.4-.73.98-1.08,1.51-.27.38-.52.83-.76,1.29-.27.38-.51.7-.73,1.11-.19.23-.35.4-.43.68-.03.18-.14.38-.3.56l-.65.96c-.38.45-.65.96-.97,1.44-.22.41-.52.83-.79,1.21l-.08.15c-.2.48-.52.83-.76,1.29-.22.41-.51.71-.78,1.08l-.03.05c-.17.43-.44.81-.66,1.22l-.95,1.39c-.14.25-.32.48-.49.78-.22.41-.47.86-.71,1.32l-.44.81c-.25.46-.49.91-.71,1.32l-1.18,2.18c-.16.3-.41.63-.57.94-.11.2-.22.41-.28.63-.17.3-.38.58-.65.83-.11.07-.24.2-.32.35-.08.15-.14.25-.32.35-.39.12-.68.42-.95.66-.24.2-.47.27-.78.23-.82-.18-1.14-.55-1.09-1.38l-.03-1.39c.12-.59.22-1.13.44-1.66.11-.2.14-.38.17-.56.14-.25.22-.53.39-.84,0,0,.03-.05-.02-.08.1-.67.37-1.17.57-1.79.14-.38.28-.76.29-1.15.02-.64.22-1.25.39-1.82.06-.36.1-.67.21-1-.02-.08,0-.13.03-.18.28-.63.33-1.33.48-1.97.01-.39.1-.8.25-1.18.05-.1.08-.15.06-.23.07-.49.21-.87.28-1.36.04-.57.11-1.05.21-1.59.09-.28.12-.59.13-.85.03-.77.23-1.51.41-2.2.09-.41.1-.79.19-1.21-.06-.62.12-1.18.03-1.75-.03-.54.11-1.05.23-1.51.17-.56.27-1.1.41-1.61.03-.05.06-.1.03-.18.04-.57.04-1.16.05-1.67,0-.13-.04-.29-.07-.36,0-.13-.07-.23-.15-.21s-.18.1-.21.15c-.33.61-.68,1.27-1.06,1.85l-.33.48c-.3.43-.52.83-.73,1.24-.19.23-.3.43-.43.68-.17.3-.28.64-.54.88l-.14.25c-.26.84-.72,1.57-1.08,2.36-.09.28-.22.54-.36.79l-1.23,2.28c-.66,1.22-1.32,2.43-1.97,3.65l-.9,1.67c-.41.76-.77,1.55-1.1,2.28-.25.46-.42.89-.66,1.34-.19.35-.43.68-.53,1.09l-.03.05c-.24.33-.33.74-.47,1.12-.33.74-.69,1.52-.85,2.29q-.06.36-.4.37c-.31-.04-.59,0-.93.02-.16.05-.33.02-.54.04-.44-.04-.64-.28-.67-.69,0-.59.22-1.13.62-1.76Z"/>
    <path class="cls-1" d="M217.94,128.24c.09-.22.25-.46.39-.64l.71-.98c.13-.19.32-.34.48-.58.1-.14.25-.25.38-.43.4-.36.75-.74,1.17-1.14l.46-.45c.28-.29.61-.55.94-.81l.71-.7c.21-.2.48-.37.69-.57l1.23-.82c.49-.29.98-.57,1.42-.9.31-.13.6-.35.91-.48.29-.21.6-.35.91-.48.15-.11.31-.13.42-.19.56-.38,1.23-.53,1.91-.69.08-.01.13.02.16-.03.34-.18.71-.2,1.08-.22.56-.09,1.09-.14,1.62-.18.37-.02.69-.07,1.04.04.13.02.25.04.42.01.58-.01,1.13.1,1.7.3.17.05.38.06.64.1.38.06.74.25,1.14.39.46.26.96.54,1.42.88.28.2.58.48.79.78.17.26.37.48.34.81l.09.28c.18.34.11.64-.13.97-.07.09-.18.15-.17.23-.06.38-.42.48-.69.57-.03.05-.21,0-.25-.04-.14-.1-.2-.21-.27-.41l-.19-.42c-.13-.31-.3-.57-.57-.69-.14-.1-.28-.2-.35-.4.03-.05-.06-.11-.11-.15-.22-.09-.45-.26-.66-.26-.33-.03-.68-.13-1.03-.24-.3-.07-.68-.14-1.04-.04-.19.07-.48.08-.7,0-.09-.07-.22-.09-.33-.03-.35.1-.72.12-1.09.14-.17-.05-.37.02-.53.05-.24.04-.52.13-.71.2l-.45.03c-.31.13-.54.25-.87.23-.03.05-.08.01-.11.06-.33.26-.73.33-1.12.47-.27.09-.58.22-.8.42-.56.38-1.17.65-1.7.98-.31.13-.6.35-.9.56-.38.23-.7.49-1.11.76-.38.23-.66.52-.94.82-.43.4-.86.8-1.24,1.24l-1.52,1.53c-.07.3-.43.4-.6.63-.12.27-.34.47-.5.7-.57.8-1.15,1.51-1.46,2.43-.14.39-.34.67-.48,1.07l-.23.62c-.04.25-.16.52-.28.79-.05.17-.09.43-.05.67.01.08.04.24.02.37-.02.13.05.32.08.48.21.5.65.68,1.14.89.09.07.27.12.44.17.27.12.55.12.88.06.19-.07.4-.07.56-.09l1.16-.23c.48-.08.87-.23,1.29-.42.38-.23.86-.31,1.33-.47.24-.04.52-.13.79-.21.13.02.24-.04.36-.1l1.75-1.15c.38-.23.74-.53,1.02-.83.21-.2.43-.4.72-.61l.82-.55c.36-.31.72-.62,1.04-.96.44-.32.79-.71,1.27-1.08.56-.38,1.1-.84,1.5-1.4.47-.66.91-1.26,1.25-1.94l.28-.58c.17-.23.26-.46.33-.76.22-.41.36-.8.54-1.24.16-.31.46-.45.8-.42.13.02.29,0,.37-.02.37-.02.6.15.69.42.07.19.08.48.07.69-.06.38-.25.74-.36,1.09-.09.43-.24.82-.2,1.27.03.16,0,.29-.14.39-.11.06-.17.23-.19.36-.09.22-.22.41-.39.64-.13.19-.27.37-.36.6-.14.39-.42.69-.61,1.05-.22.41-.52.83-.74,1.24-.3.42-.62.76-.92,1.19l-.03.05c-.18.44-.54.75-.77,1.07-.24.33-.48.58-.69.86l-.33.47c-.24.33-.52.62-.75.95l-.29.5c-.38.44-.72.9-1.07,1.29-.52.62-1,1.2-1.47,1.85-.31.34-.64.6-.91.98-.2.28-.5.49-.68.86-.1.14-.29.21-.43.4-.26.17-.51.41-.71.7-.32.34-.69.57-1.05.88-.26.17-.48.37-.7.49-.41.27-.82.55-1.18.86-.33.26-.72.41-1.05.67-.41.27-.83.47-1.28.5-.24.04-.47.16-.65.31-.19.07-.39.15-.55.17l-.87.23c-.58.22-1.15.02-1.74-.04-.41-.01-.81-.16-1.24-.25-.08.01-.21,0-.29,0l-.43-.1c-.13-.02-.22-.09-.3-.07-.13-.02-.17-.05-.27-.12-.41-.22-.83-.52-1.22-.87-.14-.1-.31-.16-.45-.25-.19-.13-.38-.27-.55-.32l-.42-.3c-.17-.05-.27-.12-.17-.26.15-.31.07-.59.02-.91-.07-.4-.15-.88-.18-1.33-.03-.45.11-.84.25-1.24.12-.27.2-.57.32-.84.07-.09.05-.17.12-.27.17-.23.34-.47.67-.44.13.02.16-.03.24-.04.28-.09.5,0,.66.26.18.34.29.78.12,1.22-.07.09-.05.17-.09.22-.18.44-.16.81.08,1.27.1.36.15.68.41,1l.23.17c.46.25.91.51,1.44.75.09.07.22.09.35.11.21,0,.43.09.64.1.53-.04.99,0,1.43-.11.16-.03.32-.05.45-.03.32-.05.64-.11.94-.32.46-.24.93-.4,1.35-.59.11-.06.23-.12.31-.13.41-.27.77-.58,1.23-.82.44-.32.87-.72,1.3-1.12.35-.39.71-.69,1.11-1.05.4-.35.81-.63,1.11-1.05.38-.44.83-.76,1.12-1.26.02-.13.13-.19.2-.28.03-.05.07-.09.05-.17-.05-.03-.13-.02-.17-.05-.16.03-.4.07-.55.17-.31.13-.62.27-.96.45-.43.11-.81.34-1.19.57-.11.06-.31.13-.47.16-.37.02-.69.07-.99.29-.21.2-.54.25-.82.26-.13-.02-.32.05-.48.08l-.24.04c-.29,0-.56.09-.79.21-.63.19-1.19.28-1.75-.12-.09-.07-.14-.1-.22-.09-.22-.09-.36-.19-.55-.32-.09-.07-.22-.09-.35-.11-.05-.03-.13-.02-.09-.07-.13-.31-.55-.32-.71-.58-.2-.21-.44-.38-.64-.6-.15-.18-.34-.32-.35-.6,0-.21-.08-.48-.15-.68-.06-.12-.15-.18-.26-.33-.21-.29-.36-.68-.38-1.05-.05-.32-.01-.58.03-.83.04-.26.01-.42.02-.62,0-.21.05-.46.1-.64.07-.3.19-.57.31-.83l.06-.38c.24-.54.44-1.1.63-1.67.28-.58.68-1.14.95-1.73.03-.05.07-.09.1-.14l.05.03Z"/>
    <path class="cls-1" d="M226,149.59c.33-.48.8-.76,1.41-.77.21.02.36-.07.61,0,.41.05.75.18,1.06.45.09.08.14.19.15.27-.02.29,0,.61-.05.94-.02.21-.17.38-.45.53-.12.05-.27.23-.38.36-.11.13-.23.18-.39.28-.28.06-.52.16-.71.3-.12.05-.32.11-.49.04-.17-.07-.38-.17-.63-.24-.17-.07-.26-.22-.28-.47.02-.21-.03-.41-.13-.64-.14-.27-.05-.57.13-.87l.15-.17Z"/>
    <path class="cls-1" d="M230.67,153.64c.35-.46.83-.73,1.44-.71.2.03.36-.05.61.02.41.07.74.21,1.04.49.08.08.13.2.13.28-.03.29-.02.61-.08.94-.03.21-.19.38-.47.51-.12.04-.28.21-.39.34-.12.13-.24.17-.4.26-.28.05-.52.14-.72.27-.12.05-.32.09-.49.02-.17-.07-.38-.19-.62-.26-.17-.07-.25-.23-.26-.48.03-.21-.02-.41-.11-.65-.13-.28-.02-.57.17-.86l.16-.17Z"/>
    <path class="cls-1" d="M235.19,157.89c.37-.45.86-.69,1.47-.65.2.04.37-.04.61.04.41.08.73.24,1.02.53.08.08.12.21.12.29-.04.29-.04.61-.12.94-.04.2-.2.37-.49.49-.12.04-.29.21-.41.33-.12.12-.24.16-.41.24-.29.04-.53.12-.73.24-.12.04-.33.08-.49,0s-.37-.2-.61-.29c-.16-.08-.25-.24-.24-.49.04-.2,0-.41-.08-.65-.12-.29,0-.57.2-.85l.16-.16Z"/>
  </g>
  <g>
    <path class="cls-1" d="M115.81,170.63l-.52.05c-.63.06-1.17-.17-1.62-.59-.38-.31-.81-.61-1.14-.99-.32-.32-.64-.63-.79-1.02l-.43-.88c-.21-.33-.3-.67-.33-1.01-.05-.52-.1-1.03-.04-1.56.09-.3.12-.59.2-.89.09-.3.26-.31.56-.23l.19.16c.59.12.81.56.92,1.07.07.11.03.29-.02.41.03.34.12.63.09.92.06.63.34,1.12.73,1.55.13.1.2.27.33.37.19.16.37.25.6.23.34-.09.63-.06.92-.09.52-.05.9-.26,1.08-.74l.2-.37c.21-.25.24-.54.15-.83-.04-.4-.13-.74-.11-1.15-.08-.86-.22-1.66-.76-2.41-.14-.22-.22-.44-.35-.66-.07-.17-.14-.28-.33-.43-.19-.16-.43-.31-.58-.58-.14-.22-.33-.37-.51-.53-.33-.37-.6-.81-.92-1.12-.58-.58-1.05-1.23-1.57-1.81-.52-.59-1.09-1.05-1.5-1.71-.27-.44-.59-.75-.93-1.18-.27-.38-.54-.82-.88-1.25,0-.06-.13-.1-.13-.16-.13-.16-.21-.33-.27-.44-.14-.22-.22-.44-.34-.55-.27-.38-.49-.82-.7-1.2-.22-.5-.44-1-.61-1.5l-.16-.45c-.35-1.18-.52-2.38-.65-3.64l-.03-.34c-.07-.75-.08-1.44-.04-2.14.05-.7.21-1.35.38-2,.05-.06.05-.12.04-.24.08-.36.22-.66.37-.96l.37-.91c.04-.24.13-.42.34-.61.27-.2.41-.5.62-.75l.32-.26c.27-.2.48-.39.69-.65,0,0,.05-.06.11-.07.33-.15.67-.3,1-.39.11-.07.22-.08.28-.14.38-.21.73-.25,1.12-.34.29-.03.52-.05.81-.02.06,0,.11-.01.12.05.54.24,1.2.46,1.65.88l.94.72c0,.06.06.05.13.1.18.1.46.01.44-.22.03-.29.24-.49.33-.79.09-.24.25-.43.34-.67.05-.12.09-.24.08-.36.05-.06.04-.18.09-.24.03-.23.2-.37.37-.38.23-.02.46.01.54.24.06.05.07.11.07.11.52.53.35,1.18.23,1.77-.06.53-.43.97-.55,1.44-.14.36-.16.77-.18,1.12.02.23.22.44.3.67.07.11.19.16.26.26.19.16.27.38.35.66.04.4.19.73.45,1.06.14.28.29.55.37.83.14.28.23.61.32.89.08.22.16.45.12.68-.02.41.03.87.12,1.26.08.22.1.45.12.68l-.06,1.11c-.04.18-.02.35,0,.52-.05.12-.04.24-.09.3-.31.38-.62.7-1.13.86l-.23.02c-.77-.16-1.39-.62-1.97-1.19-.25-.21-.4-.54-.55-.87l-.47-1.29c-.09-.34-.12-.68-.11-1.09.06-.58.11-1.22.11-1.86.01-.46-.04-.98-.08-1.44-.04-.4.04-.76.06-1.16.04-.12.08-.3.07-.47-.01-.11-.08-.22-.14-.28-.38-.31-.75-.62-1.2-.98-.75-.56-1.49-.43-2.26,0-.28.14-.49.34-.83.37-.06,0-.17.07-.22.14-.15.19-.37.33-.41.56-.05.12-.16.19-.21.25-.21.25-.41.5-.51.74-.1.18-.26.31-.36.44-.1.12-.2.31-.19.42-.1.18-.14.36-.18.54-.08.35-.16.71-.19,1-.05.12-.03.24-.14.3-.16.13-.13.42-.23.6,0,0-.05.06.01.12.14.22,0,.52.08.8l.04.4c0,.06.07.11.02.17-.06.53.1.97.2,1.43.07.11.08.22.09.34.04.46.2.91.31,1.36.07.11.08.22.09.28.09.34.18.68.33.95.15.33.24.67.39,1,.07.11.14.22.26.32l.34.49c.33.43.67.92,1.01,1.41.27.38.54.76.81,1.14l.39.43c.13.16.26.32.39.42.07.11.08.17.14.22.65.69,1.18,1.39,1.82,2.02l.19.16c.42.71,1.05,1.29,1.58,1.93.13.16.32.32.45.42.06.05.07.11.13.1.26.32.52.58.78.85.2.27.34.49.42.77.07.17.21.33.28.49.14.22.27.44.47.65.39.48.51,1.11.58,1.74l.11,1.09c.03.34-.05.64-.08.93-.03.24-.08.41-.06.58-.04.18-.02.35-.07.47-.02.35-.11.65-.25.95.01.11-.09.24-.14.3-.16.13-.32.26-.36.5l-.16.19c-.32.32-.57.69-.89.96-.15.19-.38.27-.61.29-.23.02-.46.04-.69.07ZM117.23,145.66c-.11-1.09-.48-1.92-.96-2.74,0-.06-.06-.05-.06-.05-.06,0-.11.07-.1.13-.06.53-.19,1.06-.13,1.58.03.29,0,.58.03.86.02.23.1.45.18.68.01.12.08.28.15.39.26.26.6.23.74-.13.15-.25.18-.54.16-.71Z"/>
    <path class="cls-1" d="M133.17,168.1c0-.17,0-.4.12-.69.12-.4.18-.8.3-1.26l.36-1.61c.06-.34.12-.69.12-1.04.06-.23.06-.46.07-.69,0-.06,0-.11.06-.17,0-.17.06-.29.06-.46.06-.69.13-1.32.25-2.01.06-.17-.11-.52-.34-.58-.23-.06-.52-.12-.75,0-.23,0-.46.05-.63-.06-.06-.06-.17-.06-.23-.06-.29.05-.58.05-.92.05-.29,0-.63,0-.92-.07-.11,0-.23.06-.35.11-.17.11-.46.17-.69.22-.29,0-.52,0-.81.05-.29.06-.63.11-.92.22-.17,0-.29.05-.41.11-.17.06-.29.17-.29.34.05.4,0,.86.1,1.21.06.06.06.12.06.17-.06.58.05,1.15.1,1.67v.12c-.06.63.1,1.21.21,1.84,0,.4.05.75.1,1.15l.17.75c.06.06.11.12.11.17,0,.46.11.87.04,1.33,0,.29-.18.46-.35.69-.06,0-.12.06-.17.05-.23-.06-.46-.12-.57-.29-.06-.17-.23-.23-.4-.29-.58-.12-.92-.53-1.08-1.11v-.12c.06-.17,0-.35-.05-.46-.11-.17-.17-.4-.28-.58-.06-.12-.05-.23-.11-.35-.11-.17-.11-.41-.11-.58-.05-.29-.17-.58-.22-.81,0-.17-.05-.35-.05-.46-.05-.81-.16-1.56-.32-2.25,0-.06-.06-.06-.06-.12.12-.52-.16-1.04-.16-1.61l-.16-1.61c-.06-.17-.23-.35-.11-.52-.11-.58-.05-1.15-.04-1.73l.04-4.26c0-.58.13-1.15.13-1.73.06-.11,0-.23.06-.29,0-.46.07-.86.13-1.32,0-.4.07-.86.13-1.27,0-.35.06-.63.12-.98,0-.11.06-.23.06-.34l.19-1.27c.06-.69.07-1.44.19-2.19.06-.34.12-.81.3-1.15.12-.34.24-.69.36-1.03l.71-2.18c.12-.34.29-.63.41-.98.12-.57.47-1.09.71-1.61l.12-.29c.12-.23.23-.46.41-.69.06-.06.12-.11.18-.23.12-.29.41-.51.64-.8.12-.06.17-.17.29-.34.18-.34.47-.46.81-.22.17.06.29.06.46-.05.29-.23.63-.11.92,0,.29.12.52.18.8.24.35.06.63.12.86.35.06.06.11.12.17.12.29.18.57.35.74.64.11.23.34.46.57.58.17.17.34.29.4.52,0,.12.06.17.11.23.34.46.68.93.91,1.45.11.23.23.52.28.75v.06c.28.46.33,1.04.44,1.56.06.06.06.17.05.29-.06.29.05.63.11.92.05.58.28,1.1.44,1.67.05.29.11.52.11.81,0,.4.05.75.1,1.1v.52c-.07.23-.07.4-.07.63.11.46.11.92.1,1.33-.06.29.05.52.05.81.05.29,0,.63,0,.92,0,.11,0,.29.05.4.05.35.05.63.05.92.06.06,0,.12,0,.17-.12.4-.06.75-.07,1.15,0,.23.05.46-.12.63v.12c.05.4.05.75-.01,1.09-.12.46,0,.86-.07,1.26,0,.4.05.75.05,1.15,0,.06-.06.17-.06.29,0,0-.06.06-.06.12.17.46-.12.92-.07,1.32,0,.12-.06.23-.06.34-.3.75-.36,1.55-.43,2.36-.06.35.05.75-.01,1.09,0,.4-.07.75-.13,1.09-.12.86-.36,1.67-.54,2.53v.06c.05.29-.06.58-.12.86,0,.29-.12.57-.18.86-.06.23-.12.46-.18.69l-.36,1.26c-.06.23-.06.4-.12.57-.06.46-.47.69-.87.45l-.57-.35c-.11-.12-.23-.23-.23-.35-.05-.29-.22-.58-.16-.92v-.17ZM135.15,143.98h.06v-.4c0-.29,0-.52-.1-.75-.06-.06-.06-.12-.06-.17-.11-.63-.22-1.27-.38-1.91-.05-.29-.11-.58-.16-.92l-.16-.92c0-.06,0-.12-.06-.17-.11-.35-.28-.64-.45-.98-.05-.29-.23-.46-.34-.7-.11-.17-.28-.29-.51-.35-.23-.12-.52-.24-.8-.3-.63-.18-1.09-.07-1.39.56-.18.34-.29.75-.53,1.03-.29.46-.53.97-.71,1.43-.41.75-.59,1.55-.72,2.36-.06.4-.18.75-.24,1.09-.12.4-.24.8-.42,1.21-.29.75-.36,1.55-.37,2.36,0,.58-.13,1.15-.08,1.73,0,.63-.19,1.21-.25,1.78,0,.46-.12.86-.13,1.32v.23c-.18.29-.12.58-.18.92v.4c0,.35-.07.63-.01.92,0,.11.06.17,0,.23-.12.29-.12.63-.07.92.06.12,0,.17,0,.29,0,.46-.07.86.1,1.27.06.12,0,.29,0,.4q0,.23.23.29c.12,0,.23,0,.35-.05.52-.17.98-.28,1.56-.16h.12c.29-.05.58-.05.81-.05.29,0,.58-.11.87-.11h1.33c.35.02.63.19.98.02h.06c.35.06.69.07.98.13.23,0,.35-.05.35-.34v-.23c.18-.92.19-1.84.2-2.76,0-.34.07-.75.07-1.09.06-.52.07-1.04.13-1.5,0-.35,0-.69.07-1.04v-.4c.01-.69.02-1.38.08-2.07,0-.12.06-.29,0-.4,0-.58-.1-1.15-.1-1.67,0-.46-.05-.92-.1-1.44Z"/>
    <path class="cls-1" d="M149.24,134.56c.39.11.73.16,1.07.27.33.1.6.26.87.41l1.15.51c.43.23.95.31,1.3.65.11.07.22.09.33.1.55.25,1.09.5,1.57.86.21.15.49.24.7.39.16.08.2.2.36.34.21.2.44.18.65-.08.15-.21.29-.42.44-.64l.62-.73c0-.06.07-.05.07-.11.26-.6.57-1.2.44-1.92-.06-.42.06-.86.23-1.25.02-.17.09-.22.26-.2l.34.05c.24-.02.33.1.43.24.2.26.33.51.54.71.1.13.08.24.06.42.03.18,0,.35.04.53-.04.29-.09.63-.07.92-.05.34-.1.74-.32,1.06-.08.16-.05.34-.12.45-.19.5-.42.93-.77,1.35-.22.32-.44.64-.66.96l-.02.17c0,.35.03.64.15,1.01.16.49.26,1.03.43,1.51.18.37.3.74.31,1.15.05.47.15,1.01.26,1.49.08.24.1.54.12.83,0,.46-.02.99-.08,1.44-.09,1.04-.24,2.12-.38,3.15-.04.29-.19.55-.23.84,0,.06-.07.11-.08.16-.08.57-.27,1.12-.46,1.68-.08.16-.17.38-.08.57l-.02.12c-.24.43-.25.95-.42,1.34-.32.65-.48,1.39-.86,2.03-.16.33-.27.66-.37,1l-.24.49c-.23.43-.53.86-.7,1.24-.32.6-.68,1.13-1.05,1.71-.16.33-.44.64-.71.95l-.5.69c-.13.1-.21.26-.34.36,0,0-.06,0-.07.05l-1.39,1.2c-.39.29-.67.66-1.11.89-.25.14-.4.35-.65.49-.14.15-.27.25-.46.34-.39.29-.83.52-1.21.76s-.7.43-1.02.62l-1.71.98c-.13.1-.31.13-.49.17-.12.04-.24.02-.36.07-.13.1-.26.2-.33.3-.08.16-.17.38-.26.6v.06c-.19.44-.43.52-.8.3-.21-.15-.43-.23-.51-.54,0-.06-.1-.13-.16-.14-.31-.28-.56-.6-.68-.97-.22-.5-.28-.91-.21-1.42.04-.29.02-.58,0-.87l.12-2.14c.03-1.04.11-2.02.19-3.05.05-.34.05-.75.1-1.15.11-.39.12-.86.12-1.26.05-.34.03-.63.08-.98.06-.46.02-.99.14-1.44.02-.17-.01-.35.01-.52.04-.29.08-.57.12-.86l.33-2.34c.07-.51.2-1.02.27-1.53.07-.51.19-.96.26-1.42.12-.45.18-.9.3-1.35.08-.57.22-1.13.3-1.7l.19-1.37c.18-.9.43-1.8.61-2.71.13-.51.19-.96.26-1.48l.14-.97c.03-.23,0-.35-.17-.43-.43-.24-.61-.61-.84-1.05-.13-.31-.26-.62-.38-.98-.04-.12-.08-.24-.07-.36.05-.34.04-.69.2-1.02.02-.11.09-.22.21-.26l.14-.16c.32-.19.52-.39.62-.73.02-.12.09-.22.27-.25.18-.03.42-.06.59-.09l.73-.25c.31-.13.62-.26,1.03-.26h1.28ZM157.33,147.03c.1-.74.25-1.42.24-2.12-.01-.76.09-1.5-.22-2.18-.18-.37-.3-.74-.49-1.06-.09-.19-.2-.2-.38-.17-.25.14-.5.28-.81.35-.06.05-.2.15-.25.14-.54.16-1.09.31-1.63.41-.06,0-.12.04-.18.03-.21-.15-.46-.06-.69-.04-.94.04-1.91-.03-2.91,0-.23.03-.46-.06-.69-.04-.06,0-.12.04-.13.1-.03.23-.11.39-.08.57l-.2,1.43c-.11.33-.15.68-.31,1l-.02.17c.1.13.02.29-.06.46-.03.23-.11.39-.14.62l-.11.8c-.04.29-.07.51-.17.79-.11.39-.11.8-.23,1.25l-.13.91c-.02.17-.05.4-.14.56-.08.16-.1.28-.06.46-.04.29-.02.58-.12.86-.07.51-.19.96-.31,1.41-.01.11-.02.17-.03.23l-.16,1.14c-.1.68-.35,1.29-.33,1.99-.06.46-.25.95-.2,1.43l-.09.22c-.02.11-.09.22-.11.33-.13.91-.25,1.83-.32,2.75-.16,1.14-.26,2.29-.36,3.44l-.03.23c-.02.12.09.19.16.14.2-.15.38-.24.57-.33.32-.19.64-.43.96-.62l.33-.25c.13-.1.27-.25.46-.34.33-.25.65-.49.92-.8l.38-.18c.26-.2.52-.39.67-.66.07-.11.2-.15.27-.25.54-.56,1.14-1.06,1.62-1.64.48-.51.79-1.05,1.21-1.58.09-.22.23-.38.31-.54.26-.6.62-1.08.92-1.62.24-.43.4-.82.57-1.2.15-.27.19-.5.33-.71.15-.21.23-.38.26-.6.25-.55.44-1.04.62-1.54.19-.55.4-1.17.47-1.74l.25-.95c.13-.5.14-1.03.38-1.46,0-.06.02-.11.02-.11l.21-1.48ZM150.11,140.44c.22.09.57.08.93.01.07-.05.18-.03.24-.08.51.07,1-.09,1.47-.09l.96-.21c.24-.08.48-.11.67-.2.31-.13.27-.25.05-.4-.26-.21-.59-.37-.93-.42l-.29-.04c-.44-.18-.87-.41-1.4-.37l-.17-.02c-.55-.25-1.13-.22-1.73-.12-.24.08-.43.17-.46.4-.06.4-.11.8-.11,1.21-.03.23.03.24.25.27l.51.07Z"/>
  </g>
</svg>