<?xml version="1.0" encoding="UTF-8"?>
<svg id="Layer_1" data-name="Layer 1" xmlns="http://www.w3.org/2000/svg" viewBox="0 0 260.55 262.85">
  <defs>
    <style>
      .cls-1 {
        fill: #231f20;
      }
    </style>
  </defs>
  <g>
    <path class="cls-1" d="M23.51,122.6c-.11-.14-.31-.49-.53-.76-.13-.26-.35-.53-.52-.84-.11-.13-.22-.27-.31-.49-.22-.27-.43-.54-.6-.85-.16-.39-.54-.68-.82-1.04-.49-.71-1-1.34-1.53-2.02-.32-.41-.7-.7-.99-1.06-.29-.36-.71-.61-.99-1.06,0-.08-.11-.13-.19-.14-.15-.1-.3-.28-.44-.46-.04-.05-.07-.09-.06-.17l-.04-1.07c-.04-.33.15-.56.41-.69q.61-.34,1.28-.06l1.29.52c.15.1.26.23.28.44,0,.08.06.17.13.26l1.17,1.2c.44.46.8.91,1.19,1.41l1.33,1.67c.07.09.19.14.26.24l.39.5s.03.13.06.17c.45.38.72.9,1.03,1.39.21.35.49.71.7,1.06.1.22.24.4.38.58.3.28.55.59.88.92.21.27.47.51.69.78.35.53.7,1.06,1.09,1.56l.21.27c.68,1.23,1.64,2.16,2.46,3.27.07.09.1.22.17.31.03.13.05.25.09.3.26.24.43.54.69.78.26.24.43.54.61.77.11.14.21.35.31.49l1.29,1.62c.11.14.26.24.37.37.04.04.12.05.07.09.23.48.65.81.92,1.25.18.23.28.44.41.7l.72.9c.06.17.17.31.28.44l.18.22.72.9c.14.18.29.36.39.58.05.25.2.43.17.67,0,.08.06.17.05.25.16.39.14.55-.13.76-.13.11-.23.26-.3.46-.06.2-.32.25-.48.23-.37,0-.69-.04-1.01-.16-.2-.06-.35-.16-.46-.3-.33-.32-.62-.69-.91-1.05-.14-.18-.24-.4-.38-.58l-2.55-3.2c-.14-.18-.37-.37-.55-.6l-.25-.32c-.61-.77-1.18-1.49-1.75-2.29-.43-.54-.9-1.13-1.28-1.7-.3-.57-.74-1.03-1.17-1.57-.31-.49-.71-.98-1.06-1.52-.29-.36-.53-.76-.77-1.15l-.43-.54c-.43-.54-.82-1.04-1.3-1.54-.3-.28-.54-.68-.9-1.13Z"/>
    <path class="cls-1" d="M65.2,111.81c.03.05,0,.13.03.18.37.46.53,1.02.8,1.53.21.41.42.82.49,1.31.06.36.24.72.45,1,.1.08.16.18.21.28.03.05,0,.13.05.1.36.2.29.56.32.87,0,.13.13.26.16.44l.49,1.31c.03.05-.03.08-.03.08.39.38.3.95.51,1.36.08.15.06.36-.04.54-.08.1-.23.18-.36.31-.41-.04-.95.17-1.34-.21-.21-.15-.42-.3-.57-.48l-.03-.05c.1.08.13.13,0,0-.05-.1-.16-.18-.26-.25l.05.1c-.13-.13-.31-.36-.65-.63-.19-.36-.29-.69-.45-1-.08-.15-.13-.26-.14-.38-.16-.31-.29-.56-.4-.9-.08-.28-.21-.54-.4-.77l-.11-.21c-.08-.15-.08-.28-.21-.41l-.08-.15c-.13-.26-.21-.54-.37-.84-.13-.25-.31-.36-.65-.25,0,0-.03-.05-.05.03-.33.24-.77.4-1.07.69-.13.13-.25.26-.43.29-.38.13-.77.27-1.07.56l-.1.05c-.59.37-1.25.71-1.92,1.06-.15.08-.31.16-.43.29-.26.13-.33.49-.19.75.31.36.43.82.64,1.23.32.48.58,1,.93,1.53l.69,1.33.03.05c0,.39.29.69.43,1.07.08.28.19.62.17.95-.02.33-.15.47-.48.57-.54.21-.95.04-1.4-.31-.03-.05-.13-.13-.21-.15-.34-.15-.55-.43-.68-.68-.24-.33-.37-.72-.53-1.02l-.11-.2c-.21-.28-.45-.61-.66-.89l-.4-.77c-.11-.2-.19-.36-.29-.56-.37-.59-.69-1.2-1.04-1.86-.27-.51-.53-1.02-.75-1.56l-.42-.82c-.21-.41-.43-.82-.54-1.28l-.08-.15c-.32-.61-.49-1.31-.68-1.92-.24-.59-.35-1.18-.57-1.72-.14-.38-.27-.77-.43-1.08-.03-.18-.11-.33-.14-.51-.11-.33-.19-.62-.35-.92-.16-.31-.22-.67-.33-1-.11-.33-.17-.69-.27-1.03l-.44-1.46c-.14-.38-.22-.79-.3-1.21-.08-.41-.22-.79-.3-1.21-.05-.1-.05-.23-.11-.33.02-.08-.03-.18-.06-.23-.37-.72-.54-1.54-.68-2.31-.19-.74-.31-1.46-.45-2.23-.11-.46-.12-.98-.18-1.47l-.1-1.31c.02-.46-.01-.9,0-1.37-.03-.18,0-.39-.11-.59-.08-.15-.06-.36.09-.57.2-.24.3-.55.43-.81.12-.26.25-.39.46-.5.26-.13.48-.32.77-.4.1-.05.18-.03.26,0,.39.25.83.48,1.2.68.34.15.52.38.81.55.05.1.16.18.24.2.44.22.76.58,1.07.94.16.18.34.28.5.46.58.48,1.1.99,1.55,1.6.24.33.45.74.79,1.02.26.25.42.56.63.84l1.42,1.86c.29.43.55.81.82,1.2l.68.94c.29.43.61.79.87,1.17l.35.66c.32.62.66,1.15,1.06,1.66l.4.77c.24.46.43.95.77,1.35l.19.36c.16.31.37.59.53.89l.16.31c.14.51.4.9.69,1.33.18.23.29.56.37.84.11.21.19.49.42.69.24.2.37.46.48.79ZM61.96,112.2l-.29-.56c-.14-.38-.27-.77-.46-1.13-.19-.36-.42-.69-.66-1.02-.21-.41-.37-.84-.64-1.23-.29-.56-.53-1.15-.9-1.61-.08-.15-.16-.31-.19-.49l-.24-.46c-.24-.46-.53-.89-.77-1.35l-.53-1.02c-.13-.38-.4-.64-.69-.94-.29-.3-.55-.69-.82-1.07-.32-.48-.56-1.07-.98-1.5-.39-.38-.63-.84-.97-1.25-.39-.51-.71-.99-1.16-1.48-.34-.41-.71-.86-1.1-1.25l-1.12-1.04c-.26-.25-.5-.58-.86-.78-.1-.08-.24-.2-.39-.12-.2.11-.12.26-.1.44-.02.08.03.18.05.23l.09.54c.04.95.21,1.9.48,2.8.13.38.22.79.3,1.21.11.59.12,1.23.47,1.77.11.21.14.51.32.74.18.36.27.77.33,1.13.05.1.05.23.08.28.16.56.38,1.1.54,1.67.14.51.3,1.08.57,1.59.13.38.3.82.56,1.2l.08.15c-.02.21.06.36.14.51l.21.54c.22.54.43,1.07.67,1.66.13.38.32.74.41,1.15.03.44.27.77.35,1.18.06.36.27.77.46,1.13.19.49.4.9.59,1.38.08.15.13.26.26.25.49.07.98.14,1.44-.1.38-.26.79-.48,1.25-.72l.23-.06c.43-.29.87-.45,1.3-.74.43-.29.87-.58,1.33-.82l.2-.11c.3-.29.33-.5.14-.72ZM66.14,120.22c.1.08.18.1.21.15-.03-.05-.13-.13-.21-.15h0Z"/>
    <path class="cls-1" d="M65.71,102.51c-.24-.71-.49-1.42-.71-2.07l-.13-.38c.02-.13,0-.18-.02-.24l-.84-2.45c-.09-.27-.11-.51-.21-.78-.15-.44-.36-.85-.45-1.31l-.6-1.74c-.04-.11,0-.18-.02-.24-.26-.76-.51-1.47-.72-2.25-.17-.49-.28-1-.4-1.51-.02-.24-.11-.51-.19-.73-.1-.46-.23-.84-.32-1.29-.09-.45-.21-.96-.38-1.45-.02-.24-.11-.51-.13-.75-.1-.46.1-.77.35-1.1l.22-.07c.15.07.33.07.48.14.09.09.22.11.35.12.24-.02.46.09.58.29l.55.36c.16.13.31.2.46.27.31.2.55.36.84.5.17.13.33.25.44.4l.24.16c.64.45,1.23,1.1,1.84,1.62.2.23.41.47.64.63.02.05.09.09.13.2.3.51.72.85,1.12,1.32l.51.43c.02.06.09.09.11.15.15.43.59.65.83.99.02.05.09.09.11.14.15.44.43.71.67,1.05.09.09.13.2.28.27.62.39,1.03,1.04,1.44,1.7.5.74,1.09,1.39,1.7,2.09l.39.6c.11.15.24.34.42.52.11.15.35.31.44.58.02.05.17.13.26.22.02.05.15.07.18.18.21.42.61.7.9,1.03.07.04.09.09.15.07.09.09.26.22.4.29.13-.17.12-.35.12-.53.03-.44,0-.91,0-1.4l.08-1.37c.05-.56.08-1.18.07-1.73.05-.38-.04-.84,0-1.22.01-.31.08-.64.08-1l.05-.38c.05-.57.08-1.18.16-1.82-.02-.24.01-.49.05-.75.1-.4.19-.86.22-1.3.1-.77.2-1.53.38-2.26.05-.2-.02-.42-.02-.6.07-.33.07-.69.13-1.02.02-.31.03-.62.06-.88l.05-.38c.16-.6.24-1.24.33-1.88-.02-.05.02-.13,0-.18l.5-2.25c.07-.33.14-.66.23-.93.02-.13.09-.27.21-.44.07-.15.2-.31.32-.48.32-.48.79-.7,1.34-.89.16-.06.47.14.59.29.21.42.39.78.42,1.2,0,.18.11.33.19.54.05.16.17.31.24.52.15.25.24.53.39.78l.04.11c.15.44.27.95.42,1.38.06.16.11.33.22.47.41.83.71,1.7,1.01,2.57l.51,1.47c.08.22.15.43.33.62l.13.2c.04.47.3.87.45,1.31.15.62.45,1.12.71,1.7.19.36.26.76.36,1.22l.06.16c.31.38.35.85.45,1.31.06.35.1.64.19.91,0,.18.08.4.13.56.09.27.19.54.28.82l.08.22c.3.87.58,1.69.81,2.52.07.22.22.47.12.69l.06.16c.18.18.21.42.23.65.06.16.11.33.22.47.13.2.13.38.13.56.02.05-.02.13.05.16.13.38.14.74.25,1.07.11.33.19.73.3,1.05.04.11.09.27.08.4l.02.05c.24.53.27,1.13.53,1.71.24.34.41.83.43,1.25l.11.33c.28.63.38,1.27.37,1.94.04.29.13.56.17.85.06.35.12.69.17,1.04l.02.24c.21.42,0,.86-.06,1.24-.05.2-.36.37-.63.28-.13-.02-.27-.09-.42-.16l-.68-.38c-.22-.11-.46-.27-.55-.54-.11-.14-.17-.31-.28-.45-.19-.36-.21-.78-.36-1.22-.07-.22-.15-.44-.17-.67-.09-.27-.17-.49-.21-.78-.03-.6-.29-1.18-.44-1.8l-.48-1.91c-.11-.51-.23-1.02-.36-1.58l-.51-2.02c-.02-.05-.04-.11,0-.18-.08-.76-.34-1.53-.55-2.31-.15-.62-.29-1.18-.49-1.78-.02-.24-.08-.4-.15-.62-.19-.54-.38-1.09-.53-1.71-.13-.38-.19-.73-.32-1.11-.02-.06-.04-.11,0-.18.01-.49-.19-.91-.32-1.29-.26-.76-.53-1.52-.82-2.21-.15-.44-.36-.85-.51-1.29-.17-.31-.28-.63-.37-.91l-.92-2.67c-.22-.47-.45-.94-.62-1.43-.19-.36-.32-.74-.45-1.12-.04-.11-.11-.14-.18-.18l-.12.17c-.09.27-.18.55-.14.84.04.47-.08,1-.17,1.46-.08.64-.19,1.22-.16,1.82,0,.37-.01.67-.12,1.08s-.06.88-.17,1.28l-.1.58c-.12,1.08-.38,2.08-.33,3.1l-.09.27c-.14.48-.1.95-.11,1.44l-.17,3.22c0,.55-.12,1.08-.13,1.57-.02.13-.03.25-.01.31.04.66-.02,1.35-.05,1.97-.01.67.05,1.38.04,2.06l.1.64c.04.11.06.16.08.22l.89,1.52s.07.04.09.09c.26.76.72,1.39.93,2.17-.05.02-.04.07.04.11.32.56.41,1.2.64,1.85.02.24.06.53.03.78-.04.07-.02.13,0,.18.19.36.04.84.23,1.2.02.05-.02.13-.09.09-.18,0-.2.13-.22.26-.02.13-.07.33-.07.51,0,.18-.07.33-.21.44-.14.11-.27.28-.3.53.02.05-.05.2-.22.26l-.6.21c-.2.13-.38.13-.57-.05-.24-.16-.51-.07-.77-.1-.2-.05-.27-.09-.38-.23-.13-.2-.35-.3-.53-.49-.17-.13-.29-.32-.41-.47-.2-.23-.33-.43-.48-.69l-.15-.44c-.09-.27-.19-.54-.23-.83-.11-.33-.23-.65-.25-1.07,0-.37-.13-.75-.19-1.09-.15-.62-.1-1.18-.13-1.78.03-.44,0-.86.06-1.24,0-.18-.02-.42,0-.55.03-.26-.02-.42-.15-.62-.19-.36-.43-.71-.67-1.05l-.4-.47c-.29-.32-.59-.65-.83-.99-.31-.38-.63-.76-1.05-1.1-.39-.41-.72-.85-1.07-1.34-.26-.4-.57-.78-.94-1.14-.28-.27-.57-.6-.79-.88-.39-.42-.77-.83-1.07-1.34l-.72-1.03c-.07-.04-.11-.14-.18-.18-.55-.54-1.07-1.15-1.53-1.79-.17-.31-.41-.65-.74-.9l-.57-.6c-.33-.43-.72-.85-1.11-1.26-.22-.29-.37-.54-.63-.76l-.88-.79c-.07-.03-.14-.07-.2-.05,0,0-.04.07-.02.13-.02.13.02.24.06.34.23.47.39.96.51,1.47.08.4.26.76.38,1.09l.11.33c.02.05-.02.13,0,.18.45.94.68,1.96,1.02,2.94.32.74.58,1.5.79,2.29l.43,1.25c.25.71.49,1.42.7,2.2.09.27.32.56.37.91.1.45.27.94.42,1.38.34.8.64,1.67.97,2.47.21.6.45,1.12.66,1.72.28.63.49,1.23.71,1.89.07.22.2.42.28.63.13.56.36,1.03.6,1.56l.22.65c.04.11.15.25.21.42.11.33.17.67.28,1,.04.11.08.22.15.25.24.34.32.74.41,1.2.02.24.08.4.26.58.24.16.2.42.23.65.04.11.02.24.06.34.11.14.09.27.1.46-.07.15-.03.25.06.35.26.21.17.49.14.74-.02.13-.11.22-.22.26-.53.06-1.04,0-1.41-.37l-.83-.81c-.26-.22-.39-.42-.5-.74-.21-.6-.47-1.18-.67-1.78-.08-.22-.09-.45-.17-.67l-.02-.05c-.17-.31-.3-.69-.41-1.02-.13-.38-.37-.72-.45-1.12-.04-.11-.08-.22-.17-.31-.13-.38-.34-.8-.47-1.18-.37-.91-.77-1.87-1.08-2.79-.09-.09-.13-.2-.15-.25-.25-.71-.54-1.4-.86-2.14l-.54-1.58c-.06-.16-.13-.38-.21-.6ZM80.8,108.82c-.09-.27-.21-.6-.35-.85-.17-.31-.28-.63-.45-.94-.13-.2-.26-.22-.42.02-.04.07-.07.15-.09.27.04.29-.03.62.14.93.02.05-.02.13,0,.18-.03.44-.12.89.09,1.31,0,0-.05.02-.04.07-.05.2.02.42.1.64.06.16.11.33.12.51.09.27.24.34.49.2.11-.04.2-.13.29-.22.2-.13.32-.3.36-.55,0-.55-.07-1.07-.24-1.56Z"/>
    <path class="cls-1" d="M123.75,99.72c-.63.07-1.09.03-1.61.16l-.46.18c-.29.06-.34.3-.33.58-.04.87-.01,1.73.07,2.59.01.4-.04.81-.08,1.21l.04,1.55c0,.17-.05.29-.05.4-.05.17-.11.29-.05.46s0,.29-.1.46c-.22.35-.56.53-.91.66-.28.12-.57.25-.86.2-.23,0-.35-.11-.41-.28-.06-.29-.19-.63-.25-.92l.04-.58c-.02-.86-.1-1.67-.07-2.53-.02-.63.02-1.27,0-1.9,0-.29-.07-.63-.14-.92,0-.12-.06-.23-.24-.22-.4-.05-.75.02-1.03.43-.05.12-.23.18-.34.3-.11.18-.22.29-.33.41-.22.24-.4.3-.69.19-.12-.06-.23-.05-.35-.05-.17,0-.23-.11-.3-.28-.07-.4.04-.69.32-.99.22-.24.33-.47.5-.7.11-.12.17-.18.22-.29.34-.3.62-.65,1.02-.89.11-.06.23-.12.34-.24.12,0,.23-.06.34-.12.46-.24.51-.36.38-.87-.07-.34-.08-.75-.09-1.15-.01-.58-.03-1.15-.16-1.72-.06-.06,0-.06-.06-.11-.09-1.44-.13-2.94-.17-4.38l-.03-1.27c-.01-.4.04-.87.08-1.33,0-.23.05-.41.04-.64,0-.4-.08-.8-.03-1.15.09-.92-.05-1.9-.01-2.82-.01-.4.09-.81.08-1.21.05-.46-.02-.92.02-1.38,0-.23-.01-.46.04-.69.05-.41.04-.81.08-1.21.05-.29.04-.63.09-.92.04-.52-.08-.98-.04-1.5,0-.29.04-.52.04-.81,0-.11-.06-.23-.12-.29-.18-.34-.42-.62-.77-.79-.29-.17-.47-.39-.42-.74,0-.23.16-.41.33-.53.11-.12.23-.18.28-.35.11-.18.22-.35.51-.3.29.05.52.04.8-.08.11-.06.34-.07.52-.07.29.05.58.1.87.09.35.05.75.04,1.1.03.35.05.69.04,1.04.03h.11c.86-.2,1.66-.28,2.53-.3l1.96-.05c.52.04.98.03,1.5.08.35,0,.75-.02,1.15.03.12,0,.23.05.29.11.46.22.87.38,1.28.66.29.22.48.56.71.9.06.06,0,.17-.05.23-.17.29-.39.58-.61.82-.06.06-.17.06-.29.07-.12,0-.23-.05-.35-.11-.12-.05-.29-.11-.4.07-.34.24-.63.19-.98.03-.06-.06-.12-.11-.23-.11-.52-.04-1.04-.09-1.62-.07-.06-.06-.17-.05-.23-.05-.46.18-.92.14-1.38.09-.29,0-.52.01-.8.08-.23.06-.52.13-.81.02-.06-.06-.12-.05-.17-.05-.34.12-.69.13-.97.2-.12,0-.17,0-.29.06-.11.12-.29.07-.46.01-.35-.05-.69-.1-.98-.09-.17,0-.57.36-.56.53-.05.4-.21.75-.09,1.15.06.06,0,.17,0,.23l-.05.4c.13.4-.04.81-.08,1.21,0,.06-.05.12-.05.17.01.46.02.98-.02,1.44v.35c.01.12-.04.17-.04.23.02.86.1,1.67.06,2.48-.04.64.09,1.32-.07,1.9l-.05.06c.12.46-.04.87.09,1.32,0,.17-.05.35-.04.52l.03.92c.01.46-.04.87-.02,1.33-.05.35.02.69.03,1.04l.02.86c.02.63.09,1.27.11,1.9v.35c.01.11.02.29.08.46.07.29.07.52.08.8.07.29-.04.58.14.8.06.05.06.17.06.23l.02.92c0,.23.01.52.08.75.07.29.12.34.41.28.4-.01.75-.02,1.09-.09h.52c.52.03.98-.04,1.5-.11.4-.12.8-.19,1.2-.26.17-.06.34-.12.51-.3l.45-.41c.06,0,.11-.06.17-.12.11-.06.17-.24.34-.12.23.11.52.16.59.39.07.34.13.63.08.98-.05.35-.22.58-.44.76l-1.02.78c-.28.18-.62.36-.97.37-.23,0-.46.13-.69.13l-1.09.03Z"/>
    <path class="cls-1" d="M139,105.92c.64-.04,1.21.02,1.8-.03.46,0,.94-.13,1.41-.19.63.01,1.29-.14,1.92-.07.4.04.86.1,1.18.31.05.06.11.07.17.08.11.07.22.08.27.15.16.13.26.26.36.39.16.13.19.37.11.59-.15.33-.45.41-.76.55-.12.04-.24.03-.41.07s-.3.08-.43.18c-.2.21-.43.24-.72.21,0,0-.05-.06-.11-.07-.53.11-1.09-.06-1.62,0-.47.06-.99,0-1.46.07-.46,0-.94.12-1.44-.05h-.11c-.36.06-.71.08-1.06.16-.31.14-.59.05-.86-.1-.17-.08-.38-.27-.52-.52-.09-.18-.26-.26-.48-.34-.06,0-.11-.01-.22-.08-.34-.09-.48-.34-.39-.68.08-.22.04-.4.01-.64-.04-.12-.03-.24-.02-.29,0-.52.05-.98.11-1.5.13-.62.14-1.26.33-1.88v-.41c0-.11-.05-.18-.09-.3.05-.46.11-.97.11-1.5.03-.29,0-.58.04-.86l.22-2c.05-.4.15-.79.19-1.2.03-.23,0-.52.03-.75.12-.51.17-.97.22-1.48v-.12c.17-.91.27-1.77.43-2.68.03-.29.06-.51.15-.79.03-.23.1-.39.13-.62.05-.46.1-.92.16-1.37l.35-1.58c.11-.45.21-.85.26-1.3.13-.68.33-1.41.41-2.1l.13-1.14c.12-.57.19-1.14.31-1.71.02-.17.04-.34.06-.52l.2-1.77c0-.06.02-.17.03-.29l-.03-1.28c.02-.17.04-.34,0-.52l.02-.17c.08-.17.04-.34.06-.52-.02-.35.02-.69.05-.98,0-.06.02-.17.08-.17.25-.2.36-.6.66-.74.19-.15.37-.19.65-.1.34.1.69.08,1.09.07.41-.07.87-.02,1.28-.03l2.61-.05c.35-.02.69.02,1.04,0,.06,0,.06-.05.12-.04.8.09,1.67.13,2.46.28.62.13,1.23.43,1.56,1.05.05.06.1.13.09.24-.04.34-.08.69-.28.95-.19.15-.68.39-.97.35-.28-.09-.57-.12-.87-.04l-.17-.02c-.39-.1-.87-.04-1.32-.09-.35.02-.75-.03-1.15-.07l-.23-.02c-.48.12-1.01.18-1.45,0l-.17-.02c-.29.03-.53.06-.76.03-.28-.09-.57-.06-.87-.04-.4-.05-.67.33-.94.59-.06.05-.08.16-.09.28.06.47.01.93-.04,1.39-.03.23,0,.52-.03.75-.02.17-.09.28-.11.45-.08.74-.17,1.55-.26,2.29l-.23,2.06c-.06.52-.24,1.08-.36,1.64-.06.52-.17,1.02-.29,1.53-.24,1.07-.3,2.17-.48,3.25-.08.69-.15,1.32-.33,1.93l-.08.69c-.12,1.03-.23,2-.34,3.03l-.02.17c-.02.17.09.24.26.26.52,0,1.04,0,1.51,0l2.21-.1c.29-.03.58-.05.81-.02.52,0,.97.11,1.41.39.15.19.43.34.58.47.21.2.26.26.11.54,0,.06-.08.16-.09.28-.02.17-.15.27-.27.32-.31.14-.56.34-.85.31-.41.01-.71.09-1.07.23-.24.09-.47.06-.76.03-.46,0-.93.01-1.33-.03-.24.03-.46,0-.64-.01l-.3.08c-.3.08-.71.15-1.03.35-.18.09-.42.13-.66.21-.23.03-.37.19-.4.48-.07.63-.09,1.32-.1,1.96l-.14,1.26c-.11.45-.16.91-.09,1.32-.02.17-.03.29-.04.4l-.12,1.03c-.01.12.09.19.21.2.17.02.29.03.46.05v.06Z"/>
    <path class="cls-1" d="M153.75,108.12c.64.03,1.21.15,1.79.16.46.04.95-.02,1.42-.03.63.08,1.3,0,1.92.13.39.09.84.19,1.14.43.04.07.1.08.16.09.1.08.21.11.26.18.14.15.23.29.32.42.14.15.15.39.04.6-.19.31-.49.36-.81.47-.12.03-.24,0-.42.02-.18.02-.31.05-.44.14-.22.19-.46.19-.74.13,0,0-.04-.07-.1-.08-.54.06-1.08-.18-1.61-.18-.47.01-.98-.1-1.46-.09-.46-.04-.95.02-1.43-.2l-.11-.03c-.36.04-.71.02-1.08.05-.32.11-.59-.01-.84-.19-.16-.09-.34-.31-.46-.57-.07-.19-.23-.29-.44-.39-.06-.01-.11-.03-.21-.11-.32-.13-.44-.39-.31-.72.11-.21.09-.39.08-.63-.03-.12,0-.24,0-.29.06-.52.16-.97.27-1.47.19-.61.28-1.24.53-1.83l.03-.41c.03-.11-.02-.18-.05-.31.1-.45.21-.96.27-1.47.06-.28.07-.57.13-.86l.44-1.97c.09-.39.23-.78.32-1.17.05-.22.06-.52.11-.74.17-.49.27-.94.38-1.45l.03-.11c.26-.89.45-1.73.7-2.62.06-.28.11-.51.23-.77.05-.23.14-.38.19-.61.1-.45.2-.9.3-1.35l.52-1.54c.16-.44.3-.82.4-1.27.21-.66.48-1.37.63-2.04l.25-1.12c.18-.55.31-1.11.49-1.66.04-.17.08-.34.11-.51l.39-1.74c.01-.06.04-.17.06-.28l.11-1.28c.04-.17.07-.34.06-.52l.04-.17c.09-.16.08-.34.11-.51.02-.35.1-.69.16-.97.01-.06.04-.17.09-.16.28-.17.42-.56.74-.66.21-.13.39-.15.66-.03.32.13.67.15,1.08.18.42-.02.87.08,1.28.11l2.61.23c.35.02.69.09,1.04.11.06.01.07-.04.12-.03.79.18,1.64.31,2.42.54.61.2,1.17.56,1.44,1.21.04.07.09.14.06.25-.08.34-.15.67-.38.92-.21.13-.72.31-1,.25-.27-.12-.55-.18-.86-.13l-.17-.04c-.38-.14-.86-.13-1.31-.23-.35-.02-.74-.11-1.14-.2l-.22-.05c-.49.07-1.02.07-1.44-.15l-.17-.04c-.29,0-.53,0-.76-.05-.27-.12-.56-.13-.86-.13-.39-.09-.71.25-1,.49-.07.04-.09.16-.12.27.01.47-.09.92-.19,1.38-.05.22-.06.52-.11.74-.04.17-.12.27-.16.44-.16.73-.34,1.52-.5,2.25l-.45,2.02c-.11.51-.35,1.04-.53,1.59-.11.51-.28,1-.45,1.49-.35,1.04-.53,2.12-.83,3.18-.15.67-.29,1.29-.54,1.88l-.15.68c-.23,1.01-.44,1.97-.67,2.98l-.04.17c-.04.17.06.25.23.29.52.06,1.04.11,1.5.16l2.21.14c.29,0,.59.01.81.06.52.06.96.21,1.36.54.13.21.39.38.53.53.19.22.23.29.05.54-.01.06-.09.16-.12.27-.04.17-.18.26-.3.29-.32.11-.59.28-.88.22-.41-.03-.71.02-1.09.11-.25.06-.47.01-.76-.05-.46-.04-.92-.09-1.32-.18-.24,0-.46-.04-.63-.08l-.3.05c-.31.05-.73.08-1.06.24-.19.08-.43.08-.68.14-.24,0-.39.15-.45.43-.14.62-.23,1.3-.32,1.94l-.28,1.24c-.16.44-.26.89-.23,1.3-.04.17-.06.28-.09.39l-.23,1.01c-.03.11.07.2.19.22.17.04.28.06.45.1v.06Z"/>
    <path class="cls-1" d="M165.4,108.81c.31-.93.67-1.78.96-2.65.13-.38.3-.69.46-1,.08-.22.1-.46.17-.67.02-.06,0-.18.09-.27.18-.18.2-.42.28-.64.06-.16.18-.36.26-.58.17-.67.46-1.36.69-2.02.13-.38.32-.74.43-1.07.07-.22.09-.45.17-.67l.04-.11c.26-.4.24-.89.52-1.35.2-.42.3-.87.46-1.36.3-.69.56-1.45.91-2.12.22-.47.39-.96.56-1.45.18-.36.39-.78.52-1.16.07-.04.09-.09.11-.14.17-.49.32-.93.54-1.4.18-.36.37-.73.52-1.16.18-.36.33-.8.52-1.16.09-.27.24-.53.33-.8.09-.27.13-.56.22-.84.11-.33.26-.58.42-.89.15-.25.26-.58.35-.85.2-.42.35-.85.57-1.33.07-.22.2-.42.33-.62.18-.36.44-.76.35-1.22-.02-.13,0-.18.09-.27.13-.02.22-.11.29-.14.18,0,.33-.07.49-.2.24-.16.44-.22.71-.12.16.06.27.09.42.02.05.02.18,0,.16.05.27.28.58.44.69.84.07.33.18.55.27.82.13.17.14.29.09.46-.07.22-.15.44-.09.64l-.06.16c-.44.4-.55.91-.68,1.47-.13.38-.19.73-.32,1.11l-.85,1.96c-.05.16-.2.24-.26.4-.18.36-.37.73-.35,1.22.04.07-.05.16-.09.27-.06.16-.15.25-.2.42-.24.34-.44.76-.63,1.13-.07.22-.18.36-.31.56-.09.27-.21.6-.3.87l-.06.16c-.24.34-.4.65-.37,1.09,0,.18-.06.35-.24.53,0,0-.02.06-.09.09-.17.31-.33.62-.5.93l-.11.33c.03.25-.04.47-.22.65l-.06.16c.02.49-.3.87-.46,1.36-.11.33-.33.62-.33.98-.02.24-.15.44-.28.64-.09.09-.09.27-.13.38-.08.22-.13.38-.26.58-.08.22-.2.42-.17.67.04.07,0,.18-.02.24-.11.33-.3.69-.41,1.02l-.33.98c-.15.44-.35.85-.52,1.35-.06.16-.11.33-.11.51-.07.4-.19.73-.3,1.05-.13.2-.15.44-.17.67l-.13.38c-.04.11-.07.22-.06.35,0,.18-.06.35-.17.49-.2.24-.33.44-.48.69l-.06.16-.59,1.75c-.09.27,0,.37.22.44.27.09.56.13.84.22.44.15.91.19,1.38.23.64.1,1.22.17,1.88.21.16.05.36,0,.55,0,.33-.07.69-.07.98-.03.42.02.78.02,1.13.08.13-.02.18,0,.22.07.16.06.25.15.38.13.07-.04.13-.02.17.05.22.08.42.2.64.28q.25.15.22.44c0,.18,0,.36-.19.54-.07.04-.11.14-.07.22.07.33-.08.58-.22.84-.09.27-.37.36-.6.34-.29-.04-.58-.08-.8-.15-.33-.11-.62-.15-.89-.06-.16.13-.35.12-.58.1-.11-.04-.25.04-.38.05-.22.11-.46.09-.66-.04-.16-.06-.35-.06-.6-.02-.46.09-.98.03-1.51-.03-.22-.08-.4-.08-.66-.04-.29-.04-.56-.13-.89-.24-.04-.07-.15-.11-.22-.08-.33.07-.58-.08-.93-.13-.27-.09-.58-.26-.91-.37-.38-.13-.62-.33-.91-.55-.14-.11-.27-.27-.32-.48-.22-.44-.43-.88-.59-1.3-.07-.15-.09-.27-.11-.4-.11-.4-.16-.78-.08-1.18.11-.51.12-1.06.32-1.47Z"/>
    <path class="cls-1" d="M182.15,110.6c.17-.24.28-.51.45-.75l.07-.16c.15-.5.39-.9.59-1.38.18-.42.37-.85.6-1.25.14-.19.34-.35.38-.59.08-.47.34-.79.45-1.19.48-1.11.96-2.22,1.49-3.31.14-.32.35-.66.49-.98.08-.03.1-.08.12-.14.05-.42.23-.84.5-1.16.14-.19.18-.42.33-.61.29-.38.4-.77.61-1.12.07-.16.22-.22.32-.3l.29-.25c.11-.26.39-.33.67-.4.15-.06.89.26,1,.43.06.15.1.36.08.54.04.21,0,.44.01.7-.02.05-.02.18-.09.21-.23.09-.19.29-.26.45-.16.37-.21.79-.43,1.13s-.27.76-.42,1.13c-.07.16-.11.27-.18.42l-.57,1.32c-.02.05-.07.16-.09.21l-.04.23c-.26.32-.27.76-.42,1.13-.07.16-.19.29-.29.38-.19.29-.27.64-.39.9-.11.39-.26.76-.4,1.08-.07.16-.19.29-.23.4-.17.24-.26.45-.37.72-.24.4-.31.87-.37,1.29-.04.24-.05.42-.17.55-.14.19-.24.4-.25.58-.04.23-.11.39-.33.48-.15.06-.22.22-.24.4.03.08-.07.16-.11.26-.02.05-.12.14-.11.26-.13.45-.45.75-.79.97-.3.25-.7.45-1.08.17-.35-.21-.67-.48-.94-.72-.25-.3-.32-.71-.16-1.08.08-.34.22-.66.3-1ZM189.85,91.85c.04-.11.17-.24.29-.38l.41-.51c.12-.14.2-.17.37-.28.38-.15.76-.3,1.22-.35.05.02.13,0,.18.02.42.18.96.1,1.41.36.19.14.33.27.34.52.13.56.11,1.05-.22,1.53-.05.11-.14.19-.22.22l-.36.41c-.25.14-.48.23-.67.4l-.58.32c-.27.2-.61.24-.95.16-.29-.06-.55-.18-.82-.29-.05-.02-.13-.12-.17-.2-.09-.23-.2-.4-.24-.61-.05-.46-.2-.84,0-1.32Z"/>
    <path class="cls-1" d="M186.26,119.24c.22-.53.48-1.25.78-1.93.22-.54.47-1.12.8-1.6.13-.12.21-.28.22-.41.36-.66.58-1.32.91-1.93.22-.53.47-1.12.78-1.68.11-.2.22-.4.38-.58.29-.3.46-.73.65-1.09.22-.53.47-1.12.75-1.63.14-.25.32-.48.46-.73.16-.3.25-.58.52-.83.03-.05.08-.15.14-.25l.36-.66c.08-.15.14-.25.17-.43.03-.18.14-.38.22-.54.27-.51.52-.96.72-1.45.08-.15.16-.3.17-.43.06-.1.08-.15.11-.2l.93-1.72c.28-.63.66-1.21,1.04-1.8.38-.58.63-1.17.98-1.7.25-.46.54-.88.79-1.34.19-.35.36-.66.55-1.01l.25-.46c.11-.07.19-.23.24-.33.27-.51.53-1.09.8-1.6l.22-.4c.08-.15.22-.28.33-.48.16-.3.38-.58.39-.97.06-.23.19-.36.4-.38.16-.05.23-.07.32-.22.06-.23.27-.25.42-.3l1.24-.11c.08-.02.1.06.15.08-.09.41.08.7.15,1.06,0,.26,0,.59.05.88.15.8.28,1.66.33,2.54.04.29.06.62.02.93-.01.39-.03.77-.09,1.13.02.21,0,.46,0,.72-.03.18-.04.31-.02.52-.03.05-.08.15-.03.18.11.52-.03,1.03-.15,1.49-.09.54-.29,1.02-.38,1.56-.1.67-.25,1.31-.25,2.03.03.54-.11,1.05-.13,1.57-.03.18-.04.31-.12.46-.08.75-.2,1.46-.36,2.23-.06.23-.12.46-.1.67-.02.51-.13.97-.2,1.46-.23.79-.33,1.59-.52,2.41-.04.31-.12.59-.23.92-.09.28-.12.59-.19.95-.09.28-.15.64-.26.97-.09.54-.19,1.08-.36,1.64-.09.28-.22.54-.21.87l-.05.1c.02.21.07.36.14.34.13,0,.13-.12.19-.22l.38-.71s.13-.12.11-.2c0-.13.06-.23.21-.28.03-.05.06-.1.16-.17.08-.15.19-.36.27-.51l.05-.1c0-.26.22-.4.41-.63.03-.05.13-.12.19-.23.06-.23.19-.35.35-.53l.16-.3c.03-.18.19-.36.33-.48.16-.05.31-.09.34-.27l.08-.02c.3.17.21-.15.29-.3.08-.15.19-.23.22-.41.03-.18.11-.33.02-.52-.02-.08-.02-.21.06-.23.18-.1.19-.23.19-.36,0-.13.08-.15.14-.25.19-.36.43-.68.65-.96l.08-.15c.22-.41.42-.89.63-1.29,0-.13.11-.2.16-.3.37-.32.62-.78.92-1.21.17-.3.38-.58.54-.88l.03-.05c.32-.48.6-.99.92-1.46.35-.53.6-1.11.9-1.67.08-.15.17-.3.3-.43.1-.07.16-.18.21-.28.14-.25.27-.51.46-.73.27-.38.44-.81.66-1.22.08-.15.21-.28.32-.48.27-.38.47-.86.58-1.32.14-.25.27-.51.46-.73l.27-.51c.25-.46.62-.78,1.06-1,.08-.02.21-.02.36-.06l.28-.04c.24-.2.52-.11.75-.05.18.03.3.16.27.34-.04.31-.04.57,0,.85.05.16-.04.31-.04.44-.06.23-.15.51-.2.74l-.11.2c-.41.63-.71,1.32-1.07,1.98-.22.41-.47.86-.68,1.27l-.08.15c-.48.4-.73.98-1.08,1.51-.27.38-.52.83-.76,1.29-.27.38-.51.71-.73,1.11-.19.23-.35.4-.43.68-.03.18-.14.38-.3.56l-.65.96c-.38.45-.65.96-.97,1.44-.22.4-.52.83-.79,1.21l-.08.15c-.2.48-.52.83-.76,1.29-.22.41-.51.71-.78,1.08l-.03.05c-.17.43-.44.81-.66,1.22l-.95,1.39c-.14.25-.32.48-.49.78-.22.41-.47.86-.71,1.32l-.44.81c-.25.46-.49.91-.71,1.32l-1.18,2.18c-.16.31-.41.63-.57.94-.11.2-.22.4-.28.63-.17.3-.38.58-.65.83-.11.07-.24.2-.32.35-.08.15-.14.25-.32.35-.39.12-.68.42-.95.67-.24.2-.47.27-.78.23-.82-.18-1.14-.55-1.09-1.38l-.03-1.39c.12-.59.22-1.13.44-1.66.11-.2.14-.38.17-.56.14-.25.22-.54.39-.84,0,0,.03-.05-.02-.08.1-.67.37-1.17.57-1.79.14-.38.28-.77.29-1.15.02-.64.22-1.25.39-1.82.06-.36.1-.67.21-1-.02-.08,0-.13.03-.18.28-.64.33-1.33.48-1.97.01-.39.1-.79.25-1.18.05-.1.08-.15.06-.23.07-.49.21-.87.28-1.36.04-.57.11-1.05.21-1.59.09-.28.12-.59.13-.85.03-.77.23-1.51.41-2.2.09-.41.1-.8.19-1.21-.06-.62.12-1.18.03-1.75-.03-.54.11-1.05.23-1.51.17-.56.27-1.1.41-1.61.03-.05.06-.1.03-.18.04-.57.04-1.16.05-1.67,0-.13-.04-.29-.07-.36,0-.13-.07-.23-.15-.21-.08.02-.18.1-.21.15-.33.61-.68,1.27-1.06,1.85l-.33.48c-.3.43-.52.83-.73,1.24-.19.23-.3.43-.43.68-.17.3-.28.63-.54.88l-.14.25c-.26.84-.72,1.57-1.08,2.36-.09.28-.22.54-.36.79l-1.23,2.28c-.66,1.22-1.32,2.43-1.97,3.65l-.9,1.67c-.41.76-.77,1.55-1.1,2.28-.25.46-.42.89-.66,1.34-.19.35-.43.68-.53,1.09l-.03.05c-.24.33-.33.74-.47,1.12-.33.74-.69,1.53-.85,2.29q-.06.36-.4.37c-.31-.04-.59,0-.93.02-.16.05-.33.02-.54.03-.44-.04-.64-.28-.67-.69,0-.59.22-1.13.62-1.76Z"/>
    <path class="cls-1" d="M209.11,118.55c.09-.22.25-.46.39-.64l.71-.98c.13-.19.32-.34.48-.58.1-.14.25-.25.38-.43.4-.35.75-.74,1.17-1.14l.46-.45c.28-.29.61-.55.94-.81l.71-.7c.21-.2.48-.37.69-.57l1.23-.82c.49-.29.98-.57,1.42-.89.31-.13.6-.35.91-.48.29-.21.6-.35.91-.48.15-.11.31-.13.42-.19.56-.38,1.23-.53,1.91-.69.08-.01.13.02.16-.03.34-.18.71-.2,1.08-.22.56-.09,1.09-.14,1.62-.18.37-.02.69-.07,1.04.04.13.02.25.04.42.01.58-.01,1.13.1,1.7.3.17.05.38.06.64.1.38.06.74.25,1.14.39.46.26.96.54,1.42.88.28.2.58.48.79.78.17.26.37.48.34.81l.09.27c.18.34.11.64-.13.97-.07.09-.18.15-.17.23-.06.38-.42.48-.69.57-.03.05-.21,0-.25-.04-.14-.1-.2-.21-.27-.41l-.19-.42c-.13-.31-.3-.57-.57-.69-.14-.1-.28-.2-.35-.4.03-.05-.06-.11-.11-.15-.22-.09-.45-.26-.66-.26-.33-.03-.68-.14-1.03-.24-.3-.07-.68-.13-1.04-.04-.19.07-.48.08-.7,0-.09-.07-.22-.09-.33-.03-.35.1-.72.12-1.09.14-.17-.05-.37.02-.53.05-.24.04-.52.13-.71.2l-.45.03c-.31.13-.54.25-.87.23-.03.05-.08.01-.11.06-.33.26-.73.33-1.12.47-.27.09-.58.22-.8.42-.56.38-1.17.65-1.7.98-.31.13-.6.35-.9.56-.38.23-.7.49-1.11.76-.38.23-.66.52-.94.81-.43.4-.86.8-1.24,1.24l-1.52,1.53c-.07.3-.43.4-.6.63-.12.27-.34.47-.5.7-.57.79-1.15,1.51-1.46,2.43-.14.39-.34.68-.48,1.07l-.23.62c-.04.25-.16.52-.28.79-.05.17-.09.43-.05.67.01.08.04.24.02.37-.02.13.05.32.08.48.21.5.65.68,1.14.89.09.07.27.12.44.18.27.12.55.12.88.06.19-.07.4-.07.56-.09l1.16-.23c.48-.08.87-.23,1.29-.42.38-.23.86-.3,1.33-.46.24-.04.52-.13.79-.21.13.02.24-.04.36-.1l1.75-1.15c.38-.23.74-.53,1.02-.83.21-.2.43-.4.72-.62l.82-.55c.36-.31.72-.61,1.04-.96.44-.32.79-.71,1.27-1.07.56-.38,1.1-.84,1.5-1.4.47-.65.91-1.26,1.25-1.94l.28-.58c.17-.23.26-.46.33-.76.22-.41.36-.8.54-1.25.16-.31.46-.45.8-.42.13.02.29,0,.37-.02.37-.02.6.15.69.42.07.19.08.48.07.69-.06.38-.25.74-.36,1.09-.09.43-.24.82-.2,1.27.03.16,0,.29-.14.39-.11.06-.17.23-.19.36-.09.22-.22.41-.39.64-.13.19-.27.38-.36.6-.14.39-.42.69-.61,1.05-.22.41-.52.83-.74,1.24-.3.42-.62.76-.92,1.18l-.03.05c-.18.44-.54.75-.77,1.08-.24.33-.48.57-.69.86l-.33.47c-.24.33-.52.62-.75.95l-.29.5c-.38.43-.72.9-1.07,1.29-.52.62-1,1.2-1.47,1.85-.31.34-.64.6-.91.98-.2.28-.5.49-.68.86-.1.14-.29.21-.43.4-.26.17-.51.41-.71.7-.32.34-.69.57-1.05.88-.26.17-.48.37-.7.49-.41.28-.82.55-1.18.86-.33.26-.72.41-1.05.67-.41.27-.83.47-1.28.5-.24.04-.47.16-.65.31-.19.07-.39.15-.55.17l-.87.23c-.58.22-1.15.02-1.74-.04-.41-.01-.81-.16-1.24-.25-.08.01-.21,0-.29,0l-.43-.09c-.13-.02-.22-.09-.3-.07-.13-.02-.17-.05-.27-.12-.41-.22-.83-.52-1.22-.87-.14-.1-.31-.15-.45-.25-.19-.14-.38-.27-.55-.32l-.42-.3c-.17-.05-.27-.12-.17-.26.15-.31.07-.59.02-.91-.07-.4-.15-.88-.18-1.33-.03-.45.11-.84.25-1.24.12-.27.2-.57.32-.84.07-.09.05-.17.12-.27.17-.23.34-.47.67-.44.13.02.16-.03.24-.04.28-.09.5,0,.66.26.18.34.29.78.12,1.22-.07.09-.05.17-.09.22-.18.44-.16.81.08,1.27.1.35.15.68.41,1l.23.17c.46.25.91.51,1.44.75.09.07.22.09.35.11.21,0,.43.09.64.1.53-.05.99,0,1.43-.11.16-.03.32-.05.45-.03.32-.05.64-.11.94-.32.46-.24.93-.4,1.35-.59.11-.06.23-.12.31-.13.41-.27.77-.58,1.23-.82.44-.32.87-.72,1.3-1.12.35-.39.71-.69,1.11-1.05.4-.35.81-.63,1.11-1.05.38-.43.83-.75,1.12-1.26.02-.13.13-.19.2-.28.03-.05.07-.09.05-.17-.05-.03-.13-.02-.17-.05-.16.03-.4.07-.55.17-.31.13-.62.27-.96.45-.43.11-.81.34-1.19.57-.11.06-.31.13-.47.16-.37.02-.69.07-.99.29-.21.2-.54.25-.82.26-.13-.02-.32.05-.48.08l-.24.04c-.29,0-.56.09-.79.21-.63.19-1.19.28-1.75-.12-.09-.07-.14-.1-.22-.09-.22-.09-.36-.19-.55-.32-.09-.07-.22-.09-.35-.11-.05-.03-.13-.02-.09-.07-.13-.31-.55-.32-.71-.58-.2-.21-.44-.38-.64-.6-.15-.18-.34-.32-.35-.6,0-.21-.08-.48-.15-.68-.06-.11-.15-.18-.26-.33-.21-.29-.36-.68-.38-1.05-.05-.32-.01-.58.03-.83.04-.25.01-.42.02-.62s.05-.46.1-.64c.07-.3.19-.57.31-.84l.06-.38c.24-.54.44-1.1.63-1.67.28-.58.68-1.14.95-1.73.03-.05.07-.09.1-.14l.05.03Z"/>
    <path class="cls-1" d="M217.17,139.9c.33-.48.8-.76,1.41-.77.21.02.36-.07.61,0,.41.05.75.19,1.06.45.09.07.14.19.15.27-.02.29,0,.61-.05.94-.02.21-.17.38-.45.53-.12.05-.27.23-.38.36-.11.13-.23.18-.39.28-.28.06-.52.17-.71.3-.12.05-.32.11-.49.04-.17-.07-.38-.17-.63-.24-.17-.07-.26-.22-.28-.47.02-.21-.03-.41-.13-.64-.14-.27-.05-.57.13-.87l.15-.18Z"/>
    <path class="cls-1" d="M221.84,143.95c.35-.46.83-.73,1.44-.71.2.03.36-.06.61.02.41.06.74.21,1.04.49.08.08.13.2.13.28-.03.29-.02.61-.08.94-.03.21-.19.37-.47.51-.12.04-.28.21-.39.34s-.24.17-.4.26c-.28.05-.52.14-.72.28-.12.05-.32.09-.49.02s-.38-.19-.62-.26c-.17-.07-.25-.23-.26-.48.03-.21-.02-.41-.11-.65-.13-.28-.02-.57.17-.86l.16-.17Z"/>
    <path class="cls-1" d="M226.35,148.2c.37-.45.86-.69,1.47-.65.2.04.37-.04.61.04.41.08.73.25,1.02.53.08.08.12.2.12.29-.04.29-.04.61-.12.94-.04.2-.2.37-.49.49-.12.04-.29.2-.41.33-.12.12-.24.16-.41.24-.29.04-.53.12-.73.24-.12.04-.33.08-.49,0-.16-.08-.37-.2-.61-.28-.16-.08-.25-.24-.24-.49.04-.2,0-.41-.08-.65-.12-.28,0-.57.2-.85l.16-.16Z"/>
  </g>
  <g>
    <path class="cls-1" d="M77.39,171.95l-.48.19c-.59.23-1.18.15-1.72-.14-.45-.2-.95-.37-1.36-.65-.39-.22-.79-.44-1.04-.77l-.65-.74c-.29-.26-.46-.56-.59-.88-.19-.48-.37-.97-.45-1.49,0-.31-.05-.6-.04-.91s.17-.37.47-.37l.22.1c.6-.05.93.32,1.17.78.09.09.1.27.09.4.12.32.28.57.33.86.23.59.63.99,1.12,1.3.15.07.26.21.41.27.22.1.43.14.64.06.3-.18.59-.23.86-.33.48-.19.8-.49.85-1l.09-.41c.13-.3.08-.59-.08-.84-.14-.38-.32-.68-.41-1.07-.31-.81-.66-1.54-1.38-2.12-.19-.17-.33-.37-.52-.54-.12-.14-.21-.23-.43-.33-.22-.1-.5-.18-.71-.4-.19-.17-.41-.27-.64-.37-.42-.27-.79-.62-1.19-.84-.71-.4-1.34-.9-1.99-1.33-.66-.43-1.33-.72-1.9-1.24-.38-.35-.77-.56-1.21-.89-.36-.29-.74-.64-1.18-.97-.02-.05-.15-.07-.17-.12-.17-.12-.29-.26-.38-.35-.19-.17-.33-.37-.48-.43-.36-.29-.69-.66-.99-.97-.35-.42-.7-.84-.99-1.29l-.27-.39c-.65-1.04-1.14-2.15-1.6-3.34l-.12-.32c-.27-.7-.46-1.36-.61-2.05-.14-.69-.15-1.36-.17-2.03.03-.08.01-.13-.03-.24-.02-.36.04-.69.1-1.03l.12-.97c-.03-.24.02-.44.17-.68.21-.27.26-.6.4-.89l.24-.34c.21-.27.36-.51.49-.81,0,0,.03-.07.09-.09.28-.23.56-.46.86-.64.09-.09.2-.14.23-.21.31-.31.64-.43.99-.63.27-.1.48-.19.77-.24.05-.02.11-.04.13.01.59.08,1.28.12,1.82.41l1.1.44c.02.05.08.03.15.07.2.04.45-.11.37-.33-.05-.29.1-.53.11-.84.03-.26.12-.48.15-.74.01-.13.02-.26-.02-.36.03-.07,0-.18.02-.26-.03-.24.09-.41.25-.47.21-.08.45-.11.59.08.07.03.09.09.09.09.64.37.65,1.05.7,1.65.08.52-.15,1.05-.15,1.54-.04.38.05.78.12,1.12.08.21.33.37.46.56.1.09.22.1.32.19.22.1.36.29.52.54.15.38.38.66.72.9.21.23.42.45.58.7.21.23.39.53.55.78.14.19.27.39.3.62.09.4.26.83.46,1.18.14.2.22.41.3.62l.23,1.08c0,.18.07.34.13.5-.01.13.03.23,0,.31-.2.45-.42.84-.86,1.13l-.21.08c-.78.05-1.51-.22-2.22-.63-.3-.13-.53-.41-.76-.69l-.8-1.11c-.18-.3-.3-.62-.39-1.02-.1-.58-.22-1.21-.39-1.82-.11-.45-.3-.93-.47-1.36-.14-.38-.16-.74-.25-1.14.01-.13,0-.31-.06-.47-.04-.11-.14-.19-.21-.23-.45-.2-.9-.4-1.42-.63-.87-.34-1.55-.02-2.18.59-.23.21-.38.46-.7.58-.05.02-.14.12-.17.19-.1.22-.27.41-.24.65-.01.13-.1.22-.13.3-.13.3-.26.6-.29.85-.04.2-.16.37-.23.52s-.11.35-.07.46c-.04.2-.04.38-.03.57.02.36.03.73.08,1.02-.01.13.03.23-.06.33-.12.17-.02.44-.06.64,0,0-.03.08.04.11.19.17.13.51.29.75l.14.38c.02.05.1.09.06.16.08.53.35.91.57,1.32.09.09.14.19.18.3.17.43.44.82.66,1.23.09.09.14.19.16.25.18.3.36.6.57.83.23.28.41.58.64.86.1.09.19.17.34.24l.46.38c.44.33.89.71,1.35,1.09.36.29.72.59,1.08.88l.49.31c.17.12.34.24.49.3.09.09.12.14.19.17.81.49,1.51,1.02,2.29,1.46l.22.1c.59.57,1.36.96,2.04,1.44.17.12.39.22.54.29.08.03.1.09.15.06.34.24.66.43.98.61.26.21.46.38.61.63.12.14.29.26.4.4.19.17.38.35.62.5.51.36.79.93,1.02,1.52l.39,1.02c.12.32.12.63.17.92.03.24.04.42.1.58,0,.18.07.34.06.47.07.34.07.65,0,.98.04.11-.03.26-.06.33-.12.17-.24.34-.21.57l-.1.22c-.22.39-.36.82-.6,1.16-.1.22-.29.36-.51.44s-.43.17-.65.25ZM72.09,147.5c-.39-1.02-.97-1.72-1.66-2.38-.02-.05-.07-.03-.07-.03-.05.02-.09.1-.07.15.08.53.1,1.07.29,1.56.1.27.15.56.26.83.08.21.22.41.36.6.04.11.16.25.25.33.32.19.64.06.68-.32.08-.28.03-.57-.03-.73Z"/>
    <path class="cls-1" d="M92.02,163.54c-.09-.39-.13-.8-.22-1.19-.07-.28-.18-.49-.23-.72-.1-.69-.21-1.37-.29-2l-.08-.34c-.09-.63-.17-1.2-.3-1.76-.16-.67-.21-1.37-.31-2.06-.13-.8-.24-1.54-.43-2.33-.05-.46-.16-.91-.26-1.36-.17-.73-.34-1.46-.39-2.16-.08-.57-.26-1.12-.4-1.68l-.41-1.74c-.16-.67-.32-1.35-.42-2.03-.18-1.26-.48-2.55-.83-3.77-.19-.79-.43-1.56-.67-2.33l-.21-.9c-.13-.56-.28-1.18-.52-1.71-.11-.21-.12-.27-.39-.15-.56.13-1.12.26-1.61.44-.53.24-1.06.25-1.56.43l-1.51.36c-.17.04-.32.13-.49.17-.1.08-.2.17-.24.24-.13.21-.19.46-.3.72-.12.26-.37.44-.68.4-.35.02-.6-.04-.89-.26-.15-.14-.36-.27-.47-.48-.01-.06-.08-.1-.15-.14-.25-.06-.36-.27-.41-.49-.19-.31-.31-.58-.45-.9-.01-.06-.03-.11-.09-.16-.15-.14-.19-.31-.18-.49-.01-.06-.1-.16-.12-.27l-.09-.39c-.04-.17.06-.25.21-.35.27-.12.53-.25.8-.37l.11-.03c.21-.35.58-.31.93-.34.06-.01.13.03.18.02.5-.12,1.07-.25,1.56-.43.49-.18.98-.35,1.42-.51l1.7-.58c.71-.23,1.42-.51,2.16-.63.39-.09.7-.29,1.11-.32.67-.16,1.36-.26,2.04-.36.5-.12.97-.17,1.43-.22l.94-.04c.11-.03.22-.05.35-.02.56-.13,1.17-.04,1.77,0,.47,0,.88.21,1.11.69.22.42.39.91.22,1.43-.08.14-.17.28-.4.33l-1.18.28c-.18-.02-.34.08-.5.12l-2.2.7c-.39.09-.77.24-1.15.39-.32.13-.41.27-.39.62.05.46.1.92.36,1.28l.05.22c0,.24.09.39.15.62.05.22.16.44.23.71.21.66.43,1.32.66,2.04v.06c.09.34.17.67.18.97.08.57.15,1.15.4,1.68.03.11.05.22.02.35l.07.28c.04.17.15.38.14.62-.01.18.08.34.06.52.07.28.13.56.14.85-.06.25.06.52.17.73.05.22.11.45.05.7,0,.24.05.46.1.69.09.39.23.72.26,1.12.06.52.18,1.02.31,1.58.05.22.12.5.13.8.08.34.12.74.26,1.12.07.28.09.63.16.91.12,1.04.32,2.11.56,3.12.08.34.1.69.13,1.04.08.34.16.67.2,1.08.01.06.1.16.05.22-.06.49.1.92.21,1.37.08.34.1.69.2,1.08l.12.5c.06.52.18,1.02.26,1.6.05.22.18.49.23.71.09.39.14.86.23,1.25.05.22.09.39.26.59.15.14.21.37.31.58q.07.04.01.06c-.03.36-.22.58-.46.82-.2.16-.45.11-.64.03-.49-.3-.96-.54-1.24-1.01-.51-.65-.81-1.41-.94-2.21Z"/>
    <path class="cls-1" d="M104.58,161.64c-.05-.57-.11-1.15-.22-1.66-.02-.17.02-.41,0-.58l-.02-.17c-.31-1.42-.46-2.91-.65-4.34-.02-.17-.08-.28-.1-.45-.02-.17-.03-.34-.06-.57l-.06-.63c-.08-.86-.17-1.72-.31-2.58l-.11-1.15c-.03-.34,0-.69-.04-1.04,0-.06.05-.12-.01-.12-.19-.79-.21-1.6-.28-2.35-.08-.86-.17-1.72-.25-2.58l-.37-3.78c-.04-.46.03-.87-.01-1.33l-.02-.17c-.08-.86-.17-1.72-.25-2.58l-.11-1.15c.02-.35,0-.64-.09-.97-.03-.34-.12-.62-.15-.97-.02-.17.03-.29.01-.46.02-.41.03-.87-.01-1.33,0-.12-.03-.29.02-.41.05-.12.1-.18.16-.19.16-.13.32-.26.36-.44,0-.06.05-.12.1-.13.33-.21.66-.41,1-.44.11-.01.23-.02.29.03.13.16.36.14.53.12.57-.11,1.14-.17,1.72-.17.46-.04.92-.03,1.39-.02.41.08.89.2,1.3.28l.99.08c.46.01.89.21,1.3.28.29.03.47.13.72.28.24.09.48.18.73.33.06,0,.12.05.18.1.32.32.69.51,1.05.71.12.05.18.1.25.21.27.38.48.76.69,1.15.54.76.5,1.63.47,2.5.01.75-.15,1.4-.44,2.07-.09.24-.25.37-.35.61-.3.44-.73.82-.98,1.25-.05.12-.15.19-.2.31-.05.06-.1.18-.21.2-.28.14-.36.44-.64.58-.22.08-.43.33-.59.52-.49.34-.97.79-1.52,1.02-.17.07-.34.09-.45.16-.17.07-.21.19-.08.35.19.16.43.3.63.52.13.1.31.2.44.36l.9.95c.2.27.46.54.49.88,0,.06.01.12.07.17.36.72.67,1.5.91,2.28.09.28.12.63.2.91.26.9.29,1.82.5,2.73.11.57.23,1.14.4,1.7.11.57.28,1.13.45,1.69.16.5.32.95.65,1.38.21.33.58.58,1.04.54l.17-.02c.41.08.54.18.46.59-.07.47-.34.73-.79.77-.06,0-.17.02-.23.02l-.29.03c-.41-.08-.83-.21-1.25-.34-.17.02-.3-.09-.42-.19-.12-.05-.19-.21-.37-.25-.24-.09-.37-.2-.5-.42-.53-.64-.94-1.3-1.08-2.15-.11-.57-.34-1.12-.45-1.69l-.32-1.53c-.04-.46-.09-.97-.25-1.42-.1-.45-.15-.91-.25-1.37-.15-.33-.19-.73-.34-1.12-.14-.28-.18-.62-.26-.9-.16-.45-.38-.89-.65-1.33-.07-.11-.19-.21-.32-.32-.13-.16-.32-.32-.5-.41-.45-.48-.95-.89-1.61-1.06-.3-.09-.58-.06-.93-.08-.23-.03-.33.15-.25.37.07.17.09.34.11.51.03.34,0,.69.04,1.04.06.63.18,1.26.24,1.89.07.17.09.34.17.56l.02.17c.13.74.2,1.49.22,2.24.04.46.08.86-.1,1.34v.12c.22.33.19.68.22,1.02-.01.46.09.97.2,1.43l.07.69c.13.74.21,1.54.34,2.34.04.4.19.73.28,1.13.11.57.23,1.14.28,1.71.02.23-.01.46-.05.7v.06c.1.34-.04.7.05,1.09v.06c0,.52.16.97.09,1.5l-.07,1.05c-.02.35-.13.48-.53.51-.06,0-.17.02-.28.08-.57.11-1-.13-1.38-.56-.32-.32-.59-.75-.64-1.21-.1-.4-.19-.79-.23-1.14ZM112.06,133.72c.02-.35-.19-.73-.34-1.12-.16-.45-.53-.7-1-.77-.36-.08-.71-.11-1-.19-.61-.29-1.31-.34-1.95-.39-.58-.06-1.22-.06-1.85,0-.06,0-.17.02-.23-.04-.35-.02-.63.06-.97.15-.28.09-.33.15-.3.49.07.75.25,1.42.26,2.12.01.12.07.17.08.28.09.34.18.68.1,1.03-.02.35.06.63.09.97-.05.12.02.17.03.29.07.69.25,1.42.21,2.12-.05.06-.05.12.02.17.08.22.05.52.02.81-.02.35,0,.7.04,1.04.02.17.14.22.3.09.38-.27.7-.59,1.14-.75.5-.16,1-.44,1.44-.66l1.44-.66c.22-.14.38-.27.53-.46.1-.18.26-.31.42-.45.1-.13.27-.2.37-.33.26-.31.46-.62.6-.93.15-.25.3-.49.39-.73.17-.65.28-1.3.15-2.1Z"/>
    <path class="cls-1" d="M123.69,160.97c.64-.11,1.21-.1,1.79-.2.46-.05.93-.21,1.39-.32.63-.05,1.27-.27,1.9-.26.4,0,.86.01,1.21.19.06.06.11.06.17.06.11.06.23.06.29.12.17.12.28.23.4.35.17.12.23.35.16.58-.12.34-.41.45-.7.62-.12.06-.23.05-.41.11-.17.05-.29.11-.41.22-.18.23-.41.28-.7.28,0,0-.06-.06-.11-.06-.52.16-1.1.04-1.62.15-.46.11-.98.1-1.44.21-.46.05-.92.21-1.44.09h-.12c-.35.11-.69.16-1.04.27-.29.17-.58.11-.86-.02-.17-.06-.4-.24-.57-.47-.11-.17-.28-.24-.51-.3-.06,0-.12,0-.23-.06-.34-.06-.51-.3-.45-.64.06-.23,0-.4-.05-.64-.06-.12-.05-.23-.05-.29-.05-.52-.04-.98-.03-1.5.07-.63.02-1.27.15-1.9l-.05-.4c0-.12-.06-.17-.11-.29,0-.46.02-.98-.03-1.5,0-.29-.05-.58-.04-.87l.03-2.01c0-.4.07-.81.08-1.21,0-.23-.05-.52-.05-.75.07-.52.07-.98.08-1.5v-.11c.08-.92.09-1.79.16-2.71,0-.29,0-.52.07-.81,0-.23.06-.4.07-.63,0-.46.01-.92.02-1.38l.2-1.61c.07-.46.13-.86.14-1.32.07-.69.2-1.44.21-2.13l.02-1.15c.07-.58.08-1.15.14-1.73,0-.17,0-.35,0-.52l.03-1.79c0-.06,0-.17,0-.29l-.15-1.27c0-.17,0-.34-.05-.52v-.17c.06-.17,0-.35.01-.52-.05-.35-.05-.69-.04-.98,0-.06,0-.17.06-.17.23-.23.3-.63.59-.8.18-.17.35-.22.64-.16.35.06.69,0,1.1-.04.41-.11.87-.1,1.27-.15l2.6-.3c.35-.05.69-.05,1.04-.1.06,0,.06-.06.12-.06.81.01,1.67-.03,2.48.04.63.07,1.26.31,1.66.89.06.06.11.12.11.23,0,.35-.01.69-.19.98-.18.17-.64.45-.93.45-.29-.06-.58-.07-.86.04h-.17c-.4-.07-.86.04-1.33.03-.35.05-.75.04-1.15.04h-.23c-.46.16-.98.27-1.44.15h-.17c-.29.05-.52.1-.75.1-.29-.06-.57,0-.86.04-.4,0-.64.39-.88.68-.06.06-.06.17-.06.29.11.46.1.92.09,1.38,0,.23.05.52.04.75,0,.17-.06.29-.06.46-.01.75-.03,1.56-.04,2.3l-.03,2.07c0,.52-.13,1.09-.2,1.67,0,.52-.08,1.04-.14,1.55-.13,1.09-.09,2.19-.17,3.28,0,.69-.02,1.33-.15,1.96v.69c-.03,1.04-.04,2.02-.06,3.05v.17c0,.17.11.23.28.23.52-.05,1.04-.1,1.5-.15l2.2-.31c.29-.05.58-.11.81-.1.52-.05.98.01,1.44.25.17.18.46.29.63.41.23.18.28.23.16.52,0,.06-.06.17-.06.29,0,.17-.12.29-.24.34-.29.17-.53.39-.81.39-.4.05-.69.16-1.04.33-.23.11-.46.11-.75.1-.46.05-.92.1-1.33.09-.23.05-.46.05-.63.05l-.29.11c-.29.11-.69.22-.99.45-.18.11-.41.17-.64.28-.23.05-.35.22-.35.51-.01.63.04,1.33.08,1.96l-.02,1.27c-.07.46-.07.92.04,1.33v.4s-.02,1.04-.02,1.04c0,.12.11.17.23.18.17,0,.29,0,.46,0v.06Z"/>
    <path class="cls-1" d="M148.88,133.55l.14-1.14c.04-.29-.06-.47-.34-.56-.06,0-.16-.08-.16-.14-.14-.25-.41-.4-.69-.49-.16-.08-.38-.22-.6-.31-.28-.09-.56-.18-.84-.28h-.12c-.29,0-.59.09-.88.11l-.24.03c-.22-.09-.41.06-.55.22-.14.16-.26.26-.44.29-.3.08-.49.23-.64.5-.21.32-.49.64-.81.89-.26.2-.41.53-.51.86s-.26.66-.52.92l-.22.38c-.08.16-.16.39-.24.55l-.09.22c0,.41-.04.81-.09,1.21v.11c-.06.34-.1.69-.19.96-.14.62-.04,1.21.06,1.81.05.53.05.99.16,1.47.06.41.19.78.26,1.19.09.19.19.37.21.61.25.79.44,1.62.62,2.46.05.07.04.12.04.12.28.56.51,1.05.73,1.6l.51,1.51c.05.06.04.18.08.3.34.51.39,1.04.67,1.59,0,0,0,.06.04.12.29.5.39,1.04.57,1.52.21.61.44,1.16.59,1.76.13.36.25.79.44,1.16.05.06.09.19.09.24.08.24.17.49.19.78.05.06.04.18.08.3l-.02.17c.14.25.17.54.25.79.11.48.23.96.22,1.48l.04,1.11c.02.35.02.76-.02,1.1-.13.62-.11,1.32-.52,1.85-.06.46-.37.65-.69.9-.38.24-.69.44-1.1.44-.24.03-.48.11-.72.2-.49.17-1.02.28-1.6.26-.17-.02-.29-.04-.44-.17-.16-.14-.31-.27-.61-.25-.23.03-.45-.12-.66-.32-.09-.24-.24-.38-.46-.52-.21-.14-.41-.4-.62-.6l-.47-.41c-.05-.06-.16-.14-.15-.19-.13-.31-.33-.57-.54-.82-.15-.19-.24-.38-.27-.61.02-.17-.01-.35-.12-.48-.08-.3-.09-.65-.11-1-.02-.29,0-.52-.01-.82l.03-.23c.16-.33.22-.38.62-.27l.61.25c.11.07.21.14.26.21l.24.84c.04.18.08.3.17.49.16.14.25.32.34.51.09.24.24.44.44.64.16.13.31.27.46.46.3.39.61.71,1.11.89.56.13.87,0,1.04-.45.08-.17.16-.33.17-.44l.46-2.27c.06-.46.05-.86-.01-1.28l-.29-1.89c.01-.11-.03-.24-.07-.36l-.26-.73c-.31-.79-.49-1.63-.92-2.38,0-.06-.05-.06-.04-.12-.16-.6-.49-1.16-.71-1.77-.21-.61-.5-1.11-.71-1.71-.3-.85-.6-1.7-.9-2.55l-.61-1.64c0-.06-.04-.12-.04-.18-.06-.88-.37-1.67-.62-2.52-.28-1.02-.49-2.09-.47-3.19.05-.4.09-.74.08-1.09-.05-.53.07-1.04.13-1.49.06-.51.18-.97.3-1.47.04-.34.14-.62.18-.96.12-.51.35-.94.64-1.37.21-.26.31-.6.52-.92.29-.49.64-.96.99-1.39.08-.17.27-.32.4-.42.49-.23.88-.53,1.42-.69l.13-.1c.51-.34,1.04-.45,1.68-.43.41,0,.82-.07,1.18-.14.41-.06.76-.08,1.1.02.4.05.79.16,1.13.26.5.18.87.46,1.31.69.16.13.37.28.46.46.2.26.41.46.74.56.28.09.42.34.44.64.04.18-.04.34.11.54.06,0,.04.12.04.18-.1.34-.21.73-.08,1.09-.08.63.07,1.29-.17,1.84-.09.22-.11.39-.08.63-.05.4-.26.72-.49,1.1-.01.11-.09.28-.16.39-.09.22-.26.26-.48.11-.16-.08-.27-.21-.29-.44-.02-.29-.09-.65-.17-.95-.12-.48-.17-.95-.05-1.46.01-.11.04-.29.06-.46h-.06Z"/>
    <path class="cls-1" d="M166.61,137.18l.26-1.12c.07-.28,0-.47-.27-.6-.06-.01-.16-.1-.14-.15-.12-.26-.37-.44-.64-.56-.16-.1-.35-.26-.56-.37-.27-.12-.54-.24-.8-.37l-.11-.03c-.29,0-.6.04-.89.03h-.24c-.21-.11-.42.02-.57.17-.15.14-.29.23-.47.24-.31.05-.51.17-.69.43-.25.3-.55.58-.9.8-.28.17-.47.48-.6.8-.13.32-.33.63-.62.86l-.26.35c-.1.16-.21.37-.3.52l-.11.21c-.04.41-.13.8-.22,1.19l-.03.11c-.08.34-.16.67-.28.94-.2.6-.16,1.2-.13,1.8,0,.53-.05.99,0,1.48.02.42.11.79.13,1.21.07.19.15.39.15.63.17.81.26,1.66.36,2.51.04.07.03.13.03.13.22.58.39,1.1.56,1.67l.34,1.56c.04.07.02.18.05.31.29.54.28,1.07.5,1.66,0,0-.01.06.03.12.23.53.28,1.07.4,1.57.15.63.31,1.2.4,1.81.09.38.17.81.31,1.2.04.07.07.2.06.25.06.25.12.5.11.79.04.07.02.18.05.31l-.04.17c.12.26.11.56.17.81.06.49.13.98.06,1.49l-.08,1.11c-.02.35-.06.75-.14,1.09-.2.6-.25,1.3-.71,1.78-.11.45-.44.61-.79.82-.4.2-.73.36-1.14.32-.24,0-.49.06-.74.12-.5.12-1.05.17-1.62.09-.17-.04-.28-.07-.42-.22-.14-.15-.28-.3-.58-.31-.24,0-.44-.16-.62-.38-.06-.25-.2-.4-.4-.57-.2-.16-.37-.44-.55-.66l-.43-.46c-.04-.07-.14-.15-.13-.21-.1-.32-.27-.6-.45-.88-.13-.21-.2-.4-.21-.64.04-.17.02-.35-.06-.49-.05-.31-.02-.66,0-1.01,0-.29.06-.52.07-.81l.05-.23c.19-.31.26-.35.64-.2l.58.31c.1.08.2.17.24.23l.15.86c.02.18.05.31.12.5.14.15.21.35.29.54.06.25.19.46.37.68.14.15.28.3.41.51.26.42.53.77,1.01,1.01.55.19.87.08,1.08-.34.09-.16.19-.31.22-.42l.69-2.21c.11-.45.14-.85.12-1.27l-.08-1.91c.03-.11,0-.24-.03-.36l-.18-.75c-.22-.82-.32-1.67-.67-2.46.01-.06-.04-.07-.03-.13-.09-.61-.37-1.21-.52-1.84s-.38-1.15-.53-1.78c-.21-.88-.42-1.75-.62-2.63l-.43-1.7c.01-.06-.03-.13-.02-.18.03-.88-.19-1.7-.34-2.57-.17-1.05-.27-2.13-.13-3.23.09-.39.17-.73.19-1.08,0-.53.18-1.02.29-1.47.12-.5.28-.94.45-1.43.08-.34.2-.6.28-.94.17-.49.45-.9.78-1.3.23-.24.37-.56.62-.86.34-.45.74-.89,1.13-1.27.09-.16.3-.28.44-.37.51-.17.93-.43,1.49-.54l.14-.09c.54-.29,1.08-.34,1.71-.25.41.04.83.02,1.19-.02.42-.02.77,0,1.09.14.39.09.77.24,1.1.38.48.23.82.55,1.23.82.14.15.34.32.41.51.17.28.36.5.68.63.27.12.38.39.37.68.02.18-.08.34.05.54.06.01.03.12.02.18-.13.32-.28.7-.19,1.08-.14.62-.06,1.29-.37,1.81-.11.21-.15.38-.14.62-.09.39-.34.69-.6,1.04-.03.11-.12.27-.2.37-.11.21-.29.23-.49.06-.16-.09-.24-.23-.25-.47,0-.29-.02-.66-.07-.96-.06-.49-.07-.96.1-1.46.03-.11.07-.28.11-.45h-.06Z"/>
    <path class="cls-1" d="M167.83,168.06c.64.1,1.18.29,1.76.37.45.1.95.08,1.42.13.62.15,1.29.14,1.89.35.38.13.82.28,1.09.56.04.07.09.09.14.11.09.09.2.13.23.2.12.17.2.31.27.46.12.17.1.4-.03.6-.22.29-.53.3-.86.37-.13.02-.24-.02-.42-.02-.18,0-.31.01-.46.08-.24.16-.48.14-.75.05,0,0-.03-.07-.09-.09-.55,0-1.05-.3-1.58-.36-.47-.04-.96-.21-1.44-.25-.45-.1-.95-.08-1.4-.36l-.11-.04c-.37,0-.71-.06-1.07-.07-.33.07-.58-.08-.82-.28-.14-.11-.31-.35-.39-.62-.05-.2-.2-.31-.4-.44-.05-.02-.11-.04-.2-.13-.31-.17-.4-.44-.23-.75.13-.2.13-.38.15-.62-.02-.13.02-.24.04-.29.12-.51.27-.94.44-1.43.26-.58.42-1.2.73-1.76l.08-.4c.04-.11,0-.18-.01-.31.15-.43.32-.92.44-1.43.09-.27.13-.56.23-.83l.66-1.9c.13-.38.32-.74.45-1.12.08-.22.12-.51.19-.73.22-.47.38-.91.55-1.4l.04-.11c.36-.85.64-1.67,1-2.52.09-.27.17-.49.32-.74.08-.22.19-.36.26-.58.15-.44.3-.87.45-1.31l.69-1.47c.21-.42.39-.78.54-1.21.28-.63.64-1.3.86-1.96l.38-1.09c.24-.53.43-1.07.68-1.59.06-.16.11-.33.17-.49l.59-1.69c.02-.05.06-.16.09-.27l.25-1.25c.06-.16.11-.33.12-.51l.06-.16c.11-.14.11-.33.17-.49.06-.35.17-.67.27-.94.02-.05.06-.16.11-.14.29-.14.48-.5.81-.57.22-.11.4-.11.66.04.31.17.65.23,1.05.3.42.02.85.17,1.25.25l2.56.52c.34.06.67.17,1.02.23.05.02.07-.04.13-.02.76.26,1.6.49,2.34.81.58.26,1.1.69,1.29,1.36.04.07.07.15.03.26-.11.33-.23.65-.48.87-.22.11-.75.23-1.02.13-.25-.15-.53-.24-.84-.23l-.16-.06c-.36-.19-.84-.23-1.27-.38-.34-.06-.73-.19-1.11-.32l-.22-.08c-.49.01-1.02-.05-1.42-.31l-.16-.06c-.29-.04-.53-.06-.75-.14-.25-.15-.54-.19-.83-.23-.38-.13-.73.17-1.04.37-.07.04-.11.14-.15.25-.04.47-.19.91-.34,1.34-.08.22-.12.51-.19.73-.06.16-.15.25-.21.42-.24.71-.51,1.47-.75,2.18l-.68,1.96c-.17.49-.47,1-.71,1.52-.17.49-.39.96-.62,1.43-.47,1-.77,2.05-1.19,3.06-.23.65-.43,1.25-.75,1.81l-.23.65c-.34.98-.66,1.9-1,2.88l-.06.16c-.06.16.03.25.2.31.51.12,1.02.23,1.47.33l2.18.39c.29.04.58.08.8.16.51.12.92.32,1.28.69.11.22.34.42.47.59.16.24.2.31,0,.55-.02.05-.11.14-.15.25-.06.16-.2.23-.33.25-.33.07-.62.21-.89.12-.4-.08-.71-.06-1.09-.01-.26.03-.47-.04-.75-.14-.45-.1-.91-.19-1.29-.33-.24-.02-.45-.1-.62-.15h-.31c-.31.03-.73,0-1.08.13-.2.05-.44.03-.69.06-.24-.02-.4.11-.5.38-.21.6-.38,1.27-.53,1.89l-.41,1.2c-.21.42-.36.85-.38,1.27-.06.16-.09.27-.13.38l-.34.98c-.04.11.05.2.16.24.16.06.27.1.44.15l-.02.05Z"/>
    <path class="cls-1" d="M197.41,143.12c.34.23.65.38.93.58.29.2.5.43.7.66l.94.84c.34.36.81.58,1.04,1.02.08.1.18.15.29.2.44.41.89.81,1.23,1.3.16.21.39.38.55.59.13.13.13.26.24.44.13.26.37.3.65.12.2-.16.41-.32.61-.47l.82-.5c.03-.05.08-.03.1-.08.43-.5.92-.97,1.01-1.69.07-.41.32-.8.6-1.12.08-.16.15-.18.31-.11l.31.15c.23.05.29.2.34.36.11.31.16.59.29.85.05.15,0,.26-.07.41-.02.18-.1.34-.12.52-.12.26-.28.57-.35.85-.15.31-.33.67-.63.91-.13.13-.15.31-.25.39-.33.42-.69.76-1.15,1.05-.31.24-.61.47-.92.71l-.08.16c-.1.34-.17.62-.17,1.01,0,.52-.06,1.06-.06,1.57.06.41.06.8-.06,1.19-.1.47-.17,1.01-.21,1.5,0,.26-.07.54-.14.83-.15.44-.32.93-.52,1.35-.4.96-.88,1.94-1.33,2.88-.12.26-.35.47-.48.73-.02.05-.1.08-.13.13-.25.52-.61.99-.96,1.46-.13.13-.28.31-.25.52l-.05.1c-.36.34-.53.83-.81,1.14-.51.52-.89,1.17-1.45,1.67-.25.26-.46.55-.66.83l-.38.39c-.36.34-.76.65-1.04.97-.48.47-.99.86-1.53,1.31-.25.26-.61.47-.97.68l-.69.5c-.15.05-.28.18-.43.24,0,0-.05-.03-.08.03l-1.69.72c-.46.16-.84.42-1.33.51-.28.06-.49.21-.77.27-.18.11-.33.16-.54.19-.46.16-.95.24-1.39.35-.44.11-.8.19-1.16.27l-1.93.41c-.15.05-.33.03-.52,0-.13,0-.23-.05-.36-.05-.15.05-.31.11-.41.18-.13.13-.28.31-.43.5l-.03.05c-.3.36-.56.37-.85.04-.16-.2-.34-.36-.32-.66.03-.05-.05-.16-.11-.18-.21-.36-.34-.74-.35-1.13-.06-.54.01-.95.24-1.42.12-.26.2-.54.27-.83l.77-2c.35-.98.72-1.89,1.12-2.85.15-.31.27-.7.45-1.06.23-.34.38-.78.5-1.17.15-.31.22-.6.38-.91.2-.41.32-.93.58-1.32.08-.16.1-.34.17-.49.13-.26.25-.52.38-.78l1.03-2.12c.22-.47.5-.91.73-1.38.23-.47.48-.86.68-1.27.25-.39.45-.81.71-1.19.25-.52.55-1.01.8-1.53l.6-1.24c.45-.8.96-1.58,1.41-2.39.28-.44.48-.86.7-1.32l.43-.88c.1-.21.1-.34-.03-.46-.34-.36-.4-.77-.48-1.26-.03-.33-.06-.67-.07-1.05,0-.13,0-.26.05-.36.15-.31.25-.65.5-.91.05-.11.15-.18.28-.19l.18-.1c.36-.08.62-.21.82-.5.05-.11.15-.18.33-.16.18.02.41.07.59.1h.77c.33-.04.67-.07,1.06.05l1.22.4ZM201.28,157.48c.33-.67.68-1.27.88-1.94.22-.72.55-1.4.46-2.14-.06-.41-.06-.8-.14-1.16-.03-.21-.13-.26-.31-.28-.28.05-.57.11-.88.09-.08.03-.23.08-.28.06-.57-.02-1.13-.04-1.68-.11-.05-.03-.13,0-.18-.02-.16-.2-.41-.2-.65-.25-.91-.25-1.81-.62-2.77-.89-.23-.05-.42-.2-.65-.25-.05-.03-.13,0-.15.05-.1.21-.23.34-.25.52l-.63,1.3c-.2.29-.35.6-.61.86l-.08.16c.05.15-.07.28-.2.42-.1.21-.23.34-.33.54l-.35.73c-.13.26-.23.47-.4.7-.23.34-.35.72-.6,1.12l-.4.83c-.07.16-.18.36-.3.49-.13.13-.18.23-.2.41-.12.26-.2.54-.38.78-.22.47-.48.86-.73,1.25-.05.1-.08.16-.1.21l-.5,1.04c-.3.62-.73,1.12-.93,1.79-.2.42-.53.83-.63,1.3l-.15.18c-.05.1-.15.18-.2.29-.4.83-.8,1.66-1.15,2.51-.5,1.04-.95,2.1-1.4,3.16l-.1.21c-.05.1.03.21.11.18.23-.08.44-.11.64-.14.36-.08.74-.21,1.1-.3l.38-.13c.15-.05.33-.16.54-.19.38-.13.77-.27,1.13-.48l.41-.06c.31-.11.62-.21.84-.42.1-.08.23-.08.33-.16.69-.37,1.41-.66,2.05-1.06.61-.34,1.07-.76,1.63-1.13.15-.18.33-.29.46-.42.43-.49.92-.84,1.38-1.25.36-.34.64-.65.92-.96.23-.21.33-.42.53-.57.2-.16.33-.29.43-.5.41-.44.74-.86,1.06-1.28.36-.47.74-.99.99-1.51l.53-.83c.28-.44.45-.93.81-1.27.03-.05.05-.1.05-.1l.65-1.35ZM196.43,148.98c.18.15.52.25.88.3.08-.03.18.02.26,0,.47.23.98.22,1.42.37l.98.09c.26,0,.49.04.7.02.33-.03.33-.16.18-.36-.18-.28-.44-.54-.76-.68l-.26-.13c-.36-.3-.7-.66-1.22-.78l-.16-.08c-.44-.41-1.01-.55-1.61-.65-.26,0-.46.03-.56.24-.18.36-.35.73-.48,1.11-.1.21-.05.23.16.33l.47.23Z"/>
  </g>
</svg>