<?xml version="1.0" encoding="UTF-8"?>
<svg id="Layer_1" data-name="Layer 1" xmlns="http://www.w3.org/2000/svg" viewBox="0 0 195.99 181.95">
  <defs>
    <style>
      .cls-1 {
        fill: #231f20;
      }
    </style>
  </defs>
  <path class="cls-1" d="M22.76,150.35c.25-.01.53.12.78.22.21.06.42.15.63.2.14.09.28.06.47.04.18.02.4-.04.61.06h.14c.36,0,.75.08,1.11.11h.07c.31.18.59.24.92.27.07,0,.14.05.21.06.07.04.14.08.21.09.14.01.25.06.39.11.17.09.35.14.52.23l.25.02c.21.09.46.15.67.21.21.09.38.14.57.12h.14c.14.06.28.08.42.12.14.05.28.1.42.18.17.12.31.17.49.19.25-.01.46.11.67.21.21.06.42.18.63.2.14.01.28.06.42.11.17.09.35.14.52.23.1.08.24.09.35.14.18.05.32.1.5.08.04,0,.1.05.1.05.13.16.27.17.42.15.04,0,.11,0,.14.05.13.12.35.14.52.23l.31.14s.07.04.1.05c.14.05.28.06.42.15.28.13.56.16.88.26.32.1.64.13.95.3.03.04.07.04.1.05.46.08.91.34,1.38.38.24.1.53.09.77.29.07.04.21.09.32.1.14.05.32.07.41.22,0,.04.03.04.07.04.17.09.35.14.52.23.07.04.14.08.2.16.06.08.13.16.28.13.11,0,.21.05.31.17.1.12.23.2.33.36.03.11.02.18-.03.29-.09.25-.33.4-.49.61-.04.07-.12.1-.16.17-.12.17-.28.26-.43.36-.42.21-.83.43-1.28.57-.18.02-.3.12-.45.18-.19.05-.34.15-.49.21-.3.08-.56.2-.83.39-.04.03-.08.07-.11.06-.38.18-.79.33-1.16.47-.22.09-.41.14-.6.23-.08.03-.18.02-.2.16.03.07.14.08.21.13.03.04.07.08.1.08.29,0,.52.23.84.26,0,0,.04,0,.03.04.41.22.87.33,1.33.45.07.04.18.05.24.09.24.09.49.19.73.32.04,0,.1.04.14.08.07.08.13.12.28.13.15-.02.25.06.34.18.09.19.3.25.48.33.18.05.35.1.45.26.03.04.11,0,.14.05l.43.4s0,.07.03.11t-.07-.04s-.07-.04-.1-.05v.11s.06.04.09.08v.07q-.11,0-.09.1s0,.07,0,.11c-.2.23-.43.39-.73.51-.37.11-.74.18-1.11.29-.26.08-.49.17-.74.22-.15.06-.3.08-.48.1-.04,0-.11.03-.15.02l-.93.24c-.37.07-.7.15-1.06.16-.51.06-.96.24-1.44.3l-.44.07c-.47,0-.95.13-1.43.19-.25.01-.51.06-.8.04-.36,0-.73.04-1.09.08-.18.02-.33.08-.51.1-.18.02-.36,0-.54.02-.18-.02-.33.04-.51.03-.15.02-.29.04-.44.03-.08.03-.15.02-.22.02-.08.03-.11.03-.18.02-.36,0-.76.04-1.12,0l-.8.04c-.33.04-.66.05-.98.05-.47,0-.91.02-1.34.06-.15.02-.33,0-.5,0h-.07c-.21-.03-.43-.01-.65-.03l-1.43-.13c-.11,0-.25-.02-.39-.04l-1-.09c-.18-.02-.35-.07-.5-.12-.18-.05-.27-.17-.37-.32,0-.04-.03-.08-.03-.11-.02-.15-.2-.2-.22-.35.11-.06.13-.21.17-.31v-.07c-.08-.22.04-.32.15-.42.12-.13.3-.12.4-.07.18.05.32.07.46.08.11,0,.21.06.35.1.04,0,.1.05.18.05.25-.01.47,0,.72.03.21.02.43.08.64.1.07,0,.1.04.18.05.3-.08.61.02.93.05.36,0,.75.07,1.16,0,.18-.02.36,0,.58-.02h1.05c.18,0,.35.06.51-.04h.04c.32.03.62-.08.95-.09.15-.02.33,0,.47-.03.25.02.5.01.76.03.11-.03.18-.02.26-.05.04,0,.07-.03.11-.03.32.03.62-.02.95-.09l.66-.05s.11-.03.18-.02c.22-.09.45-.17.69-.08.04,0,.07,0,.11,0l.67-.16s.04-.03.08-.03c.14.08.26-.05.4-.04l.4-.04c.26-.05.54-.02.77-.15.04,0,.07,0,.11-.03.22-.02.43,0,.66-.05.22-.05.44-.03.66-.12.26-.12.56-.17.85-.21.15-.02.26-.05.41-.11.22-.05.44-.1.66-.08.08-.03.11-.03.18-.02.19-.09.37-.07.55-.09l.59-.09s.11,0,.18-.02c.04,0,.07-.03.08-.06,0-.04-.03-.08-.06-.11-.14-.08-.31-.17-.49-.23l-.56-.16c-.28-.06-.56-.23-.83-.37-.34-.18-.66-.31-1.01-.38-.28-.06-.48-.26-.73-.36-.34-.18-.73-.32-1.07-.5-.07,0-.14-.01-.18-.02l-1.17.18c-.22.05-.48.06-.73.11l-.62.05s-.08.03-.11.03c-.25-.02-.47.03-.72-.03-.39-.07-.79-.04-1.18-.11-.25-.02-.53-.09-.78-.14-.32-.1-.64-.17-.92-.26-.07-.04-.1-.05-.14-.05l-.45-.26c-.18-.05-.34-.21-.47-.37-.12-.23-.25-.46-.3-.68-.03-.11-.02-.22.03-.36,0-.07.02-.18.06-.25.13-.21.18-.42.21-.67.16-.13.24-.27.39-.36.27-.19.34-.19.7-.19h.11c.14.06.28.11.43.09l.64.06c.1.05.18.05.25.06.17.09.35.1.5.12l.5.05c.35.07.67.17.98.34.21.09.42.15.6.16.28.1.56.16.8.33.14.08.28.13.42.15.18.05.28.1.41.22.24.17.49.23.79.07l.86-.32c.08-.03.11-.06.19-.06.11-.03.22-.09.34-.15s.22-.05.34-.11c.22-.05.41-.18.6-.23l.23-.09s.07,0,.07-.03c.16-.13.38-.15.57-.27.16-.13.38-.18.54-.31.3-.15.6-.27.9-.39,0-.04.04-.07.08-.07.12-.13.13-.21-.01-.25-.24-.09-.46-.15-.67-.21l-.62-.27c-.07,0-.1-.05-.14-.05-.25-.06-.5-.08-.75-.14l-.67-.17c-.24-.09-.46-.15-.7-.21-.11,0-.21-.06-.32-.1-.07-.04-.14-.05-.24-.09-.1-.05-.25-.06-.35-.1-.42-.18-.87-.37-1.33-.48-.11-.01-.21-.09-.31-.14-.53-.16-1.05-.39-1.58-.51-.35-.1-.73-.28-1.12-.39-.18-.02-.35-.11-.52-.19-.24-.09-.49-.19-.74-.25-.42-.11-.81-.22-1.24-.33l-.42-.15c-.6-.2-1.2-.33-1.84-.42-.46-.08-.92-.19-1.38-.27-.21-.02-.43-.04-.64-.1-.11,0-.25-.02-.39-.07-.18-.05-.35-.11-.57-.12-.5-.08-1-.16-1.49-.32-.14-.01-.29-.03-.43,0-.07,0-.18-.02-.25-.06-.13-.12-.3-.28-.43-.44-.1-.08-.13-.19-.08-.3.17-.31.34-.58.61-.77.23-.12.45-.18.7-.19l.25.02ZM30.27,159.1v-.04c-.07.03-.18.02-.25.05-.11,0-.15.09-.09.17.13.19.29.39.54.41.39.07.74.21,1.14.18.11-.03.18-.02.25.02.25.06.47,0,.72,0,.04,0,.07-.03.11-.06-.03-.04-.03-.08-.06-.08l-.1-.08c-.28-.06-.52-.26-.8-.33-.14-.05-.24-.09-.38-.14l-1.08-.1Z"/>
  <path class="cls-1" d="M43.21,148.22c0-.4.07-.76.06-1.12.02-.29-.04-.59-.05-.89.04-.4-.03-.81.04-1.2.05-.25.1-.53.25-.72.04-.03.05-.06.05-.1.05-.06.06-.13.1-.16.09-.09.17-.15.26-.21.09-.09.24-.1.37-.04.2.11.24.3.31.5.02.08,0,.15.02.26.02.11.04.19.1.27.12.13.13.28.1.46,0,0-.04.03-.05.06.05.34-.09.68-.08,1.01.02.3-.04.62-.02.91-.02.29.04.59-.1.9v.07c.02.23.01.44.04.67.07.2,0,.37-.1.53-.06.1-.19.22-.35.3-.12.05-.17.15-.24.29,0,.04-.01.07-.06.13-.08.21-.24.29-.44.21-.13-.06-.25-.05-.4-.04-.08.02-.15,0-.18,0-.33-.02-.61-.08-.93-.14-.38-.11-.78-.15-1.15-.29h-.25c-.07-.02-.11,0-.19.03-.28-.05-.6-.11-.93-.14-.18-.03-.36-.03-.54-.06l-1.24-.23c-.25-.05-.49-.13-.74-.17-.14-.03-.33-.02-.47-.05-.31-.1-.59-.15-.91-.21h-.07c-.56-.16-1.09-.25-1.65-.4-.18-.03-.32-.06-.49-.13-.14-.03-.24-.08-.38-.11-.28-.05-.57-.11-.85-.16l-.97-.29c-.28-.09-.52-.17-.8-.22-.42-.12-.86-.27-1.29-.35l-.71-.13c-.35-.1-.7-.17-1.05-.27-.11-.02-.21-.04-.32-.06l-1.1-.21s-.11-.02-.18-.03l-.8-.04c-.11-.02-.21-.04-.33-.02l-.11-.02c-.1-.05-.21-.04-.32-.06-.22,0-.43-.04-.61-.08-.04,0-.11-.02-.1-.06-.11-.17-.36-.25-.43-.45-.09-.13-.1-.24-.03-.41.08-.21.08-.42.09-.68-.02-.26.03-.54.04-.8l.09-1.63c0-.22.04-.43.05-.65,0-.04-.03-.04-.02-.08.09-.5.16-1.03.29-1.52.11-.38.32-.75.72-.93.04-.03.08-.06.16-.04.21.04.42.08.58.22.09.13.21.44.18.62-.07.17-.1.35-.06.54l-.02.11c-.08.24-.06.54-.12.82,0,.22-.05.47-.1.71l-.03.14c.05.3.06.63-.06.91l-.02.11c0,.18.01.33-.02.47-.07.17-.07.35-.06.54-.05.25.17.44.33.61.03.04.1.06.17.07.3-.02.58.04.86.09.14.03.33.03.47.05.11.02.17.07.28.09.46.08.96.18,1.42.26l1.27.24c.32.06.66.2,1.01.3.32.06.63.16.94.25.66.2,1.34.29,2,.45.42.08.81.15,1.19.3l.42.08c.64.12,1.24.23,1.88.35l.11.02c.11.02.15-.04.17-.15.02-.33.05-.65.07-.94l.04-1.38c0-.18,0-.37.02-.51.02-.33.11-.6.31-.86.13-.09.23-.25.32-.34.13-.12.17-.15.34-.05.04,0,.1.05.17.07.11.02.16.1.19.18.07.2.19.36.15.54-.01.25.03.44.09.68.04.15.02.3-.02.47-.02.29-.04.58-.08.83,0,.15-.02.29-.04.4l.04.19c.04.19.06.45.17.66.05.12.06.27.1.42,0,.15.1.24.28.27.39.07.82.12,1.22.15l.78.15c.28.09.56.14.82.12.11.02.18.03.25.05l.64.12c.07.01.12-.05.13-.12.02-.11.03-.18.05-.28h.04Z"/>
  <path class="cls-1" d="M43.38,140.81c-.59-.15-1.14-.33-1.7-.48-.24-.06-.44-.15-.64-.24-.14-.04-.29-.04-.43-.07-.04,0-.11,0-.17-.04-.12-.11-.27-.11-.41-.14-.1-.03-.23-.1-.37-.13-.43-.07-.87-.23-1.29-.33-.24-.06-.48-.16-.69-.21-.14-.04-.29-.04-.43-.07l-.07-.02c-.26-.14-.57-.11-.86-.26-.27-.11-.56-.14-.87-.23-.44-.15-.93-.28-1.37-.47-.3-.12-.62-.2-.93-.28-.24-.1-.5-.21-.75-.27-.03-.04-.06-.05-.1-.06-.31-.08-.59-.15-.9-.27-.24-.1-.47-.2-.75-.27-.23-.1-.51-.17-.75-.27-.17-.05-.34-.12-.51-.17-.17-.04-.36-.05-.53-.1-.21-.05-.38-.13-.57-.22-.17-.08-.38-.13-.55-.18-.27-.11-.55-.18-.85-.29-.14-.04-.27-.11-.4-.18-.23-.1-.5-.24-.78-.16-.08.02-.11,0-.17-.04-.02-.08-.08-.13-.1-.18,0-.11-.06-.2-.15-.3-.11-.14-.15-.26-.11-.44.03-.1.04-.17,0-.26,0-.04,0-.11.03-.11.16-.18.25-.38.49-.47.2-.06.33-.14.5-.21.1-.09.17-.1.28-.08.14.04.28.07.4.03l.11.03c.27.26.59.3.95.36.24.06.46.08.71.15l1.26.44c.1.03.16.11.26.14.23.1.47.2.78.16.04-.03.1.03.17.05.1.03.17.08.27.11.23.13.5.24.73.34.14.04.24.1.37.17.17.04.38.1.56.14l.1.03c.23.13.43.22.7.18.11,0,.22.02.34.12,0,0,.03,0,.06.05.2.09.4.18.6.27l.21.05c.16-.03.3,0,.42.11l.1.03c.31-.03.56.14.87.23.21.05.4.18.63.16.15,0,.28.07.41.14.06.05.17.04.24.06.14.04.24.06.38.13.14.04.27.11.43.07.04-.03.11,0,.15,0,.21.05.44.15.65.21l.63.16c.28.07.55.18.86.26.1.03.21.05.32.05.25.03.46.08.67.14.13.07.28.07.43.07l.24.06c.07.02.14.04.22.02.11,0,.22.02.31.08.16.12.29.19.45.27.04,0,.07.02.1.03l1.12.29c.17.04.23-.02.26-.15.04-.17.06-.36.1-.53.07-.28.07-.58.08-.87.03-.4.05-.77.04-1.18.03-.1-.02-.23-.02-.34-.06-.2-.07-.43-.06-.61,0-.26-.02-.49,0-.71-.02-.08,0-.11.04-.14.03-.1.08-.17.06-.24-.03-.04-.02-.08.03-.1.04-.14.11-.27.14-.41q.08-.17.26-.16c.11,0,.23-.02.35.09.03.04.1.06.14.04.2-.06.37.02.53.1.17.04.24.21.24.36-.01.18-.02.37-.06.51-.05.21-.06.39,0,.56.09.1.09.21.09.36-.02.07.03.16.05.24.08.13.08.28,0,.41-.03.1-.02.22.01.38.08.28.07.61.05.94-.04.14-.03.25,0,.41-.01.18-.06.36-.11.57-.04.03-.06.09-.04.14.06.2-.02.37-.04.58-.04.17-.13.37-.19.58-.06.24-.18.4-.3.59-.06.1-.16.18-.28.22-.26.16-.53.31-.78.43-.09.05-.17.07-.25.08-.25.08-.48.14-.73.11-.32-.05-.66-.02-.93-.13Z"/>
  <path class="cls-1" d="M38.02,126.69c.33.15.65.22.97.4.06.06.18.02.24.08.35.2.75.25,1.12.38.63.17,1.21.37,1.83.54.1.03.17.06.28.06.23,0,.44.04.66.07l.61.09c.07.02.15.01.22.04s.14.05.22.04c.21-.04.44.04.67.04.22.04.46,0,.68,0,.24-.03.47-.03.69-.03.23,0,.44-.08.66-.16.18-.09.35-.15.53-.2.04-.02.12-.03.14-.07.3-.2.55-.38.81-.6.1-.08.15-.22.18-.32.13-.26.22-.53.16-.82-.02-.16-.06-.28-.08-.44l-.34-1.03c-.08-.22-.17-.4-.28-.63-.07-.14-.18-.25-.25-.39-.12-.19-.2-.41-.33-.61l-.2-.41c-.03-.13-.11-.23-.15-.35-.07-.14-.02-.16.08-.24.09-.04.18-.09.31,0,.2.07.41.14.59.28.06.06.12.08.16.09.17.06.29.14.41.25.19.22.43.41.57.69.04.09.1.15.2.18.12.08.17.17.24.31.11.23.21.49.42.67.03.01.06.06.04.09.01.19.19.33.21.49.07.14.12.31.12.42.05.4.11.8,0,1.22-.1.53-.29,1.08-.6,1.54-.07.09-.18.2-.29.28l-.34.34c-.07.09-.16.14-.25.18-.22.08-.41.2-.59.29l-.31.12c-.17.06-.35.15-.52.2l-.17.06c-.16.02-.32.04-.46.11-.03-.01-.05.02-.05.02-.22-.04-.4.05-.6.1-.23,0-.44-.04-.64-.03-.15-.01-.27.02-.43.04-.24.03-.51.05-.8,0-.23,0-.43-.07-.66-.07-.1-.04-.22-.04-.33-.04-.3-.02-.58-.08-.84-.09-.19,0-.36-.05-.53-.11-.07-.02-.19.01-.3-.02-.35-.08-.66-.18-.97-.29-.52-.14-1-.3-1.51-.47-.61-.21-1.26-.43-1.86-.67-.33-.15-.62-.29-.94-.47-.14-.05-.27-.09-.4-.17-.23-.12-.44-.26-.67-.38-.28-.17-.57-.34-.85-.52l-.65-.45c-.18-.14-.32-.3-.48-.39-.06-.06-.16-.09-.22-.15-.27-.21-.5-.43-.68-.69-.08-.1-.16-.21-.25-.27-.25-.16-.42-.45-.63-.71-.08-.1-.16-.21-.25-.27-.04-.09-.14-.16-.18-.25-.08-.22-.2-.41-.38-.55l-.02-.05c-.11-.23-.24-.42-.32-.64-.02-.05-.06-.06-.04-.09-.1-.38-.21-.72-.28-1.08-.06-.17-.04-.32-.03-.47.01-.03,0-.11-.02-.16-.04-.21-.04-.43-.05-.63,0-.23.05-.48.12-.68.09-.39.21-.73.34-1.1.05-.14.1-.31.22-.42.24-.26.45-.53.62-.82.01-.03.07-.09.11-.11.01-.03.08-.01.11,0,.1.03.23.11.34.12.2.07.25.27.3.45.01.08.02.16.04.21.09.3,0,.54-.24.72-.16.14-.26.33-.32.5-.12.23-.2.47-.21.73l-.06.17c-.08.12-.14.29-.13.49l.03.24c.06.17.11.34.09.52-.06.17,0,.34.11.46.06.06.07.14.11.23l.15.35c.04.09.14.16.23.23.18.14.36.27.44.49.04.09.14.16.23.23.24.2.37.47.57.69.03.01.06.06.08.1.04.09.1.15.17.17.1.03.16.09.25.16.17.17.39.32.53.56l.1.04c.22.15.4.29.62.4.25.16.45.34.71.47.19.1.33.26.52.37l.51.29c.17.06.34.12.5.21.12.08.29.14.47.2l.31.1Z"/>
  <path class="cls-1" d="M43.07,109.75c.23.1.45.15.65.23l.9.37s.02.05.07.03c.39.08.75.35,1.12.5.23.1.42.29.66.39.12.17.3.2.47.27.13.05.25.14.37.23.12.17.31.29.5.4.3.2.63.46.89.76.07.11.16.18.25.26.14.22.27.38.38.59.05.06.06.14.08.19,0,.11.03.21.1.32.09.07.11.2.1.32.02.24.05.53,0,.78-.04.18-.07.36-.06.52-.02.15,0,.31.03.48-.01.03,0,.08.03.13.01.16-.05.21-.19.27-.05.02-.13.03-.19.08-.08,0-.15.09-.18.16-.1.15-.22.26-.35.36-.06.05-.07.17-.18.16,0,0-.06.05-.04.1,0,.11-.07.17-.13.22-.16.09-.29.23-.46.28-.06.05-.12.11-.22.14,0,0-.01.03-.06.05-.51.29-1.03.51-1.64.38l-.41-.05c-.33-.06-.67-.08-.96-.13l-.17-.07c-.11,0-.21-.05-.33-.06-.07-.03-.13-.06-.25-.06-.27-.11-.55-.19-.86-.28l-.47-.19c-.42-.21-.87-.44-1.28-.68-.44-.26-.83-.54-1.22-.82-.25-.14-.49-.32-.73-.5-.21-.16-.39-.28-.55-.46-.25-.26-.54-.49-.81-.77-.14-.13-.28-.35-.41-.52-.05-.06-.07-.11-.09-.16-.4-.36-.54-.85-.82-1.31-.12-.17-.16-.38-.17-.62-.03-.21-.06-.42-.19-.58-.07-.11-.06-.22-.08-.38,0-.11.07-.17.15-.17l.09-.04c.28.08.42-.18.59-.3l.32-.22c.31-.18.63-.4,1-.52.28-.12.58-.27.91-.32.13-.03.29-.04.45-.05.16-.01.32-.02.5-.07.25-.05.47,0,.69.01.15.02.27,0,.42.02.29.04.6.05.89.1.33.06.62.1.87.25ZM42.18,110.67c-.15-.02-.27-.11-.41-.13-.37-.04-.76-.04-1.1-.07-.18-.04-.36-.07-.53-.03-.42.06-.81.25-1.21.39-.24.1-.3.34-.23.57.06.14.07.3.05.45-.02.34.05.64.24.92.05.06.09.16.11.2-.02.23.09.35.24.45.34.3.66.66,1,.96.3.32.67.55.98.83.32.25.66.39,1,.61.3.2.64.34.9.57l.1.04c.13.05.33.06.42.21-.01.03.07.03.1.04.37.15.73.3,1.11.42.45.15.86.28,1.3.34.15.02.23.02.37-.04.13-.02.24-.1.36-.2.4-.3.59-.77.77-1.2.08-.2.13-.41.13-.61.06-.33.05-.6-.1-.9-.1-.24-.24-.45-.33-.72-.08-.19-.24-.37-.41-.52l-.85-.67c-.19-.12-.37-.23-.58-.39-.12-.09-.3-.12-.45-.23-.23-.1-.45-.23-.67-.36-.29-.16-.59-.36-.95-.43-.28-.08-.55-.19-.79-.36l-.07-.03c-.17.04-.33-.06-.49-.13Z"/>
  <path class="cls-1" d="M45.93,108.03c-.42-.22-.83-.43-1.21-.63l-.22-.12c-.05-.07-.08-.08-.11-.1l-1.44-.75c-.16-.08-.27-.18-.43-.26-.25-.13-.53-.23-.77-.4l-1.02-.53c-.06-.03-.08-.08-.11-.1-.45-.23-.86-.45-1.29-.71-.29-.15-.56-.33-.83-.51-.11-.1-.27-.18-.4-.25-.24-.17-.46-.28-.7-.45-.24-.17-.51-.35-.8-.5-.11-.1-.27-.18-.38-.28-.24-.17-.28-.39-.31-.65l.07-.13c.1-.03.18-.11.28-.14.08,0,.15-.05.21-.09.1-.11.24-.16.39-.12l.4-.08c.13-.01.23-.04.32-.08.23-.04.4-.07.6-.14.13-.01.26-.03.37-.01l.18-.03c.48-.07,1.03-.03,1.53-.06.19.02.39.04.56,0,.03.02.08,0,.14.03.35.1.69.08,1.08.11l.42-.03s.08,0,.11.02c.26.13.55.04.8.09.03.02.08,0,.11.02.26.13.5.14.75.19.08,0,.14.03.24,0,.45-.09.92.03,1.38.15.55.12,1.09.16,1.67.22l.43.1c.11.02.26.05.42.05.11.02.29-.01.45.07.03.02.13-.01.21-.01.03.02.1-.03.16,0,.27.1.58.06.85.08.05-.02.08,0,.1-.03.08,0,.21-.01.31-.04-.01-.13-.09-.21-.17-.29-.17-.21-.4-.41-.6-.64l-.55-.65c-.22-.28-.47-.57-.71-.82-.14-.2-.38-.36-.52-.55-.13-.15-.24-.33-.4-.49l-.14-.2c-.22-.28-.47-.57-.71-.9-.11-.1-.21-.23-.3-.36-.12-.23-.28-.47-.46-.68-.28-.39-.57-.78-.8-1.19-.06-.11-.19-.18-.27-.26-.11-.18-.27-.34-.38-.52-.13-.15-.25-.29-.35-.42l-.14-.2c-.19-.34-.42-.67-.66-.99-.03-.02-.05-.07-.08-.08l-.74-1.23c-.11-.18-.22-.36-.3-.52-.05-.07-.08-.16-.09-.29-.03-.1-.04-.23-.06-.35-.06-.36.06-.66.22-.98.05-.1.28-.14.39-.12.27.1.51.18.7.36.08.08.19.1.32.17.1.05.21.07.34.14.18.05.34.13.51.18l.06.03c.26.13.53.31.78.45.1.05.19.1.3.12.54.2,1.06.47,1.57.73l.86.45c.13.07.25.13.42.14l.14.03c.22.2.51.27.77.4.33.21.69.32,1.06.47.24.08.45.23.69.4l.1.05c.31.04.53.23.77.4.17.13.32.25.48.33.08.08.21.15.3.2.16.08.32.17.48.25l.13.07c.51.27.99.51,1.45.79.13.07.3.12.35.26l.1.05c.16,0,.27.1.38.2.1.05.19.1.3.12.14.03.22.12.3.2.03.02.05.07.1.05.22.12.38.28.57.38s.4.25.59.35c.06.03.16.08.21.15l.03.02c.34.13.61.4.97.55.26.05.54.2.73.38l.19.1c.4.17.72.41,1,.72.14.11.3.2.45.31.17.13.35.26.53.39l.11.1c.27.1.36.39.51.59.06.11,0,.32-.17.4-.07.05-.16.08-.26.11l-.47.12c-.15.05-.32.08-.48,0-.11-.02-.21-.07-.32-.09-.24-.08-.43-.26-.69-.4-.13-.07-.26-.13-.37-.23-.16-.08-.29-.15-.43-.26-.27-.26-.64-.41-.97-.63l-1.04-.66c-.27-.18-.54-.36-.85-.56l-1.1-.69s-.06-.03-.08-.08c-.37-.31-.81-.54-1.24-.81-.33-.21-.64-.41-.99-.59-.11-.1-.21-.15-.33-.21-.32-.17-.64-.33-.97-.55-.22-.12-.4-.25-.62-.36-.03-.02-.06-.03-.08-.08-.21-.23-.48-.33-.7-.45-.45-.23-.89-.46-1.33-.65-.26-.13-.53-.23-.78-.37-.21-.07-.4-.17-.56-.25l-1.57-.81c-.3-.12-.61-.23-.9-.38-.24-.08-.46-.2-.69-.32-.06-.03-.11-.02-.16,0v.13c.09.16.17.33.31.44.22.2.4.49.55.73.24.33.44.63.71.9.16.16.29.31.41.54s.35.42.47.65l.2.31c.41.54.72,1.11,1.18,1.55l.08.16c.14.28.36.47.57.7l1.31,1.53c.24.25.41.54.62.77.05.07.09.13.13.15.3.28.57.62.82.91.29.31.62.61.9.92l.32.25c.06.03.1.05.13.07l1.06.31s.05-.01.08,0c.45.23.93.32,1.36.58-.02.03.01.05.06.03.38.12.7.36,1.09.56.11.1.25.21.35.34.02.05.05.07.08.08.24.08.38.36.62.44.03.02.05.07,0,.08-.08.08-.03.14.01.21.05.07.11.18.19.26s.11.18.09.29c-.02.11,0,.24.09.37.03.02.06.11.01.21l-.18.35c-.03.14-.12.22-.28.22-.18.03-.26.19-.39.28-.11.06-.16.08-.27.06-.14-.03-.29.01-.45,0-.13.01-.27-.02-.39-.04-.19-.02-.34-.05-.51-.1l-.26-.13c-.16-.08-.32-.17-.46-.28-.19-.1-.38-.2-.57-.38-.16-.16-.38-.28-.56-.41-.33-.21-.56-.49-.83-.75-.17-.21-.36-.39-.51-.59-.08-.08-.19-.18-.24-.25-.09-.13-.19-.18-.33-.21-.24-.08-.5-.14-.75-.19l-.39-.04c-.27-.02-.55-.04-.8-.09-.3-.04-.61-.07-.95-.05-.35-.02-.69-.08-1.06-.15-.29-.07-.59-.11-.92-.11-.24,0-.51-.02-.74-.06-.35-.02-.71-.04-1.06-.14l-.77-.16s-.11-.02-.16,0c-.48,0-.98-.06-1.46-.15-.21-.07-.47-.12-.72-.09l-.51-.02c-.34-.05-.69-.08-1.04-.1-.23-.04-.4-.09-.61-.07l-.74.02s-.1.03-.11.06c0,0,.02.05.05.07.05.07.11.1.17.13.3.12.59.27.86.45.21.15.45.23.64.33l.19.1s.05.07.08.08c.61.23,1.15.6,1.73.9.46.2.91.43,1.34.7l.74.38c.42.21.83.43,1.26.7.16.08.38.12.56.25.24.17.53.31.78.45.5.22,1.01.48,1.5.7.35.18.69.32,1.04.5.4.17.75.35,1.13.55.13.07.27.1.4.17.3.2.61.32.94.45l.38.2c.06.03.18.05.27.1.19.1.37.23.56.33.06.03.13.07.18.05.26.05.46.2.7.37.11.1.21.15.37.15.18-.03.27.1.38.2.06.03.11.1.18.13.11.02.16.08.24.17.03.1.09.13.17.13.21-.01.29.15.38.28.05.07.05.15.01.21-.21.25-.47.44-.8.44h-.72c-.21,0-.35-.03-.55-.13-.35-.18-.72-.33-1.07-.52-.13-.07-.24-.17-.37-.23l-.03-.02c-.21-.07-.43-.18-.62-.28-.22-.12-.48-.17-.69-.32-.06-.03-.13-.07-.21-.07-.22-.12-.5-.22-.72-.33-.56-.25-1.15-.52-1.69-.8-.08,0-.14-.04-.18-.05-.42-.21-.85-.4-1.31-.6l-.93-.48c-.1-.05-.22-.12-.35-.18ZM55.48,104.39c-.16-.08-.35-.18-.53-.23-.21-.07-.4-.17-.61-.24-.14-.03-.21.01-.18.19.02.05.03.1.08.16.14.11.25.29.46.36.03.02.05.07.08.08.17.21.33.46.6.56,0,0-.02.03.02.05.06.11.19.18.32.25.1.05.19.1.27.18.16.08.26.05.31-.12.03-.06.03-.14.04-.23.03-.14.02-.27-.07-.4-.24-.25-.49-.46-.78-.61Z"/>
  <path class="cls-1" d="M63.72,95.24c.15-.37.35-.67.48-1.02.13-.26.19-.56.29-.84.18-.35.28-.76.49-1.1.14-.21.29-.45.5-.58.05-.01.07-.04.09-.07.07-.04.11-.1.16-.11.12-.05.22-.07.32-.1.12-.05.26,0,.36.1.14.18.11.37.1.58,0,.08-.05.14-.08.25s-.04.19-.02.29c.06.17.02.31-.08.46,0,0-.05.01-.07.04-.08.33-.34.59-.45.91-.1.28-.27.55-.37.83-.12.26-.19.56-.43.8l-.04.06c-.06.22-.14.42-.2.64,0,.21-.13.34-.29.45-.09.07-.26.13-.44.15-.13,0-.22.07-.33.18-.02.03-.04.06-.11.1-.15.16-.33.17-.49.03-.1-.11-.21-.14-.35-.18-.08,0-.14-.05-.17-.07-.29-.14-.54-.3-.81-.48-.31-.24-.67-.43-.96-.7l-.23-.11c-.06-.04-.11-.03-.19-.04-.24-.16-.52-.33-.81-.48-.15-.1-.32-.17-.47-.26l-1.06-.68c-.21-.14-.41-.3-.62-.44-.12-.08-.29-.14-.41-.22-.25-.21-.5-.36-.77-.54l-.06-.04c-.47-.34-.92-.63-1.38-.97-.15-.1-.27-.17-.41-.3-.12-.08-.19-.17-.31-.24-.24-.16-.48-.31-.73-.47l-.79-.64c-.22-.19-.42-.35-.66-.51-.34-.26-.7-.58-1.06-.81l-.61-.39c-.28-.22-.59-.42-.87-.64-.09-.06-.18-.12-.27-.17l-.94-.6-.15-.1-.72-.34c-.09-.06-.18-.12-.29-.15l-.09-.06c-.07-.09-.18-.12-.27-.18-.2-.09-.38-.2-.53-.3-.03-.02-.09-.06-.07-.09-.04-.2-.24-.37-.23-.58-.03-.15,0-.26.12-.39.15-.16.23-.36.34-.59.08-.25.23-.49.34-.72l.69-1.48c.09-.2.2-.38.29-.58.02-.03-.01-.05,0-.08.27-.42.53-.9.84-1.3.24-.31.58-.57,1.02-.59.05-.01.1-.02.16.02.18.12.36.23.46.42.03.15.03.49-.07.64-.13.13-.22.28-.26.47l-.06.09c-.17.19-.26.47-.42.72-.09.2-.22.41-.36.63l-.08.12c-.07.3-.18.61-.4.82l-.06.09c-.07.17-.11.31-.19.43-.13.13-.19.3-.26.47-.14.21,0,.47.07.69.01.05.07.09.13.13.28.09.52.25.77.41.12.08.29.15.41.22.09.06.13.13.22.19.39.25.82.52,1.21.78l1.09.7c.27.17.54.43.82.65.27.18.53.38.78.59.54.43,1.13.77,1.69,1.17.36.23.7.45.99.72l.36.23c.55.35,1.06.68,1.61,1.03l.09.06c.09.06.16.02.22-.07.14-.29.29-.58.42-.85l.56-1.27c.07-.17.13-.34.21-.46.14-.29.33-.51.61-.68.15-.03.31-.14.43-.2.17-.06.22-.07.33.08.03.02.07.09.13.13.09.06.11.16.1.24,0,.21.04.41-.06.56-.11.23-.14.42-.17.66-.02.16-.09.28-.19.43-.12.26-.25.52-.39.74-.05.14-.12.26-.18.35l-.04.19c-.04.19-.11.44-.09.67,0,.13-.05.27-.06.43-.05.14,0,.26.16.36.33.21.72.42,1.07.6l.67.43c.22.19.47.34.72.42.09.06.15.1.21.14l.54.35c.06.04.13,0,.17-.06.06-.09.1-.15.16-.24l.03.02Z"/>
  <path class="cls-1" d="M77.73,78.92c-.1.11-.17.24-.29.37-.05.05-.12.08-.2.11-.15,0-.28.09-.37.2-.02.03-.1.06-.1.06-.2,0-.4.07-.56.03-.08-.02-.18-.02-.23-.01-.25.01-.46-.03-.64-.15-.13-.07-.24-.17-.34-.21-.24-.22-.53-.43-.77-.65-.4-.31-.75-.63-1.12-.96-.48-.38-.88-.8-1.36-1.18l-.85-.77c-.53-.48-1.04-.94-1.55-1.45-.27-.24-.56-.51-.8-.78l-.62-.71c-.11-.1-.16-.2-.24-.27-.19-.22-.4-.41-.59-.63-.14-.17-.3-.32-.46-.46-.14-.17-.27-.29-.41-.46l-.72-.65c-.11-.1-.16-.2-.27-.29l-.43-.39c-.24-.22-.5-.41-.75-.63-.35-.37-.75-.68-1.07-1.07-.11-.15-.27-.24-.4-.41l-1.33-1.21c-.24-.22-.46-.46-.7-.68-.19-.17-.22-.4-.26-.62,0-.15.07-.23.19-.26.15,0,.28-.09.37-.2l.41-.45c.17-.19.36-.4.56-.56.29-.22.54-.43.86-.63.15-.06.32-.19.44-.33.15-.11.35-.22.55-.23.02-.03.08-.03.1-.06.2-.11.4-.22.62-.31.13-.03.28-.09.45-.12.38-.04.78-.17,1.16-.16.28.01.51-.03.74.09.1.04.21.04.33.06l.23.06c.13.02.26.04.36.08.23.06.42.13.6.2.06.15.18.12.26.14l.31.14c.05.05.13.07.18.12.13.07.21.19.37.24l.03.02c.13.02.14.22.27.24.13.02.23.12.32.19.16.14.29.27.45.36.21.14.25.37.36.52.03.02.03.08.06.1.16.14.27.29.35.47.06.1.14.17.19.27l.41.51c.17.25.33.49.55.74,0,.05,0,.1.03.18,0,.05.06.1.08.17l.03.18c.04.23.12.4.21.58l.08.07c.04.28.13.55.2.86.03.13.04.28.1.38.2.37.24.75.34,1.13s.12.78.16,1.17c.01.25.03.51.06.74-.02.18-.03.36-.08.51,0,.1-.02.18-.01.23-.02.18,0,.38-.03.51-.02.13-.07.23.04.33.13.07.26.04.36-.02.17-.09.3-.17.45-.28.2-.11.42-.2.65-.24.1,0,.2-.06.33-.09.2-.06.4-.12.61-.08.15,0,.28.01.41-.02.26.04.47.13.67.22.24.12.47.23.63.43.03.02.1.05.13.07l.13.12c.03.08.08.12.14.17.05.05.13.12.11.2,0,.05.06.1.08.07.1-.06.13.02.16.09.05.05.08.12.14.17.27.24.31.57.4.9,0,.15.01.31.07.46.06.1.09.22.04.33-.07.18-.08.36-.03.51,0,.1,0,.15-.04.21l-.16.34c-.05.1-.07.18-.06.28,0,.2-.11.39-.2.55-.14.21-.31.45-.48.69l-.05.05c-.04.21-.21.34-.36.5ZM71.76,74.25l.02-.03.27.24s.08.02.08.02c.02-.03.02-.08.02-.08l-.04-.28c-.01-.2-.02-.46-.06-.69l-.02-.46c.02-.18,0-.38-.05-.58,0-.05,0-.1.02-.18,0-.1.01-.23-.02-.36.02-.13-.04-.23-.04-.38,0-.1.04-.21.01-.28-.06-.25,0-.48-.04-.71-.02-.36-.06-.69-.15-1.01-.12-.35-.14-.71-.31-1l-.03-.02-.39-1.08c-.03-.13-.08-.17-.09-.28-.09-.28-.21-.53-.34-.75-.17-.3-.33-.54-.53-.82l-.08-.07c-.13-.07-.21-.19-.3-.32-.24-.27-.46-.51-.68-.81l-.05-.05c-.18-.07-.29-.21-.4-.31-.26-.19-.5-.36-.79-.47l-.34-.21c-.16-.04-.26-.09-.39-.11-.21-.04-.41-.03-.62-.12-.28-.06-.54,0-.81.04-.48.05-.88.27-1.25.57l-.93.71c-.27.19-.49.43-.55.82-.06.23-.03.46.13.6.24.27.49.54.78.75.29.27.61.5.88.8l.35.31c.11.1.24.17.34.26l.72.65c.11.1.21.19.3.32.21.19.4.36.59.53l.21.19c.16.09.32.19.35.37.03.13.11.2.21.19l.13.12c.27.29.57.61.89.9.16.09.27.24.4.36.08.07.11.2.19.27.19.17.35.37.56.56l.05.05c.14.17.27.29.4.41.29.21.56.46.77.7l.59.68ZM75.69,77.8l.29.27c.08.02.13.02.18-.03.02-.03.05-.05.04-.1.04-.16.16-.29.26-.4.1-.11.22-.19.34-.32.05-.05.07-.18.14-.26.02-.08.09-.16.17-.24.05-.1.07-.18.14-.26.12-.24.23-.47.3-.7.04-.21.03-.46-.04-.71s-.2-.42-.34-.65c-.25-.32-.61-.45-.99-.51-.02.03-.08.03-.1,0-.38.09-.73.16-1.03.33-.17.08-.3.17-.45.28-.1.06-.2.16-.29.22-.27.19-.54.38-.78.65-.05.05-.12.08-.14.16-.02.03-.05.1-.02.13.06.1.16.2.22.29.11.1.21.14.29.21.16.14.32.34.48.49.24.22.48.38.67.6l.21.19c.16.09.32.24.45.36Z"/>
  <path class="cls-1" d="M86.69,68.08c-.07-.08-.17-.18-.24-.37-.12-.23-.27-.44-.41-.7l-.53-.88c-.12-.18-.24-.36-.39-.52-.07-.13-.17-.23-.27-.34-.02-.03-.05-.05-.05-.1-.07-.08-.1-.16-.17-.23-.27-.34-.51-.65-.76-1.02-.05-.1-.27-.19-.4-.12-.13.07-.29.17-.34.32-.11.1-.19.22-.31.24-.05,0-.1.05-.13.07-.11.15-.24.27-.4.42-.13.12-.29.27-.44.37-.05.05-.08.12-.11.2-.03.13-.14.28-.22.4-.13.12-.24.22-.34.37-.11.15-.24.32-.32.5-.08.07-.11.15-.13.23-.05.1-.06.2.02.28.2.16.37.39.57.5.05,0,.08.03.1.05.22.29.52.5.77.71l.05.05c.24.31.57.5.89.74.17.18.35.32.54.48l.4.27c.05,0,.1,0,.13.03.2.21.42.35.59.58.12.13.12.28.14.46-.03.02-.03.08-.05.1-.13.07-.26.14-.39.11-.1-.05-.2,0-.31.04-.31.19-.64.16-.97-.03l-.05-.05c-.05-.1-.15-.16-.22-.19-.13-.03-.25-.11-.38-.14-.08-.03-.12-.08-.2-.11-.13-.03-.23-.13-.3-.21-.15-.11-.33-.19-.45-.27-.07-.08-.17-.13-.22-.19-.37-.34-.74-.64-1.12-.88-.02-.03-.05,0-.08-.03-.17-.29-.52-.4-.77-.66l-.77-.66c-.1-.05-.25-.06-.27-.19-.3-.21-.52-.5-.76-.76l-1.82-1.94c-.25-.26-.44-.58-.69-.84-.02-.08-.1-.1-.1-.16-.2-.21-.34-.42-.51-.65-.17-.18-.34-.42-.49-.63-.15-.16-.25-.31-.37-.5-.05-.05-.07-.13-.12-.18l-.46-.65c-.27-.34-.59-.68-.86-1.07-.12-.18-.29-.42-.36-.65-.09-.21-.19-.41-.29-.62l-.62-1.29c-.09-.21-.14-.41-.23-.62-.19-.31-.26-.7-.37-1.03l-.07-.18c-.05-.15-.09-.31-.11-.49,0-.05,0-.1-.02-.18-.07-.18-.04-.41-.06-.64.03-.08,0-.15-.02-.28-.07-.23.01-.41.27-.45.1-.05.16-.1.19-.22.03-.23.24-.32.42-.39s.31-.14.47-.24c.18-.12.34-.22.54-.21.05,0,.1,0,.13-.02.21-.04.41-.09.61-.03.15.06.35.06.51.02.15,0,.28-.02.41.06.05.05.1.05.15.06.35.06.71.13,1.04.26.15.06.33.14.45.22l.02.03c.33.09.6.33.88.51.05,0,.1.05.15.11.1.16.3.26.45.37.27.24.6.38.92.56.15.11.27.19.4.32.17.18.35.32.52.45l.22.24c.07.13.15.21.25.31.25.16.45.37.62.55.1.16.25.21.37.34.15.11.27.29.39.42.05.05.12.13.2.16.17.13.3.26.42.4.05,0,.05.05.07.08.12.23.29.37.47.55.1.1.22.19.22.34l.05.05c.2.16.35.32.47.5.14.26.37.39.52.6.17.18.35.32.52.5.02.03.05.1.1.16,0,0,0,.05.02.08.28.14.34.47.54.63.05.05.07.13.12.18.19.46.51.86.83,1.25.12.18.35.32.47.5.17.18.29.37.42.55.32.44.56.91.85,1.38l.02.03c.15.11.22.29.32.44.12.13.19.31.29.47.07.13.14.26.22.39l.38.73c.07.13.15.21.19.31.17.23.08.51-.2.58l-.41.09c-.1,0-.2,0-.25-.06-.15-.11-.35-.16-.47-.35l-.07-.08ZM77.17,56.33l.03-.02-.17-.18c-.12-.13-.22-.24-.37-.29-.05,0-.08-.03-.1-.05-.32-.24-.65-.48-1-.69-.15-.11-.3-.21-.47-.35l-.47-.35s-.05-.05-.1-.05c-.2-.11-.4-.17-.63-.25-.15-.11-.3-.11-.45-.17-.13-.03-.25,0-.38.06-.15.05-.33.12-.49.21-.36.19-.52.44-.38.85.07.23.19.46.21.69.07.33.18.67.3.95.14.51.4.96.69,1.37.15.21.24.42.36.6.12.23.24.47.33.72.19.46.51.86.85,1.23.25.26.44.57.71.81.27.29.44.63.66.91.2.21.32.44.51.65l.1.11c.04.21.19.31.32.49l.17.18c.15.16.25.31.39.42.05.05.1.05.1.1.07.18.22.34.37.45.08.03.07.08.12.13.2.21.34.42.59.53.08.03.12.13.17.18q.1.11.23.03c.05-.05.11-.1.13-.17.16-.3.32-.55.64-.74l.05-.05c.11-.15.24-.27.34-.37.13-.12.21-.3.34-.42l.6-.57c.16-.15.36-.19.45-.42l.03-.03c.18-.12.34-.27.5-.37.1-.1.13-.17,0-.31l-.1-.1c-.31-.5-.71-.92-1.1-1.34-.15-.16-.29-.37-.44-.52-.2-.26-.42-.5-.59-.73-.15-.16-.3-.32-.42-.5l-.17-.18c-.29-.32-.59-.63-.86-.97-.05-.05-.1-.16-.17-.18-.25-.26-.54-.48-.77-.71-.2-.21-.42-.4-.67-.61Z"/>
  <path class="cls-1" d="M84.83,55.72c.19.31.42.54.59.87.02.08.14.12.16.2.19.36.49.62.73.93.43.49.81.97,1.23,1.46.07.08.11.14.21.21.19.12.35.27.51.42l.46.41c.04.06.12.09.16.15.04.06.09.11.16.15.2.08.35.27.54.4.16.15.38.25.57.38.22.1.41.23.6.35.19.13.41.18.64.23.2.02.38.07.55.12.05,0,.12.04.15.02.36,0,.67-.02,1.01-.06.13,0,.24-.1.33-.17.25-.15.48-.33.58-.6.07-.15.11-.27.18-.42l.28-1.04c.05-.22.08-.43.11-.68.02-.15-.01-.31,0-.46,0-.23.05-.46.06-.69l.05-.46c.04-.12.03-.25.07-.38.02-.15.07-.15.2-.16.1.01.2.02.26.16.13.17.27.34.34.55.02.08.06.14.08.16.11.14.17.28.2.43.04.29.13.58.1.88-.01.1,0,.18.07.26.06.14.05.24.03.39-.03.25-.09.53-.02.79.02.03.02.08-.01.1-.1.17-.02.38-.09.53-.02.15-.06.33-.13.42-.17.36-.34.73-.66,1.02-.38.39-.83.75-1.35.97-.11.04-.26.07-.39.08l-.47.1c-.11.04-.21.03-.31.01-.22-.05-.46-.05-.66-.08l-.33-.06c-.17-.05-.38-.07-.55-.12l-.17-.05c-.15-.07-.29-.14-.44-.16-.02-.03-.05,0-.05,0-.16-.15-.36-.17-.56-.25-.19-.13-.35-.27-.52-.37-.12-.09-.24-.13-.39-.2-.22-.1-.46-.23-.67-.44-.19-.13-.32-.3-.51-.42-.07-.08-.16-.15-.26-.21-.23-.18-.44-.39-.65-.54-.17-.1-.28-.24-.39-.38-.04-.06-.17-.1-.23-.18-.25-.26-.45-.52-.65-.77-.36-.4-.67-.8-1.01-1.22-.4-.51-.82-1.05-1.19-1.58-.19-.31-.37-.58-.53-.91-.09-.11-.18-.23-.24-.36-.13-.22-.23-.46-.35-.68-.14-.3-.29-.6-.43-.9l-.3-.73c-.08-.21-.1-.42-.19-.59-.02-.08-.08-.16-.1-.24-.11-.32-.18-.64-.19-.95,0-.13-.02-.26-.06-.37-.12-.27-.11-.6-.14-.94-.01-.13-.02-.26-.06-.37.01-.1-.03-.21-.01-.31.05-.22.05-.46-.02-.67v-.05c.04-.25.04-.48.09-.71,0-.05-.02-.08.01-.1.12-.37.21-.72.36-1.06.05-.17.14-.29.23-.41.03-.02.06-.1.07-.15.08-.2.2-.39.3-.55.13-.19.3-.37.47-.51.29-.27.57-.5.88-.74.11-.09.25-.2.41-.23.34-.09.67-.2.96-.34.03-.02.11-.04.16-.03.03-.02.07.03.09.06.07.08.13.22.22.28.13.17.06.37.01.54-.03.07-.07.15-.08.2-.09.3-.29.45-.59.47-.21.03-.4.13-.54.24-.22.13-.42.28-.57.5l-.14.11c-.14.06-.28.17-.37.34l-.1.22c-.05.17-.09.35-.21.49-.14.11-.19.29-.16.44.02.08-.02.15-.03.25l-.07.38c-.01.1.03.21.06.32.08.21.15.43.1.65-.01.1.03.21.07.32.09.29.06.6.1.88.02.03.02.08,0,.13-.01.1,0,.18.05.24.07.08.08.16.12.27.05.24.15.48.14.76l.07.08c.1.24.17.46.3.68.12.27.19.54.34.79.11.19.13.4.24.59l.27.52c.11.14.22.28.3.45.06.13.17.28.28.42l.2.25Z"/>
  <path class="cls-1" d="M96.35,54.56c-.16-.19-.33-.39-.46-.6-.09-.07-.14-.16-.2-.26-.13-.21-.3-.41-.4-.64-.6-.69-1.03-1.52-1.56-2.3l-.17-.27c-.16-.2-.33-.39-.46-.6l-1.03-1.65c-.04-.06-.05-.14-.08-.2-.08-.12-.17-.27-.28-.38l-.09-.15c-.39-.69-.84-1.34-1.26-2.02-.42-.67-.84-1.34-1.26-2.02l-.36-.58c-.22-.29-.3-.62-.41-.93-.06-.09-.08-.2-.14-.29-.17-.28-.23-.58-.24-.87.01-.05,0-.13-.02-.16-.06-.17-.07-.38.05-.54.08-.14.12-.29.26-.33.12-.08.17-.06.31.02.11.1.24.19.38.27.07.04.14.08.17.15.19.3.43.62.64.96l.16.2c.16.11.28.25.29.46-.01.05.03.11.06.17.04.06.11.1.15.16.19.18.25.48.41.72.08.12.14.29.3.41l.09.16c.06.09.1.23.21.34.07.04.05.14.08.2l.46.73c.13.21.27.43.38.61l.23.37s.06.09.08.12c.07.04.08.12.12.13.11.1.21.21.29.33.24.32.49.58.7.92.11.18.23.37.31.57.06.17.17.27.3.41l.15.25s0,.08,0,.08c.21.13.23.37.32.52l.34.55c.11.18.2.39.28.59.06.09.06.17.13.21.19.1.27.3.37.45.14.29.2.26.38.06.21-.21.44-.32.68-.47.2-.08.37-.23.58-.23.05.01.11-.03.17-.06.2-.16.41-.17.6-.12.25.06.45-.03.68,0,.08,0,.09-.06.13-.13.03-.23.1-.45.18-.66.05-.2,0-.42.04-.62.05-.46.16-.9.18-1.34.02-.44.13-.88.1-1.33-.02-.24.02-.52.04-.75-.02-.03,0-.08-.03-.11-.05-.35-.02-.71-.07-1.06-.02-.16-.01-.29-.06-.43,0-.21-.04-.4-.07-.59,0-.26,0-.47-.07-.72-.03-.11-.02-.24-.04-.4-.05-.14-.08-.33-.14-.5-.08-.46-.23-.92-.28-1.4-.03-.32-.12-.6-.2-.93l-.11-.18c-.08-.2-.17-.4-.22-.63-.02-.03-.04-.06-.03-.11,0-.21-.06-.43-.14-.63-.1-.23-.18-.49-.31-.7l-.1-.15c-.05-.22-.14-.42-.19-.65-.02-.03-.04-.06-.04-.14-.02-.24-.13-.47-.23-.71-.13-.21-.11-.44-.08-.67.01-.05.07-.09.05-.12.02-.31.23-.44.45-.58.09-.06.14-.05.23.03l.08.12c.09.07.19.18.34.21.1.02.17.06.14.16,0,.08.1.15.13.21.08.2.21.34.26.56.02.16.11.31.22.42.04.06.08.12.12.18l.06.3c.08.33.16.66.29,1.01.05.14.14.29.22.42.17.28.29.54.3.83-.02.1.03.19.09.28.09.07.11.18.11.31-.03.23.03.45.14.63.07.04.08.12.08.2.06.09.08.2.12.26.09.15.11.31.12.47,0,.13.02.24.05.35.04.27.05.56.12.81.08.2.09.41.2.6.07.04.08.12.08.2.03.19.06.43.03.66-.03.02-.01.05-.02.1.08.33,0,.68.05,1.03,0,.13.04.27.09.41.02.03,0,.08.03.11-.06.25-.02.52-.1.79-.03.15.01.29,0,.47-.02.1,0,.21-.02.31-.01.05-.03.15-.01.18.06.17-.02.31-.05.46,0,.21-.04.41-.06.59-.02.1-.03.15-.08.22-.05.12-.09.27-.11.37l-.07.64c-.08.22-.15.43-.25.62-.1.19-.22.39-.17.61,0,.08-.05.2,0,.26.02.03.14.08.24.11l.55.21c.26.14.49.24.7.37.12.05.26.14.34.21.12.05.24.11.35.16l.43.28c.11.1.26.14.42.2.15.03.31.15.41.25.31.23.59.48.89.68.29.2.53.44.78.7.18.22.37.45.41.72.06.17.11.31.13.47,0,.08-.02.18-.04.28-.04.07-.13.13-.21.13-.2-.05-.32.03-.53.03-.08,0-.16.01-.25-.06-.14-.08-.26-.22-.43-.28-.05-.01-.14-.08-.18-.14-.11-.18-.29-.33-.46-.47-.11-.1-.24-.19-.34-.34-.23-.24-.51-.41-.79-.52-.21-.13-.39-.22-.57-.37-.15-.16-.3-.28-.53-.31-.18-.02-.31-.15-.46-.26l-.21-.13c-.27-.09-.55-.21-.82-.29l-.15-.03c-.17-.07-.23-.03-.34.13-.04.07-.1.11-.16.15-.18.11-.27.25-.28.43-.06.25-.25.41-.5.56-.2.08-.42.22-.52.45-.03.15-.17.27-.28.43-.1.11-.08.14-.04.28l.23.37c.1.15.17.27.3.41.28.38.54.81.85,1.17.1.15.27.3.42.46.07.04.13.13.16.2.15.24.32.44.47.68.09.15.17.27.17.48l.1.15c.04.14.04.27-.08.35-.35.26-.68.34-1.06.07-.12-.05-.23-.16-.28-.25-.15-.16-.31-.36-.45-.52l-.36-.37c-.19-.18-.41-.38-.57-.58-.37-.45-.68-.89-1.03-1.31-.22-.29-.47-.55-.65-.91ZM97.65,52.56c.06-.04.12-.08.13-.13.19-.24.36-.52.54-.76.07-.09.11-.16.17-.28.04-.07,0-.13-.08-.12-.13,0-.29.01-.4.04-.24.15-.55.21-.73.46.02.03-.03.02-.06.04-.21.13-.27.25-.2.5.05.22.44.36.62.25Z"/>
  <path class="cls-1" d="M127.7,38.44s0,.08,0,.11c.19.31.25.68.37,1.01.1.27.2.54.2.85,0,.23.09.46.2.65.06.06.08.12.11.19.01.03,0,.08.03.07.21.15.14.37.13.57,0,.08.06.17.07.28l.2.85s-.02.05-.02.05c.21.27.11.61.21.88.04.1,0,.23-.07.33-.05.06-.16.1-.25.17-.25-.06-.6.03-.82-.24-.12-.11-.23-.22-.32-.34v-.03c.05.06.06.09-.01,0-.02-.07-.08-.12-.14-.18l.02.07c-.07-.09-.17-.25-.36-.45-.09-.24-.13-.45-.2-.65-.04-.1-.06-.17-.05-.25-.08-.2-.14-.37-.18-.59-.03-.18-.09-.35-.19-.51l-.05-.14c-.04-.1-.03-.18-.1-.27l-.04-.1c-.06-.17-.09-.35-.17-.55-.06-.17-.17-.25-.38-.21,0,0-.01-.03-.03.01-.22.12-.51.19-.72.34-.09.07-.18.14-.29.15-.25.05-.5.11-.71.26l-.07.02c-.39.18-.83.35-1.27.51-.1.04-.2.08-.29.15-.17.06-.24.28-.18.45.17.25.2.54.3.81.16.33.28.66.45,1.02l.32.88v.03c-.01.24.14.45.19.7.03.18.07.4.03.6s-.13.28-.34.32c-.35.09-.59-.05-.84-.3-.01-.03-.07-.09-.12-.11-.2-.12-.31-.31-.37-.48-.12-.22-.17-.47-.25-.68l-.05-.13c-.11-.19-.23-.41-.34-.6l-.19-.51c-.05-.13-.09-.24-.14-.37-.18-.39-.33-.8-.5-1.24-.12-.34-.25-.68-.34-1.03l-.2-.54c-.1-.27-.2-.54-.23-.84l-.04-.1c-.15-.41-.2-.85-.27-1.25-.1-.38-.13-.76-.22-1.11-.05-.25-.11-.5-.18-.7,0-.11-.04-.22-.04-.33-.04-.22-.07-.4-.14-.6-.08-.2-.08-.43-.12-.65-.04-.21-.05-.44-.09-.66l-.16-.94c-.05-.25-.07-.51-.09-.77-.02-.26-.07-.51-.09-.77-.03-.07-.02-.15-.04-.21.02-.05,0-.11-.02-.15-.17-.47-.21-1-.24-1.49-.06-.48-.08-.93-.1-1.42-.03-.29,0-.62,0-.92l.04-.82c.05-.29.06-.56.11-.85,0-.11.03-.24-.02-.38-.04-.1,0-.23.1-.34.14-.13.23-.31.33-.47s.19-.22.32-.27c.17-.06.33-.16.51-.19.07-.02.11,0,.16.02.22.19.48.36.69.51.2.12.29.28.46.41.03.07.08.12.13.14.26.17.42.42.59.67.08.12.19.2.27.32.32.34.6.7.83,1.11.12.22.22.49.41.69.14.18.22.38.33.57l.73,1.26c.15.29.28.55.41.81l.35.64c.15.29.31.54.45.79l.16.44c.15.41.32.76.52,1.11l.19.51c.11.3.19.62.37.9l.09.24c.07.2.18.39.26.6l.07.2c.04.33.18.59.32.88.1.16.14.37.17.55.05.13.08.32.21.46s.19.31.23.53ZM125.66,38.42l-.14-.37c-.05-.25-.11-.5-.19-.73-.09-.24-.21-.46-.33-.69-.1-.27-.17-.55-.3-.81-.14-.37-.24-.76-.43-1.07-.04-.1-.07-.2-.08-.32l-.11-.3c-.11-.3-.26-.6-.37-.9l-.25-.68c-.05-.25-.2-.43-.35-.64-.16-.21-.29-.47-.42-.73-.16-.33-.26-.71-.49-1.01-.21-.27-.33-.57-.5-.85-.21-.35-.36-.67-.6-1.01-.18-.28-.37-.59-.58-.86l-.62-.73c-.14-.18-.26-.4-.47-.55-.06-.05-.13-.14-.23-.11-.14.05-.1.15-.09.26-.02.05,0,.11.02.15v.34c-.04.59,0,1.2.09,1.77.05.25.07.51.09.77.02.38-.02.78.15,1.13.05.13.04.33.14.49.09.24.11.5.11.73.03.07.02.15.03.18.06.36.15.71.2,1.08.04.33.1.69.23,1.03.05.25.12.53.25.79l.04.1c-.03.13,0,.23.04.33l.09.35c.09.35.18.7.28,1.08.05.25.14.49.16.75-.01.27.11.5.13.76,0,.23.11.5.19.73.08.32.18.59.26.9.04.1.06.17.14.18.3.08.6.16.9.05.26-.13.53-.23.83-.35l.15-.02c.29-.15.57-.21.87-.36.29-.15.58-.29.89-.4l.13-.05c.21-.15.24-.28.15-.44ZM127.73,43.83s-.07-.09-.12-.11c.06.05.11.08.12.11Z"/>
  <path class="cls-1" d="M130.65,40.13l-.42-1.12c-.07-.24-.18-.51-.25-.75-.12-.45-.29-.89-.41-1.34-.03-.1-.03-.25-.07-.39-.28-.86-.52-1.73-.76-2.59-.18-.66-.33-1.33-.51-1.95l-.53-1.91c-.08-.28-.12-.56-.17-.89,0-.03-.03-.1-.05-.17l-.26-.94c-.06-.21-.11-.38-.06-.62l-.04-.14c-.02-.22-.11-.38-.06-.62.03-.16-.02-.33-.07-.5-.09-.31-.18-.66-.24-.98-.03-.1-.01-.18-.04-.29-.02-.22-.08-.43-.09-.61-.03-.37-.15-.67-.18-1.04.01-.23-.02-.48-.02-.74.01-.08.03-.16.05-.24l.1-.44c.03-.16.2-.35.42-.38l.48-.02c.11,0,.18-.01.25-.03.27-.11.56-.12.83-.12.3,0,.6.02.9.01l.4-.04c.44-.01.91.05,1.32.19.07-.02.11,0,.16.03.31.18.67.26,1.01.39.33.13.62.35.91.57.24.19.39.45.6.69.06.09.13.19.17.33l.23.83c.03.1.01.18.04.29.03.1.05.17,0,.3l.02.07c.09.2,0,.41,0,.64-.03.16-.1.33-.09.47l-.12.78c-.04.12-.12.22-.2.35-.04.12-.09.21-.14.3-.11.29-.19.54-.38.78-.04,0-.05.09-.04.12-.08.1-.19.24-.29.3-.18.16-.32.31-.46.5-.12.11-.1.18.07.24.04.02.12.04.2.06l.17.07c.2.06.38.16.56.14.03,0,.07-.02.11,0,.35.17.73.32,1.08.52.21.09.41.26.6.4l.29.25c.13.08.23.16.28.33,0,.04.06.09.12.15.28.33.5.72.62,1.17.04.14.12.3.2.43.03.1.09.2.13.34.05.17.07.39.16.59.06.21.08.43.03.63-.03.16-.02.34,0,.52,0,.04.02.07,0,.11.01.18-.03.31-.01.49.05.32-.05.61-.11.93-.04.27-.11.55-.11.82.03.1-.06.2-.07.28-.07.17-.1.33-.17.46l-.19.39c-.1.18-.16.38-.26.56,0,.04-.01.08-.05.09-.28.49-.55.98-.84,1.43-.07.13-.19.24-.28.34-.04,0-.09.06-.08.1-.18.31-.45.54-.59.84-.05.09-.07.13-.13.19-.24.22-.51.44-.76.62-.25.18-.5.36-.72.5-.09.06-.17.05-.23-.01-.05-.06-.13-.08-.18-.1-.25-.08-.4-.22-.54-.45-.06-.09-.08-.16-.15-.26l-.18-.36c-.19-.28-.35-.58-.5-.87-.04-.03-.05-.06-.06-.09-.13-.34-.25-.64-.37-.94h.03ZM128.64,23.24c-.2.09-.37.14-.54.22-.09.06-.21.17-.29.3-.02.04-.04.12-.02.19.05.32.14.63.19.96l.17.62c.03.1.05.17.03.25.02.22.01.45.07.65.03.1.03.25.03.37-.02.19,0,.38.05.58l.18.66c.15.56.31,1.11.39,1.68-.01.08.01.18.1.23.11,0,.16-.08.22-.14.12-.11.2-.21.29-.3.09-.06.15-.12.2-.21l.24-.33c.21-.17.38-.37.56-.53.14-.15.26-.26.42-.38.12-.11.21-.17.3-.27.21-.17.38-.37.56-.53h.03c.23-.11.39-.34.57-.51.11-.14.22-.29.29-.45.08-.39.16-.76.16-1.17,0-.41-.11-.79-.39-1.12-.06-.09-.16-.18-.26-.26-.36-.35-.76-.57-1.23-.67-.07.02-.12-.04-.19-.02-.44.05-.84-.06-1.26.05,0,0-.03,0-.04-.02l-.86.13ZM135.53,33.76l-.05-.17c-.1-.23-.23-.42-.3-.66-.13-.34-.36-.61-.61-.84-.25-.23-.51-.49-.85-.62l-.38-.16c-.21-.09-.45-.14-.71-.14-.08-.02-.18.01-.26,0-.38,0-.72-.02-1.05,0-.22.02-.46.09-.65.22-.23.1-.41.26-.59.43-.08.1-.18.16-.31.24-.1.03-.18.16-.14.3.01.18.06.36.12.57.03.1.07.24.06.36-.06.2.04.4.09.61.13.34.25.64.34.95.11.27.15.52.21.76.03.1.08.16.11.27.03.1.09.2.12.3.07.39.24.72.38,1.09.07.24.17.48.24.72.12.3.18.66.37.94.06.09.09.2.12.3.12.3.22.65.35.99.03.1.06.21.11.27.13.19.22.39.28.59.05.17.14.22.28.07.04,0,.03-.04.06-.05l.39-.33c.5-.36.82-.83,1.12-1.36l.24-.36s.08-.1.1-.18c.21-.47.45-.95.61-1.44.09-.21.15-.42.2-.62.07-.43.17-.87.16-1.31-.02-.33,0-.67,0-.97-.03-.25-.09-.46-.17-.74Z"/>
  <path class="cls-1" d="M137.24,23.45c-.02-.07,0-.18,0-.3l.02-.41c.01-.11.04-.16.09-.28.14-.21.28-.43.49-.62.04,0,.06-.05.1-.06.28-.06.53-.3.85-.33.15,0,.26.02.36.14.27.24.44.49.44.86.01.07,0,.15-.03.19l-.04.34c-.08.16-.16.29-.2.45l-.18.37c-.07.2-.22.34-.42.42-.17.07-.34.11-.52.15-.04,0-.11-.01-.16-.04-.13-.08-.25-.13-.34-.22-.19-.22-.41-.35-.48-.67ZM140.12,35.79c0-.18-.04-.36-.04-.54l-.02-.11c-.1-.31-.13-.6-.2-.92-.06-.28-.12-.56-.15-.85,0-.15.04-.3-.02-.44-.13-.27-.11-.53-.2-.77-.16-.74-.32-1.48-.44-2.22-.05-.21-.06-.46-.11-.68.03-.04.02-.08.01-.11-.12-.23-.18-.51-.17-.77,0-.15-.06-.28-.06-.43,0-.3-.08-.54-.1-.79-.02-.11.03-.19.05-.27l.06-.23c-.04-.18.08-.31.2-.45.05-.09.55-.19.67-.14.09.06.18.15.24.24.09.09.16.22.26.35,0,.04.06.1.03.14-.08.13.01.22.03.32.05.25.18.48.19.73.02.25.14.49.19.73.02.11.04.18.06.28l.19.88s.02.11.03.14l.07.13c-.02.26.14.48.19.73.02.11,0,.22,0,.3,0,.22.09.42.13.6.09.24.14.48.19.7.02.11.01.22.03.29,0,.18.03.33.07.5.03.29.16.56.28.79.07.13.12.23.11.34,0,.15.03.29.08.39.07.13.09.24,0,.37-.05.09-.03.19.03.29.04.03.02.11.04.18,0,.04-.01.11.04.18.1.27.04.54-.05.79-.06.23-.19.48-.49.47-.25.02-.52,0-.74-.02-.23-.06-.42-.24-.47-.49-.08-.2-.13-.41-.21-.62Z"/>
  <path class="cls-1" d="M144.01,31.48c-.06-.14-.08-.32-.1-.46l-.11-.75c-.02-.14,0-.29-.03-.47-.02-.11,0-.22-.02-.36.02-.33.01-.66.03-1.02v-.4c.01-.25.05-.51.08-.77l.02-.62c0-.18.05-.37.06-.56l.2-.9c.09-.34.19-.68.25-1.02.08-.19.12-.42.2-.61.04-.22.12-.42.2-.61.02-.11.08-.19.11-.27.08-.41.32-.78.56-1.14.03-.04.07-.05.06-.08.08-.23.23-.4.39-.57.21-.29.43-.54.65-.79.16-.17.28-.33.48-.43.07-.05.13-.09.19-.17.25-.26.55-.45.89-.6.1-.05.2-.14.33-.23.2-.14.44-.21.68-.32.32-.08.67-.17,1.02-.22.21-.03.47-.03.69,0,.19.04.37.05.5.22l.16.08c.23.08.33.24.36.49.01.07-.01.15.03.18.14.2.02.4-.06.55,0,.04-.1.09-.13.09-.11.02-.18,0-.3-.07l-.27-.11c-.19-.08-.38-.12-.55-.06-.11.02-.21.03-.33-.02,0-.04-.08-.02-.11-.02-.14.06-.32.08-.41.17-.16.13-.37.24-.57.34-.17.1-.37.24-.48.43-.06.12-.18.25-.32.3-.07.01-.14.06-.16.13-.12.2-.27.37-.43.54-.1.05-.16.17-.22.25-.09.12-.18.28-.23.4l-.19.21c-.08.19-.13.35-.29.48,0,.04-.03.04-.03.08-.03.26-.19.46-.3.7-.08.16-.17.35-.18.54-.08.41-.25.8-.33,1.18-.08.19-.12.42-.16.64-.07.26-.1.53-.17.83-.07.27-.07.52-.07.77-.02.37-.04.73-.02,1.09l-.02,1.35c.1.17-.02.37,0,.54.06.17.05.36.08.53.09.61.14,1.18.4,1.72.11.24.14.45.25.69l.16.38c.09.13.15.3.22.48.05.1.14.23.27.32.04.03.12.09.17.16.05.07.16.12.25.18.31.14.58.02.9-.1.07-.01.17-.06.27-.11.17-.06.3-.19.42-.35.06-.12.15-.2.21-.29l.42-.61c.18-.25.29-.48.4-.75.07-.26.25-.51.39-.79.09-.12.18-.28.26-.44.07-.05.09-.12.12-.2l.28-1.28c.07-.26.1-.56.1-.81,0-.18.02-.37.06-.59l.13-.6c.03-.3.06-.59.05-.88.06-.34.05-.66.1-1.03.08-.41.13-.86.07-1.28-.07-.5-.14-.96-.28-1.41l-.13-.38c-.03-.18-.08-.31-.18-.48-.08-.28-.19-.52-.3-.79-.07-.21.01-.4.18-.54.07-.05.13-.13.16-.17.16-.17.33-.19.49-.11.12.06.25.18.33.28.14.2.21.44.31.64.14.23.25.47.46.66.08.06.13.13.11.24-.03.08.03.18.07.24.06.14.08.28.1.46.02.14.04.29.1.42.11.24.11.49.18.74.08.28.12.6.2.88.05.32.05.61.1.93v.04c.12.27.09.57.13.82.04.25.03.47.06.68l.05.36c.04.25.04.5.08.75l.09.35c.02.36.07.72.08,1.04.04.5.07.97.14,1.47,0,.29-.03.55.01.83.03.21,0,.44.06.68.02.11-.04.22-.02.37-.04.19-.05.41-.02.62,0,.29-.06.55-.09.85-.04.19-.05.37-.1.52-.07.3-.13.6-.16.9-.03.26-.15.49-.18.75-.07.3-.17.57-.36.78-.09.12-.14.28-.16.42-.05.12-.11.23-.17.32l-.29.48c-.17.35-.51.51-.8.74-.19.17-.43.28-.67.43-.03.04-.1.09-.13.13l-.23.14c-.07.05-.14.06-.17.1-.07.05-.1.05-.17.06-.28.08-.6.12-.93.14-.11.02-.21.07-.31.08-.14.02-.29.04-.39.09l-.32.05c-.1.05-.17.06-.19-.04-.07-.21-.22-.29-.39-.42-.2-.15-.45-.33-.66-.52-.21-.19-.32-.43-.43-.67-.06-.17-.16-.34-.22-.51,0-.07-.05-.1-.06-.17-.03-.18-.05-.36.11-.49.07-.05.06-.08.09-.12.09-.16.22-.21.41-.17.23.08.47.22.58.5,0,.07.05.1.06.14.11.27.28.43.59.53.2.12.36.24.62.27l.18-.03c.32-.08.63-.17.98-.29.07-.01.14-.06.2-.1.1-.09.23-.14.33-.23.22-.25.45-.43.59-.67.06-.08.12-.16.19-.21.12-.16.24-.33.28-.55.1-.31.24-.58.35-.85.03-.08.05-.15.08-.19.07-.3.09-.6.2-.9.06-.34.08-.7.1-1.07-.01-.33.02-.62.04-.95.02-.33.09-.63.04-.95-.02-.36.04-.7-.04-1.05-.05-.07-.02-.14-.03-.21,0-.04,0-.07-.05-.1-.04,0-.07.05-.1.05-.06.08-.15.21-.17.32-.08.19-.16.39-.24.62-.15.24-.22.5-.29.77-.03.08-.08.19-.14.28-.16.17-.28.33-.32.56,0,.18-.13.35-.26.47-.07.05-.12.16-.18.25l-.09.12c-.13.13-.21.29-.26.44-.2.36-.42.64-.84.71-.07.01-.11.02-.14.06-.14.06-.24.07-.39.09-.07,0-.14.06-.2.1-.04,0-.07.05-.07.01-.19-.08-.39.09-.57.05-.18,0-.36.02-.54,0-.15-.01-.29,0-.42-.12-.09-.1-.25-.18-.36-.24-.08-.03-.15-.01-.26-.03-.22-.04-.46-.15-.63-.31-.16-.12-.26-.25-.35-.39-.09-.13-.17-.19-.26-.29s-.18-.23-.23-.33c-.1-.17-.16-.34-.22-.51l-.14-.2c-.12-.35-.28-.69-.44-1.03-.13-.38-.19-.81-.32-1.19,0-.04-.01-.07-.02-.11h.04Z"/>
  <path class="cls-1" d="M162.72,36.92c0-.11-.02-.25.05-.44.06-.25.08-.51.13-.8l.16-1.02c.02-.22.05-.44.03-.65.03-.15.02-.29,0-.43,0-.04,0-.07.03-.11,0-.11.03-.18.02-.29.01-.43.02-.83.07-1.27.03-.11-.09-.32-.24-.35-.15-.03-.33-.05-.47.03-.14,0-.29.05-.4-.01-.04-.03-.11-.03-.15-.03-.18.05-.36.06-.57.07-.18.01-.39.02-.58,0-.07,0-.14.04-.21.09-.1.08-.28.12-.42.17-.18.01-.32.02-.5.07s-.39.1-.57.18c-.11,0-.18.05-.25.09-.11.04-.17.12-.17.23.05.25.03.54.12.75.04.03.04.07.04.11-.01.36.08.72.13,1.04v.07c0,.4.12.75.22,1.14.02.25.06.46.12.71l.14.46s.08.07.08.1c.02.29.1.54.09.82.01.18-.09.29-.19.44-.04,0-.07.04-.11.04-.15-.03-.29-.05-.37-.16-.04-.11-.15-.13-.26-.16-.36-.05-.59-.29-.72-.64v-.07c.03-.11-.02-.22-.06-.29-.08-.1-.12-.25-.2-.35-.04-.07-.04-.14-.08-.21-.08-.1-.09-.25-.09-.35-.05-.18-.13-.35-.17-.5,0-.11-.05-.21-.05-.29-.07-.5-.17-.96-.3-1.39,0-.04-.04-.03-.04-.07.05-.33-.15-.64-.17-1l-.17-1c-.04-.11-.16-.21-.09-.32-.09-.36-.08-.72-.1-1.08l-.16-2.66c-.02-.36.03-.72,0-1.08.03-.07,0-.14.03-.18-.02-.29,0-.54.02-.83-.02-.25,0-.54.02-.79-.01-.22.01-.4.04-.62,0-.07.03-.15.02-.22l.06-.8c.01-.43-.02-.9.03-1.37.02-.22.04-.51.14-.73.06-.22.12-.44.18-.66l.35-1.39c.06-.22.16-.41.21-.63.05-.36.25-.7.37-1.03l.06-.18c.06-.15.13-.3.23-.45.03-.04.07-.08.1-.15.06-.18.23-.34.37-.53.07-.04.1-.11.17-.23.09-.22.27-.3.49-.17.11.03.18.03.29-.05.17-.15.39-.1.58-.03.18.06.33.09.51.11.22.02.4.05.55.18.04.03.08.07.11.07.19.1.37.19.49.37.08.14.23.27.38.34.11.1.23.17.27.31,0,.07.04.11.08.14.23.27.47.55.63.86.08.14.16.32.21.46v.04c.2.28.26.63.35.95.04.03.04.11.05.18-.03.18.06.39.11.57.06.36.22.67.35,1.02.05.18.09.32.1.5.02.25.06.46.11.68l.02.32c-.03.15-.02.25-.01.4.09.28.11.57.12.82-.02.18.06.32.07.5.05.18.02.39.03.57,0,.07.01.18.05.25.05.21.06.39.07.57.04.03,0,.07,0,.11-.06.26,0,.47,0,.72,0,.14.05.29-.05.4v.07c.06.25.07.47.04.68-.05.29.03.54.01.79.01.25.06.46.08.72,0,.04-.03.11-.03.18,0,0-.03.04-.03.07.12.28-.04.58.01.83,0,.07-.03.15-.02.22-.15.48-.16.98-.16,1.49-.02.22.06.46.04.68.01.25,0,.47-.03.69-.04.54-.15,1.06-.23,1.6v.04c.05.18-.01.36-.04.54.01.18-.05.36-.08.55-.03.15-.05.29-.08.44l-.17.8c-.03.15-.02.25-.05.36-.02.29-.26.45-.52.32l-.37-.19c-.08-.07-.15-.13-.16-.21-.05-.18-.17-.35-.14-.57v-.11ZM162.9,21.8h.04s-.01-.25-.01-.25c-.01-.18-.02-.32-.1-.46-.04-.03-.04-.07-.04-.11-.09-.39-.19-.78-.32-1.17-.05-.18-.09-.36-.14-.57l-.14-.57s0-.07-.04-.11c-.08-.21-.2-.38-.32-.59-.05-.18-.16-.28-.24-.42-.08-.1-.19-.17-.34-.2-.15-.06-.33-.12-.51-.15-.4-.08-.69,0-.84.41-.09.22-.15.48-.29.67-.16.3-.29.63-.38.92-.22.48-.3.99-.34,1.5-.02.25-.08.47-.1.69-.06.26-.11.51-.21.77-.15.48-.16.98-.13,1.49.02.36-.03.72.03,1.08.02.4-.06.76-.08,1.12.02.29-.04.54-.02.83v.14c-.09.19-.04.36-.06.58v.25c.03.22,0,.4.05.58,0,.07.04.11,0,.14-.06.18-.05.4,0,.58.04.07,0,.11.01.18.02.29,0,.54.12.79.04.07.01.18.01.25q0,.14.15.17c.07,0,.14,0,.21-.05.32-.13.6-.22.96-.17h.07c.18-.05.36-.06.5-.07.18-.01.36-.09.54-.1l.83-.05c.22-.01.4.08.61-.04h.04c.22.02.43,0,.62.03.14,0,.21-.05.2-.23v-.14c.06-.58.03-1.16,0-1.73-.01-.22,0-.47,0-.69.02-.33,0-.65.02-.94-.01-.21-.03-.43,0-.65v-.25c-.04-.43-.07-.86-.06-1.3,0-.07.03-.18-.01-.25-.02-.36-.12-.71-.13-1.04-.02-.29-.07-.57-.12-.89Z"/>
  <path class="cls-1" d="M167.16,19.98c0-.07.04-.18.07-.29l.11-.4c.04-.11.07-.14.14-.25.18-.18.36-.36.61-.51.04,0,.07-.04.11-.04.29,0,.58-.18.9-.15.14.04.25.07.32.21.22.29.33.57.25.93,0,.07-.04.14-.07.18l-.11.32c-.11.14-.21.25-.29.4l-.25.33c-.11.18-.29.29-.5.33-.18.04-.36.04-.54.04-.04,0-.11-.04-.14-.07-.11-.11-.22-.18-.29-.29-.14-.25-.33-.43-.33-.75ZM167.42,32.65c.04-.18.04-.36.07-.54v-.11c-.04-.32,0-.61,0-.94,0-.29,0-.58.03-.86.04-.14.11-.29.07-.43-.07-.29,0-.54-.04-.79,0-.76,0-1.51.03-2.27,0-.22.04-.47.03-.68.04-.04.04-.07.04-.11-.07-.25-.07-.54,0-.79.04-.14,0-.29.04-.43.07-.29.03-.54.07-.79,0-.11.07-.18.11-.25l.11-.22c0-.18.14-.29.29-.4.07-.07.58-.07.68,0,.07.07.14.18.18.29.07.11.11.25.18.4,0,.04.04.11,0,.14-.11.11-.04.22-.04.32,0,.25.07.5.04.76s.04.5.04.76c0,.11,0,.18,0,.29v.9s0,.11,0,.14l.04.14c-.07.25.04.5.04.76,0,.11-.04.22-.07.29-.04.22,0,.43,0,.61.04.25.04.5.04.72,0,.11-.04.22-.04.29-.04.18-.04.32-.03.5-.04.29.04.58.11.83.04.14.07.25.04.36-.04.14-.04.29,0,.4.04.14.04.25-.07.36-.07.07-.07.18-.04.29.04.04,0,.11,0,.18,0,.04-.04.11,0,.18.04.29-.07.54-.21.76-.11.22-.29.43-.58.36-.25-.04-.5-.11-.72-.18-.22-.11-.36-.32-.36-.58-.04-.22-.04-.43-.07-.65Z"/>
  <path class="cls-1" d="M171.76,35.14c.03-.61.1-1.18.13-1.76.01-.25.06-.47.11-.68,0-.14-.02-.29-.01-.43,0-.04-.03-.11,0-.18.08-.14.05-.29.06-.43,0-.11.05-.25.06-.39-.01-.43.05-.9.07-1.33.01-.25.06-.5.07-.72,0-.14-.02-.29-.01-.43v-.07c.09-.28,0-.58.09-.9.05-.29.03-.58.05-.9.06-.47.09-.97.18-1.43.05-.32.07-.64.09-.97.05-.25.1-.54.11-.79.04-.03.04-.07.04-.11.02-.32.03-.61.08-.93.05-.25.1-.5.11-.79.05-.25.06-.54.11-.79,0-.18.05-.36.06-.54,0-.18-.02-.36,0-.54.01-.21.06-.39.1-.61.04-.18.06-.39.07-.57.05-.29.07-.57.12-.9,0-.14.05-.29.09-.43.05-.25.14-.53,0-.79-.03-.07-.03-.11,0-.18.07-.03.11-.1.15-.14.11-.03.19-.1.26-.2.12-.14.23-.21.41-.2.11,0,.18,0,.26-.06.04,0,.11-.03.11,0,.21.12.42.17.56.39.1.18.2.3.3.45.1.08.14.15.13.26,0,.14-.01.29.05.4v.11c-.2.31-.18.64-.17,1-.01.25.01.47,0,.72l-.18,1.32c0,.11-.08.18-.09.28-.05.25-.1.5,0,.79.03.04,0,.11,0,.18,0,.11-.04.18-.05.29-.08.25-.13.53-.18.78,0,.14-.05.25-.09.39,0,.18-.02.4-.03.58v.11c-.09.25-.14.46-.04.72.03.11.03.22-.05.36,0,0,0,.04-.04.07l-.14.64v.21c.05.15.05.29-.03.43v.11c.09.29-.04.57-.05.9-.01.22-.09.43-.03.65.03.15-.01.29-.06.43-.04.07,0,.18-.01.25,0,.14-.01.25-.06.39,0,.14-.05.29.01.43.03.04.03.11.03.15-.01.22-.06.47-.07.68l-.03.65c-.01.29-.07.57-.08.9,0,.11-.01.22.02.33.02.25.01.47,0,.69-.04.14-.02.29.01.43v.25c-.02.07-.02.14.01.22.03.11.02.22-.02.32-.08.18-.12.32-.17.5,0,.04,0,.07,0,.11l-.06,1.15c0,.18.06.22.21.23.18,0,.36-.02.54,0,.29.01.58-.04.87-.1.4-.05.76-.11,1.16-.19.11,0,.22-.06.33-.09.19-.1.4-.16.59-.19.26-.06.47-.12.69-.14.07-.03.11-.03.14,0,.11,0,.18.04.25.01.04-.03.07-.03.11,0,.14,0,.29.05.43.06q.18.04.21.23c.03.11.06.22-.02.36-.04.03-.04.11,0,.14.1.19.05.36,0,.54,0,.18-.16.28-.3.31-.18.03-.36.05-.51.05-.22-.01-.4.02-.55.12-.08.1-.19.13-.33.16-.07,0-.15.06-.22.1-.11.1-.26.13-.4.09-.11,0-.22.02-.37.09-.26.13-.59.19-.91.24-.14,0-.25.02-.4.09-.18.03-.36.02-.58,0-.03-.04-.11-.04-.14,0-.19.1-.36.05-.58.08-.18,0-.39-.06-.61-.07-.25-.01-.43-.09-.64-.18-.11-.04-.21-.12-.28-.23-.21-.23-.41-.45-.58-.68-.07-.08-.1-.15-.13-.22-.13-.22-.23-.44-.25-.7-.02-.33-.11-.66-.06-.94Z"/>
</svg>