<?xml version="1.0" encoding="UTF-8"?>
<svg id="Layer_1" data-name="Layer 1" xmlns="http://www.w3.org/2000/svg" viewBox="0 0 195.99 181.95">
  <defs>
    <style>
      .cls-1 {
        fill: #77594f;
      }

      .cls-2 {
        fill: #efeff0;
      }
    </style>
  </defs>
  <path class="cls-2" d="M92.8,7.96h7.26c5.49,0,9.95,4.46,9.95,9.95v38.15c0,.61-.5,1.11-1.11,1.11h-25.06c-.61,0-1.11-.5-1.11-1.11V18.02c0-5.55,4.51-10.06,10.06-10.06Z"/>
  <path class="cls-2" d="M36.1,67.05h7.26c5.49,0,9.95,4.46,9.95,9.95v38.15c0,.61-.5,1.11-1.11,1.11h-25.06c-.61,0-1.11-.5-1.11-1.11v-38.04c0-5.55,4.51-10.06,10.06-10.06Z" transform="translate(-51.98 131.32) rotate(-90)"/>
  <path class="cls-2" d="M145.98,67.05h25.06c.61,0,1.11.5,1.11,1.11v38.15c0,5.49-4.46,9.95-9.95,9.95h-7.26c-5.55,0-10.06-4.51-10.06-10.06v-38.04c0-.61.5-1.11,1.11-1.11Z" transform="translate(66.86 250.16) rotate(-90)"/>
  <path class="cls-2" d="M85.79,125.49h25.06c.61,0,1.11.5,1.11,1.11v38.15c0,5.49-4.46,9.95-9.95,9.95h-7.26c-5.55,0-10.06-4.51-10.06-10.06v-38.04c0-.61.5-1.11,1.11-1.11Z"/>
  <path class="cls-2" d="M62.12,16.85h7.26c5.49,0,9.95,4.46,9.95,9.95v38.15c0,.61-.5,1.11-1.11,1.11h-25.06c-.61,0-1.11-.5-1.11-1.11V26.91c0-5.55,4.51-10.06,10.06-10.06Z" transform="translate(-11.92 38.4) rotate(-30)"/>
  <path class="cls-2" d="M40.79,36h7.26c5.49,0,9.95,4.46,9.95,9.95v38.15c0,.61-.5,1.11-1.11,1.11h-25.06c-.61,0-1.11-.5-1.11-1.11v-38.04c0-5.55,4.51-10.06,10.06-10.06Z" transform="translate(-30.3 68.72) rotate(-60)"/>
  <path class="cls-2" d="M38.91,97.64h7.26c5.49,0,9.95,4.46,9.95,9.95v38.15c0,.61-.5,1.11-1.11,1.11h-25.06c-.61,0-1.11-.5-1.11-1.11v-38.04c0-5.55,4.51-10.06,10.06-10.06Z" transform="translate(-42.14 220.15) rotate(-120)"/>
  <path class="cls-2" d="M63.96,118.97h7.26c5.49,0,9.95,4.46,9.95,9.95v38.15c0,.61-.5,1.11-1.11,1.11h-25.06c-.61,0-1.11-.5-1.11-1.11v-38.04c0-5.55,4.51-10.06,10.06-10.06Z" transform="translate(54.23 301.67) rotate(-150)"/>
  <path class="cls-2" d="M128.12,118.94h7.26c5.49,0,9.95,4.46,9.95,9.95v38.15c0,.61-.5,1.11-1.11,1.11h-25.06c-.61,0-1.11-.5-1.11-1.11v-38.04c0-5.55,4.51-10.06,10.06-10.06Z" transform="translate(317.51 202) rotate(150)"/>
  <path class="cls-2" d="M148.26,95.41h7.26c5.49,0,9.95,4.46,9.95,9.95v38.15c0,.61-.5,1.11-1.11,1.11h-25.06c-.61,0-1.11-.5-1.11-1.11v-38.04c0-5.55,4.51-10.06,10.06-10.06Z" transform="translate(331.68 48.52) rotate(120)"/>
  <path class="cls-2" d="M144.38,33.77h7.26c5.49,0,9.95,4.46,9.95,9.95v38.15c0,.61-.5,1.11-1.11,1.11h-25.06c-.61,0-1.11-.5-1.11-1.11v-38.04c0-5.55,4.51-10.06,10.06-10.06Z" transform="translate(124.53 -98.95) rotate(60)"/>
  <path class="cls-2" d="M122.89,14.61h7.26c5.49,0,9.95,4.46,9.95,9.95v38.15c0,.61-.5,1.11-1.11,1.11h-25.06c-.61,0-1.11-.5-1.11-1.11V24.68c0-5.55,4.51-10.06,10.06-10.06Z" transform="translate(36.55 -57.98) rotate(30)"/>
  <circle class="cls-1" cx="98.14" cy="91.65" r="53.64"/>
</svg>