<?xml version="1.0" encoding="UTF-8"?>
<svg id="Layer_1" data-name="Layer 1" xmlns="http://www.w3.org/2000/svg" viewBox="0 0 195.99 109.48">
  <defs>
    <style>
      .cls-1 {
        fill: none;
        stroke: #77594f;
        stroke-linecap: round;
        stroke-miterlimit: 10;
        stroke-width: 5.76px;
      }

      .cls-2 {
        fill: #77594f;
      }

      .cls-3 {
        fill: #efeff0;
      }
    </style>
  </defs>
  <path class="cls-3" d="M104.92,47.55c2.28-1.9,4.87-.38,6.5-2.46.96-1.22.53-2.35.24-7.19-.33-5.48-.47-8.28.67-10.7,1.38-2.93,3.93-4.44,4.58-4.81,2.04-1.16,4.37-1.6,22.3,1.96,2.04.41,4.9.98,8.61,1.93,0,0,3.7.95,7.09,1.99,12,3.72,22.53,6.99,28.92,15.9,1.67,2.33,4.32,6.03,4.16,10.98-.21,6.49-5.11,10.98-8.31,13.91-6.08,5.57-12.7,7.79-25.69,11.99-1.74.56-3.27,1.03-4.73,1.45-4.17,1.2-7.42,1.96-9.43,2.42-16.14,3.68-18.44,3.17-20.03,2.61-1.26-.45-3.97-1.45-5.88-4.05-2.06-2.82-2.15-6.12-2.2-9.58-.09-6.28,1.67-8.63,0-10.54-1.67-1.91-4.07-.29-6.45-2.15-3.59-2.8-3.71-10.85-.35-13.66Z"/>
  <path class="cls-2" d="M96.21,46.08c-41.32-12.35-74.08-14.76-81.46-4.94-4.78,6.36-4.71,12.84-4.71,12.84s.08,6.88,5.61,13.83c8.08,10.15,40.85,7.75,81.3-4.88"/>
  <rect class="cls-3" x="84.89" y="45.62" width="31.34" height="17.49" rx="8.74" ry="8.74" transform="translate(154.93 -46.2) rotate(90)"/>
  <circle class="cls-3" cx="31.3" cy="54.37" r="8.56"/>
  <path class="cls-1" d="M128.03,32.1c6.39,1.14,14.35,3.15,23.07,6.78,9.45,3.93,16.95,8.59,22.49,12.61,1.24.58,1.94,1.86,1.69,3.04-.17.79-.7,1.52-1.61,1.94-4.13,3.66-10.51,8.46-19.27,12.15-11.47,4.83-21.74,5.55-27.94,5.5"/>
</svg>